<svg width="372" height="380" viewBox="0 0 372 380" fill="none" xmlns="http://www.w3.org/2000/svg">
<path d="M135.455 134C135.281 134 135.143 133.948 135.039 133.844C134.935 133.74 134.883 133.601 134.883 133.428V116.398C134.883 116.225 134.935 116.086 135.039 115.982C135.143 115.861 135.281 115.8 135.455 115.8H145.595C145.785 115.8 145.933 115.852 146.037 115.956C146.141 116.06 146.193 116.207 146.193 116.398V116.788C146.193 116.961 146.132 117.1 146.011 117.204C145.907 117.308 145.768 117.36 145.595 117.36H136.521V123.99H145.023C145.213 123.99 145.361 124.042 145.465 124.146C145.569 124.25 145.621 124.397 145.621 124.588V124.978C145.621 125.151 145.56 125.29 145.439 125.394C145.335 125.498 145.196 125.55 145.023 125.55H136.521V132.44H145.803C145.993 132.44 146.141 132.492 146.245 132.596C146.349 132.7 146.401 132.847 146.401 133.038V133.428C146.401 133.601 146.34 133.74 146.219 133.844C146.115 133.948 145.976 134 145.803 134H135.455ZM149.125 134C148.987 134 148.865 133.948 148.761 133.844C148.657 133.74 148.605 133.619 148.605 133.48C148.605 133.359 148.64 133.246 148.709 133.142L154.767 124.744L148.943 116.658C148.874 116.554 148.839 116.441 148.839 116.32C148.839 116.181 148.891 116.06 148.995 115.956C149.099 115.852 149.221 115.8 149.359 115.8H149.983C150.209 115.8 150.408 115.93 150.581 116.19L155.807 123.47L160.929 116.19C161.12 115.93 161.319 115.8 161.527 115.8H162.099C162.238 115.8 162.359 115.852 162.463 115.956C162.567 116.06 162.619 116.181 162.619 116.32C162.619 116.441 162.585 116.554 162.515 116.658L156.769 124.796L162.801 133.142C162.871 133.246 162.905 133.359 162.905 133.48C162.905 133.619 162.853 133.74 162.749 133.844C162.645 133.948 162.524 134 162.385 134H161.761C161.553 134 161.354 133.87 161.163 133.61L155.729 126.096L150.295 133.61C150.122 133.87 149.923 134 149.697 134H149.125ZM171.767 134.26C169.514 134.26 167.824 133.627 166.697 132.362C165.571 131.079 164.964 129.363 164.877 127.214C164.86 126.746 164.851 125.983 164.851 124.926C164.851 123.851 164.86 123.071 164.877 122.586C164.964 120.437 165.571 118.729 166.697 117.464C167.824 116.181 169.514 115.54 171.767 115.54C173.31 115.54 174.593 115.826 175.615 116.398C176.638 116.953 177.392 117.663 177.877 118.53C178.38 119.379 178.657 120.255 178.709 121.156V121.208C178.709 121.347 178.657 121.459 178.553 121.546C178.449 121.633 178.319 121.676 178.163 121.676H177.643C177.331 121.676 177.141 121.494 177.071 121.13C176.742 119.657 176.144 118.617 175.277 118.01C174.411 117.403 173.241 117.1 171.767 117.1C170.138 117.1 168.873 117.559 167.971 118.478C167.07 119.397 166.585 120.809 166.515 122.716C166.498 123.184 166.489 123.903 166.489 124.874C166.489 125.845 166.498 126.581 166.515 127.084C166.585 128.991 167.07 130.403 167.971 131.322C168.873 132.241 170.138 132.7 171.767 132.7C173.241 132.7 174.411 132.397 175.277 131.79C176.144 131.183 176.742 130.143 177.071 128.67C177.141 128.306 177.331 128.124 177.643 128.124H178.163C178.319 128.124 178.449 128.176 178.553 128.28C178.675 128.367 178.727 128.488 178.709 128.644C178.657 129.545 178.38 130.429 177.877 131.296C177.392 132.145 176.638 132.856 175.615 133.428C174.593 133.983 173.31 134.26 171.767 134.26ZM183.113 134C182.939 134 182.801 133.948 182.697 133.844C182.593 133.74 182.541 133.601 182.541 133.428V116.372C182.541 116.199 182.593 116.06 182.697 115.956C182.801 115.852 182.939 115.8 183.113 115.8H183.607C183.78 115.8 183.919 115.852 184.023 115.956C184.127 116.06 184.179 116.199 184.179 116.372V133.428C184.179 133.601 184.127 133.74 184.023 133.844C183.919 133.948 183.78 134 183.607 134H183.113ZM193.616 134C193.443 134 193.304 133.948 193.2 133.844C193.096 133.74 193.044 133.601 193.044 133.428V117.36H187.896C187.723 117.36 187.584 117.308 187.48 117.204C187.376 117.1 187.324 116.961 187.324 116.788V116.398C187.324 116.225 187.376 116.086 187.48 115.982C187.584 115.861 187.723 115.8 187.896 115.8H199.804C199.995 115.8 200.142 115.852 200.246 115.956C200.35 116.06 200.402 116.207 200.402 116.398V116.788C200.402 116.961 200.342 117.1 200.22 117.204C200.116 117.308 199.978 117.36 199.804 117.36H194.682V133.428C194.682 133.601 194.622 133.74 194.5 133.844C194.396 133.948 194.258 134 194.084 134H193.616ZM204.111 134C203.938 134 203.799 133.948 203.695 133.844C203.591 133.74 203.539 133.601 203.539 133.428V116.372C203.539 116.199 203.591 116.06 203.695 115.956C203.799 115.852 203.938 115.8 204.111 115.8H204.605C204.778 115.8 204.917 115.852 205.021 115.956C205.125 116.06 205.177 116.199 205.177 116.372V133.428C205.177 133.601 205.125 133.74 205.021 133.844C204.917 133.948 204.778 134 204.605 134H204.111ZM210.636 134C210.463 134 210.324 133.948 210.22 133.844C210.116 133.74 210.064 133.601 210.064 133.428V116.398C210.064 116.225 210.116 116.086 210.22 115.982C210.324 115.861 210.463 115.8 210.636 115.8H211.182C211.408 115.8 211.59 115.904 211.728 116.112L221.322 130.776V116.398C221.322 116.225 221.374 116.086 221.478 115.982C221.582 115.861 221.721 115.8 221.894 115.8H222.362C222.553 115.8 222.7 115.852 222.804 115.956C222.908 116.06 222.96 116.207 222.96 116.398V133.402C222.96 133.575 222.908 133.723 222.804 133.844C222.7 133.948 222.562 134 222.388 134H221.816C221.591 134 221.409 133.896 221.27 133.688L211.702 119.076V133.428C211.702 133.601 211.642 133.74 211.52 133.844C211.416 133.948 211.278 134 211.104 134H210.636ZM234.078 134.26C231.911 134.26 230.23 133.636 229.034 132.388C227.838 131.14 227.205 129.467 227.136 127.37C227.118 126.85 227.11 126.027 227.11 124.9C227.11 123.773 227.118 122.95 227.136 122.43C227.205 120.333 227.838 118.66 229.034 117.412C230.23 116.164 231.911 115.54 234.078 115.54C235.551 115.54 236.79 115.817 237.796 116.372C238.801 116.927 239.546 117.585 240.032 118.348C240.534 119.093 240.803 119.761 240.838 120.35V120.402C240.838 120.541 240.786 120.653 240.682 120.74C240.578 120.827 240.448 120.87 240.292 120.87H239.72C239.564 120.87 239.451 120.835 239.382 120.766C239.312 120.697 239.243 120.558 239.174 120.35C238.879 119.431 238.307 118.66 237.458 118.036C236.626 117.412 235.499 117.1 234.078 117.1C232.466 117.1 231.192 117.542 230.256 118.426C229.337 119.31 228.843 120.688 228.774 122.56C228.756 123.08 228.748 123.86 228.748 124.9C228.748 125.94 228.756 126.72 228.774 127.24C228.843 129.112 229.337 130.49 230.256 131.374C231.192 132.258 232.466 132.7 234.078 132.7C235.69 132.7 236.99 132.241 237.978 131.322C238.966 130.403 239.46 129.043 239.46 127.24V125.914H234.936C234.762 125.914 234.624 125.862 234.52 125.758C234.416 125.637 234.364 125.489 234.364 125.316V124.952C234.364 124.779 234.416 124.64 234.52 124.536C234.624 124.415 234.762 124.354 234.936 124.354H240.5C240.69 124.354 240.838 124.406 240.942 124.51C241.046 124.614 241.098 124.761 241.098 124.952V127.24C241.098 128.627 240.82 129.849 240.266 130.906C239.711 131.963 238.905 132.787 237.848 133.376C236.79 133.965 235.534 134.26 234.078 134.26Z" fill="white"/>
<path d="M134.674 155.128C134.567 155.128 134.476 155.091 134.402 155.016C134.327 154.941 134.29 154.851 134.29 154.744V153.656C134.29 153.549 134.327 153.459 134.402 153.384C134.476 153.309 134.567 153.272 134.674 153.272H139.602C139.719 153.272 139.81 153.309 139.874 153.384C139.948 153.448 139.986 153.539 139.986 153.656V154.744C139.986 154.851 139.948 154.941 139.874 155.016C139.799 155.091 139.708 155.128 139.602 155.128H134.674ZM148.098 159.16C147.554 159.16 147.053 159.053 146.594 158.84C146.146 158.616 145.789 158.317 145.522 157.944C145.266 157.571 145.138 157.16 145.138 156.712C145.138 155.987 145.431 155.4 146.018 154.952C146.605 154.504 147.41 154.2 148.434 154.04L150.626 153.72V153.384C150.626 152.925 150.509 152.579 150.274 152.344C150.039 152.109 149.666 151.992 149.154 151.992C148.802 151.992 148.519 152.056 148.306 152.184C148.093 152.312 147.917 152.445 147.778 152.584C147.65 152.712 147.565 152.797 147.522 152.84C147.479 152.968 147.399 153.032 147.282 153.032H146.034C145.938 153.032 145.853 153 145.778 152.936C145.714 152.872 145.682 152.787 145.682 152.68C145.693 152.413 145.821 152.115 146.066 151.784C146.322 151.443 146.711 151.149 147.234 150.904C147.757 150.648 148.402 150.52 149.17 150.52C150.429 150.52 151.346 150.803 151.922 151.368C152.498 151.933 152.786 152.675 152.786 153.592V158.616C152.786 158.723 152.749 158.813 152.674 158.888C152.61 158.963 152.519 159 152.402 159H151.074C150.967 159 150.877 158.963 150.802 158.888C150.727 158.813 150.69 158.723 150.69 158.616V157.992C150.455 158.333 150.125 158.616 149.698 158.84C149.271 159.053 148.738 159.16 148.098 159.16ZM148.642 157.624C149.229 157.624 149.709 157.432 150.082 157.048C150.455 156.664 150.642 156.109 150.642 155.384V155.064L149.042 155.32C147.815 155.512 147.202 155.923 147.202 156.552C147.202 156.893 147.341 157.16 147.618 157.352C147.906 157.533 148.247 157.624 148.642 157.624ZM158.006 159.16C157.195 159.16 156.518 159.037 155.974 158.792C155.43 158.547 155.025 158.264 154.758 157.944C154.502 157.613 154.374 157.331 154.374 157.096C154.374 156.989 154.406 156.904 154.47 156.84C154.545 156.776 154.63 156.744 154.726 156.744H156.038C156.123 156.744 156.198 156.787 156.262 156.872C156.315 156.915 156.433 157.016 156.614 157.176C156.806 157.336 157.019 157.464 157.254 157.56C157.499 157.645 157.766 157.688 158.054 157.688C158.481 157.688 158.827 157.608 159.094 157.448C159.361 157.277 159.494 157.037 159.494 156.728C159.494 156.515 159.43 156.344 159.302 156.216C159.185 156.077 158.966 155.955 158.646 155.848C158.337 155.731 157.867 155.603 157.238 155.464C156.331 155.272 155.659 154.979 155.222 154.584C154.795 154.189 154.582 153.667 154.582 153.016C154.582 152.589 154.71 152.189 154.966 151.816C155.222 151.432 155.601 151.123 156.102 150.888C156.614 150.643 157.222 150.52 157.926 150.52C158.651 150.52 159.275 150.637 159.798 150.872C160.321 151.096 160.715 151.368 160.982 151.688C161.259 152.008 161.398 152.291 161.398 152.536C161.398 152.632 161.361 152.717 161.286 152.792C161.222 152.856 161.142 152.888 161.046 152.888H159.846C159.729 152.888 159.638 152.845 159.574 152.76C159.499 152.707 159.377 152.611 159.206 152.472C159.046 152.323 158.865 152.205 158.662 152.12C158.459 152.035 158.214 151.992 157.926 151.992C157.531 151.992 157.227 152.077 157.014 152.248C156.801 152.419 156.694 152.643 156.694 152.92C156.694 153.112 156.742 153.272 156.838 153.4C156.945 153.528 157.153 153.651 157.462 153.768C157.771 153.875 158.235 153.987 158.854 154.104C160.774 154.477 161.734 155.315 161.734 156.616C161.734 157.373 161.403 157.987 160.742 158.456C160.091 158.925 159.179 159.16 158.006 159.16ZM169.426 159.16C168.882 159.16 168.381 159.053 167.922 158.84C167.474 158.616 167.117 158.317 166.85 157.944C166.594 157.571 166.466 157.16 166.466 156.712C166.466 155.987 166.759 155.4 167.346 154.952C167.933 154.504 168.738 154.2 169.762 154.04L171.954 153.72V153.384C171.954 152.925 171.837 152.579 171.602 152.344C171.367 152.109 170.994 151.992 170.482 151.992C170.13 151.992 169.847 152.056 169.634 152.184C169.421 152.312 169.245 152.445 169.106 152.584C168.978 152.712 168.893 152.797 168.85 152.84C168.807 152.968 168.727 153.032 168.61 153.032H167.362C167.266 153.032 167.181 153 167.106 152.936C167.042 152.872 167.01 152.787 167.01 152.68C167.021 152.413 167.149 152.115 167.394 151.784C167.65 151.443 168.039 151.149 168.562 150.904C169.085 150.648 169.73 150.52 170.498 150.52C171.757 150.52 172.674 150.803 173.25 151.368C173.826 151.933 174.114 152.675 174.114 153.592V158.616C174.114 158.723 174.077 158.813 174.002 158.888C173.938 158.963 173.847 159 173.73 159H172.402C172.295 159 172.205 158.963 172.13 158.888C172.055 158.813 172.018 158.723 172.018 158.616V157.992C171.783 158.333 171.453 158.616 171.026 158.84C170.599 159.053 170.066 159.16 169.426 159.16ZM169.97 157.624C170.557 157.624 171.037 157.432 171.41 157.048C171.783 156.664 171.97 156.109 171.97 155.384V155.064L170.37 155.32C169.143 155.512 168.53 155.923 168.53 156.552C168.53 156.893 168.669 157.16 168.946 157.352C169.234 157.533 169.575 157.624 169.97 157.624ZM183.567 162.52C182.618 162.52 181.85 162.36 181.263 162.04C180.676 161.731 180.26 161.373 180.015 160.968C179.77 160.563 179.647 160.216 179.647 159.928C179.647 159.821 179.684 159.731 179.759 159.656C179.834 159.592 179.924 159.56 180.031 159.56H181.455C181.551 159.56 181.631 159.581 181.695 159.624C181.77 159.677 181.828 159.768 181.871 159.896C181.988 160.173 182.164 160.408 182.399 160.6C182.634 160.803 182.996 160.904 183.487 160.904C184.127 160.904 184.596 160.76 184.895 160.472C185.194 160.195 185.343 159.704 185.343 159V157.912C184.767 158.595 183.951 158.936 182.895 158.936C181.786 158.936 180.948 158.6 180.383 157.928C179.828 157.256 179.53 156.339 179.487 155.176L179.471 154.744L179.487 154.312C179.53 153.171 179.834 152.253 180.399 151.56C180.964 150.867 181.796 150.52 182.895 150.52C183.46 150.52 183.956 150.627 184.383 150.84C184.81 151.053 185.162 151.341 185.439 151.704V151.08C185.439 150.963 185.476 150.867 185.551 150.792C185.636 150.717 185.732 150.68 185.839 150.68H187.151C187.258 150.68 187.348 150.717 187.423 150.792C187.498 150.867 187.535 150.963 187.535 151.08L187.551 158.792C187.551 159.976 187.22 160.893 186.559 161.544C185.898 162.195 184.9 162.52 183.567 162.52ZM183.503 157.24C184.1 157.24 184.548 157.048 184.847 156.664C185.146 156.28 185.311 155.811 185.343 155.256C185.354 155.171 185.359 155 185.359 154.744C185.359 154.488 185.354 154.317 185.343 154.232C185.311 153.677 185.146 153.208 184.847 152.824C184.548 152.44 184.1 152.248 183.503 152.248C182.351 152.248 181.743 152.952 181.679 154.36L181.663 154.744C181.663 156.408 182.276 157.24 183.503 157.24ZM192.082 159.16C191.538 159.16 191.037 159.053 190.578 158.84C190.13 158.616 189.773 158.317 189.506 157.944C189.25 157.571 189.122 157.16 189.122 156.712C189.122 155.987 189.416 155.4 190.002 154.952C190.589 154.504 191.394 154.2 192.418 154.04L194.61 153.72V153.384C194.61 152.925 194.493 152.579 194.258 152.344C194.024 152.109 193.65 151.992 193.138 151.992C192.786 151.992 192.504 152.056 192.29 152.184C192.077 152.312 191.901 152.445 191.762 152.584C191.634 152.712 191.549 152.797 191.506 152.84C191.464 152.968 191.384 153.032 191.266 153.032H190.018C189.922 153.032 189.837 153 189.762 152.936C189.698 152.872 189.666 152.787 189.666 152.68C189.677 152.413 189.805 152.115 190.05 151.784C190.306 151.443 190.696 151.149 191.218 150.904C191.741 150.648 192.386 150.52 193.154 150.52C194.413 150.52 195.33 150.803 195.906 151.368C196.482 151.933 196.77 152.675 196.77 153.592V158.616C196.77 158.723 196.733 158.813 196.658 158.888C196.594 158.963 196.504 159 196.386 159H195.058C194.952 159 194.861 158.963 194.786 158.888C194.712 158.813 194.674 158.723 194.674 158.616V157.992C194.44 158.333 194.109 158.616 193.682 158.84C193.256 159.053 192.722 159.16 192.082 159.16ZM192.626 157.624C193.213 157.624 193.693 157.432 194.066 157.048C194.44 156.664 194.626 156.109 194.626 155.384V155.064L193.026 155.32C191.8 155.512 191.186 155.923 191.186 156.552C191.186 156.893 191.325 157.16 191.602 157.352C191.89 157.533 192.232 157.624 192.626 157.624ZM199.207 159C199.1 159 199.009 158.963 198.935 158.888C198.86 158.813 198.823 158.723 198.823 158.616V151.064C198.823 150.947 198.86 150.856 198.935 150.792C199.009 150.717 199.1 150.68 199.207 150.68H200.471C200.588 150.68 200.679 150.717 200.743 150.792C200.817 150.856 200.855 150.947 200.855 151.064V151.608C201.431 150.883 202.204 150.52 203.175 150.52C204.359 150.52 205.185 150.995 205.655 151.944C205.911 151.517 206.273 151.176 206.743 150.92C207.212 150.653 207.719 150.52 208.263 150.52C209.137 150.52 209.852 150.819 210.407 151.416C210.961 152.013 211.239 152.883 211.239 154.024V158.616C211.239 158.723 211.201 158.813 211.127 158.888C211.063 158.963 210.972 159 210.855 159H209.527C209.42 159 209.329 158.963 209.255 158.888C209.18 158.813 209.143 158.723 209.143 158.616V154.152C209.143 153.48 208.999 152.995 208.711 152.696C208.433 152.397 208.065 152.248 207.607 152.248C207.191 152.248 206.833 152.403 206.535 152.712C206.247 153.011 206.103 153.491 206.103 154.152V158.616C206.103 158.723 206.065 158.813 205.991 158.888C205.927 158.963 205.836 159 205.719 159H204.375C204.268 159 204.177 158.963 204.103 158.888C204.028 158.813 203.991 158.723 203.991 158.616V154.152C203.991 153.491 203.847 153.011 203.559 152.712C203.271 152.403 202.903 152.248 202.455 152.248C202.039 152.248 201.681 152.403 201.383 152.712C201.095 153.011 200.951 153.491 200.951 154.152V158.616C200.951 158.723 200.913 158.813 200.839 158.888C200.775 158.963 200.684 159 200.567 159H199.207ZM216.876 159.16C215.681 159.16 214.732 158.819 214.028 158.136C213.334 157.453 212.966 156.483 212.924 155.224L212.908 154.824C212.908 153.491 213.254 152.44 213.948 151.672C214.652 150.904 215.622 150.52 216.86 150.52C218.129 150.52 219.105 150.904 219.788 151.672C220.481 152.44 220.828 153.464 220.828 154.744V155.08C220.828 155.187 220.79 155.277 220.716 155.352C220.641 155.427 220.545 155.464 220.428 155.464H215.116V155.592C215.137 156.189 215.297 156.685 215.596 157.08C215.905 157.464 216.326 157.656 216.86 157.656C217.468 157.656 217.964 157.411 218.348 156.92C218.444 156.803 218.518 156.733 218.572 156.712C218.625 156.68 218.716 156.664 218.844 156.664H220.252C220.348 156.664 220.428 156.691 220.492 156.744C220.566 156.797 220.604 156.872 220.604 156.968C220.604 157.224 220.449 157.528 220.14 157.88C219.841 158.221 219.409 158.52 218.844 158.776C218.278 159.032 217.622 159.16 216.876 159.16ZM218.62 154.104V154.072C218.62 153.443 218.46 152.941 218.14 152.568C217.83 152.184 217.404 151.992 216.86 151.992C216.316 151.992 215.889 152.184 215.58 152.568C215.27 152.941 215.116 153.443 215.116 154.072V154.104H218.62ZM226.486 155.128C226.38 155.128 226.289 155.091 226.214 155.016C226.14 154.941 226.102 154.851 226.102 154.744V153.656C226.102 153.549 226.14 153.459 226.214 153.384C226.289 153.309 226.38 153.272 226.486 153.272H231.414C231.532 153.272 231.622 153.309 231.686 153.384C231.761 153.448 231.798 153.539 231.798 153.656V154.744C231.798 154.851 231.761 154.941 231.686 155.016C231.612 155.091 231.521 155.128 231.414 155.128H226.486Z" fill="#468AF9"/>
<path d="M160.584 277C160.484 277 160.409 276.97 160.359 276.91C160.309 276.85 160.294 276.77 160.314 276.67L161.829 269.53C161.849 269.43 161.894 269.35 161.964 269.29C162.044 269.23 162.134 269.2 162.234 269.2H162.489C162.589 269.2 162.659 269.23 162.699 269.29C162.749 269.35 162.764 269.43 162.744 269.53L162.639 270.055C162.979 269.705 163.314 269.45 163.644 269.29C163.974 269.13 164.374 269.05 164.844 269.05C165.414 269.05 165.899 269.175 166.299 269.425C166.699 269.665 166.964 270.01 167.094 270.46C167.804 269.52 168.704 269.05 169.794 269.05C170.494 269.05 171.064 269.255 171.504 269.665C171.944 270.075 172.164 270.655 172.164 271.405C172.164 271.695 172.129 271.995 172.059 272.305L171.129 276.67C171.109 276.77 171.064 276.85 170.994 276.91C170.924 276.97 170.839 277 170.739 277H170.484C170.384 277 170.309 276.97 170.259 276.91C170.209 276.85 170.194 276.77 170.214 276.67L171.114 272.455C171.194 272.095 171.234 271.75 171.234 271.42C171.234 270.42 170.744 269.92 169.764 269.92C169.204 269.92 168.664 270.12 168.144 270.52C167.624 270.92 167.269 271.565 167.079 272.455L166.179 276.67C166.159 276.77 166.114 276.85 166.044 276.91C165.974 276.97 165.889 277 165.789 277H165.534C165.434 277 165.359 276.97 165.309 276.91C165.259 276.85 165.244 276.77 165.264 276.67L166.164 272.455C166.244 272.055 166.284 271.725 166.284 271.465C166.284 270.915 166.149 270.52 165.879 270.28C165.619 270.04 165.264 269.92 164.814 269.92C164.254 269.92 163.714 270.12 163.194 270.52C162.674 270.92 162.319 271.56 162.129 272.44L161.229 276.67C161.209 276.77 161.164 276.85 161.094 276.91C161.024 276.97 160.939 277 160.839 277H160.584ZM176.423 277.15C175.543 277.15 174.863 276.91 174.383 276.43C173.903 275.94 173.663 275.295 173.663 274.495C173.663 274.285 173.688 274.03 173.738 273.73C173.768 273.54 173.808 273.33 173.858 273.1C173.908 272.87 173.958 272.66 174.008 272.47C174.258 271.45 174.718 270.625 175.388 269.995C176.068 269.365 176.928 269.05 177.968 269.05C178.868 269.05 179.553 269.29 180.023 269.77C180.503 270.25 180.743 270.89 180.743 271.69C180.743 271.91 180.718 272.17 180.668 272.47C180.548 273.07 180.458 273.49 180.398 273.73C180.148 274.75 179.683 275.575 179.003 276.205C178.323 276.835 177.463 277.15 176.423 277.15ZM176.423 276.28C177.153 276.28 177.798 276.05 178.358 275.59C178.918 275.13 179.298 274.485 179.498 273.655C179.558 273.415 179.638 273.045 179.738 272.545C179.788 272.245 179.813 271.99 179.813 271.78C179.813 271.17 179.653 270.71 179.333 270.4C179.023 270.08 178.568 269.92 177.968 269.92C177.238 269.92 176.593 270.15 176.033 270.61C175.483 271.07 175.108 271.715 174.908 272.545C174.808 272.875 174.728 273.245 174.668 273.655C174.618 273.975 174.593 274.235 174.593 274.435C174.593 275.035 174.748 275.495 175.058 275.815C175.368 276.125 175.823 276.28 176.423 276.28ZM182.103 277C182.003 277 181.928 276.97 181.878 276.91C181.828 276.85 181.813 276.77 181.833 276.67L183.348 269.545C183.368 269.445 183.413 269.365 183.483 269.305C183.563 269.235 183.653 269.2 183.753 269.2H183.993C184.093 269.2 184.168 269.235 184.218 269.305C184.268 269.365 184.283 269.445 184.263 269.545L184.113 270.235C184.343 269.895 184.648 269.64 185.028 269.47C185.418 269.29 185.868 269.2 186.378 269.2H186.933C187.033 269.2 187.103 269.23 187.143 269.29C187.193 269.35 187.208 269.43 187.188 269.53L187.143 269.74C187.133 269.84 187.088 269.92 187.008 269.98C186.938 270.04 186.853 270.07 186.753 270.07H186.108C185.508 270.07 184.993 270.245 184.563 270.595C184.143 270.945 183.868 271.42 183.738 272.02L182.748 276.67C182.728 276.77 182.678 276.85 182.598 276.91C182.528 276.97 182.443 277 182.343 277H182.103ZM189.945 277.15C189.115 277.15 188.475 276.905 188.025 276.415C187.575 275.925 187.35 275.26 187.35 274.42C187.35 274.19 187.365 273.95 187.395 273.7C187.445 273.4 187.53 273 187.65 272.5C187.95 271.46 188.455 270.625 189.165 269.995C189.875 269.365 190.71 269.05 191.67 269.05C192.52 269.05 193.17 269.285 193.62 269.755C194.07 270.215 194.295 270.865 194.295 271.705C194.295 272.075 194.25 272.48 194.16 272.92L194.115 273.145C194.095 273.245 194.045 273.325 193.965 273.385C193.885 273.445 193.795 273.475 193.695 273.475H188.355L188.325 273.625C188.295 273.815 188.28 274.005 188.28 274.195C188.28 274.795 188.44 275.295 188.76 275.695C189.08 276.085 189.535 276.28 190.125 276.28C190.675 276.28 191.145 276.17 191.535 275.95C191.935 275.73 192.23 275.515 192.42 275.305C192.54 275.185 192.625 275.11 192.675 275.08C192.725 275.05 192.81 275.035 192.93 275.035H193.17C193.25 275.035 193.315 275.055 193.365 275.095C193.415 275.135 193.44 275.19 193.44 275.26C193.44 275.45 193.275 275.7 192.945 276.01C192.625 276.31 192.195 276.575 191.655 276.805C191.125 277.035 190.555 277.15 189.945 277.15ZM193.305 272.635L193.32 272.575C193.37 272.295 193.395 272.055 193.395 271.855C193.395 271.275 193.23 270.81 192.9 270.46C192.57 270.1 192.1 269.92 191.49 269.92C190.76 269.92 190.125 270.17 189.585 270.67C189.055 271.17 188.71 271.805 188.55 272.575L188.535 272.635H193.305ZM199.614 275.74C199.524 275.74 199.459 275.715 199.419 275.665C199.379 275.605 199.364 275.53 199.374 275.44L199.434 275.185C199.454 275.085 199.494 275.005 199.554 274.945C199.614 274.875 199.714 274.8 199.854 274.72L204.819 271.72L201.129 268.72C201.019 268.64 200.949 268.57 200.919 268.51C200.889 268.44 200.884 268.355 200.904 268.255L200.964 268C200.984 267.91 201.024 267.84 201.084 267.79C201.154 267.73 201.234 267.7 201.324 267.7C201.414 267.7 201.534 267.76 201.684 267.88L205.464 270.94C205.664 271.11 205.764 271.285 205.764 271.465C205.764 271.535 205.759 271.59 205.749 271.63L205.719 271.81C205.689 271.95 205.629 272.075 205.539 272.185C205.449 272.285 205.314 272.39 205.134 272.5L200.064 275.56C199.854 275.68 199.704 275.74 199.614 275.74ZM206.821 275.74C206.731 275.74 206.666 275.715 206.626 275.665C206.586 275.605 206.571 275.53 206.581 275.44L206.641 275.185C206.661 275.085 206.701 275.005 206.761 274.945C206.821 274.875 206.921 274.8 207.061 274.72L212.026 271.72L208.336 268.72C208.226 268.64 208.156 268.57 208.126 268.51C208.096 268.44 208.091 268.355 208.111 268.255L208.171 268C208.191 267.91 208.231 267.84 208.291 267.79C208.361 267.73 208.441 267.7 208.531 267.7C208.621 267.7 208.741 267.76 208.891 267.88L212.671 270.94C212.871 271.11 212.971 271.285 212.971 271.465C212.971 271.535 212.966 271.59 212.956 271.63L212.926 271.81C212.896 271.95 212.836 272.075 212.746 272.185C212.656 272.285 212.521 272.39 212.341 272.5L207.271 275.56C207.061 275.68 206.911 275.74 206.821 275.74Z" fill="white"/>
<path d="M82.0554 194C81.9554 194 81.8754 193.97 81.8154 193.91C81.7554 193.85 81.7254 193.77 81.7254 193.67V184.4H78.7554C78.6554 184.4 78.5754 184.37 78.5154 184.31C78.4554 184.25 78.4254 184.17 78.4254 184.07V183.845C78.4254 183.745 78.4554 183.665 78.5154 183.605C78.5754 183.535 78.6554 183.5 78.7554 183.5H85.6254C85.7354 183.5 85.8204 183.53 85.8804 183.59C85.9404 183.65 85.9704 183.735 85.9704 183.845V184.07C85.9704 184.17 85.9354 184.25 85.8654 184.31C85.8054 184.37 85.7254 184.4 85.6254 184.4H82.6704V193.67C82.6704 193.77 82.6354 193.85 82.5654 193.91C82.5054 193.97 82.4254 194 82.3254 194H82.0554ZM87.4402 196.85C87.3602 196.85 87.2902 196.82 87.2302 196.76C87.1702 196.7 87.1402 196.63 87.1402 196.55C87.1402 196.5 87.1702 196.4 87.2302 196.25L88.3852 193.55L85.5202 186.8C85.4602 186.65 85.4302 186.55 85.4302 186.5C85.4302 186.42 85.4602 186.35 85.5202 186.29C85.5802 186.23 85.6502 186.2 85.7302 186.2H86.0452C86.2052 186.2 86.3202 186.275 86.3902 186.425L88.9102 192.365L91.4902 186.425C91.5702 186.275 91.6852 186.2 91.8352 186.2H92.1352C92.2152 186.2 92.2852 186.23 92.3452 186.29C92.4052 186.35 92.4352 186.42 92.4352 186.5C92.4352 186.55 92.4052 186.65 92.3452 186.8L88.0852 196.625C88.0152 196.775 87.9002 196.85 87.7402 196.85H87.4402ZM96.8095 194.15C95.7695 194.15 94.9645 193.85 94.3945 193.25C93.8245 192.64 93.5245 191.79 93.4945 190.7L93.4795 190.1L93.4945 189.5C93.5245 188.41 93.8245 187.565 94.3945 186.965C94.9645 186.355 95.7695 186.05 96.8095 186.05C97.4695 186.05 98.0295 186.17 98.4895 186.41C98.9595 186.64 99.3095 186.94 99.5395 187.31C99.7695 187.67 99.8945 188.045 99.9145 188.435C99.9245 188.525 99.8945 188.605 99.8245 188.675C99.7545 188.735 99.6745 188.765 99.5845 188.765H99.3745C99.2745 188.765 99.1995 188.745 99.1495 188.705C99.1095 188.655 99.0645 188.57 99.0145 188.45C98.8145 187.9 98.5345 187.51 98.1745 187.28C97.8145 187.04 97.3595 186.92 96.8095 186.92C96.0895 186.92 95.5145 187.14 95.0845 187.58C94.6645 188.01 94.4395 188.675 94.4095 189.575L94.3945 190.1L94.4095 190.625C94.4395 191.525 94.6645 192.195 95.0845 192.635C95.5145 193.065 96.0895 193.28 96.8095 193.28C97.3595 193.28 97.8145 193.165 98.1745 192.935C98.5345 192.695 98.8145 192.3 99.0145 191.75C99.0645 191.63 99.1095 191.55 99.1495 191.51C99.1995 191.46 99.2745 191.435 99.3745 191.435H99.5845C99.6745 191.435 99.7545 191.47 99.8245 191.54C99.8945 191.6 99.9245 191.675 99.9145 191.765C99.8945 192.155 99.7695 192.535 99.5395 192.905C99.3095 193.265 98.9595 193.565 98.4895 193.805C98.0295 194.035 97.4695 194.15 96.8095 194.15ZM104.867 194.15C103.827 194.15 103.017 193.835 102.437 193.205C101.867 192.565 101.567 191.74 101.537 190.73L101.522 190.1L101.537 189.47C101.567 188.46 101.867 187.64 102.437 187.01C103.017 186.37 103.827 186.05 104.867 186.05C105.907 186.05 106.712 186.37 107.282 187.01C107.862 187.64 108.167 188.46 108.197 189.47C108.207 189.57 108.212 189.78 108.212 190.1C108.212 190.42 108.207 190.63 108.197 190.73C108.167 191.74 107.862 192.565 107.282 193.205C106.712 193.835 105.907 194.15 104.867 194.15ZM104.867 193.28C105.577 193.28 106.147 193.055 106.577 192.605C107.017 192.145 107.252 191.495 107.282 190.655C107.292 190.555 107.297 190.37 107.297 190.1C107.297 189.83 107.292 189.645 107.282 189.545C107.252 188.705 107.017 188.06 106.577 187.61C106.147 187.15 105.577 186.92 104.867 186.92C104.157 186.92 103.582 187.15 103.142 187.61C102.712 188.06 102.482 188.705 102.452 189.545L102.437 190.1L102.452 190.655C102.482 191.495 102.712 192.145 103.142 192.605C103.582 193.055 104.157 193.28 104.867 193.28ZM113.231 194.15C112.191 194.15 111.381 193.835 110.801 193.205C110.231 192.565 109.931 191.74 109.901 190.73L109.886 190.1L109.901 189.47C109.931 188.46 110.231 187.64 110.801 187.01C111.381 186.37 112.191 186.05 113.231 186.05C114.271 186.05 115.076 186.37 115.646 187.01C116.226 187.64 116.531 188.46 116.561 189.47C116.571 189.57 116.576 189.78 116.576 190.1C116.576 190.42 116.571 190.63 116.561 190.73C116.531 191.74 116.226 192.565 115.646 193.205C115.076 193.835 114.271 194.15 113.231 194.15ZM113.231 193.28C113.941 193.28 114.511 193.055 114.941 192.605C115.381 192.145 115.616 191.495 115.646 190.655C115.656 190.555 115.661 190.37 115.661 190.1C115.661 189.83 115.656 189.645 115.646 189.545C115.616 188.705 115.381 188.06 114.941 187.61C114.511 187.15 113.941 186.92 113.231 186.92C112.521 186.92 111.946 187.15 111.506 187.61C111.076 188.06 110.846 188.705 110.816 189.545L110.801 190.1L110.816 190.655C110.846 191.495 111.076 192.145 111.506 192.605C111.946 193.055 112.521 193.28 113.231 193.28ZM118.955 194C118.855 194 118.775 193.97 118.715 193.91C118.655 193.85 118.625 193.77 118.625 193.67V186.53C118.625 186.43 118.655 186.35 118.715 186.29C118.775 186.23 118.855 186.2 118.955 186.2H119.21C119.31 186.2 119.39 186.23 119.45 186.29C119.51 186.35 119.54 186.43 119.54 186.53V187.235C119.84 186.845 120.18 186.55 120.56 186.35C120.95 186.15 121.45 186.05 122.06 186.05C123.04 186.05 123.795 186.365 124.325 186.995C124.855 187.615 125.12 188.42 125.12 189.41V193.67C125.12 193.77 125.09 193.85 125.03 193.91C124.97 193.97 124.89 194 124.79 194H124.535C124.435 194 124.355 193.97 124.295 193.91C124.235 193.85 124.205 193.77 124.205 193.67V189.485C124.205 188.675 124.005 188.045 123.605 187.595C123.215 187.145 122.65 186.92 121.91 186.92C121.19 186.92 120.615 187.15 120.185 187.61C119.755 188.06 119.54 188.685 119.54 189.485V193.67C119.54 193.77 119.51 193.85 119.45 193.91C119.39 193.97 119.31 194 119.21 194H118.955ZM136.074 184.595C135.974 184.595 135.894 184.565 135.834 184.505C135.774 184.445 135.744 184.365 135.744 184.265V183.695C135.744 183.595 135.774 183.515 135.834 183.455C135.894 183.385 135.974 183.35 136.074 183.35H136.644C136.744 183.35 136.824 183.385 136.884 183.455C136.954 183.515 136.989 183.595 136.989 183.695V184.265C136.989 184.365 136.954 184.445 136.884 184.505C136.824 184.565 136.744 184.595 136.644 184.595H136.074ZM136.239 194C136.139 194 136.059 193.97 135.999 193.91C135.939 193.85 135.909 193.77 135.909 193.67V186.53C135.909 186.43 135.939 186.35 135.999 186.29C136.059 186.23 136.139 186.2 136.239 186.2H136.494C136.594 186.2 136.674 186.23 136.734 186.29C136.794 186.35 136.824 186.43 136.824 186.53V193.67C136.824 193.77 136.794 193.85 136.734 193.91C136.674 193.97 136.594 194 136.494 194H136.239ZM141.723 194.15C141.073 194.15 140.523 194.04 140.073 193.82C139.633 193.6 139.298 193.35 139.068 193.07C138.848 192.79 138.738 192.565 138.738 192.395C138.738 192.305 138.773 192.235 138.843 192.185C138.913 192.125 138.988 192.095 139.068 192.095H139.293C139.363 192.095 139.418 192.11 139.458 192.14C139.508 192.16 139.563 192.21 139.623 192.29C139.843 192.6 140.108 192.845 140.418 193.025C140.738 193.195 141.173 193.28 141.723 193.28C142.343 193.28 142.843 193.165 143.223 192.935C143.603 192.695 143.793 192.355 143.793 191.915C143.793 191.645 143.713 191.425 143.553 191.255C143.403 191.085 143.153 190.94 142.803 190.82C142.463 190.69 141.953 190.545 141.273 190.385C140.383 190.185 139.773 189.91 139.443 189.56C139.123 189.21 138.963 188.765 138.963 188.225C138.963 187.855 139.063 187.505 139.263 187.175C139.473 186.845 139.778 186.575 140.178 186.365C140.588 186.155 141.078 186.05 141.648 186.05C142.248 186.05 142.753 186.155 143.163 186.365C143.583 186.565 143.893 186.8 144.093 187.07C144.303 187.34 144.408 187.56 144.408 187.73C144.408 187.82 144.373 187.895 144.303 187.955C144.243 188.005 144.168 188.03 144.078 188.03H143.853C143.713 188.03 143.603 187.965 143.523 187.835C143.323 187.535 143.093 187.31 142.833 187.16C142.583 187 142.188 186.92 141.648 186.92C141.068 186.92 140.628 187.04 140.328 187.28C140.028 187.52 139.878 187.835 139.878 188.225C139.878 188.465 139.938 188.665 140.058 188.825C140.178 188.985 140.403 189.135 140.733 189.275C141.063 189.405 141.543 189.54 142.173 189.68C143.103 189.89 143.758 190.17 144.138 190.52C144.518 190.87 144.708 191.335 144.708 191.915C144.708 192.325 144.593 192.7 144.363 193.04C144.133 193.38 143.793 193.65 143.343 193.85C142.893 194.05 142.353 194.15 141.723 194.15ZM157.962 194.15C157.012 194.15 156.247 193.84 155.667 193.22C155.087 192.59 154.757 191.75 154.677 190.7L154.662 190.1L154.677 189.5C154.757 188.46 155.082 187.625 155.652 186.995C156.232 186.365 157.002 186.05 157.962 186.05C159.002 186.05 159.812 186.395 160.392 187.085C160.982 187.775 161.277 188.72 161.277 189.92V190.145C161.277 190.245 161.242 190.325 161.172 190.385C161.112 190.445 161.032 190.475 160.932 190.475H155.592V190.625C155.612 191.095 155.717 191.535 155.907 191.945C156.107 192.345 156.382 192.67 156.732 192.92C157.082 193.16 157.492 193.28 157.962 193.28C158.512 193.28 158.957 193.175 159.297 192.965C159.647 192.745 159.897 192.525 160.047 192.305C160.137 192.185 160.202 192.11 160.242 192.08C160.292 192.05 160.377 192.035 160.497 192.035H160.737C160.827 192.035 160.902 192.06 160.962 192.11C161.022 192.16 161.052 192.225 161.052 192.305C161.052 192.515 160.917 192.77 160.647 193.07C160.387 193.36 160.022 193.615 159.552 193.835C159.082 194.045 158.552 194.15 157.962 194.15ZM160.362 189.635V189.575C160.362 188.805 160.142 188.17 159.702 187.67C159.272 187.17 158.692 186.92 157.962 186.92C157.232 186.92 156.652 187.17 156.222 187.67C155.802 188.17 155.592 188.805 155.592 189.575V189.635H160.362ZM162.748 194C162.668 194 162.598 193.97 162.538 193.91C162.478 193.85 162.448 193.78 162.448 193.7C162.448 193.6 162.488 193.5 162.568 193.4L165.208 190.01L162.703 186.8C162.623 186.7 162.583 186.6 162.583 186.5C162.583 186.42 162.613 186.35 162.673 186.29C162.733 186.23 162.803 186.2 162.883 186.2H163.198C163.288 186.2 163.353 186.22 163.393 186.26C163.443 186.29 163.503 186.345 163.573 186.425L165.823 189.32L168.073 186.44C168.083 186.43 168.108 186.4 168.148 186.35C168.188 186.3 168.233 186.265 168.283 186.245C168.333 186.215 168.388 186.2 168.448 186.2H168.748C168.828 186.2 168.898 186.23 168.958 186.29C169.018 186.35 169.048 186.42 169.048 186.5C169.048 186.6 169.008 186.7 168.928 186.8L166.393 190.055L169.033 193.4C169.113 193.5 169.153 193.6 169.153 193.7C169.153 193.78 169.123 193.85 169.063 193.91C169.003 193.97 168.933 194 168.853 194H168.538C168.398 194 168.273 193.925 168.163 193.775L165.793 190.745L163.423 193.775C163.353 193.855 163.293 193.915 163.243 193.955C163.203 193.985 163.138 194 163.048 194H162.748ZM173.681 194.15C172.641 194.15 171.836 193.85 171.266 193.25C170.696 192.64 170.396 191.79 170.366 190.7L170.351 190.1L170.366 189.5C170.396 188.41 170.696 187.565 171.266 186.965C171.836 186.355 172.641 186.05 173.681 186.05C174.341 186.05 174.901 186.17 175.361 186.41C175.831 186.64 176.181 186.94 176.411 187.31C176.641 187.67 176.766 188.045 176.786 188.435C176.796 188.525 176.766 188.605 176.696 188.675C176.626 188.735 176.546 188.765 176.456 188.765H176.246C176.146 188.765 176.071 188.745 176.021 188.705C175.981 188.655 175.936 188.57 175.886 188.45C175.686 187.9 175.406 187.51 175.046 187.28C174.686 187.04 174.231 186.92 173.681 186.92C172.961 186.92 172.386 187.14 171.956 187.58C171.536 188.01 171.311 188.675 171.281 189.575L171.266 190.1L171.281 190.625C171.311 191.525 171.536 192.195 171.956 192.635C172.386 193.065 172.961 193.28 173.681 193.28C174.231 193.28 174.686 193.165 175.046 192.935C175.406 192.695 175.686 192.3 175.886 191.75C175.936 191.63 175.981 191.55 176.021 191.51C176.071 191.46 176.146 191.435 176.246 191.435H176.456C176.546 191.435 176.626 191.47 176.696 191.54C176.766 191.6 176.796 191.675 176.786 191.765C176.766 192.155 176.641 192.535 176.411 192.905C176.181 193.265 175.831 193.565 175.361 193.805C174.901 194.035 174.341 194.15 173.681 194.15ZM178.933 184.595C178.833 184.595 178.753 184.565 178.693 184.505C178.633 184.445 178.603 184.365 178.603 184.265V183.695C178.603 183.595 178.633 183.515 178.693 183.455C178.753 183.385 178.833 183.35 178.933 183.35H179.503C179.603 183.35 179.683 183.385 179.743 183.455C179.813 183.515 179.848 183.595 179.848 183.695V184.265C179.848 184.365 179.813 184.445 179.743 184.505C179.683 184.565 179.603 184.595 179.503 184.595H178.933ZM179.098 194C178.998 194 178.918 193.97 178.858 193.91C178.798 193.85 178.768 193.77 178.768 193.67V186.53C178.768 186.43 178.798 186.35 178.858 186.29C178.918 186.23 178.998 186.2 179.098 186.2H179.353C179.453 186.2 179.533 186.23 179.593 186.29C179.653 186.35 179.683 186.43 179.683 186.53V193.67C179.683 193.77 179.653 193.85 179.593 193.91C179.533 193.97 179.453 194 179.353 194H179.098ZM184.733 194C183.993 194 183.468 193.78 183.158 193.34C182.848 192.89 182.693 192.275 182.693 191.495V187.07H181.523C181.423 187.07 181.343 187.04 181.283 186.98C181.223 186.92 181.193 186.84 181.193 186.74V186.53C181.193 186.43 181.223 186.35 181.283 186.29C181.343 186.23 181.423 186.2 181.523 186.2H182.693V183.68C182.693 183.58 182.723 183.5 182.783 183.44C182.843 183.38 182.923 183.35 183.023 183.35H183.278C183.378 183.35 183.458 183.38 183.518 183.44C183.578 183.5 183.608 183.58 183.608 183.68V186.2H185.468C185.568 186.2 185.648 186.23 185.708 186.29C185.768 186.35 185.798 186.43 185.798 186.53V186.74C185.798 186.84 185.768 186.92 185.708 186.98C185.648 187.04 185.568 187.07 185.468 187.07H183.608V191.435C183.608 191.995 183.698 192.42 183.878 192.71C184.068 192.99 184.378 193.13 184.808 193.13H185.618C185.718 193.13 185.798 193.16 185.858 193.22C185.918 193.28 185.948 193.36 185.948 193.46V193.67C185.948 193.77 185.918 193.85 185.858 193.91C185.798 193.97 185.718 194 185.618 194H184.733ZM187.664 184.595C187.564 184.595 187.484 184.565 187.424 184.505C187.364 184.445 187.334 184.365 187.334 184.265V183.695C187.334 183.595 187.364 183.515 187.424 183.455C187.484 183.385 187.564 183.35 187.664 183.35H188.234C188.334 183.35 188.414 183.385 188.474 183.455C188.544 183.515 188.579 183.595 188.579 183.695V184.265C188.579 184.365 188.544 184.445 188.474 184.505C188.414 184.565 188.334 184.595 188.234 184.595H187.664ZM187.829 194C187.729 194 187.649 193.97 187.589 193.91C187.529 193.85 187.499 193.77 187.499 193.67V186.53C187.499 186.43 187.529 186.35 187.589 186.29C187.649 186.23 187.729 186.2 187.829 186.2H188.084C188.184 186.2 188.264 186.23 188.324 186.29C188.384 186.35 188.414 186.43 188.414 186.53V193.67C188.414 193.77 188.384 193.85 188.324 193.91C188.264 193.97 188.184 194 188.084 194H187.829ZM191.169 194C191.069 194 190.989 193.97 190.929 193.91C190.869 193.85 190.839 193.77 190.839 193.67V186.53C190.839 186.43 190.869 186.35 190.929 186.29C190.989 186.23 191.069 186.2 191.169 186.2H191.424C191.524 186.2 191.604 186.23 191.664 186.29C191.724 186.35 191.754 186.43 191.754 186.53V187.235C192.054 186.845 192.394 186.55 192.774 186.35C193.164 186.15 193.664 186.05 194.274 186.05C195.254 186.05 196.009 186.365 196.539 186.995C197.069 187.615 197.334 188.42 197.334 189.41V193.67C197.334 193.77 197.304 193.85 197.244 193.91C197.184 193.97 197.104 194 197.004 194H196.749C196.649 194 196.569 193.97 196.509 193.91C196.449 193.85 196.419 193.77 196.419 193.67V189.485C196.419 188.675 196.219 188.045 195.819 187.595C195.429 187.145 194.864 186.92 194.124 186.92C193.404 186.92 192.829 187.15 192.399 187.61C191.969 188.06 191.754 188.685 191.754 189.485V193.67C191.754 193.77 191.724 193.85 191.664 193.91C191.604 193.97 191.524 194 191.424 194H191.169ZM202.596 197.3C201.816 197.3 201.191 197.165 200.721 196.895C200.251 196.625 199.921 196.315 199.731 195.965C199.551 195.625 199.461 195.325 199.461 195.065C199.461 194.975 199.491 194.9 199.551 194.84C199.621 194.78 199.701 194.75 199.791 194.75H200.001C200.091 194.75 200.161 194.77 200.211 194.81C200.271 194.86 200.321 194.945 200.361 195.065C200.671 195.975 201.391 196.43 202.521 196.43C203.381 196.43 204.016 196.25 204.426 195.89C204.836 195.54 205.041 194.91 205.041 194V192.965C204.461 193.755 203.621 194.15 202.521 194.15C201.441 194.15 200.641 193.8 200.121 193.1C199.611 192.39 199.341 191.53 199.311 190.52L199.296 190.1L199.311 189.68C199.341 188.67 199.611 187.815 200.121 187.115C200.641 186.405 201.441 186.05 202.521 186.05C203.611 186.05 204.451 186.445 205.041 187.235V186.545C205.041 186.445 205.071 186.365 205.131 186.305C205.191 186.235 205.271 186.2 205.371 186.2H205.611C205.711 186.2 205.791 186.235 205.851 186.305C205.921 186.365 205.956 186.445 205.956 186.545V193.85C205.956 194.92 205.706 195.76 205.206 196.37C204.706 196.99 203.836 197.3 202.596 197.3ZM202.611 193.28C203.401 193.28 203.996 193.02 204.396 192.5C204.796 191.97 205.011 191.35 205.041 190.64C205.051 190.54 205.056 190.36 205.056 190.1C205.056 189.84 205.051 189.66 205.041 189.56C205.011 188.85 204.796 188.235 204.396 187.715C203.996 187.185 203.401 186.92 202.611 186.92C201.801 186.92 201.206 187.18 200.826 187.7C200.456 188.21 200.256 188.87 200.226 189.68L200.211 190.1L200.226 190.52C200.256 191.33 200.456 191.995 200.826 192.515C201.206 193.025 201.801 193.28 202.611 193.28ZM218.938 194.15C218.458 194.15 218.013 194.05 217.603 193.85C217.193 193.65 216.863 193.38 216.613 193.04C216.373 192.7 216.253 192.325 216.253 191.915C216.253 191.255 216.518 190.715 217.048 190.295C217.588 189.875 218.313 189.605 219.223 189.485L221.593 189.155V188.63C221.593 188.08 221.423 187.66 221.083 187.37C220.753 187.07 220.243 186.92 219.553 186.92C219.043 186.92 218.623 187.02 218.293 187.22C217.973 187.42 217.768 187.66 217.678 187.94C217.638 188.06 217.588 188.145 217.528 188.195C217.478 188.235 217.408 188.255 217.318 188.255H217.108C217.018 188.255 216.938 188.225 216.868 188.165C216.808 188.095 216.778 188.015 216.778 187.925C216.778 187.705 216.878 187.45 217.078 187.16C217.278 186.86 217.588 186.6 218.008 186.38C218.428 186.16 218.943 186.05 219.553 186.05C220.623 186.05 221.383 186.305 221.833 186.815C222.283 187.325 222.508 187.945 222.508 188.675V193.67C222.508 193.77 222.478 193.85 222.418 193.91C222.358 193.97 222.278 194 222.178 194H221.923C221.823 194 221.743 193.97 221.683 193.91C221.623 193.85 221.593 193.77 221.593 193.67V192.965C221.373 193.295 221.048 193.575 220.618 193.805C220.198 194.035 219.638 194.15 218.938 194.15ZM219.088 193.28C219.818 193.28 220.418 193.04 220.888 192.56C221.358 192.08 221.593 191.39 221.593 190.49V189.98L219.658 190.25C218.838 190.36 218.218 190.55 217.798 190.82C217.378 191.09 217.168 191.43 217.168 191.84C217.168 192.3 217.358 192.655 217.738 192.905C218.128 193.155 218.578 193.28 219.088 193.28ZM227.355 194.15C226.705 194.15 226.155 194.04 225.705 193.82C225.265 193.6 224.93 193.35 224.7 193.07C224.48 192.79 224.37 192.565 224.37 192.395C224.37 192.305 224.405 192.235 224.475 192.185C224.545 192.125 224.62 192.095 224.7 192.095H224.925C224.995 192.095 225.05 192.11 225.09 192.14C225.14 192.16 225.195 192.21 225.255 192.29C225.475 192.6 225.74 192.845 226.05 193.025C226.37 193.195 226.805 193.28 227.355 193.28C227.975 193.28 228.475 193.165 228.855 192.935C229.235 192.695 229.425 192.355 229.425 191.915C229.425 191.645 229.345 191.425 229.185 191.255C229.035 191.085 228.785 190.94 228.435 190.82C228.095 190.69 227.585 190.545 226.905 190.385C226.015 190.185 225.405 189.91 225.075 189.56C224.755 189.21 224.595 188.765 224.595 188.225C224.595 187.855 224.695 187.505 224.895 187.175C225.105 186.845 225.41 186.575 225.81 186.365C226.22 186.155 226.71 186.05 227.28 186.05C227.88 186.05 228.385 186.155 228.795 186.365C229.215 186.565 229.525 186.8 229.725 187.07C229.935 187.34 230.04 187.56 230.04 187.73C230.04 187.82 230.005 187.895 229.935 187.955C229.875 188.005 229.8 188.03 229.71 188.03H229.485C229.345 188.03 229.235 187.965 229.155 187.835C228.955 187.535 228.725 187.31 228.465 187.16C228.215 187 227.82 186.92 227.28 186.92C226.7 186.92 226.26 187.04 225.96 187.28C225.66 187.52 225.51 187.835 225.51 188.225C225.51 188.465 225.57 188.665 225.69 188.825C225.81 188.985 226.035 189.135 226.365 189.275C226.695 189.405 227.175 189.54 227.805 189.68C228.735 189.89 229.39 190.17 229.77 190.52C230.15 190.87 230.34 191.335 230.34 191.915C230.34 192.325 230.225 192.7 229.995 193.04C229.765 193.38 229.425 193.65 228.975 193.85C228.525 194.05 227.985 194.15 227.355 194.15ZM242.799 194.15C242.319 194.15 241.874 194.05 241.464 193.85C241.054 193.65 240.724 193.38 240.474 193.04C240.234 192.7 240.114 192.325 240.114 191.915C240.114 191.255 240.379 190.715 240.909 190.295C241.449 189.875 242.174 189.605 243.084 189.485L245.454 189.155V188.63C245.454 188.08 245.284 187.66 244.944 187.37C244.614 187.07 244.104 186.92 243.414 186.92C242.904 186.92 242.484 187.02 242.154 187.22C241.834 187.42 241.629 187.66 241.539 187.94C241.499 188.06 241.449 188.145 241.389 188.195C241.339 188.235 241.269 188.255 241.179 188.255H240.969C240.879 188.255 240.799 188.225 240.729 188.165C240.669 188.095 240.639 188.015 240.639 187.925C240.639 187.705 240.739 187.45 240.939 187.16C241.139 186.86 241.449 186.6 241.869 186.38C242.289 186.16 242.804 186.05 243.414 186.05C244.484 186.05 245.244 186.305 245.694 186.815C246.144 187.325 246.369 187.945 246.369 188.675V193.67C246.369 193.77 246.339 193.85 246.279 193.91C246.219 193.97 246.139 194 246.039 194H245.784C245.684 194 245.604 193.97 245.544 193.91C245.484 193.85 245.454 193.77 245.454 193.67V192.965C245.234 193.295 244.909 193.575 244.479 193.805C244.059 194.035 243.499 194.15 242.799 194.15ZM242.949 193.28C243.679 193.28 244.279 193.04 244.749 192.56C245.219 192.08 245.454 191.39 245.454 190.49V189.98L243.519 190.25C242.699 190.36 242.079 190.55 241.659 190.82C241.239 191.09 241.029 191.43 241.029 191.84C241.029 192.3 241.219 192.655 241.599 192.905C241.989 193.155 242.439 193.28 242.949 193.28ZM260.087 197.3C259.307 197.3 258.682 197.165 258.212 196.895C257.742 196.625 257.412 196.315 257.222 195.965C257.042 195.625 256.952 195.325 256.952 195.065C256.952 194.975 256.982 194.9 257.042 194.84C257.112 194.78 257.192 194.75 257.282 194.75H257.492C257.582 194.75 257.652 194.77 257.702 194.81C257.762 194.86 257.812 194.945 257.852 195.065C258.162 195.975 258.882 196.43 260.012 196.43C260.872 196.43 261.507 196.25 261.917 195.89C262.327 195.54 262.532 194.91 262.532 194V192.965C261.952 193.755 261.112 194.15 260.012 194.15C258.932 194.15 258.132 193.8 257.612 193.1C257.102 192.39 256.832 191.53 256.802 190.52L256.787 190.1L256.802 189.68C256.832 188.67 257.102 187.815 257.612 187.115C258.132 186.405 258.932 186.05 260.012 186.05C261.102 186.05 261.942 186.445 262.532 187.235V186.545C262.532 186.445 262.562 186.365 262.622 186.305C262.682 186.235 262.762 186.2 262.862 186.2H263.102C263.202 186.2 263.282 186.235 263.342 186.305C263.412 186.365 263.447 186.445 263.447 186.545V193.85C263.447 194.92 263.197 195.76 262.697 196.37C262.197 196.99 261.327 197.3 260.087 197.3ZM260.102 193.28C260.892 193.28 261.487 193.02 261.887 192.5C262.287 191.97 262.502 191.35 262.532 190.64C262.542 190.54 262.547 190.36 262.547 190.1C262.547 189.84 262.542 189.66 262.532 189.56C262.502 188.85 262.287 188.235 261.887 187.715C261.487 187.185 260.892 186.92 260.102 186.92C259.292 186.92 258.697 187.18 258.317 187.7C257.947 188.21 257.747 188.87 257.717 189.68L257.702 190.1L257.717 190.52C257.747 191.33 257.947 191.995 258.317 192.515C258.697 193.025 259.292 193.28 260.102 193.28ZM267.992 194.15C267.512 194.15 267.067 194.05 266.657 193.85C266.247 193.65 265.917 193.38 265.667 193.04C265.427 192.7 265.307 192.325 265.307 191.915C265.307 191.255 265.572 190.715 266.102 190.295C266.642 189.875 267.367 189.605 268.277 189.485L270.647 189.155V188.63C270.647 188.08 270.477 187.66 270.137 187.37C269.807 187.07 269.297 186.92 268.607 186.92C268.097 186.92 267.677 187.02 267.347 187.22C267.027 187.42 266.822 187.66 266.732 187.94C266.692 188.06 266.642 188.145 266.582 188.195C266.532 188.235 266.462 188.255 266.372 188.255H266.162C266.072 188.255 265.992 188.225 265.922 188.165C265.862 188.095 265.832 188.015 265.832 187.925C265.832 187.705 265.932 187.45 266.132 187.16C266.332 186.86 266.642 186.6 267.062 186.38C267.482 186.16 267.997 186.05 268.607 186.05C269.677 186.05 270.437 186.305 270.887 186.815C271.337 187.325 271.562 187.945 271.562 188.675V193.67C271.562 193.77 271.532 193.85 271.472 193.91C271.412 193.97 271.332 194 271.232 194H270.977C270.877 194 270.797 193.97 270.737 193.91C270.677 193.85 270.647 193.77 270.647 193.67V192.965C270.427 193.295 270.102 193.575 269.672 193.805C269.252 194.035 268.692 194.15 267.992 194.15ZM268.142 193.28C268.872 193.28 269.472 193.04 269.942 192.56C270.412 192.08 270.647 191.39 270.647 190.49V189.98L268.712 190.25C267.892 190.36 267.272 190.55 266.852 190.82C266.432 191.09 266.222 191.43 266.222 191.84C266.222 192.3 266.412 192.655 266.792 192.905C267.182 193.155 267.632 193.28 268.142 193.28ZM274.264 194C274.164 194 274.084 193.97 274.024 193.91C273.964 193.85 273.934 193.77 273.934 193.67V186.53C273.934 186.43 273.964 186.35 274.024 186.29C274.084 186.23 274.164 186.2 274.264 186.2H274.519C274.619 186.2 274.699 186.23 274.759 186.29C274.819 186.35 274.849 186.43 274.849 186.53V187.055C275.109 186.725 275.409 186.475 275.749 186.305C276.099 186.135 276.514 186.05 276.994 186.05C278.114 186.05 278.914 186.52 279.394 187.46C279.634 187.03 279.974 186.69 280.414 186.44C280.864 186.18 281.374 186.05 281.944 186.05C282.774 186.05 283.449 186.335 283.969 186.905C284.489 187.465 284.749 188.265 284.749 189.305V193.67C284.749 193.77 284.719 193.85 284.659 193.91C284.599 193.97 284.519 194 284.419 194H284.164C284.064 194 283.984 193.97 283.924 193.91C283.864 193.85 283.834 193.77 283.834 193.67V189.455C283.834 188.545 283.644 187.895 283.264 187.505C282.894 187.115 282.404 186.92 281.794 186.92C281.254 186.92 280.784 187.12 280.384 187.52C279.994 187.91 279.799 188.555 279.799 189.455V193.67C279.799 193.77 279.769 193.85 279.709 193.91C279.649 193.97 279.569 194 279.469 194H279.214C279.114 194 279.034 193.97 278.974 193.91C278.914 193.85 278.884 193.77 278.884 193.67V189.455C278.884 188.555 278.689 187.91 278.299 187.52C277.909 187.12 277.424 186.92 276.844 186.92C276.304 186.92 275.834 187.12 275.434 187.52C275.044 187.91 274.849 188.55 274.849 189.44V193.67C274.849 193.77 274.819 193.85 274.759 193.91C274.699 193.97 274.619 194 274.519 194H274.264ZM289.998 194.15C289.048 194.15 288.283 193.84 287.703 193.22C287.123 192.59 286.793 191.75 286.713 190.7L286.698 190.1L286.713 189.5C286.793 188.46 287.118 187.625 287.688 186.995C288.268 186.365 289.038 186.05 289.998 186.05C291.038 186.05 291.848 186.395 292.428 187.085C293.018 187.775 293.313 188.72 293.313 189.92V190.145C293.313 190.245 293.278 190.325 293.208 190.385C293.148 190.445 293.068 190.475 292.968 190.475H287.628V190.625C287.648 191.095 287.753 191.535 287.943 191.945C288.143 192.345 288.418 192.67 288.768 192.92C289.118 193.16 289.528 193.28 289.998 193.28C290.548 193.28 290.993 193.175 291.333 192.965C291.683 192.745 291.933 192.525 292.083 192.305C292.173 192.185 292.238 192.11 292.278 192.08C292.328 192.05 292.413 192.035 292.533 192.035H292.773C292.863 192.035 292.938 192.06 292.998 192.11C293.058 192.16 293.088 192.225 293.088 192.305C293.088 192.515 292.953 192.77 292.683 193.07C292.423 193.36 292.058 193.615 291.588 193.835C291.118 194.045 290.588 194.15 289.998 194.15ZM292.398 189.635V189.575C292.398 188.805 292.178 188.17 291.738 187.67C291.308 187.17 290.728 186.92 289.998 186.92C289.268 186.92 288.688 187.17 288.258 187.67C287.838 188.17 287.628 188.805 287.628 189.575V189.635H292.398ZM81.3354 212.15C80.8554 212.15 80.4104 212.05 80.0004 211.85C79.5904 211.65 79.2604 211.38 79.0104 211.04C78.7704 210.7 78.6504 210.325 78.6504 209.915C78.6504 209.255 78.9154 208.715 79.4454 208.295C79.9854 207.875 80.7104 207.605 81.6204 207.485L83.9904 207.155V206.63C83.9904 206.08 83.8204 205.66 83.4804 205.37C83.1504 205.07 82.6404 204.92 81.9504 204.92C81.4404 204.92 81.0204 205.02 80.6904 205.22C80.3704 205.42 80.1654 205.66 80.0754 205.94C80.0354 206.06 79.9854 206.145 79.9254 206.195C79.8754 206.235 79.8054 206.255 79.7154 206.255H79.5054C79.4154 206.255 79.3354 206.225 79.2654 206.165C79.2054 206.095 79.1754 206.015 79.1754 205.925C79.1754 205.705 79.2754 205.45 79.4754 205.16C79.6754 204.86 79.9854 204.6 80.4054 204.38C80.8254 204.16 81.3404 204.05 81.9504 204.05C83.0204 204.05 83.7804 204.305 84.2304 204.815C84.6804 205.325 84.9054 205.945 84.9054 206.675V211.67C84.9054 211.77 84.8754 211.85 84.8154 211.91C84.7554 211.97 84.6754 212 84.5754 212H84.3204C84.2204 212 84.1404 211.97 84.0804 211.91C84.0204 211.85 83.9904 211.77 83.9904 211.67V210.965C83.7704 211.295 83.4454 211.575 83.0154 211.805C82.5954 212.035 82.0354 212.15 81.3354 212.15ZM81.4854 211.28C82.2154 211.28 82.8154 211.04 83.2854 210.56C83.7554 210.08 83.9904 209.39 83.9904 208.49V207.98L82.0554 208.25C81.2354 208.36 80.6154 208.55 80.1954 208.82C79.7754 209.09 79.5654 209.43 79.5654 209.84C79.5654 210.3 79.7554 210.655 80.1354 210.905C80.5254 211.155 80.9754 211.28 81.4854 211.28ZM87.6074 212C87.5074 212 87.4274 211.97 87.3674 211.91C87.3074 211.85 87.2774 211.77 87.2774 211.67V204.53C87.2774 204.43 87.3074 204.35 87.3674 204.29C87.4274 204.23 87.5074 204.2 87.6074 204.2H87.8624C87.9624 204.2 88.0424 204.23 88.1024 204.29C88.1624 204.35 88.1924 204.43 88.1924 204.53V205.235C88.4924 204.845 88.8324 204.55 89.2124 204.35C89.6024 204.15 90.1024 204.05 90.7124 204.05C91.6924 204.05 92.4474 204.365 92.9774 204.995C93.5074 205.615 93.7724 206.42 93.7724 207.41V211.67C93.7724 211.77 93.7424 211.85 93.6824 211.91C93.6224 211.97 93.5424 212 93.4424 212H93.1874C93.0874 212 93.0074 211.97 92.9474 211.91C92.8874 211.85 92.8574 211.77 92.8574 211.67V207.485C92.8574 206.675 92.6574 206.045 92.2574 205.595C91.8674 205.145 91.3024 204.92 90.5624 204.92C89.8424 204.92 89.2674 205.15 88.8374 205.61C88.4074 206.06 88.1924 206.685 88.1924 207.485V211.67C88.1924 211.77 88.1624 211.85 88.1024 211.91C88.0424 211.97 87.9624 212 87.8624 212H87.6074ZM98.945 212.15C97.865 212.15 97.065 211.8 96.545 211.1C96.035 210.39 95.765 209.53 95.735 208.52L95.72 208.1L95.735 207.68C95.765 206.67 96.035 205.815 96.545 205.115C97.065 204.405 97.865 204.05 98.945 204.05C100.035 204.05 100.875 204.445 101.465 205.235V201.68C101.465 201.58 101.495 201.5 101.555 201.44C101.615 201.38 101.695 201.35 101.795 201.35H102.05C102.15 201.35 102.23 201.38 102.29 201.44C102.35 201.5 102.38 201.58 102.38 201.68V211.67C102.38 211.77 102.35 211.85 102.29 211.91C102.23 211.97 102.15 212 102.05 212H101.795C101.695 212 101.615 211.97 101.555 211.91C101.495 211.85 101.465 211.77 101.465 211.67V210.965C100.885 211.755 100.045 212.15 98.945 212.15ZM99.035 211.28C99.825 211.28 100.42 211.02 100.82 210.5C101.22 209.97 101.435 209.35 101.465 208.64C101.475 208.54 101.48 208.345 101.48 208.055C101.48 207.765 101.475 207.57 101.465 207.47C101.455 207.04 101.36 206.635 101.18 206.255C101 205.865 100.73 205.545 100.37 205.295C100.01 205.045 99.565 204.92 99.035 204.92C98.225 204.92 97.63 205.18 97.25 205.7C96.88 206.21 96.68 206.87 96.65 207.68L96.635 208.1C96.635 209.03 96.815 209.795 97.175 210.395C97.535 210.985 98.155 211.28 99.035 211.28ZM129.602 212.15C128.522 212.15 127.722 211.8 127.202 211.1C126.692 210.39 126.422 209.53 126.392 208.52L126.377 208.1L126.392 207.68C126.422 206.67 126.692 205.815 127.202 205.115C127.722 204.405 128.522 204.05 129.602 204.05C130.692 204.05 131.532 204.445 132.122 205.235V201.68C132.122 201.58 132.152 201.5 132.212 201.44C132.272 201.38 132.352 201.35 132.452 201.35H132.707C132.807 201.35 132.887 201.38 132.947 201.44C133.007 201.5 133.037 201.58 133.037 201.68V211.67C133.037 211.77 133.007 211.85 132.947 211.91C132.887 211.97 132.807 212 132.707 212H132.452C132.352 212 132.272 211.97 132.212 211.91C132.152 211.85 132.122 211.77 132.122 211.67V210.965C131.542 211.755 130.702 212.15 129.602 212.15ZM129.692 211.28C130.482 211.28 131.077 211.02 131.477 210.5C131.877 209.97 132.092 209.35 132.122 208.64C132.132 208.54 132.137 208.345 132.137 208.055C132.137 207.765 132.132 207.57 132.122 207.47C132.112 207.04 132.017 206.635 131.837 206.255C131.657 205.865 131.387 205.545 131.027 205.295C130.667 205.045 130.222 204.92 129.692 204.92C128.882 204.92 128.287 205.18 127.907 205.7C127.537 206.21 127.337 206.87 127.307 207.68L127.292 208.1C127.292 209.03 127.472 209.795 127.832 210.395C128.192 210.985 128.812 211.28 129.692 211.28ZM138.378 212.15C137.428 212.15 136.663 211.84 136.083 211.22C135.503 210.59 135.173 209.75 135.093 208.7L135.078 208.1L135.093 207.5C135.173 206.46 135.498 205.625 136.068 204.995C136.648 204.365 137.418 204.05 138.378 204.05C139.418 204.05 140.228 204.395 140.808 205.085C141.398 205.775 141.693 206.72 141.693 207.92V208.145C141.693 208.245 141.658 208.325 141.588 208.385C141.528 208.445 141.448 208.475 141.348 208.475H136.008V208.625C136.028 209.095 136.133 209.535 136.323 209.945C136.523 210.345 136.798 210.67 137.148 210.92C137.498 211.16 137.908 211.28 138.378 211.28C138.928 211.28 139.373 211.175 139.713 210.965C140.063 210.745 140.313 210.525 140.463 210.305C140.553 210.185 140.618 210.11 140.658 210.08C140.708 210.05 140.793 210.035 140.913 210.035H141.153C141.243 210.035 141.318 210.06 141.378 210.11C141.438 210.16 141.468 210.225 141.468 210.305C141.468 210.515 141.333 210.77 141.063 211.07C140.803 211.36 140.438 211.615 139.968 211.835C139.498 212.045 138.968 212.15 138.378 212.15ZM140.778 207.635V207.575C140.778 206.805 140.558 206.17 140.118 205.67C139.688 205.17 139.108 204.92 138.378 204.92C137.648 204.92 137.068 205.17 136.638 205.67C136.218 206.17 136.008 206.805 136.008 207.575V207.635H140.778ZM144.016 212C143.916 212 143.836 211.97 143.776 211.91C143.716 211.85 143.686 211.77 143.686 211.67V201.68C143.686 201.58 143.716 201.5 143.776 201.44C143.836 201.38 143.916 201.35 144.016 201.35H144.271C144.371 201.35 144.451 201.38 144.511 201.44C144.571 201.5 144.601 201.58 144.601 201.68V211.67C144.601 211.77 144.571 211.85 144.511 211.91C144.451 211.97 144.371 212 144.271 212H144.016ZM147.205 202.595C147.105 202.595 147.025 202.565 146.965 202.505C146.905 202.445 146.875 202.365 146.875 202.265V201.695C146.875 201.595 146.905 201.515 146.965 201.455C147.025 201.385 147.105 201.35 147.205 201.35H147.775C147.875 201.35 147.955 201.385 148.015 201.455C148.085 201.515 148.12 201.595 148.12 201.695V202.265C148.12 202.365 148.085 202.445 148.015 202.505C147.955 202.565 147.875 202.595 147.775 202.595H147.205ZM147.37 212C147.27 212 147.19 211.97 147.13 211.91C147.07 211.85 147.04 211.77 147.04 211.67V204.53C147.04 204.43 147.07 204.35 147.13 204.29C147.19 204.23 147.27 204.2 147.37 204.2H147.625C147.725 204.2 147.805 204.23 147.865 204.29C147.925 204.35 147.955 204.43 147.955 204.53V211.67C147.955 211.77 147.925 211.85 147.865 211.91C147.805 211.97 147.725 212 147.625 212H147.37ZM153.065 212C152.785 212 152.595 211.875 152.495 211.625L149.735 204.665L149.705 204.5C149.705 204.42 149.735 204.35 149.795 204.29C149.855 204.23 149.925 204.2 150.005 204.2H150.32C150.41 204.2 150.48 204.225 150.53 204.275C150.59 204.325 150.63 204.375 150.65 204.425L153.185 210.905L155.72 204.425C155.74 204.375 155.775 204.325 155.825 204.275C155.885 204.225 155.96 204.2 156.05 204.2H156.365C156.445 204.2 156.515 204.23 156.575 204.29C156.635 204.35 156.665 204.42 156.665 204.5L156.635 204.665L153.875 211.625C153.775 211.875 153.585 212 153.305 212H153.065ZM161.053 212.15C160.103 212.15 159.338 211.84 158.758 211.22C158.178 210.59 157.848 209.75 157.768 208.7L157.753 208.1L157.768 207.5C157.848 206.46 158.173 205.625 158.743 204.995C159.323 204.365 160.093 204.05 161.053 204.05C162.093 204.05 162.903 204.395 163.483 205.085C164.073 205.775 164.368 206.72 164.368 207.92V208.145C164.368 208.245 164.333 208.325 164.263 208.385C164.203 208.445 164.123 208.475 164.023 208.475H158.683V208.625C158.703 209.095 158.808 209.535 158.998 209.945C159.198 210.345 159.473 210.67 159.823 210.92C160.173 211.16 160.583 211.28 161.053 211.28C161.603 211.28 162.048 211.175 162.388 210.965C162.738 210.745 162.988 210.525 163.138 210.305C163.228 210.185 163.293 210.11 163.333 210.08C163.383 210.05 163.468 210.035 163.588 210.035H163.828C163.918 210.035 163.993 210.06 164.053 210.11C164.113 210.16 164.143 210.225 164.143 210.305C164.143 210.515 164.008 210.77 163.738 211.07C163.478 211.36 163.113 211.615 162.643 211.835C162.173 212.045 161.643 212.15 161.053 212.15ZM163.453 207.635V207.575C163.453 206.805 163.233 206.17 162.793 205.67C162.363 205.17 161.783 204.92 161.053 204.92C160.323 204.92 159.743 205.17 159.313 205.67C158.893 206.17 158.683 206.805 158.683 207.575V207.635H163.453ZM166.677 212C166.577 212 166.497 211.97 166.437 211.91C166.377 211.85 166.347 211.77 166.347 211.67V204.545C166.347 204.445 166.377 204.365 166.437 204.305C166.497 204.235 166.577 204.2 166.677 204.2H166.917C167.017 204.2 167.097 204.235 167.157 204.305C167.227 204.365 167.262 204.445 167.262 204.545V205.235C167.622 204.545 168.302 204.2 169.302 204.2H169.857C169.957 204.2 170.037 204.23 170.097 204.29C170.157 204.35 170.187 204.43 170.187 204.53V204.74C170.187 204.84 170.157 204.92 170.097 204.98C170.037 205.04 169.957 205.07 169.857 205.07H169.212C168.612 205.07 168.137 205.245 167.787 205.595C167.437 205.945 167.262 206.42 167.262 207.02V211.67C167.262 211.77 167.227 211.85 167.157 211.91C167.097 211.97 167.017 212 166.917 212H166.677ZM174.037 212.15C173.387 212.15 172.837 212.04 172.387 211.82C171.947 211.6 171.612 211.35 171.382 211.07C171.162 210.79 171.052 210.565 171.052 210.395C171.052 210.305 171.087 210.235 171.157 210.185C171.227 210.125 171.302 210.095 171.382 210.095H171.607C171.677 210.095 171.732 210.11 171.772 210.14C171.822 210.16 171.877 210.21 171.937 210.29C172.157 210.6 172.422 210.845 172.732 211.025C173.052 211.195 173.487 211.28 174.037 211.28C174.657 211.28 175.157 211.165 175.537 210.935C175.917 210.695 176.107 210.355 176.107 209.915C176.107 209.645 176.027 209.425 175.867 209.255C175.717 209.085 175.467 208.94 175.117 208.82C174.777 208.69 174.267 208.545 173.587 208.385C172.697 208.185 172.087 207.91 171.757 207.56C171.437 207.21 171.277 206.765 171.277 206.225C171.277 205.855 171.377 205.505 171.577 205.175C171.787 204.845 172.092 204.575 172.492 204.365C172.902 204.155 173.392 204.05 173.962 204.05C174.562 204.05 175.067 204.155 175.477 204.365C175.897 204.565 176.207 204.8 176.407 205.07C176.617 205.34 176.722 205.56 176.722 205.73C176.722 205.82 176.687 205.895 176.617 205.955C176.557 206.005 176.482 206.03 176.392 206.03H176.167C176.027 206.03 175.917 205.965 175.837 205.835C175.637 205.535 175.407 205.31 175.147 205.16C174.897 205 174.502 204.92 173.962 204.92C173.382 204.92 172.942 205.04 172.642 205.28C172.342 205.52 172.192 205.835 172.192 206.225C172.192 206.465 172.252 206.665 172.372 206.825C172.492 206.985 172.717 207.135 173.047 207.275C173.377 207.405 173.857 207.54 174.487 207.68C175.417 207.89 176.072 208.17 176.452 208.52C176.832 208.87 177.022 209.335 177.022 209.915C177.022 210.325 176.907 210.7 176.677 211.04C176.447 211.38 176.107 211.65 175.657 211.85C175.207 212.05 174.667 212.15 174.037 212.15ZM201.23 212C201.13 212 201.05 211.97 200.99 211.91C200.93 211.85 200.9 211.77 200.9 211.67V204.545C200.9 204.445 200.93 204.365 200.99 204.305C201.05 204.235 201.13 204.2 201.23 204.2H201.47C201.57 204.2 201.65 204.235 201.71 204.305C201.78 204.365 201.815 204.445 201.815 204.545V205.235C202.175 204.545 202.855 204.2 203.855 204.2H204.41C204.51 204.2 204.59 204.23 204.65 204.29C204.71 204.35 204.74 204.43 204.74 204.53V204.74C204.74 204.84 204.71 204.92 204.65 204.98C204.59 205.04 204.51 205.07 204.41 205.07H203.765C203.165 205.07 202.69 205.245 202.34 205.595C201.99 205.945 201.815 206.42 201.815 207.02V211.67C201.815 211.77 201.78 211.85 201.71 211.91C201.65 211.97 201.57 212 201.47 212H201.23ZM208.834 212.15C207.884 212.15 207.119 211.84 206.539 211.22C205.959 210.59 205.629 209.75 205.549 208.7L205.534 208.1L205.549 207.5C205.629 206.46 205.954 205.625 206.524 204.995C207.104 204.365 207.874 204.05 208.834 204.05C209.874 204.05 210.684 204.395 211.264 205.085C211.854 205.775 212.149 206.72 212.149 207.92V208.145C212.149 208.245 212.114 208.325 212.044 208.385C211.984 208.445 211.904 208.475 211.804 208.475H206.464V208.625C206.484 209.095 206.589 209.535 206.779 209.945C206.979 210.345 207.254 210.67 207.604 210.92C207.954 211.16 208.364 211.28 208.834 211.28C209.384 211.28 209.829 211.175 210.169 210.965C210.519 210.745 210.769 210.525 210.919 210.305C211.009 210.185 211.074 210.11 211.114 210.08C211.164 210.05 211.249 210.035 211.369 210.035H211.609C211.699 210.035 211.774 210.06 211.834 210.11C211.894 210.16 211.924 210.225 211.924 210.305C211.924 210.515 211.789 210.77 211.519 211.07C211.259 211.36 210.894 211.615 210.424 211.835C209.954 212.045 209.424 212.15 208.834 212.15ZM211.234 207.635V207.575C211.234 206.805 211.014 206.17 210.574 205.67C210.144 205.17 209.564 204.92 208.834 204.92C208.104 204.92 207.524 205.17 207.094 205.67C206.674 206.17 206.464 206.805 206.464 207.575V207.635H211.234ZM216.227 212.15C215.747 212.15 215.302 212.05 214.892 211.85C214.482 211.65 214.152 211.38 213.902 211.04C213.662 210.7 213.542 210.325 213.542 209.915C213.542 209.255 213.807 208.715 214.337 208.295C214.877 207.875 215.602 207.605 216.512 207.485L218.882 207.155V206.63C218.882 206.08 218.712 205.66 218.372 205.37C218.042 205.07 217.532 204.92 216.842 204.92C216.332 204.92 215.912 205.02 215.582 205.22C215.262 205.42 215.057 205.66 214.967 205.94C214.927 206.06 214.877 206.145 214.817 206.195C214.767 206.235 214.697 206.255 214.607 206.255H214.397C214.307 206.255 214.227 206.225 214.157 206.165C214.097 206.095 214.067 206.015 214.067 205.925C214.067 205.705 214.167 205.45 214.367 205.16C214.567 204.86 214.877 204.6 215.297 204.38C215.717 204.16 216.232 204.05 216.842 204.05C217.912 204.05 218.672 204.305 219.122 204.815C219.572 205.325 219.797 205.945 219.797 206.675V211.67C219.797 211.77 219.767 211.85 219.707 211.91C219.647 211.97 219.567 212 219.467 212H219.212C219.112 212 219.032 211.97 218.972 211.91C218.912 211.85 218.882 211.77 218.882 211.67V210.965C218.662 211.295 218.337 211.575 217.907 211.805C217.487 212.035 216.927 212.15 216.227 212.15ZM216.377 211.28C217.107 211.28 217.707 211.04 218.177 210.56C218.647 210.08 218.882 209.39 218.882 208.49V207.98L216.947 208.25C216.127 208.36 215.507 208.55 215.087 208.82C214.667 209.09 214.457 209.43 214.457 209.84C214.457 210.3 214.647 210.655 215.027 210.905C215.417 211.155 215.867 211.28 216.377 211.28ZM222.514 212C222.414 212 222.334 211.97 222.274 211.91C222.214 211.85 222.184 211.77 222.184 211.67V201.68C222.184 201.58 222.214 201.5 222.274 201.44C222.334 201.38 222.414 201.35 222.514 201.35H222.769C222.869 201.35 222.949 201.38 223.009 201.44C223.069 201.5 223.099 201.58 223.099 201.68V211.67C223.099 211.77 223.069 211.85 223.009 211.91C222.949 211.97 222.869 212 222.769 212H222.514ZM249.782 212C249.042 212 248.517 211.78 248.207 211.34C247.897 210.89 247.742 210.275 247.742 209.495V205.07H246.572C246.472 205.07 246.392 205.04 246.332 204.98C246.272 204.92 246.242 204.84 246.242 204.74V204.53C246.242 204.43 246.272 204.35 246.332 204.29C246.392 204.23 246.472 204.2 246.572 204.2H247.742V201.68C247.742 201.58 247.772 201.5 247.832 201.44C247.892 201.38 247.972 201.35 248.072 201.35H248.327C248.427 201.35 248.507 201.38 248.567 201.44C248.627 201.5 248.657 201.58 248.657 201.68V204.2H250.517C250.617 204.2 250.697 204.23 250.757 204.29C250.817 204.35 250.847 204.43 250.847 204.53V204.74C250.847 204.84 250.817 204.92 250.757 204.98C250.697 205.04 250.617 205.07 250.517 205.07H248.657V209.435C248.657 209.995 248.747 210.42 248.927 210.71C249.117 210.99 249.427 211.13 249.857 211.13H250.667C250.767 211.13 250.847 211.16 250.907 211.22C250.967 211.28 250.997 211.36 250.997 211.46V211.67C250.997 211.77 250.967 211.85 250.907 211.91C250.847 211.97 250.767 212 250.667 212H249.782ZM252.878 212C252.778 212 252.698 211.97 252.638 211.91C252.578 211.85 252.548 211.77 252.548 211.67V204.545C252.548 204.445 252.578 204.365 252.638 204.305C252.698 204.235 252.778 204.2 252.878 204.2H253.118C253.218 204.2 253.298 204.235 253.358 204.305C253.428 204.365 253.463 204.445 253.463 204.545V205.235C253.823 204.545 254.503 204.2 255.503 204.2H256.058C256.158 204.2 256.238 204.23 256.298 204.29C256.358 204.35 256.388 204.43 256.388 204.53V204.74C256.388 204.84 256.358 204.92 256.298 204.98C256.238 205.04 256.158 205.07 256.058 205.07H255.413C254.813 205.07 254.338 205.245 253.988 205.595C253.638 205.945 253.463 206.42 253.463 207.02V211.67C253.463 211.77 253.428 211.85 253.358 211.91C253.298 211.97 253.218 212 253.118 212H252.878ZM259.745 212.15C259.265 212.15 258.82 212.05 258.41 211.85C258 211.65 257.67 211.38 257.42 211.04C257.18 210.7 257.06 210.325 257.06 209.915C257.06 209.255 257.325 208.715 257.855 208.295C258.395 207.875 259.12 207.605 260.03 207.485L262.4 207.155V206.63C262.4 206.08 262.23 205.66 261.89 205.37C261.56 205.07 261.05 204.92 260.36 204.92C259.85 204.92 259.43 205.02 259.1 205.22C258.78 205.42 258.575 205.66 258.485 205.94C258.445 206.06 258.395 206.145 258.335 206.195C258.285 206.235 258.215 206.255 258.125 206.255H257.915C257.825 206.255 257.745 206.225 257.675 206.165C257.615 206.095 257.585 206.015 257.585 205.925C257.585 205.705 257.685 205.45 257.885 205.16C258.085 204.86 258.395 204.6 258.815 204.38C259.235 204.16 259.75 204.05 260.36 204.05C261.43 204.05 262.19 204.305 262.64 204.815C263.09 205.325 263.315 205.945 263.315 206.675V211.67C263.315 211.77 263.285 211.85 263.225 211.91C263.165 211.97 263.085 212 262.985 212H262.73C262.63 212 262.55 211.97 262.49 211.91C262.43 211.85 262.4 211.77 262.4 211.67V210.965C262.18 211.295 261.855 211.575 261.425 211.805C261.005 212.035 260.445 212.15 259.745 212.15ZM259.895 211.28C260.625 211.28 261.225 211.04 261.695 210.56C262.165 210.08 262.4 209.39 262.4 208.49V207.98L260.465 208.25C259.645 208.36 259.025 208.55 258.605 208.82C258.185 209.09 257.975 209.43 257.975 209.84C257.975 210.3 258.165 210.655 258.545 210.905C258.935 211.155 259.385 211.28 259.895 211.28ZM268.507 212.15C267.427 212.15 266.627 211.8 266.107 211.1C265.597 210.39 265.327 209.53 265.297 208.52L265.282 208.1L265.297 207.68C265.327 206.67 265.597 205.815 266.107 205.115C266.627 204.405 267.427 204.05 268.507 204.05C269.597 204.05 270.437 204.445 271.027 205.235V201.68C271.027 201.58 271.057 201.5 271.117 201.44C271.177 201.38 271.257 201.35 271.357 201.35H271.612C271.712 201.35 271.792 201.38 271.852 201.44C271.912 201.5 271.942 201.58 271.942 201.68V211.67C271.942 211.77 271.912 211.85 271.852 211.91C271.792 211.97 271.712 212 271.612 212H271.357C271.257 212 271.177 211.97 271.117 211.91C271.057 211.85 271.027 211.77 271.027 211.67V210.965C270.447 211.755 269.607 212.15 268.507 212.15ZM268.597 211.28C269.387 211.28 269.982 211.02 270.382 210.5C270.782 209.97 270.997 209.35 271.027 208.64C271.037 208.54 271.042 208.345 271.042 208.055C271.042 207.765 271.037 207.57 271.027 207.47C271.017 207.04 270.922 206.635 270.742 206.255C270.562 205.865 270.292 205.545 269.932 205.295C269.572 205.045 269.127 204.92 268.597 204.92C267.787 204.92 267.192 205.18 266.812 205.7C266.442 206.21 266.242 206.87 266.212 207.68L266.197 208.1C266.197 209.03 266.377 209.795 266.737 210.395C267.097 210.985 267.717 211.28 268.597 211.28ZM274.553 202.595C274.453 202.595 274.373 202.565 274.313 202.505C274.253 202.445 274.223 202.365 274.223 202.265V201.695C274.223 201.595 274.253 201.515 274.313 201.455C274.373 201.385 274.453 201.35 274.553 201.35H275.123C275.223 201.35 275.303 201.385 275.363 201.455C275.433 201.515 275.468 201.595 275.468 201.695V202.265C275.468 202.365 275.433 202.445 275.363 202.505C275.303 202.565 275.223 202.595 275.123 202.595H274.553ZM274.718 212C274.618 212 274.538 211.97 274.478 211.91C274.418 211.85 274.388 211.77 274.388 211.67V204.53C274.388 204.43 274.418 204.35 274.478 204.29C274.538 204.23 274.618 204.2 274.718 204.2H274.973C275.073 204.2 275.153 204.23 275.213 204.29C275.273 204.35 275.303 204.43 275.303 204.53V211.67C275.303 211.77 275.273 211.85 275.213 211.91C275.153 211.97 275.073 212 274.973 212H274.718ZM278.058 212C277.958 212 277.878 211.97 277.818 211.91C277.758 211.85 277.728 211.77 277.728 211.67V204.53C277.728 204.43 277.758 204.35 277.818 204.29C277.878 204.23 277.958 204.2 278.058 204.2H278.313C278.413 204.2 278.493 204.23 278.553 204.29C278.613 204.35 278.643 204.43 278.643 204.53V205.235C278.943 204.845 279.283 204.55 279.663 204.35C280.053 204.15 280.553 204.05 281.163 204.05C282.143 204.05 282.898 204.365 283.428 204.995C283.958 205.615 284.223 206.42 284.223 207.41V211.67C284.223 211.77 284.193 211.85 284.133 211.91C284.073 211.97 283.993 212 283.893 212H283.638C283.538 212 283.458 211.97 283.398 211.91C283.338 211.85 283.308 211.77 283.308 211.67V207.485C283.308 206.675 283.108 206.045 282.708 205.595C282.318 205.145 281.753 204.92 281.013 204.92C280.293 204.92 279.718 205.15 279.288 205.61C278.858 206.06 278.643 206.685 278.643 207.485V211.67C278.643 211.77 278.613 211.85 278.553 211.91C278.493 211.97 278.413 212 278.313 212H278.058ZM289.486 215.3C288.706 215.3 288.081 215.165 287.611 214.895C287.141 214.625 286.811 214.315 286.621 213.965C286.441 213.625 286.351 213.325 286.351 213.065C286.351 212.975 286.381 212.9 286.441 212.84C286.511 212.78 286.591 212.75 286.681 212.75H286.891C286.981 212.75 287.051 212.77 287.101 212.81C287.161 212.86 287.211 212.945 287.251 213.065C287.561 213.975 288.281 214.43 289.411 214.43C290.271 214.43 290.906 214.25 291.316 213.89C291.726 213.54 291.931 212.91 291.931 212V210.965C291.351 211.755 290.511 212.15 289.411 212.15C288.331 212.15 287.531 211.8 287.011 211.1C286.501 210.39 286.231 209.53 286.201 208.52L286.186 208.1L286.201 207.68C286.231 206.67 286.501 205.815 287.011 205.115C287.531 204.405 288.331 204.05 289.411 204.05C290.501 204.05 291.341 204.445 291.931 205.235V204.545C291.931 204.445 291.961 204.365 292.021 204.305C292.081 204.235 292.161 204.2 292.261 204.2H292.501C292.601 204.2 292.681 204.235 292.741 204.305C292.811 204.365 292.846 204.445 292.846 204.545V211.85C292.846 212.92 292.596 213.76 292.096 214.37C291.596 214.99 290.726 215.3 289.486 215.3ZM289.501 211.28C290.291 211.28 290.886 211.02 291.286 210.5C291.686 209.97 291.901 209.35 291.931 208.64C291.941 208.54 291.946 208.36 291.946 208.1C291.946 207.84 291.941 207.66 291.931 207.56C291.901 206.85 291.686 206.235 291.286 205.715C290.886 205.185 290.291 204.92 289.501 204.92C288.691 204.92 288.096 205.18 287.716 205.7C287.346 206.21 287.146 206.87 287.116 207.68L287.101 208.1L287.116 208.52C287.146 209.33 287.346 209.995 287.716 210.515C288.096 211.025 288.691 211.28 289.501 211.28ZM82.1304 229.15C81.1804 229.15 80.4154 228.84 79.8354 228.22C79.2554 227.59 78.9254 226.75 78.8454 225.7L78.8304 225.1L78.8454 224.5C78.9254 223.46 79.2504 222.625 79.8204 221.995C80.4004 221.365 81.1704 221.05 82.1304 221.05C83.1704 221.05 83.9804 221.395 84.5604 222.085C85.1504 222.775 85.4454 223.72 85.4454 224.92V225.145C85.4454 225.245 85.4104 225.325 85.3404 225.385C85.2804 225.445 85.2004 225.475 85.1004 225.475H79.7604V225.625C79.7804 226.095 79.8854 226.535 80.0754 226.945C80.2754 227.345 80.5504 227.67 80.9004 227.92C81.2504 228.16 81.6604 228.28 82.1304 228.28C82.6804 228.28 83.1254 228.175 83.4654 227.965C83.8154 227.745 84.0654 227.525 84.2154 227.305C84.3054 227.185 84.3704 227.11 84.4104 227.08C84.4604 227.05 84.5454 227.035 84.6654 227.035H84.9054C84.9954 227.035 85.0704 227.06 85.1304 227.11C85.1904 227.16 85.2204 227.225 85.2204 227.305C85.2204 227.515 85.0854 227.77 84.8154 228.07C84.5554 228.36 84.1904 228.615 83.7204 228.835C83.2504 229.045 82.7204 229.15 82.1304 229.15ZM84.5304 224.635V224.575C84.5304 223.805 84.3104 223.17 83.8704 222.67C83.4404 222.17 82.8604 221.92 82.1304 221.92C81.4004 221.92 80.8204 222.17 80.3904 222.67C79.9704 223.17 79.7604 223.805 79.7604 224.575V224.635H84.5304ZM86.9167 229C86.8367 229 86.7667 228.97 86.7067 228.91C86.6467 228.85 86.6167 228.78 86.6167 228.7C86.6167 228.6 86.6567 228.5 86.7367 228.4L89.3767 225.01L86.8717 221.8C86.7917 221.7 86.7517 221.6 86.7517 221.5C86.7517 221.42 86.7817 221.35 86.8417 221.29C86.9017 221.23 86.9717 221.2 87.0517 221.2H87.3667C87.4567 221.2 87.5217 221.22 87.5617 221.26C87.6117 221.29 87.6717 221.345 87.7417 221.425L89.9917 224.32L92.2417 221.44C92.2517 221.43 92.2767 221.4 92.3167 221.35C92.3567 221.3 92.4017 221.265 92.4517 221.245C92.5017 221.215 92.5567 221.2 92.6167 221.2H92.9167C92.9967 221.2 93.0667 221.23 93.1267 221.29C93.1867 221.35 93.2167 221.42 93.2167 221.5C93.2167 221.6 93.1767 221.7 93.0967 221.8L90.5617 225.055L93.2017 228.4C93.2817 228.5 93.3217 228.6 93.3217 228.7C93.3217 228.78 93.2917 228.85 93.2317 228.91C93.1717 228.97 93.1017 229 93.0217 229H92.7067C92.5667 229 92.4417 228.925 92.3317 228.775L89.9617 225.745L87.5917 228.775C87.5217 228.855 87.4617 228.915 87.4117 228.955C87.3717 228.985 87.3067 229 87.2167 229H86.9167ZM95.4153 231.85C95.3153 231.85 95.2353 231.82 95.1753 231.76C95.1153 231.7 95.0853 231.62 95.0853 231.52V221.53C95.0853 221.43 95.1153 221.35 95.1753 221.29C95.2353 221.23 95.3153 221.2 95.4153 221.2H95.6703C95.7703 221.2 95.8503 221.23 95.9103 221.29C95.9703 221.35 96.0003 221.43 96.0003 221.53V222.235C96.5803 221.445 97.4203 221.05 98.5203 221.05C99.6003 221.05 100.395 221.395 100.905 222.085C101.425 222.765 101.7 223.605 101.73 224.605C101.74 224.705 101.745 224.87 101.745 225.1C101.745 225.33 101.74 225.495 101.73 225.595C101.7 226.595 101.425 227.44 100.905 228.13C100.395 228.81 99.6003 229.15 98.5203 229.15C97.4303 229.15 96.5903 228.755 96.0003 227.965V231.52C96.0003 231.62 95.9703 231.7 95.9103 231.76C95.8503 231.82 95.7703 231.85 95.6703 231.85H95.4153ZM98.4303 228.28C99.2403 228.28 99.8303 228.025 100.2 227.515C100.58 226.995 100.785 226.33 100.815 225.52C100.825 225.42 100.83 225.28 100.83 225.1C100.83 224.17 100.65 223.41 100.29 222.82C99.9303 222.22 99.3103 221.92 98.4303 221.92C97.6403 221.92 97.0453 222.185 96.6453 222.715C96.2453 223.235 96.0303 223.85 96.0003 224.56L95.9853 225.145L96.0003 225.73C96.0103 226.16 96.1053 226.57 96.2853 226.96C96.4653 227.34 96.7353 227.655 97.0953 227.905C97.4553 228.155 97.9003 228.28 98.4303 228.28ZM106.681 229.15C105.731 229.15 104.966 228.84 104.386 228.22C103.806 227.59 103.476 226.75 103.396 225.7L103.381 225.1L103.396 224.5C103.476 223.46 103.801 222.625 104.371 221.995C104.951 221.365 105.721 221.05 106.681 221.05C107.721 221.05 108.531 221.395 109.111 222.085C109.701 222.775 109.996 223.72 109.996 224.92V225.145C109.996 225.245 109.961 225.325 109.891 225.385C109.831 225.445 109.751 225.475 109.651 225.475H104.311V225.625C104.331 226.095 104.436 226.535 104.626 226.945C104.826 227.345 105.101 227.67 105.451 227.92C105.801 228.16 106.211 228.28 106.681 228.28C107.231 228.28 107.676 228.175 108.016 227.965C108.366 227.745 108.616 227.525 108.766 227.305C108.856 227.185 108.921 227.11 108.961 227.08C109.011 227.05 109.096 227.035 109.216 227.035H109.456C109.546 227.035 109.621 227.06 109.681 227.11C109.741 227.16 109.771 227.225 109.771 227.305C109.771 227.515 109.636 227.77 109.366 228.07C109.106 228.36 108.741 228.615 108.271 228.835C107.801 229.045 107.271 229.15 106.681 229.15ZM109.081 224.635V224.575C109.081 223.805 108.861 223.17 108.421 222.67C107.991 222.17 107.411 221.92 106.681 221.92C105.951 221.92 105.371 222.17 104.941 222.67C104.521 223.17 104.311 223.805 104.311 224.575V224.635H109.081ZM112.305 229C112.205 229 112.125 228.97 112.065 228.91C112.005 228.85 111.975 228.77 111.975 228.67V221.545C111.975 221.445 112.005 221.365 112.065 221.305C112.125 221.235 112.205 221.2 112.305 221.2H112.545C112.645 221.2 112.725 221.235 112.785 221.305C112.855 221.365 112.89 221.445 112.89 221.545V222.235C113.25 221.545 113.93 221.2 114.93 221.2H115.485C115.585 221.2 115.665 221.23 115.725 221.29C115.785 221.35 115.815 221.43 115.815 221.53V221.74C115.815 221.84 115.785 221.92 115.725 221.98C115.665 222.04 115.585 222.07 115.485 222.07H114.84C114.24 222.07 113.765 222.245 113.415 222.595C113.065 222.945 112.89 223.42 112.89 224.02V228.67C112.89 228.77 112.855 228.85 112.785 228.91C112.725 228.97 112.645 229 112.545 229H112.305ZM117.354 219.595C117.254 219.595 117.174 219.565 117.114 219.505C117.054 219.445 117.024 219.365 117.024 219.265V218.695C117.024 218.595 117.054 218.515 117.114 218.455C117.174 218.385 117.254 218.35 117.354 218.35H117.924C118.024 218.35 118.104 218.385 118.164 218.455C118.234 218.515 118.269 218.595 118.269 218.695V219.265C118.269 219.365 118.234 219.445 118.164 219.505C118.104 219.565 118.024 219.595 117.924 219.595H117.354ZM117.519 229C117.419 229 117.339 228.97 117.279 228.91C117.219 228.85 117.189 228.77 117.189 228.67V221.53C117.189 221.43 117.219 221.35 117.279 221.29C117.339 221.23 117.419 221.2 117.519 221.2H117.774C117.874 221.2 117.954 221.23 118.014 221.29C118.074 221.35 118.104 221.43 118.104 221.53V228.67C118.104 228.77 118.074 228.85 118.014 228.91C117.954 228.97 117.874 229 117.774 229H117.519ZM123.424 229.15C122.474 229.15 121.709 228.84 121.129 228.22C120.549 227.59 120.219 226.75 120.139 225.7L120.124 225.1L120.139 224.5C120.219 223.46 120.544 222.625 121.114 221.995C121.694 221.365 122.464 221.05 123.424 221.05C124.464 221.05 125.274 221.395 125.854 222.085C126.444 222.775 126.739 223.72 126.739 224.92V225.145C126.739 225.245 126.704 225.325 126.634 225.385C126.574 225.445 126.494 225.475 126.394 225.475H121.054V225.625C121.074 226.095 121.179 226.535 121.369 226.945C121.569 227.345 121.844 227.67 122.194 227.92C122.544 228.16 122.954 228.28 123.424 228.28C123.974 228.28 124.419 228.175 124.759 227.965C125.109 227.745 125.359 227.525 125.509 227.305C125.599 227.185 125.664 227.11 125.704 227.08C125.754 227.05 125.839 227.035 125.959 227.035H126.199C126.289 227.035 126.364 227.06 126.424 227.11C126.484 227.16 126.514 227.225 126.514 227.305C126.514 227.515 126.379 227.77 126.109 228.07C125.849 228.36 125.484 228.615 125.014 228.835C124.544 229.045 124.014 229.15 123.424 229.15ZM125.824 224.635V224.575C125.824 223.805 125.604 223.17 125.164 222.67C124.734 222.17 124.154 221.92 123.424 221.92C122.694 221.92 122.114 222.17 121.684 222.67C121.264 223.17 121.054 223.805 121.054 224.575V224.635H125.824ZM129.048 229C128.948 229 128.868 228.97 128.808 228.91C128.748 228.85 128.718 228.77 128.718 228.67V221.53C128.718 221.43 128.748 221.35 128.808 221.29C128.868 221.23 128.948 221.2 129.048 221.2H129.303C129.403 221.2 129.483 221.23 129.543 221.29C129.603 221.35 129.633 221.43 129.633 221.53V222.235C129.933 221.845 130.273 221.55 130.653 221.35C131.043 221.15 131.543 221.05 132.153 221.05C133.133 221.05 133.888 221.365 134.418 221.995C134.948 222.615 135.213 223.42 135.213 224.41V228.67C135.213 228.77 135.183 228.85 135.123 228.91C135.063 228.97 134.983 229 134.883 229H134.628C134.528 229 134.448 228.97 134.388 228.91C134.328 228.85 134.298 228.77 134.298 228.67V224.485C134.298 223.675 134.098 223.045 133.698 222.595C133.308 222.145 132.743 221.92 132.003 221.92C131.283 221.92 130.708 222.15 130.278 222.61C129.848 223.06 129.633 223.685 129.633 224.485V228.67C129.633 228.77 129.603 228.85 129.543 228.91C129.483 228.97 129.403 229 129.303 229H129.048ZM140.52 229.15C139.48 229.15 138.675 228.85 138.105 228.25C137.535 227.64 137.235 226.79 137.205 225.7L137.19 225.1L137.205 224.5C137.235 223.41 137.535 222.565 138.105 221.965C138.675 221.355 139.48 221.05 140.52 221.05C141.18 221.05 141.74 221.17 142.2 221.41C142.67 221.64 143.02 221.94 143.25 222.31C143.48 222.67 143.605 223.045 143.625 223.435C143.635 223.525 143.605 223.605 143.535 223.675C143.465 223.735 143.385 223.765 143.295 223.765H143.085C142.985 223.765 142.91 223.745 142.86 223.705C142.82 223.655 142.775 223.57 142.725 223.45C142.525 222.9 142.245 222.51 141.885 222.28C141.525 222.04 141.07 221.92 140.52 221.92C139.8 221.92 139.225 222.14 138.795 222.58C138.375 223.01 138.15 223.675 138.12 224.575L138.105 225.1L138.12 225.625C138.15 226.525 138.375 227.195 138.795 227.635C139.225 228.065 139.8 228.28 140.52 228.28C141.07 228.28 141.525 228.165 141.885 227.935C142.245 227.695 142.525 227.3 142.725 226.75C142.775 226.63 142.82 226.55 142.86 226.51C142.91 226.46 142.985 226.435 143.085 226.435H143.295C143.385 226.435 143.465 226.47 143.535 226.54C143.605 226.6 143.635 226.675 143.625 226.765C143.605 227.155 143.48 227.535 143.25 227.905C143.02 228.265 142.67 228.565 142.2 228.805C141.74 229.035 141.18 229.15 140.52 229.15ZM148.502 229.15C147.552 229.15 146.787 228.84 146.207 228.22C145.627 227.59 145.297 226.75 145.217 225.7L145.202 225.1L145.217 224.5C145.297 223.46 145.622 222.625 146.192 221.995C146.772 221.365 147.542 221.05 148.502 221.05C149.542 221.05 150.352 221.395 150.932 222.085C151.522 222.775 151.817 223.72 151.817 224.92V225.145C151.817 225.245 151.782 225.325 151.712 225.385C151.652 225.445 151.572 225.475 151.472 225.475H146.132V225.625C146.152 226.095 146.257 226.535 146.447 226.945C146.647 227.345 146.922 227.67 147.272 227.92C147.622 228.16 148.032 228.28 148.502 228.28C149.052 228.28 149.497 228.175 149.837 227.965C150.187 227.745 150.437 227.525 150.587 227.305C150.677 227.185 150.742 227.11 150.782 227.08C150.832 227.05 150.917 227.035 151.037 227.035H151.277C151.367 227.035 151.442 227.06 151.502 227.11C151.562 227.16 151.592 227.225 151.592 227.305C151.592 227.515 151.457 227.77 151.187 228.07C150.927 228.36 150.562 228.615 150.092 228.835C149.622 229.045 149.092 229.15 148.502 229.15ZM150.902 224.635V224.575C150.902 223.805 150.682 223.17 150.242 222.67C149.812 222.17 149.232 221.92 148.502 221.92C147.772 221.92 147.192 222.17 146.762 222.67C146.342 223.17 146.132 223.805 146.132 224.575V224.635H150.902ZM154.006 229C153.906 229 153.826 228.97 153.766 228.91C153.706 228.85 153.676 228.77 153.676 228.67V227.95C153.676 227.85 153.706 227.77 153.766 227.71C153.826 227.64 153.906 227.605 154.006 227.605H154.726C154.826 227.605 154.906 227.64 154.966 227.71C155.036 227.77 155.071 227.85 155.071 227.95V228.67C155.071 228.77 155.036 228.85 154.966 228.91C154.906 228.97 154.826 229 154.726 229H154.006ZM157.58 229C157.48 229 157.4 228.97 157.34 228.91C157.28 228.85 157.25 228.77 157.25 228.67V227.95C157.25 227.85 157.28 227.77 157.34 227.71C157.4 227.64 157.48 227.605 157.58 227.605H158.3C158.4 227.605 158.48 227.64 158.54 227.71C158.61 227.77 158.645 227.85 158.645 227.95V228.67C158.645 228.77 158.61 228.85 158.54 228.91C158.48 228.97 158.4 229 158.3 229H157.58ZM161.154 229C161.054 229 160.974 228.97 160.914 228.91C160.854 228.85 160.824 228.77 160.824 228.67V227.95C160.824 227.85 160.854 227.77 160.914 227.71C160.974 227.64 161.054 227.605 161.154 227.605H161.874C161.974 227.605 162.054 227.64 162.114 227.71C162.184 227.77 162.219 227.85 162.219 227.95V228.67C162.219 228.77 162.184 228.85 162.114 228.91C162.054 228.97 161.974 229 161.874 229H161.154Z" fill="white"/>
<g opacity="0.6">
<path d="M186 346.157C143.317 346.157 103.437 329.613 73.216 299.336C42.9949 269.059 26.4824 229.106 26.4824 186.344C26.4824 143.582 42.9949 103.629 73.216 73.3516C103.437 43.0746 143.317 26.5315 186 26.5315C228.683 26.5315 268.563 43.0746 298.784 73.3516C329.005 103.629 345.518 143.582 345.518 186.344C345.518 229.106 329.005 269.059 298.784 299.336C268.563 329.613 228.683 346.157 186 346.157ZM186 30.5892C144.251 30.5892 105.306 46.8202 76.02 76.1608C46.7336 105.501 30.5326 144.83 30.5326 186.344C30.5326 227.858 46.7336 267.187 76.02 296.527C105.306 325.868 144.563 342.099 186 342.099C227.749 342.099 266.693 325.868 295.98 296.527C325.266 267.187 341.467 227.858 341.467 186.344C341.467 144.83 325.266 105.501 295.98 76.1608C266.693 46.8202 227.749 30.5892 186 30.5892Z" fill="#468AF9" fill-opacity="0.6"/>
<path d="M186 346.157C143.317 346.157 103.437 329.613 73.216 299.336C42.9949 269.059 26.4824 229.106 26.4824 186.344C26.4824 143.582 42.9949 103.629 73.216 73.3516C103.437 43.0746 143.317 26.5315 186 26.5315C228.683 26.5315 268.563 43.0746 298.784 73.3516C329.005 103.629 345.518 143.582 345.518 186.344C345.518 229.106 329.005 269.059 298.784 299.336C268.563 329.613 228.683 346.157 186 346.157ZM186 30.5892C144.251 30.5892 105.306 46.8202 76.02 76.1608C46.7336 105.501 30.5326 144.83 30.5326 186.344C30.5326 227.858 46.7336 267.187 76.02 296.527C105.306 325.868 144.563 342.099 186 342.099C227.749 342.099 266.693 325.868 295.98 296.527C325.266 267.187 341.467 227.858 341.467 186.344C341.467 144.83 325.266 105.501 295.98 76.1608C266.693 46.8202 227.749 30.5892 186 30.5892Z" fill="url(#paint0_linear)"/>
<path d="M186 325.244C148.925 325.244 114.03 310.885 87.8593 284.666C61.6884 258.447 47.3568 223.488 47.3568 186.344C47.3568 149.2 61.6884 114.241 87.8593 88.0218C114.03 61.8025 148.925 47.4443 186 47.4443C223.075 47.4443 257.97 61.8025 284.141 88.0218C338.04 142.021 338.04 230.355 284.141 284.354C257.97 310.885 223.075 325.244 186 325.244ZM186 49.3171C149.548 49.3171 115.276 63.6753 89.4171 89.5824C63.5578 115.49 49.2261 149.824 49.2261 186.344C49.2261 222.864 63.5578 257.51 89.4171 283.105C115.276 309.013 149.548 323.371 186 323.371C222.452 323.371 256.724 309.013 282.583 283.105C335.859 229.731 335.859 142.645 282.583 89.2703C257.035 63.6753 222.452 49.3171 186 49.3171Z" fill="#468AF9" fill-opacity="0.3"/>
<path d="M186 325.244C148.925 325.244 114.03 310.885 87.8593 284.666C61.6884 258.447 47.3568 223.488 47.3568 186.344C47.3568 149.2 61.6884 114.241 87.8593 88.0218C114.03 61.8025 148.925 47.4443 186 47.4443C223.075 47.4443 257.97 61.8025 284.141 88.0218C338.04 142.021 338.04 230.355 284.141 284.354C257.97 310.885 223.075 325.244 186 325.244ZM186 49.3171C149.548 49.3171 115.276 63.6753 89.4171 89.5824C63.5578 115.49 49.2261 149.824 49.2261 186.344C49.2261 222.864 63.5578 257.51 89.4171 283.105C115.276 309.013 149.548 323.371 186 323.371C222.452 323.371 256.724 309.013 282.583 283.105C335.859 229.731 335.859 142.645 282.583 89.2703C257.035 63.6753 222.452 49.3171 186 49.3171Z" fill="url(#paint1_linear)"/>
<path d="M186 305.579C154.221 305.579 124.312 293.094 101.879 270.62C79.4472 248.147 66.9849 218.182 66.9849 186.344C66.9849 154.506 79.4472 124.542 101.879 102.068C124.312 79.5942 154.221 67.1089 186 67.1089C217.779 67.1089 247.688 79.5942 270.121 102.068C316.543 148.576 316.543 224.112 270.121 270.62C247.688 293.406 217.779 305.579 186 305.579ZM186 68.0453C154.533 68.0453 124.935 80.2185 102.503 102.692C80.0704 125.166 67.9196 154.819 67.9196 186.344C67.9196 217.87 80.0704 247.522 102.503 269.996C124.935 292.47 154.533 304.643 186 304.643C217.467 304.643 247.065 292.47 269.497 269.996C315.608 223.8 315.608 148.888 269.497 102.692C247.377 80.5307 217.467 68.0453 186 68.0453Z" fill="#468AF9" fill-opacity="0.1"/>
<path d="M186.001 373C136.152 373 89.4184 353.648 54.5239 318.377C-18.069 245.649 -18.069 127.351 54.5239 54.6234C89.73 19.3523 136.464 0 186.001 0C235.851 0 282.584 19.3523 317.479 54.6234C390.072 127.351 390.072 245.649 317.479 318.377C282.584 353.648 235.851 373 186.001 373ZM186.001 7.17908C138.333 7.17908 93.1571 25.9071 59.5089 59.6176C-10.2801 129.536 -10.2801 243.152 59.5089 313.07C93.1571 346.781 138.333 365.509 186.001 365.509C233.67 365.509 278.846 346.781 312.494 313.07C382.283 243.152 382.283 129.536 312.494 59.6176C278.846 25.9071 233.981 7.17908 186.001 7.17908Z" fill="#468AF9"/>
<path d="M186.001 373C136.152 373 89.4184 353.648 54.5239 318.377C-18.069 245.649 -18.069 127.351 54.5239 54.6234C89.73 19.3523 136.464 0 186.001 0C235.851 0 282.584 19.3523 317.479 54.6234C390.072 127.351 390.072 245.649 317.479 318.377C282.584 353.648 235.851 373 186.001 373ZM186.001 7.17908C138.333 7.17908 93.1571 25.9071 59.5089 59.6176C-10.2801 129.536 -10.2801 243.152 59.5089 313.07C93.1571 346.781 138.333 365.509 186.001 365.509C233.67 365.509 278.846 346.781 312.494 313.07C382.283 243.152 382.283 129.536 312.494 59.6176C278.846 25.9071 233.981 7.17908 186.001 7.17908Z" fill="url(#paint2_linear)"/>
</g>
<defs>
<linearGradient id="paint0_linear" x1="186" y1="26.5315" x2="186" y2="346.157" gradientUnits="userSpaceOnUse">
<stop stop-color="#4B277A"/>
<stop offset="1" stop-color="#0C0515" stop-opacity="0"/>
</linearGradient>
<linearGradient id="paint1_linear" x1="185.961" y1="47.4443" x2="185.961" y2="325.244" gradientUnits="userSpaceOnUse">
<stop stop-color="#43236B"/>
<stop offset="1" stop-color="#0C0515" stop-opacity="0"/>
</linearGradient>
<linearGradient id="paint2_linear" x1="186.001" y1="0" x2="186.001" y2="373" gradientUnits="userSpaceOnUse">
<stop offset="0.526042" stop-color="#4A2B72"/>
<stop offset="1" stop-color="#0C0515" stop-opacity="0"/>
</linearGradient>
</defs>
</svg>
