<svg width="1276" height="302" viewBox="0 0 1276 302" fill="none" xmlns="http://www.w3.org/2000/svg">
<path opacity="0.5" fill-rule="evenodd" clip-rule="evenodd" d="M965.788 238.89C965.925 239.234 966 239.608 966 240C966 241.657 964.657 243 963 243C961.343 243 960 241.657 960 240C960 239.605 960.076 239.228 960.215 238.883L756.739 114.427L757.261 113.573L960.737 238.03C961.287 237.399 962.097 237 963 237C963.906 237 964.718 237.402 965.268 238.036L1013.74 208.573L1014.26 209.427L965.788 238.89Z" fill="#EB8174"/>
<path opacity="0.5" fill-rule="evenodd" clip-rule="evenodd" d="M567.982 3.32957C567.994 3.22134 568 3.11138 568 3C568 1.34315 566.657 0 565 0C563.343 0 562 1.34315 562 3C562 3.58098 562.165 4.12339 562.451 4.58284L387.665 162.629L388.335 163.371L563.113 5.33241C563.629 5.7499 564.285 6 565 6C566.184 6 567.209 5.31356 567.696 4.3168L664.254 58.9352L664.746 58.0648L567.982 3.32957Z" fill="#B5C783"/>
<path opacity="0.5" fill-rule="evenodd" clip-rule="evenodd" d="M232.551 297.421C232.836 297.88 233 298.421 233 299C233 300.657 231.657 302 230 302C228.343 302 227 300.657 227 299C227 298.286 227.25 297.63 227.666 297.115L77.6254 127.331L78.3747 126.669L228.416 296.452C228.875 296.166 229.418 296 230 296C230.717 296 231.374 296.251 231.89 296.67L317.17 221.625L317.83 222.375L232.551 297.421Z" fill="#5CC0BE"/>
<g clip-path="url(#clip0)">
<path d="M110.7 80.8C110.5 80.8 110.3 80.6 110.3 80.4C110.3 80.2 110.5 80.1 110.7 80.1C110.9 80.1 111 80.3 111 80.4C111 80.6 110.8 80.8 110.7 80.8Z" fill="#468AF9"/>
<path d="M109.3 92.6C109.1 92.6 109 92.5 109 92.3C109 92.1 109.1 92 109.3 92C109.5 92 109.6 92.1 109.6 92.3C109.6 92.5 109.5 92.6 109.3 92.6Z" fill="#468AF9"/>
<path d="M105.4 104C105.2 104 105 103.8 105 103.6C105 103.4 105.2 103.2 105.4 103.2C105.6 103.2 105.8 103.4 105.8 103.6C105.8 103.8 105.6 104 105.4 104Z" fill="#468AF9"/>
<path d="M99.1 114.4C98.8 114.4 98.5 114.1 98.5 113.8C98.5 113.5 98.8 113.2 99.1 113.2C99.4 113.2 99.7 113.5 99.7 113.8C99.7 114.1 99.4 114.4 99.1 114.4Z" fill="#468AF9"/>
<path d="M90.7 123.2C91.1971 123.2 91.6 122.797 91.6 122.3C91.6 121.803 91.1971 121.4 90.7 121.4C90.203 121.4 89.8 121.803 89.8 122.3C89.8 122.797 90.203 123.2 90.7 123.2Z" fill="#468AF9"/>
<path d="M80.6 130C79.9 130 79.4 129.5 79.4 128.8C79.4 128.1 79.9 127.6 80.6 127.6C81.3 127.6 81.8 128.1 81.8 128.8C81.8 129.5 81.3 130 80.6 130Z" fill="#468AF9"/>
<path d="M69.3 134.4C68.5 134.4 67.8 133.7 67.8 132.9C67.8 132.1 68.5 131.4 69.3 131.4C70.1 131.4 70.8 132.1 70.8 132.9C70.9 133.7 70.2 134.4 69.3 134.4Z" fill="#468AF9"/>
<path d="M57.5 136.1C56.5 136.1 55.8 135.3 55.8 134.4C55.8 133.4 56.6 132.7 57.5 132.7C58.5 132.7 59.2001 133.5 59.2001 134.4C59.2001 135.3 58.4 136.1 57.5 136.1Z" fill="#468AF9"/>
<path d="M45.5 135.1C44.5 135.1 43.6 134.3 43.6 133.2C43.6 132.2 44.4 131.3 45.5 131.3C46.5 131.3 47.4 132.1 47.4 133.2C47.4 134.3 46.6 135.1 45.5 135.1Z" fill="#468AF9"/>
<path d="M34.2 131.5C33.1 131.5 32.2 130.6 32.2 129.5C32.2 128.4 33.1 127.5 34.2 127.5C35.3 127.5 36.2 128.4 36.2 129.5C36.2 130.6 35.3 131.5 34.2 131.5Z" fill="#468AF9"/>
<path d="M23.9 125.4C22.6999 125.4 21.7 124.4 21.7 123.2C21.7 122 22.6999 121 23.9 121C25.1 121 26.1 122 26.1 123.2C26.1 124.4 25.1 125.4 23.9 125.4Z" fill="#468AF9"/>
<path d="M15.3 117.3C14 117.3 13 116.3 13 115C13 113.7 14 112.7 15.3 112.7C16.6 112.7 17.6 113.7 17.6 115C17.6 116.2 16.6 117.3 15.3 117.3Z" fill="#468AF9"/>
<path d="M8.69995 107.4C7.29995 107.4 6.19995 106.3 6.19995 104.9C6.19995 103.5 7.29995 102.4 8.69995 102.4C10.1 102.4 11.2 103.5 11.2 104.9C11.1 106.3 9.99995 107.4 8.69995 107.4Z" fill="#468AF9"/>
<path d="M4.40005 96.4C2.90005 96.4 1.80005 95.2 1.80005 93.8C1.80005 92.3 3.00005 91.2 4.40005 91.2C5.90005 91.2 7.00005 92.4 7.00005 93.8C7.10005 95.2 5.90005 96.4 4.40005 96.4Z" fill="#468AF9"/>
<path d="M2.8 84.7C1.3 84.7 0 83.5 0 81.9C0 80.4 1.2 79.1 2.8 79.1C4.3 79.1 5.6 80.3 5.6 81.9C5.6 83.4 4.3 84.7 2.8 84.7Z" fill="#468AF9"/>
<path d="M3.80005 72.9C2.20005 72.9 0.800049 71.6 0.800049 69.9C0.800049 68.3 2.10005 66.9 3.80005 66.9C5.40005 66.9 6.80005 68.2 6.80005 69.9C6.70005 71.6 5.40005 72.9 3.80005 72.9Z" fill="#468AF9"/>
<path d="M7.40005 61.7C5.70005 61.7 4.30005 60.3 4.30005 58.6C4.30005 56.9 5.70005 55.5 7.40005 55.5C9.10005 55.5 10.5 56.9 10.5 58.6C10.5 60.3 9.10005 61.7 7.40005 61.7Z" fill="#468AF9"/>
<path d="M13.4 51.5C15.2225 51.5 16.7 50.0225 16.7 48.2C16.7 46.3775 15.2225 44.9 13.4 44.9C11.5774 44.9 10.1 46.3775 10.1 48.2C10.1 50.0225 11.5774 51.5 13.4 51.5Z" fill="#468AF9"/>
<path d="M21.6 43C19.7 43 18.1 41.4 18.1 39.5C18.1 37.6 19.7 36 21.6 36C23.5 36 25.1 37.6 25.1 39.5C25.1 41.4 23.6 43 21.6 43Z" fill="#468AF9"/>
<path d="M31.5 36.3C29.5 36.3 27.9 34.7 27.9 32.7C27.9 30.7 29.5 29.1 31.5 29.1C33.5 29.1 35.1 30.7 35.1 32.7C35.1 34.7 33.5 36.3 31.5 36.3Z" fill="#468AF9"/>
<path d="M42.7 32C40.7 32 39.1 30.4 39.1 28.4C39.1 26.4 40.7 24.8 42.7 24.8C44.7 24.8 46.3 26.4 46.3 28.4C46.3 30.4 44.7 32 42.7 32Z" fill="#468AF9"/>
<path d="M54.5 30C52.5 30 51 28.5 51 26.5C51 24.5 52.5 23 54.5 23C56.4 23 58 24.6 58 26.5C58 28.4 56.4 30 54.5 30Z" fill="#468AF9"/>
<path d="M66.4 30.6C64.6 30.6 63.1 29.1 63.1 27.3C63.1 25.5 64.6 24 66.4 24C68.2 24 69.7 25.5 69.7 27.3C69.7 29.2 68.3 30.6 66.4 30.6Z" fill="#468AF9"/>
<path d="M77.9 33.7C76.3 33.7 75 32.4 75 30.8C75 29.2 76.3 27.9 77.9 27.9C79.5 27.9 80.8 29.2 80.8 30.8C80.8 32.4 79.5 33.7 77.9 33.7Z" fill="#468AF9"/>
<path d="M88.3 39C87 39 86 38 86 36.7C86 35.4 87 34.4 88.3 34.4C89.6 34.4 90.6 35.4 90.6 36.7C90.7 38 89.6 39 88.3 39Z" fill="#468AF9"/>
<path d="M97.2 46.5C96.3 46.5 95.5 45.7 95.5 44.8C95.5 43.9 96.3 43.1 97.2 43.1C98.1 43.1 98.9 43.9 98.9 44.8C98.9 45.7 98.1 46.5 97.2 46.5Z" fill="#468AF9"/>
<path d="M104.1 55.7C103.5 55.7 103 55.2 103 54.6C103 54 103.5 53.5 104.1 53.5C104.7 53.5 105.2 54 105.2 54.6C105.2 55.2 104.7 55.7 104.1 55.7Z" fill="#468AF9"/>
<path d="M108.6 66.3C108.2 66.3 107.9 66 107.9 65.6C107.9 65.2 108.2 64.9 108.6 64.9C109 64.9 109.3 65.2 109.3 65.6C109.3 66 109 66.3 108.6 66.3Z" fill="#468AF9"/>
<path d="M110.6 77.9C110.4 77.9 110.2 77.7 110.2 77.5C110.2 77.3 110.4 77.1 110.6 77.1C110.8 77.1 111 77.3 111 77.5C111 77.7 110.8 77.9 110.6 77.9Z" fill="#468AF9"/>
</g>
<path d="M127.372 84C127.022 84 126.805 83.818 126.721 83.454L124.012 69.951L123.97 69.72C123.97 69.608 124.012 69.51 124.096 69.426C124.18 69.342 124.278 69.3 124.39 69.3H125.419C125.713 69.3 125.881 69.419 125.923 69.657L128.086 80.619L130.417 73.059C130.501 72.723 130.718 72.555 131.068 72.555H131.803C132.139 72.555 132.363 72.723 132.475 73.059L134.785 80.619L136.948 69.657C136.99 69.419 137.165 69.3 137.473 69.3H138.481C138.593 69.3 138.691 69.342 138.775 69.426C138.859 69.51 138.901 69.608 138.901 69.72C138.901 69.804 138.894 69.881 138.88 69.951L136.15 83.454C136.08 83.818 135.863 84 135.499 84H134.743C134.393 84 134.162 83.825 134.05 83.475L131.446 75.39L128.821 83.475C128.723 83.825 128.499 84 128.149 84H127.372ZM145.272 84.21C143.844 84.21 142.703 83.769 141.849 82.887C140.995 81.991 140.526 80.773 140.442 79.233L140.421 78.519L140.442 77.826C140.526 76.314 140.995 75.11 141.849 74.214C142.703 73.318 143.844 72.87 145.272 72.87C146.812 72.87 148.002 73.36 148.842 74.34C149.696 75.32 150.123 76.65 150.123 78.33V78.708C150.123 78.848 150.074 78.967 149.976 79.065C149.892 79.149 149.78 79.191 149.64 79.191H142.353V79.38C142.395 80.29 142.675 81.067 143.193 81.711C143.711 82.355 144.397 82.677 145.251 82.677C145.909 82.677 146.441 82.551 146.847 82.299C147.267 82.033 147.582 81.76 147.792 81.48C147.918 81.312 148.016 81.214 148.086 81.186C148.156 81.144 148.275 81.123 148.443 81.123H149.367C149.493 81.123 149.598 81.158 149.682 81.228C149.78 81.298 149.829 81.389 149.829 81.501C149.829 81.809 149.64 82.18 149.262 82.614C148.884 83.048 148.345 83.426 147.645 83.748C146.959 84.056 146.168 84.21 145.272 84.21ZM148.212 77.763V77.7C148.212 76.72 147.946 75.922 147.414 75.306C146.882 74.69 146.168 74.382 145.272 74.382C144.362 74.382 143.648 74.69 143.13 75.306C142.612 75.922 142.353 76.72 142.353 77.7V77.763H148.212ZM158.01 84.21C156.498 84.21 155.343 83.678 154.545 82.614V83.517C154.545 83.657 154.496 83.776 154.398 83.874C154.314 83.958 154.202 84 154.062 84H153.18C153.04 84 152.921 83.958 152.823 83.874C152.739 83.776 152.697 83.657 152.697 83.517V69.573C152.697 69.419 152.739 69.3 152.823 69.216C152.921 69.132 153.04 69.09 153.18 69.09H154.125C154.265 69.09 154.377 69.139 154.461 69.237C154.559 69.321 154.608 69.433 154.608 69.573V74.424C155.392 73.388 156.526 72.87 158.01 72.87C159.48 72.87 160.579 73.353 161.307 74.319C162.049 75.271 162.441 76.468 162.483 77.91C162.497 78.064 162.504 78.274 162.504 78.54C162.504 78.806 162.497 79.016 162.483 79.17C162.441 80.612 162.049 81.816 161.307 82.782C160.579 83.734 159.48 84.21 158.01 84.21ZM157.611 82.572C158.619 82.572 159.354 82.257 159.816 81.627C160.278 80.997 160.53 80.171 160.572 79.149C160.586 79.009 160.593 78.806 160.593 78.54C160.593 75.852 159.599 74.508 157.611 74.508C156.659 74.508 155.924 74.823 155.406 75.453C154.902 76.069 154.636 76.804 154.608 77.658C154.594 77.812 154.587 78.085 154.587 78.477C154.587 78.855 154.594 79.121 154.608 79.275C154.636 80.171 154.895 80.948 155.385 81.606C155.889 82.25 156.631 82.572 157.611 82.572ZM173.749 84C173.609 84 173.49 83.958 173.392 83.874C173.308 83.776 173.266 83.657 173.266 83.517V71.106H169.213C169.073 71.106 168.954 71.064 168.856 70.98C168.772 70.882 168.73 70.763 168.73 70.623V69.804C168.73 69.65 168.772 69.531 168.856 69.447C168.954 69.349 169.073 69.3 169.213 69.3H179.293C179.447 69.3 179.566 69.349 179.65 69.447C179.734 69.531 179.776 69.65 179.776 69.804V70.623C179.776 70.763 179.727 70.882 179.629 70.98C179.545 71.064 179.433 71.106 179.293 71.106H175.261V83.517C175.261 83.657 175.212 83.776 175.114 83.874C175.016 83.958 174.897 84 174.757 84H173.749ZM180.64 84C180.5 84 180.381 83.958 180.283 83.874C180.199 83.776 180.157 83.657 180.157 83.517V73.584C180.157 73.444 180.199 73.325 180.283 73.227C180.381 73.129 180.5 73.08 180.64 73.08H181.522C181.676 73.08 181.795 73.129 181.879 73.227C181.977 73.311 182.026 73.43 182.026 73.584V74.508C182.6 73.556 183.573 73.08 184.945 73.08H185.764C185.918 73.08 186.037 73.122 186.121 73.206C186.205 73.29 186.247 73.409 186.247 73.563V74.34C186.247 74.48 186.205 74.599 186.121 74.697C186.037 74.781 185.918 74.823 185.764 74.823H184.567C183.797 74.823 183.188 75.047 182.74 75.495C182.306 75.943 182.089 76.552 182.089 77.322V83.517C182.089 83.657 182.04 83.776 181.942 83.874C181.844 83.958 181.725 84 181.585 84H180.64ZM190.912 84.21C190.226 84.21 189.589 84.07 189.001 83.79C188.427 83.51 187.965 83.132 187.615 82.656C187.279 82.166 187.111 81.627 187.111 81.039C187.111 80.115 187.489 79.359 188.245 78.771C189.001 78.183 190.03 77.791 191.332 77.595L194.482 77.154V76.545C194.482 75.103 193.649 74.382 191.983 74.382C191.339 74.382 190.821 74.515 190.429 74.781C190.037 75.033 189.75 75.334 189.568 75.684C189.512 75.824 189.449 75.922 189.379 75.978C189.323 76.02 189.239 76.041 189.127 76.041H188.308C188.182 76.041 188.07 75.999 187.972 75.915C187.888 75.817 187.846 75.705 187.846 75.579C187.846 75.257 187.993 74.886 188.287 74.466C188.595 74.032 189.064 73.661 189.694 73.353C190.324 73.031 191.094 72.87 192.004 72.87C193.572 72.87 194.692 73.234 195.364 73.962C196.05 74.69 196.393 75.6 196.393 76.692V83.517C196.393 83.657 196.344 83.776 196.246 83.874C196.162 83.958 196.05 84 195.91 84H194.986C194.846 84 194.734 83.958 194.65 83.874C194.566 83.776 194.524 83.657 194.524 83.517V82.593C194.216 83.055 193.768 83.44 193.18 83.748C192.592 84.056 191.836 84.21 190.912 84.21ZM191.332 82.677C192.256 82.677 193.012 82.376 193.6 81.774C194.188 81.172 194.482 80.297 194.482 79.149V78.561L192.025 78.918C191.017 79.058 190.254 79.296 189.736 79.632C189.218 79.968 188.959 80.388 188.959 80.892C188.959 81.466 189.19 81.907 189.652 82.215C190.128 82.523 190.688 82.677 191.332 82.677ZM203.424 84.21C201.954 84.21 200.848 83.734 200.106 82.782C199.378 81.83 198.986 80.626 198.93 79.17L198.909 78.54L198.93 77.91C198.986 76.468 199.385 75.271 200.127 74.319C200.869 73.353 201.968 72.87 203.424 72.87C204.88 72.87 206.014 73.388 206.826 74.424V69.573C206.826 69.433 206.868 69.321 206.952 69.237C207.05 69.139 207.169 69.09 207.309 69.09H208.254C208.394 69.09 208.506 69.139 208.59 69.237C208.688 69.321 208.737 69.433 208.737 69.573V83.517C208.737 83.657 208.688 83.776 208.59 83.874C208.506 83.958 208.394 84 208.254 84H207.351C207.211 84 207.099 83.958 207.015 83.874C206.931 83.776 206.889 83.657 206.889 83.517V82.614C206.091 83.678 204.936 84.21 203.424 84.21ZM203.823 82.572C204.803 82.572 205.538 82.25 206.028 81.606C206.518 80.948 206.784 80.171 206.826 79.275C206.84 79.121 206.847 78.855 206.847 78.477C206.847 78.085 206.84 77.812 206.826 77.658C206.798 76.804 206.525 76.069 206.007 75.453C205.503 74.823 204.775 74.508 203.823 74.508C202.815 74.508 202.08 74.823 201.618 75.453C201.156 76.083 200.904 76.909 200.862 77.931L200.841 78.54C200.841 81.228 201.835 82.572 203.823 82.572ZM216.229 84.21C214.801 84.21 213.66 83.769 212.806 82.887C211.952 81.991 211.483 80.773 211.399 79.233L211.378 78.519L211.399 77.826C211.483 76.314 211.952 75.11 212.806 74.214C213.66 73.318 214.801 72.87 216.229 72.87C217.769 72.87 218.959 73.36 219.799 74.34C220.653 75.32 221.08 76.65 221.08 78.33V78.708C221.08 78.848 221.031 78.967 220.933 79.065C220.849 79.149 220.737 79.191 220.597 79.191H213.31V79.38C213.352 80.29 213.632 81.067 214.15 81.711C214.668 82.355 215.354 82.677 216.208 82.677C216.866 82.677 217.398 82.551 217.804 82.299C218.224 82.033 218.539 81.76 218.749 81.48C218.875 81.312 218.973 81.214 219.043 81.186C219.113 81.144 219.232 81.123 219.4 81.123H220.324C220.45 81.123 220.555 81.158 220.639 81.228C220.737 81.298 220.786 81.389 220.786 81.501C220.786 81.809 220.597 82.18 220.219 82.614C219.841 83.048 219.302 83.426 218.602 83.748C217.916 84.056 217.125 84.21 216.229 84.21ZM219.169 77.763V77.7C219.169 76.72 218.903 75.922 218.371 75.306C217.839 74.69 217.125 74.382 216.229 74.382C215.319 74.382 214.605 74.69 214.087 75.306C213.569 75.922 213.31 76.72 213.31 77.7V77.763H219.169ZM224.116 84C223.976 84 223.857 83.958 223.759 83.874C223.675 83.776 223.633 83.657 223.633 83.517V73.584C223.633 73.444 223.675 73.325 223.759 73.227C223.857 73.129 223.976 73.08 224.116 73.08H224.998C225.152 73.08 225.271 73.129 225.355 73.227C225.453 73.311 225.502 73.43 225.502 73.584V74.508C226.076 73.556 227.049 73.08 228.421 73.08H229.24C229.394 73.08 229.513 73.122 229.597 73.206C229.681 73.29 229.723 73.409 229.723 73.563V74.34C229.723 74.48 229.681 74.599 229.597 74.697C229.513 74.781 229.394 74.823 229.24 74.823H228.043C227.273 74.823 226.664 75.047 226.216 75.495C225.782 75.943 225.565 76.552 225.565 77.322V83.517C225.565 83.657 225.516 83.776 225.418 83.874C225.32 83.958 225.201 84 225.061 84H224.116Z" fill="#468AF9"/>
<circle cx="55.5" cy="80.5" r="42.5" fill="url(#paint0_linear)"/>
<g clip-path="url(#clip1)">
<path d="M55.868 96.9798C49.8994 96.9798 43.9513 96.9597 37.9828 97C37.0221 97 36.6746 96.6973 36.7768 95.7891C36.7972 95.5873 36.7972 95.3855 36.7768 95.1837C36.6133 94.1746 36.9812 93.7306 38.0441 93.892C38.8004 94.0131 39.0457 93.6499 39.0457 92.9233C39.0048 91.107 39.0661 89.2906 39.0252 87.4743C39.0048 86.7276 39.2705 86.4854 40.0268 86.4854C42.0299 86.5257 44.0535 86.5257 46.0567 86.4854C46.8334 86.4652 47.0378 86.7477 47.0174 87.4945C46.9765 89.2705 47.0174 91.0666 46.9969 92.8426C46.9765 93.6095 47.2422 93.9526 48.0598 93.9122C48.9183 93.8719 49.7768 93.8517 50.6148 93.9122C51.6369 94.0131 51.9639 93.67 51.9639 92.6206C51.923 87.2725 51.9435 81.9243 51.9435 76.5762C51.9435 75.0424 51.9435 75.0424 53.4356 75.0424C55.173 75.0424 56.9104 75.0828 58.6479 75.0222C59.6086 74.9818 59.8947 75.3249 59.8743 76.2331C59.8334 81.6418 59.8538 87.0707 59.8538 92.4793C59.8538 93.8719 59.8538 93.8719 61.2642 93.892C62.1431 93.892 63.0425 93.8719 63.9214 93.892C64.5347 93.9122 64.8004 93.6499 64.7799 93.0646C64.7799 92.7619 64.7799 92.4591 64.7799 92.1564C64.7799 83.0343 64.8004 73.9324 64.7595 64.8103C64.7595 63.9223 65.0865 63.7407 65.8837 63.7609C67.7847 63.8012 69.706 63.8214 71.607 63.7609C72.5064 63.7205 72.7721 63.9829 72.7721 64.891C72.7312 73.004 72.7516 81.0969 72.7516 89.2099C72.7516 90.4612 72.7925 91.6922 72.7312 92.9435C72.7108 93.6902 72.9765 94.0333 73.7328 93.9122C74.673 93.771 75.0614 94.0737 75.0205 95.1029C74.9387 97.3431 75.0614 96.9798 73.0582 96.9798C67.3145 96.9798 61.5913 96.9798 55.868 96.9798Z" fill="#E7F0FF"/>
<path d="M63.4718 57C61.8365 57 60.5079 58.3118 60.5079 59.9263C60.5079 60.2896 60.5897 60.6529 60.7123 60.9758L52.7202 67.8174C52.2501 67.5146 51.6777 67.3128 51.0645 67.3128C49.4293 67.3128 48.1007 68.6246 48.1007 70.2392C48.1007 70.6831 48.2029 71.1271 48.3868 71.5106L40.7218 78.0696C40.2312 77.7064 39.618 77.4844 38.9435 77.4844C37.3082 77.4844 35.9796 78.7962 35.9796 80.4107C35.9796 82.0252 37.3082 83.337 38.9435 83.337C40.5787 83.337 41.9277 82.0252 41.9277 80.3905C41.9277 80.1685 41.9073 79.9465 41.846 79.7447L49.8585 72.9031C50.2265 73.0646 50.6353 73.1655 51.085 73.1655C52.7202 73.1655 54.0488 71.8537 54.0488 70.2392C54.0488 69.9566 54.0079 69.6741 53.9262 69.4319L62.0409 62.4894C62.4702 62.7316 62.9607 62.8527 63.4922 62.8527C65.1274 62.8527 66.456 61.5409 66.456 59.9263C66.456 58.3118 65.1274 57 63.4718 57Z" fill="#E7F0FF"/>
</g>
<rect x="173" y="93" width="65" height="4" fill="#468AF9"/>
<g clip-path="url(#clip2)">
<path d="M414.7 189.8C414.5 189.8 414.3 189.6 414.3 189.4C414.3 189.2 414.5 189.1 414.7 189.1C414.9 189.1 415 189.3 415 189.4C415 189.6 414.8 189.8 414.7 189.8Z" fill="#68DCA1"/>
<path d="M413.3 201.6C413.1 201.6 413 201.5 413 201.3C413 201.1 413.1 201 413.3 201C413.5 201 413.6 201.1 413.6 201.3C413.6 201.5 413.5 201.6 413.3 201.6Z" fill="#68DCA1"/>
<path d="M409.4 213C409.2 213 409 212.8 409 212.6C409 212.4 409.2 212.2 409.4 212.2C409.6 212.2 409.8 212.4 409.8 212.6C409.8 212.8 409.6 213 409.4 213Z" fill="#68DCA1"/>
<path d="M403.1 223.4C402.8 223.4 402.5 223.1 402.5 222.8C402.5 222.5 402.8 222.2 403.1 222.2C403.4 222.2 403.7 222.5 403.7 222.8C403.7 223.1 403.4 223.4 403.1 223.4Z" fill="#68DCA1"/>
<path d="M394.7 232.2C395.197 232.2 395.6 231.797 395.6 231.3C395.6 230.803 395.197 230.4 394.7 230.4C394.203 230.4 393.8 230.803 393.8 231.3C393.8 231.797 394.203 232.2 394.7 232.2Z" fill="#68DCA1"/>
<path d="M384.6 239C383.9 239 383.4 238.5 383.4 237.8C383.4 237.1 383.9 236.6 384.6 236.6C385.3 236.6 385.8 237.1 385.8 237.8C385.8 238.5 385.3 239 384.6 239Z" fill="#68DCA1"/>
<path d="M373.3 243.4C372.5 243.4 371.8 242.7 371.8 241.9C371.8 241.1 372.5 240.4 373.3 240.4C374.1 240.4 374.8 241.1 374.8 241.9C374.9 242.7 374.2 243.4 373.3 243.4Z" fill="#68DCA1"/>
<path d="M361.5 245.1C360.5 245.1 359.8 244.3 359.8 243.4C359.8 242.4 360.6 241.7 361.5 241.7C362.5 241.7 363.2 242.5 363.2 243.4C363.2 244.3 362.4 245.1 361.5 245.1Z" fill="#68DCA1"/>
<path d="M349.5 244.1C348.5 244.1 347.6 243.3 347.6 242.2C347.6 241.2 348.4 240.3 349.5 240.3C350.5 240.3 351.4 241.1 351.4 242.2C351.4 243.3 350.6 244.1 349.5 244.1Z" fill="#68DCA1"/>
<path d="M338.2 240.5C337.1 240.5 336.2 239.6 336.2 238.5C336.2 237.4 337.1 236.5 338.2 236.5C339.3 236.5 340.2 237.4 340.2 238.5C340.2 239.6 339.3 240.5 338.2 240.5Z" fill="#68DCA1"/>
<path d="M327.9 234.4C326.7 234.4 325.7 233.4 325.7 232.2C325.7 231 326.7 230 327.9 230C329.1 230 330.1 231 330.1 232.2C330.1 233.4 329.1 234.4 327.9 234.4Z" fill="#68DCA1"/>
<path d="M319.3 226.3C318 226.3 317 225.3 317 224C317 222.7 318 221.7 319.3 221.7C320.6 221.7 321.6 222.7 321.6 224C321.6 225.2 320.6 226.3 319.3 226.3Z" fill="#68DCA1"/>
<path d="M312.7 216.4C311.3 216.4 310.2 215.3 310.2 213.9C310.2 212.5 311.3 211.4 312.7 211.4C314.1 211.4 315.2 212.5 315.2 213.9C315.1 215.3 314 216.4 312.7 216.4Z" fill="#68DCA1"/>
<path d="M308.4 205.4C306.9 205.4 305.8 204.2 305.8 202.8C305.8 201.3 307 200.2 308.4 200.2C309.9 200.2 311 201.4 311 202.8C311.1 204.2 309.9 205.4 308.4 205.4Z" fill="#68DCA1"/>
<path d="M306.8 193.7C305.3 193.7 304 192.5 304 190.9C304 189.4 305.2 188.1 306.8 188.1C308.3 188.1 309.6 189.3 309.6 190.9C309.6 192.4 308.3 193.7 306.8 193.7Z" fill="#68DCA1"/>
<path d="M307.8 181.9C306.2 181.9 304.8 180.6 304.8 178.9C304.8 177.3 306.1 175.9 307.8 175.9C309.4 175.9 310.8 177.2 310.8 178.9C310.7 180.6 309.4 181.9 307.8 181.9Z" fill="#68DCA1"/>
<path d="M311.4 170.7C309.7 170.7 308.3 169.3 308.3 167.6C308.3 165.9 309.7 164.5 311.4 164.5C313.1 164.5 314.5 165.9 314.5 167.6C314.5 169.3 313.1 170.7 311.4 170.7Z" fill="#68DCA1"/>
<path d="M317.4 160.5C319.223 160.5 320.7 159.023 320.7 157.2C320.7 155.377 319.223 153.9 317.4 153.9C315.577 153.9 314.1 155.377 314.1 157.2C314.1 159.023 315.577 160.5 317.4 160.5Z" fill="#68DCA1"/>
<path d="M325.6 152C323.7 152 322.1 150.4 322.1 148.5C322.1 146.6 323.7 145 325.6 145C327.5 145 329.1 146.6 329.1 148.5C329.1 150.4 327.6 152 325.6 152Z" fill="#68DCA1"/>
<path d="M335.5 145.3C333.5 145.3 331.9 143.7 331.9 141.7C331.9 139.7 333.5 138.1 335.5 138.1C337.5 138.1 339.1 139.7 339.1 141.7C339.1 143.7 337.5 145.3 335.5 145.3Z" fill="#68DCA1"/>
<path d="M346.7 141C344.7 141 343.1 139.4 343.1 137.4C343.1 135.4 344.7 133.8 346.7 133.8C348.7 133.8 350.3 135.4 350.3 137.4C350.3 139.4 348.7 141 346.7 141Z" fill="#68DCA1"/>
<path d="M358.5 139C356.5 139 355 137.5 355 135.5C355 133.5 356.5 132 358.5 132C360.4 132 362 133.6 362 135.5C362 137.4 360.4 139 358.5 139Z" fill="#68DCA1"/>
<path d="M370.4 139.6C368.6 139.6 367.1 138.1 367.1 136.3C367.1 134.5 368.6 133 370.4 133C372.2 133 373.7 134.5 373.7 136.3C373.7 138.2 372.3 139.6 370.4 139.6Z" fill="#68DCA1"/>
<path d="M381.9 142.7C380.3 142.7 379 141.4 379 139.8C379 138.2 380.3 136.9 381.9 136.9C383.5 136.9 384.8 138.2 384.8 139.8C384.8 141.4 383.5 142.7 381.9 142.7Z" fill="#68DCA1"/>
<path d="M392.3 148C391 148 390 147 390 145.7C390 144.4 391 143.4 392.3 143.4C393.6 143.4 394.6 144.4 394.6 145.7C394.7 147 393.6 148 392.3 148Z" fill="#68DCA1"/>
<path d="M401.2 155.5C400.3 155.5 399.5 154.7 399.5 153.8C399.5 152.9 400.3 152.1 401.2 152.1C402.1 152.1 402.9 152.9 402.9 153.8C402.9 154.7 402.1 155.5 401.2 155.5Z" fill="#68DCA1"/>
<path d="M408.1 164.7C407.5 164.7 407 164.2 407 163.6C407 163 407.5 162.5 408.1 162.5C408.7 162.5 409.2 163 409.2 163.6C409.2 164.2 408.7 164.7 408.1 164.7Z" fill="#68DCA1"/>
<path d="M412.6 175.3C412.2 175.3 411.9 175 411.9 174.6C411.9 174.2 412.2 173.9 412.6 173.9C413 173.9 413.3 174.2 413.3 174.6C413.3 175 413 175.3 412.6 175.3Z" fill="#68DCA1"/>
<path d="M414.6 186.9C414.4 186.9 414.2 186.7 414.2 186.5C414.2 186.3 414.4 186.1 414.6 186.1C414.8 186.1 415 186.3 415 186.5C415 186.7 414.8 186.9 414.6 186.9Z" fill="#68DCA1"/>
</g>
<path d="M439.574 193C439.434 193 439.322 192.958 439.238 192.874C439.154 192.776 439.112 192.657 439.112 192.517V178.804C439.112 178.65 439.154 178.531 439.238 178.447C439.322 178.349 439.434 178.3 439.574 178.3H444.698C446.294 178.3 447.54 178.678 448.436 179.434C449.346 180.176 449.801 181.261 449.801 182.689C449.801 183.753 449.535 184.628 449.003 185.314C448.471 186 447.729 186.476 446.777 186.742L450.011 192.349C450.053 192.433 450.074 192.51 450.074 192.58C450.074 192.692 450.032 192.79 449.948 192.874C449.864 192.958 449.766 193 449.654 193H448.73C448.52 193 448.352 192.951 448.226 192.853C448.114 192.755 448.009 192.615 447.911 192.433L444.824 187.057H441.086V192.517C441.086 192.657 441.037 192.776 440.939 192.874C440.841 192.958 440.722 193 440.582 193H439.574ZM444.614 185.335C446.728 185.335 447.785 184.446 447.785 182.668C447.785 180.89 446.728 180.001 444.614 180.001H441.086V185.335H444.614ZM456.782 193.21C455.354 193.21 454.213 192.769 453.359 191.887C452.505 190.991 452.036 189.773 451.952 188.233L451.931 187.519L451.952 186.826C452.036 185.314 452.505 184.11 453.359 183.214C454.213 182.318 455.354 181.87 456.782 181.87C458.322 181.87 459.512 182.36 460.352 183.34C461.206 184.32 461.633 185.65 461.633 187.33V187.708C461.633 187.848 461.584 187.967 461.486 188.065C461.402 188.149 461.29 188.191 461.15 188.191H453.863V188.38C453.905 189.29 454.185 190.067 454.703 190.711C455.221 191.355 455.907 191.677 456.761 191.677C457.419 191.677 457.951 191.551 458.357 191.299C458.777 191.033 459.092 190.76 459.302 190.48C459.428 190.312 459.526 190.214 459.596 190.186C459.666 190.144 459.785 190.123 459.953 190.123H460.877C461.003 190.123 461.108 190.158 461.192 190.228C461.29 190.298 461.339 190.389 461.339 190.501C461.339 190.809 461.15 191.18 460.772 191.614C460.394 192.048 459.855 192.426 459.155 192.748C458.469 193.056 457.678 193.21 456.782 193.21ZM459.722 186.763V186.7C459.722 185.72 459.456 184.922 458.924 184.306C458.392 183.69 457.678 183.382 456.782 183.382C455.872 183.382 455.158 183.69 454.64 184.306C454.122 184.922 453.863 185.72 453.863 186.7V186.763H459.722ZM464.69 196.99C464.55 196.99 464.431 196.948 464.333 196.864C464.249 196.78 464.207 196.661 464.207 196.507V182.563C464.207 182.409 464.249 182.29 464.333 182.206C464.431 182.122 464.55 182.08 464.69 182.08H465.572C465.726 182.08 465.845 182.122 465.929 182.206C466.013 182.29 466.055 182.409 466.055 182.563V183.487C466.867 182.409 468.022 181.87 469.52 181.87C470.99 181.87 472.089 182.339 472.817 183.277C473.559 184.201 473.951 185.384 473.993 186.826C474.007 186.98 474.014 187.218 474.014 187.54C474.014 187.862 474.007 188.1 473.993 188.254C473.951 189.682 473.559 190.865 472.817 191.803C472.089 192.741 470.99 193.21 469.52 193.21C468.022 193.21 466.888 192.678 466.118 191.614V196.507C466.118 196.647 466.069 196.759 465.971 196.843C465.887 196.941 465.775 196.99 465.635 196.99H464.69ZM469.121 191.572C470.129 191.572 470.864 191.257 471.326 190.627C471.788 189.997 472.04 189.171 472.082 188.149C472.096 188.009 472.103 187.806 472.103 187.54C472.103 184.852 471.109 183.508 469.121 183.508C468.141 183.508 467.399 183.837 466.895 184.495C466.405 185.139 466.146 185.902 466.118 186.784C466.104 186.938 466.097 187.211 466.097 187.603C466.097 187.995 466.104 188.268 466.118 188.422C466.146 189.276 466.412 190.018 466.916 190.648C467.434 191.264 468.169 191.572 469.121 191.572ZM481.086 193.21C479.546 193.21 478.356 192.776 477.516 191.908C476.69 191.04 476.249 189.885 476.193 188.443L476.172 187.54L476.193 186.637C476.249 185.195 476.697 184.04 477.537 183.172C478.391 182.304 479.574 181.87 481.086 181.87C482.598 181.87 483.774 182.304 484.614 183.172C485.468 184.04 485.923 185.195 485.979 186.637C486.007 186.945 486.021 187.246 486.021 187.54C486.021 187.834 486.007 188.135 485.979 188.443C485.923 189.885 485.475 191.04 484.635 191.908C483.809 192.776 482.626 193.21 481.086 193.21ZM481.086 191.635C481.982 191.635 482.689 191.355 483.207 190.795C483.739 190.221 484.026 189.402 484.068 188.338C484.082 188.198 484.089 187.932 484.089 187.54C484.089 187.148 484.082 186.882 484.068 186.742C484.026 185.678 483.739 184.866 483.207 184.306C482.689 183.732 481.982 183.445 481.086 183.445C480.19 183.445 479.476 183.732 478.944 184.306C478.426 184.866 478.146 185.678 478.104 186.742L478.083 187.54L478.104 188.338C478.146 189.402 478.426 190.221 478.944 190.795C479.476 191.355 480.19 191.635 481.086 191.635ZM489.156 193C489.016 193 488.897 192.958 488.799 192.874C488.715 192.776 488.673 192.657 488.673 192.517V182.584C488.673 182.444 488.715 182.325 488.799 182.227C488.897 182.129 489.016 182.08 489.156 182.08H490.038C490.192 182.08 490.311 182.129 490.395 182.227C490.493 182.311 490.542 182.43 490.542 182.584V183.508C491.116 182.556 492.089 182.08 493.461 182.08H494.28C494.434 182.08 494.553 182.122 494.637 182.206C494.721 182.29 494.763 182.409 494.763 182.563V183.34C494.763 183.48 494.721 183.599 494.637 183.697C494.553 183.781 494.434 183.823 494.28 183.823H493.083C492.313 183.823 491.704 184.047 491.256 184.495C490.822 184.943 490.605 185.552 490.605 186.322V192.517C490.605 192.657 490.556 192.776 490.458 192.874C490.36 192.958 490.241 193 490.101 193H489.156ZM500.768 193C498.598 193 497.513 191.775 497.513 189.325V183.697H495.854C495.714 183.697 495.602 183.655 495.518 183.571C495.434 183.487 495.392 183.375 495.392 183.235V182.563C495.392 182.423 495.434 182.311 495.518 182.227C495.602 182.129 495.714 182.08 495.854 182.08H497.513V178.573C497.513 178.433 497.555 178.321 497.639 178.237C497.723 178.139 497.835 178.09 497.975 178.09H498.899C499.039 178.09 499.151 178.139 499.235 178.237C499.333 178.321 499.382 178.433 499.382 178.573V182.08H501.986C502.126 182.08 502.238 182.129 502.322 182.227C502.42 182.311 502.469 182.423 502.469 182.563V183.235C502.469 183.375 502.42 183.487 502.322 183.571C502.238 183.655 502.126 183.697 501.986 183.697H499.382V189.178C499.382 189.892 499.494 190.431 499.718 190.795C499.956 191.159 500.355 191.341 500.915 191.341H502.196C502.336 191.341 502.448 191.39 502.532 191.488C502.616 191.572 502.658 191.684 502.658 191.824V192.517C502.658 192.657 502.616 192.776 502.532 192.874C502.448 192.958 502.336 193 502.196 193H500.768ZM505.025 180.022C504.885 180.022 504.766 179.98 504.668 179.896C504.584 179.798 504.542 179.679 504.542 179.539V178.447C504.542 178.307 504.584 178.188 504.668 178.09C504.766 177.992 504.885 177.943 505.025 177.943H506.264C506.404 177.943 506.523 177.992 506.621 178.09C506.719 178.188 506.768 178.307 506.768 178.447V179.539C506.768 179.679 506.719 179.798 506.621 179.896C506.523 179.98 506.404 180.022 506.264 180.022H505.025ZM505.193 193C505.053 193 504.934 192.958 504.836 192.874C504.752 192.776 504.71 192.657 504.71 192.517V182.563C504.71 182.423 504.752 182.311 504.836 182.227C504.934 182.129 505.053 182.08 505.193 182.08H506.117C506.257 182.08 506.369 182.129 506.453 182.227C506.551 182.311 506.6 182.423 506.6 182.563V192.517C506.6 192.657 506.551 192.776 506.453 192.874C506.369 192.958 506.257 193 506.117 193H505.193ZM510.238 193C510.098 193 509.979 192.958 509.881 192.874C509.797 192.776 509.755 192.657 509.755 192.517V182.563C509.755 182.423 509.797 182.311 509.881 182.227C509.979 182.129 510.098 182.08 510.238 182.08H511.141C511.295 182.08 511.414 182.122 511.498 182.206C511.582 182.29 511.624 182.409 511.624 182.563V183.487C512.044 182.969 512.527 182.57 513.073 182.29C513.633 182.01 514.326 181.87 515.152 181.87C516.496 181.87 517.539 182.304 518.281 183.172C519.023 184.026 519.394 185.16 519.394 186.574V192.517C519.394 192.657 519.345 192.776 519.247 192.874C519.163 192.958 519.051 193 518.911 193H517.945C517.805 193 517.686 192.958 517.588 192.874C517.504 192.776 517.462 192.657 517.462 192.517V186.7C517.462 185.692 517.217 184.908 516.727 184.348C516.237 183.788 515.537 183.508 514.627 183.508C513.731 183.508 513.017 183.795 512.485 184.369C511.953 184.929 511.687 185.706 511.687 186.7V192.517C511.687 192.657 511.638 192.776 511.54 192.874C511.456 192.958 511.344 193 511.204 193H510.238ZM526.86 197.62C525.698 197.62 524.767 197.424 524.067 197.032C523.367 196.64 522.87 196.192 522.576 195.688C522.296 195.184 522.156 194.75 522.156 194.386C522.156 194.26 522.205 194.148 522.303 194.05C522.401 193.966 522.513 193.924 522.639 193.924H523.563C523.689 193.924 523.794 193.952 523.878 194.008C523.962 194.078 524.032 194.197 524.088 194.365C524.48 195.485 525.369 196.045 526.755 196.045C527.805 196.045 528.582 195.821 529.086 195.373C529.59 194.925 529.842 194.134 529.842 193V191.551C529.03 192.587 527.896 193.105 526.44 193.105C524.956 193.105 523.843 192.629 523.101 191.677C522.373 190.725 521.988 189.521 521.946 188.065L521.925 187.477L521.946 186.91C521.988 185.468 522.373 184.271 523.101 183.319C523.843 182.353 524.956 181.87 526.44 181.87C527.91 181.87 529.058 182.409 529.884 183.487V182.584C529.884 182.444 529.926 182.325 530.01 182.227C530.108 182.129 530.227 182.08 530.367 182.08H531.27C531.41 182.08 531.522 182.129 531.606 182.227C531.704 182.325 531.753 182.444 531.753 182.584V192.769C531.753 196.003 530.122 197.62 526.86 197.62ZM526.818 191.467C527.798 191.467 528.533 191.152 529.023 190.522C529.527 189.878 529.8 189.108 529.842 188.212C529.856 188.086 529.863 187.841 529.863 187.477C529.863 187.127 529.856 186.889 529.842 186.763C529.8 185.867 529.527 185.104 529.023 184.474C528.533 183.83 527.798 183.508 526.818 183.508C525.81 183.508 525.075 183.83 524.613 184.474C524.165 185.104 523.92 185.923 523.878 186.931L523.857 187.477L523.878 188.044C523.92 189.052 524.165 189.878 524.613 190.522C525.075 191.152 525.81 191.467 526.818 191.467ZM540.821 193C540.681 193 540.569 192.958 540.485 192.874C540.401 192.776 540.359 192.657 540.359 192.517V178.804C540.359 178.65 540.401 178.531 540.485 178.447C540.569 178.349 540.681 178.3 540.821 178.3H546.554C548.038 178.3 549.158 178.657 549.914 179.371C550.67 180.085 551.048 181.016 551.048 182.164C551.048 182.948 550.866 183.606 550.502 184.138C550.138 184.656 549.711 185.034 549.221 185.272C549.823 185.566 550.327 186.021 550.733 186.637C551.139 187.253 551.342 187.96 551.342 188.758C551.342 189.542 551.16 190.256 550.796 190.9C550.446 191.544 549.921 192.055 549.221 192.433C548.521 192.811 547.688 193 546.722 193H540.821ZM546.239 184.537C547.149 184.537 547.842 184.334 548.318 183.928C548.794 183.508 549.032 182.927 549.032 182.185C549.032 181.457 548.794 180.904 548.318 180.526C547.856 180.148 547.163 179.959 546.239 179.959H542.333V184.537H546.239ZM546.449 191.341C547.345 191.341 548.045 191.103 548.549 190.627C549.067 190.137 549.326 189.514 549.326 188.758C549.326 187.988 549.067 187.365 548.549 186.889C548.045 186.413 547.345 186.175 546.449 186.175H542.333V191.341H546.449ZM557.117 193.21C556.431 193.21 555.794 193.07 555.206 192.79C554.632 192.51 554.17 192.132 553.82 191.656C553.484 191.166 553.316 190.627 553.316 190.039C553.316 189.115 553.694 188.359 554.45 187.771C555.206 187.183 556.235 186.791 557.537 186.595L560.687 186.154V185.545C560.687 184.103 559.854 183.382 558.188 183.382C557.544 183.382 557.026 183.515 556.634 183.781C556.242 184.033 555.955 184.334 555.773 184.684C555.717 184.824 555.654 184.922 555.584 184.978C555.528 185.02 555.444 185.041 555.332 185.041H554.513C554.387 185.041 554.275 184.999 554.177 184.915C554.093 184.817 554.051 184.705 554.051 184.579C554.051 184.257 554.198 183.886 554.492 183.466C554.8 183.032 555.269 182.661 555.899 182.353C556.529 182.031 557.299 181.87 558.209 181.87C559.777 181.87 560.897 182.234 561.569 182.962C562.255 183.69 562.598 184.6 562.598 185.692V192.517C562.598 192.657 562.549 192.776 562.451 192.874C562.367 192.958 562.255 193 562.115 193H561.191C561.051 193 560.939 192.958 560.855 192.874C560.771 192.776 560.729 192.657 560.729 192.517V191.593C560.421 192.055 559.973 192.44 559.385 192.748C558.797 193.056 558.041 193.21 557.117 193.21ZM557.537 191.677C558.461 191.677 559.217 191.376 559.805 190.774C560.393 190.172 560.687 189.297 560.687 188.149V187.561L558.23 187.918C557.222 188.058 556.459 188.296 555.941 188.632C555.423 188.968 555.164 189.388 555.164 189.892C555.164 190.466 555.395 190.907 555.857 191.215C556.333 191.523 556.893 191.677 557.537 191.677ZM570.006 193.21C568.508 193.21 567.339 192.79 566.499 191.95C565.659 191.096 565.218 189.906 565.176 188.38L565.155 187.54L565.176 186.7C565.218 185.174 565.659 183.991 566.499 183.151C567.339 182.297 568.508 181.87 570.006 181.87C571.014 181.87 571.861 182.052 572.547 182.416C573.247 182.766 573.765 183.207 574.101 183.739C574.451 184.271 574.64 184.803 574.668 185.335C574.682 185.461 574.633 185.573 574.521 185.671C574.423 185.769 574.311 185.818 574.185 185.818H573.261C573.121 185.818 573.016 185.79 572.946 185.734C572.876 185.664 572.806 185.545 572.736 185.377C572.484 184.691 572.134 184.208 571.686 183.928C571.252 183.634 570.699 183.487 570.027 183.487C569.145 183.487 568.445 183.76 567.927 184.306C567.409 184.852 567.129 185.685 567.087 186.805L567.066 187.54L567.087 188.275C567.129 189.395 567.409 190.228 567.927 190.774C568.445 191.32 569.145 191.593 570.027 191.593C570.713 191.593 571.273 191.453 571.707 191.173C572.141 190.879 572.484 190.389 572.736 189.703C572.806 189.535 572.876 189.423 572.946 189.367C573.016 189.297 573.121 189.262 573.261 189.262H574.185C574.311 189.262 574.423 189.311 574.521 189.409C574.633 189.507 574.682 189.619 574.668 189.745C574.64 190.263 574.451 190.788 574.101 191.32C573.765 191.852 573.247 192.3 572.547 192.664C571.861 193.028 571.014 193.21 570.006 193.21ZM577.688 193C577.548 193 577.429 192.958 577.331 192.874C577.247 192.776 577.205 192.657 577.205 192.517V178.573C577.205 178.419 577.247 178.3 577.331 178.216C577.429 178.132 577.548 178.09 577.688 178.09H578.591C578.731 178.09 578.843 178.139 578.927 178.237C579.025 178.321 579.074 178.433 579.074 178.573V185.902L583.274 182.437C583.484 182.283 583.631 182.185 583.715 182.143C583.799 182.101 583.932 182.08 584.114 182.08H585.164C585.29 182.08 585.388 182.122 585.458 182.206C585.542 182.276 585.584 182.381 585.584 182.521C585.584 182.647 585.507 182.78 585.353 182.92L580.439 186.952L585.878 192.16C586.032 192.314 586.109 192.447 586.109 192.559C586.109 192.685 586.067 192.79 585.983 192.874C585.913 192.958 585.815 193 585.689 193H584.66C584.45 193 584.296 192.979 584.198 192.937C584.114 192.895 583.988 192.797 583.82 192.643L579.074 188.149V192.517C579.074 192.657 579.025 192.776 578.927 192.874C578.843 192.958 578.731 193 578.591 193H577.688ZM591.764 193.21C590.336 193.21 589.195 192.769 588.341 191.887C587.487 190.991 587.018 189.773 586.934 188.233L586.913 187.519L586.934 186.826C587.018 185.314 587.487 184.11 588.341 183.214C589.195 182.318 590.336 181.87 591.764 181.87C593.304 181.87 594.494 182.36 595.334 183.34C596.188 184.32 596.615 185.65 596.615 187.33V187.708C596.615 187.848 596.566 187.967 596.468 188.065C596.384 188.149 596.272 188.191 596.132 188.191H588.845V188.38C588.887 189.29 589.167 190.067 589.685 190.711C590.203 191.355 590.889 191.677 591.743 191.677C592.401 191.677 592.933 191.551 593.339 191.299C593.759 191.033 594.074 190.76 594.284 190.48C594.41 190.312 594.508 190.214 594.578 190.186C594.648 190.144 594.767 190.123 594.935 190.123H595.859C595.985 190.123 596.09 190.158 596.174 190.228C596.272 190.298 596.321 190.389 596.321 190.501C596.321 190.809 596.132 191.18 595.754 191.614C595.376 192.048 594.837 192.426 594.137 192.748C593.451 193.056 592.66 193.21 591.764 193.21ZM594.704 186.763V186.7C594.704 185.72 594.438 184.922 593.906 184.306C593.374 183.69 592.66 183.382 591.764 183.382C590.854 183.382 590.14 183.69 589.622 184.306C589.104 184.922 588.845 185.72 588.845 186.7V186.763H594.704ZM599.652 193C599.512 193 599.393 192.958 599.295 192.874C599.211 192.776 599.169 192.657 599.169 192.517V182.563C599.169 182.423 599.211 182.311 599.295 182.227C599.393 182.129 599.512 182.08 599.652 182.08H600.555C600.709 182.08 600.828 182.122 600.912 182.206C600.996 182.29 601.038 182.409 601.038 182.563V183.487C601.458 182.969 601.941 182.57 602.487 182.29C603.047 182.01 603.74 181.87 604.566 181.87C605.91 181.87 606.953 182.304 607.695 183.172C608.437 184.026 608.808 185.16 608.808 186.574V192.517C608.808 192.657 608.759 192.776 608.661 192.874C608.577 192.958 608.465 193 608.325 193H607.359C607.219 193 607.1 192.958 607.002 192.874C606.918 192.776 606.876 192.657 606.876 192.517V186.7C606.876 185.692 606.631 184.908 606.141 184.348C605.651 183.788 604.951 183.508 604.041 183.508C603.145 183.508 602.431 183.795 601.899 184.369C601.367 184.929 601.101 185.706 601.101 186.7V192.517C601.101 192.657 601.052 192.776 600.954 192.874C600.87 192.958 600.758 193 600.618 193H599.652ZM615.833 193.21C614.363 193.21 613.257 192.734 612.515 191.782C611.787 190.83 611.395 189.626 611.339 188.17L611.318 187.54L611.339 186.91C611.395 185.468 611.794 184.271 612.536 183.319C613.278 182.353 614.377 181.87 615.833 181.87C617.289 181.87 618.423 182.388 619.235 183.424V178.573C619.235 178.433 619.277 178.321 619.361 178.237C619.459 178.139 619.578 178.09 619.718 178.09H620.663C620.803 178.09 620.915 178.139 620.999 178.237C621.097 178.321 621.146 178.433 621.146 178.573V192.517C621.146 192.657 621.097 192.776 620.999 192.874C620.915 192.958 620.803 193 620.663 193H619.76C619.62 193 619.508 192.958 619.424 192.874C619.34 192.776 619.298 192.657 619.298 192.517V191.614C618.5 192.678 617.345 193.21 615.833 193.21ZM616.232 191.572C617.212 191.572 617.947 191.25 618.437 190.606C618.927 189.948 619.193 189.171 619.235 188.275C619.249 188.121 619.256 187.855 619.256 187.477C619.256 187.085 619.249 186.812 619.235 186.658C619.207 185.804 618.934 185.069 618.416 184.453C617.912 183.823 617.184 183.508 616.232 183.508C615.224 183.508 614.489 183.823 614.027 184.453C613.565 185.083 613.313 185.909 613.271 186.931L613.25 187.54C613.25 190.228 614.244 191.572 616.232 191.572Z" fill="#68DCA1"/>
<circle cx="359.5" cy="189.5" r="42.5" fill="url(#paint1_linear)"/>
<g clip-path="url(#clip3)">
<path d="M349.147 171.212C349.147 172.145 349.147 173.029 349.147 173.975C348.813 173.999 348.492 174.024 348.183 174.048C346.191 174.208 344.944 175.411 344.918 177.314C344.867 182.225 344.854 187.136 344.828 192.047C344.815 194.723 344.828 197.412 344.828 200.088C344.828 201.083 344.957 202.04 345.638 202.863C346.293 203.648 347.103 204.103 348.17 204.103C355.394 204.103 362.606 204.115 369.83 204.103C371.462 204.103 372.851 202.9 373.082 201.328C373.159 200.849 373.185 200.346 373.185 199.855C373.185 193.201 373.185 186.559 373.185 179.904C373.185 179.008 373.146 178.1 373.108 177.204C373.031 175.448 371.822 174.22 369.984 174.061C369.624 174.024 369.264 173.999 368.879 173.975C368.879 173.042 368.879 172.158 368.879 171.261C370.845 170.795 373.365 171.838 374.753 173.655C375.614 174.785 376 176.086 376 177.449C376.013 185.22 376.026 192.992 375.961 200.776C375.936 203.673 374.29 205.846 371.63 206.669C370.987 206.865 370.293 206.976 369.611 206.976C362.541 207 355.472 206.988 348.402 206.988C344.982 206.988 342.231 204.532 342.077 201.279C341.974 199.278 342 197.277 342 195.263C342 189.468 342 183.661 342 177.842C342 175.976 342.489 174.282 343.928 172.931C345.368 171.581 347.013 171.028 349.147 171.212Z" fill="white"/>
<path d="M348.954 179.868C349.263 180.126 349.443 180.248 349.61 180.396C350.767 181.464 351.937 182.52 353.068 183.6C353.389 183.895 353.633 183.931 354.006 183.698C354.88 183.146 355.767 182.606 356.68 182.127C356.963 181.979 357.374 181.918 357.682 181.992C359.726 182.507 361.757 183.072 363.801 183.588C364.071 183.661 364.482 183.588 364.714 183.428C365.974 182.532 367.182 181.599 368.416 180.678C368.583 180.555 368.814 180.506 369.02 180.42C369.072 180.604 369.161 180.801 369.161 180.985C369.174 183.354 369.161 185.736 369.174 188.106C369.174 188.584 369.02 188.744 368.506 188.744C362.169 188.732 355.819 188.732 349.481 188.744C349.057 188.744 348.8 188.683 348.8 188.192C348.813 185.638 348.813 183.072 348.813 180.518C348.839 180.347 348.89 180.199 348.954 179.868Z" fill="white"/>
<path d="M354.135 169.678C354.777 166.498 356.436 164.963 359.096 165C361.68 165.037 363.313 166.608 363.865 169.665C364.225 169.665 364.598 169.653 364.971 169.665C366.513 169.702 367.388 170.537 367.4 171.998C367.4 172.649 367.413 173.312 367.4 173.962C367.375 175.116 366.449 176.062 365.254 176.062C361.102 176.086 356.95 176.086 352.798 176.062C351.589 176.049 350.664 175.129 350.638 173.975C350.613 173.238 350.625 172.501 350.638 171.765C350.664 170.623 351.525 169.764 352.721 169.678C353.171 169.653 353.646 169.678 354.135 169.678ZM361.539 169.629C361.565 168.573 361.102 167.848 360.228 167.406C359.302 166.94 358.364 166.989 357.503 167.566C356.783 168.057 356.41 168.732 356.474 169.629C358.184 169.629 359.829 169.629 361.539 169.629Z" fill="white"/>
<path d="M348.877 194.698C348.877 194.244 348.877 193.802 348.877 193.323C355.626 193.323 362.362 193.323 369.136 193.323C369.136 193.778 369.136 194.22 369.136 194.698C362.387 194.698 355.664 194.698 348.877 194.698Z" fill="white"/>
<path d="M348.877 199.978C348.877 199.536 348.877 199.094 348.877 198.603C355.626 198.603 362.362 198.603 369.136 198.603C369.136 199.057 369.136 199.486 369.136 199.978C362.387 199.978 355.664 199.978 348.877 199.978Z" fill="white"/>
</g>
<rect x="581" y="203" width="65" height="4" fill="#68DCA1"/>
<g clip-path="url(#clip4)">
<path d="M767.7 80.8C767.5 80.8 767.3 80.6 767.3 80.4C767.3 80.2 767.5 80.1 767.7 80.1C767.9 80.1 768 80.3 768 80.4C768 80.6 767.8 80.8 767.7 80.8Z" fill="#E7B970"/>
<path d="M766.3 92.6C766.1 92.6 766 92.5 766 92.3C766 92.1 766.1 92 766.3 92C766.5 92 766.6 92.1 766.6 92.3C766.6 92.5 766.5 92.6 766.3 92.6Z" fill="#E7B970"/>
<path d="M762.4 104C762.2 104 762 103.8 762 103.6C762 103.4 762.2 103.2 762.4 103.2C762.6 103.2 762.8 103.4 762.8 103.6C762.8 103.8 762.6 104 762.4 104Z" fill="#E7B970"/>
<path d="M756.1 114.4C755.8 114.4 755.5 114.1 755.5 113.8C755.5 113.5 755.8 113.2 756.1 113.2C756.4 113.2 756.7 113.5 756.7 113.8C756.7 114.1 756.4 114.4 756.1 114.4Z" fill="#E7B970"/>
<path d="M747.7 123.2C748.197 123.2 748.6 122.797 748.6 122.3C748.6 121.803 748.197 121.4 747.7 121.4C747.203 121.4 746.8 121.803 746.8 122.3C746.8 122.797 747.203 123.2 747.7 123.2Z" fill="#E7B970"/>
<path d="M737.6 130C736.9 130 736.4 129.5 736.4 128.8C736.4 128.1 736.9 127.6 737.6 127.6C738.3 127.6 738.8 128.1 738.8 128.8C738.8 129.5 738.3 130 737.6 130Z" fill="#E7B970"/>
<path d="M726.3 134.4C725.5 134.4 724.8 133.7 724.8 132.9C724.8 132.1 725.5 131.4 726.3 131.4C727.1 131.4 727.8 132.1 727.8 132.9C727.9 133.7 727.2 134.4 726.3 134.4Z" fill="#E7B970"/>
<path d="M714.5 136.1C713.5 136.1 712.8 135.3 712.8 134.4C712.8 133.4 713.6 132.7 714.5 132.7C715.5 132.7 716.2 133.5 716.2 134.4C716.2 135.3 715.4 136.1 714.5 136.1Z" fill="#E7B970"/>
<path d="M702.5 135.1C701.5 135.1 700.6 134.3 700.6 133.2C700.6 132.2 701.4 131.3 702.5 131.3C703.5 131.3 704.4 132.1 704.4 133.2C704.4 134.3 703.6 135.1 702.5 135.1Z" fill="#E7B970"/>
<path d="M691.2 131.5C690.1 131.5 689.2 130.6 689.2 129.5C689.2 128.4 690.1 127.5 691.2 127.5C692.3 127.5 693.2 128.4 693.2 129.5C693.2 130.6 692.3 131.5 691.2 131.5Z" fill="#E7B970"/>
<path d="M680.9 125.4C679.7 125.4 678.7 124.4 678.7 123.2C678.7 122 679.7 121 680.9 121C682.1 121 683.1 122 683.1 123.2C683.1 124.4 682.1 125.4 680.9 125.4Z" fill="#E7B970"/>
<path d="M672.3 117.3C671 117.3 670 116.3 670 115C670 113.7 671 112.7 672.3 112.7C673.6 112.7 674.6 113.7 674.6 115C674.6 116.2 673.6 117.3 672.3 117.3Z" fill="#E7B970"/>
<path d="M665.7 107.4C664.3 107.4 663.2 106.3 663.2 104.9C663.2 103.5 664.3 102.4 665.7 102.4C667.1 102.4 668.2 103.5 668.2 104.9C668.1 106.3 667 107.4 665.7 107.4Z" fill="#E7B970"/>
<path d="M661.4 96.4C659.9 96.4 658.8 95.2 658.8 93.8C658.8 92.3 660 91.2 661.4 91.2C662.9 91.2 664 92.4 664 93.8C664.1 95.2 662.9 96.4 661.4 96.4Z" fill="#E7B970"/>
<path d="M659.8 84.7C658.3 84.7 657 83.5 657 81.9C657 80.4 658.2 79.1 659.8 79.1C661.3 79.1 662.6 80.3 662.6 81.9C662.6 83.4 661.3 84.7 659.8 84.7Z" fill="#E7B970"/>
<path d="M660.8 72.9C659.2 72.9 657.8 71.6 657.8 69.9C657.8 68.3 659.1 66.9 660.8 66.9C662.4 66.9 663.8 68.2 663.8 69.9C663.7 71.6 662.4 72.9 660.8 72.9Z" fill="#E7B970"/>
<path d="M664.4 61.7C662.7 61.7 661.3 60.3 661.3 58.6C661.3 56.9 662.7 55.5 664.4 55.5C666.1 55.5 667.5 56.9 667.5 58.6C667.5 60.3 666.1 61.7 664.4 61.7Z" fill="#E7B970"/>
<path d="M670.4 51.5C672.223 51.5 673.7 50.0225 673.7 48.2C673.7 46.3775 672.223 44.9 670.4 44.9C668.577 44.9 667.1 46.3775 667.1 48.2C667.1 50.0225 668.577 51.5 670.4 51.5Z" fill="#E7B970"/>
<path d="M678.6 43C676.7 43 675.1 41.4 675.1 39.5C675.1 37.6 676.7 36 678.6 36C680.5 36 682.1 37.6 682.1 39.5C682.1 41.4 680.6 43 678.6 43Z" fill="#E7B970"/>
<path d="M688.5 36.3C686.5 36.3 684.9 34.7 684.9 32.7C684.9 30.7 686.5 29.1 688.5 29.1C690.5 29.1 692.1 30.7 692.1 32.7C692.1 34.7 690.5 36.3 688.5 36.3Z" fill="#E7B970"/>
<path d="M699.7 32C697.7 32 696.1 30.4 696.1 28.4C696.1 26.4 697.7 24.8 699.7 24.8C701.7 24.8 703.3 26.4 703.3 28.4C703.3 30.4 701.7 32 699.7 32Z" fill="#E7B970"/>
<path d="M711.5 30C709.5 30 708 28.5 708 26.5C708 24.5 709.5 23 711.5 23C713.4 23 715 24.6 715 26.5C715 28.4 713.4 30 711.5 30Z" fill="#E7B970"/>
<path d="M723.4 30.6C721.6 30.6 720.1 29.1 720.1 27.3C720.1 25.5 721.6 24 723.4 24C725.2 24 726.7 25.5 726.7 27.3C726.7 29.2 725.3 30.6 723.4 30.6Z" fill="#E7B970"/>
<path d="M734.9 33.7C733.3 33.7 732 32.4 732 30.8C732 29.2 733.3 27.9 734.9 27.9C736.5 27.9 737.8 29.2 737.8 30.8C737.8 32.4 736.5 33.7 734.9 33.7Z" fill="#E7B970"/>
<path d="M745.3 39C744 39 743 38 743 36.7C743 35.4 744 34.4 745.3 34.4C746.6 34.4 747.6 35.4 747.6 36.7C747.7 38 746.6 39 745.3 39Z" fill="#E7B970"/>
<path d="M754.2 46.5C753.3 46.5 752.5 45.7 752.5 44.8C752.5 43.9 753.3 43.1 754.2 43.1C755.1 43.1 755.9 43.9 755.9 44.8C755.9 45.7 755.1 46.5 754.2 46.5Z" fill="#E7B970"/>
<path d="M761.1 55.7C760.5 55.7 760 55.2 760 54.6C760 54 760.5 53.5 761.1 53.5C761.7 53.5 762.2 54 762.2 54.6C762.2 55.2 761.7 55.7 761.1 55.7Z" fill="#E7B970"/>
<path d="M765.6 66.3C765.2 66.3 764.9 66 764.9 65.6C764.9 65.2 765.2 64.9 765.6 64.9C766 64.9 766.3 65.2 766.3 65.6C766.3 66 766 66.3 765.6 66.3Z" fill="#E7B970"/>
<path d="M767.6 77.9C767.4 77.9 767.2 77.7 767.2 77.5C767.2 77.3 767.4 77.1 767.6 77.1C767.8 77.1 768 77.3 768 77.5C768 77.7 767.8 77.9 767.6 77.9Z" fill="#E7B970"/>
</g>
<path d="M790.454 84C790.314 84 790.195 83.958 790.097 83.874C790.013 83.776 789.971 83.657 789.971 83.517V69.804C789.971 69.65 790.013 69.531 790.097 69.447C790.181 69.349 790.3 69.3 790.454 69.3H791.441C791.693 69.3 791.868 69.405 791.966 69.615L796.439 78.204L800.954 69.615C801.066 69.405 801.234 69.3 801.458 69.3H802.445C802.599 69.3 802.718 69.349 802.802 69.447C802.886 69.531 802.928 69.65 802.928 69.804V83.517C802.928 83.657 802.879 83.776 802.781 83.874C802.697 83.958 802.585 84 802.445 84H801.479C801.339 84 801.227 83.958 801.143 83.874C801.059 83.776 801.017 83.657 801.017 83.517V73.08L797.426 80.031C797.286 80.325 797.062 80.472 796.754 80.472H796.124C795.83 80.472 795.606 80.325 795.452 80.031L791.882 73.08V83.517C791.882 83.657 791.833 83.776 791.735 83.874C791.651 83.958 791.539 84 791.399 84H790.454ZM810.319 84C810.179 84 810.06 83.958 809.962 83.874C809.878 83.776 809.836 83.657 809.836 83.517V71.106H805.783C805.643 71.106 805.524 71.064 805.426 70.98C805.342 70.882 805.3 70.763 805.3 70.623V69.804C805.3 69.65 805.342 69.531 805.426 69.447C805.524 69.349 805.643 69.3 805.783 69.3H815.863C816.017 69.3 816.136 69.349 816.22 69.447C816.304 69.531 816.346 69.65 816.346 69.804V70.623C816.346 70.763 816.297 70.882 816.199 70.98C816.115 71.064 816.003 71.106 815.863 71.106H811.831V83.517C811.831 83.657 811.782 83.776 811.684 83.874C811.586 83.958 811.467 84 811.327 84H810.319ZM824.148 84C824.008 84 823.889 83.958 823.791 83.874C823.707 83.776 823.665 83.657 823.665 83.517V80.451H816.84C816.7 80.451 816.581 80.409 816.483 80.325C816.399 80.227 816.357 80.108 816.357 79.968V79.191C816.357 78.995 816.434 78.785 816.588 78.561L822.909 69.657C822.979 69.545 823.084 69.461 823.224 69.405C823.364 69.335 823.518 69.3 823.686 69.3H825.114C825.268 69.3 825.387 69.342 825.471 69.426C825.555 69.51 825.597 69.629 825.597 69.783V78.687H827.508C827.648 78.687 827.76 78.736 827.844 78.834C827.942 78.918 827.991 79.03 827.991 79.17V79.968C827.991 80.108 827.942 80.227 827.844 80.325C827.76 80.409 827.648 80.451 827.508 80.451H825.597V83.517C825.597 83.657 825.548 83.776 825.45 83.874C825.366 83.958 825.254 84 825.114 84H824.148ZM818.541 78.729H823.686V71.421L818.541 78.729ZM829.612 85.764C829.5 85.764 829.402 85.722 829.318 85.638C829.234 85.554 829.192 85.456 829.192 85.344C829.192 85.288 829.213 85.204 829.255 85.092L836.437 67.851C836.563 67.613 836.745 67.494 836.983 67.494H837.76C837.872 67.494 837.97 67.536 838.054 67.62C838.138 67.704 838.18 67.802 838.18 67.914C838.18 67.97 838.159 68.054 838.117 68.166L830.914 85.407C830.886 85.491 830.823 85.568 830.725 85.638C830.641 85.722 830.522 85.764 830.368 85.764H829.612ZM841.026 84C840.886 84 840.767 83.958 840.669 83.874C840.585 83.776 840.543 83.657 840.543 83.517V69.804C840.543 69.65 840.585 69.531 840.669 69.447C840.753 69.349 840.872 69.3 841.026 69.3H842.013C842.265 69.3 842.44 69.405 842.538 69.615L847.011 78.204L851.526 69.615C851.638 69.405 851.806 69.3 852.03 69.3H853.017C853.171 69.3 853.29 69.349 853.374 69.447C853.458 69.531 853.5 69.65 853.5 69.804V83.517C853.5 83.657 853.451 83.776 853.353 83.874C853.269 83.958 853.157 84 853.017 84H852.051C851.911 84 851.799 83.958 851.715 83.874C851.631 83.776 851.589 83.657 851.589 83.517V73.08L847.998 80.031C847.858 80.325 847.634 80.472 847.326 80.472H846.696C846.402 80.472 846.178 80.325 846.024 80.031L842.454 73.08V83.517C842.454 83.657 842.405 83.776 842.307 83.874C842.223 83.958 842.111 84 841.971 84H841.026ZM860.892 84C860.752 84 860.633 83.958 860.535 83.874C860.451 83.776 860.409 83.657 860.409 83.517V71.106H856.356C856.216 71.106 856.097 71.064 855.999 70.98C855.915 70.882 855.873 70.763 855.873 70.623V69.804C855.873 69.65 855.915 69.531 855.999 69.447C856.097 69.349 856.216 69.3 856.356 69.3H866.436C866.59 69.3 866.709 69.349 866.793 69.447C866.877 69.531 866.919 69.65 866.919 69.804V70.623C866.919 70.763 866.87 70.882 866.772 70.98C866.688 71.064 866.576 71.106 866.436 71.106H862.404V83.517C862.404 83.657 862.355 83.776 862.257 83.874C862.159 83.958 862.04 84 861.9 84H860.892ZM873.579 84.21C872.529 84.21 871.619 84.021 870.849 83.643C870.079 83.265 869.491 82.775 869.085 82.173C868.679 81.557 868.462 80.899 868.434 80.199V80.157C868.434 80.045 868.476 79.954 868.56 79.884C868.644 79.814 868.742 79.779 868.854 79.779H869.883C870.177 79.779 870.366 79.933 870.45 80.241C870.66 80.997 871.045 81.564 871.605 81.942C872.179 82.306 872.837 82.488 873.579 82.488C874.531 82.488 875.322 82.201 875.952 81.627C876.582 81.039 876.897 80.234 876.897 79.212C876.897 78.274 876.582 77.532 875.952 76.986C875.322 76.426 874.531 76.146 873.579 76.146C873.075 76.146 872.669 76.209 872.361 76.335C872.053 76.461 871.738 76.643 871.416 76.881C871.234 77.021 871.08 77.126 870.954 77.196C870.842 77.252 870.716 77.28 870.576 77.28H869.568C869.442 77.28 869.33 77.238 869.232 77.154C869.134 77.056 869.092 76.944 869.106 76.818L869.757 69.825C869.799 69.475 869.974 69.3 870.282 69.3H877.548C877.702 69.3 877.821 69.342 877.905 69.426C877.989 69.51 878.031 69.629 878.031 69.783V70.56C878.031 70.7 877.982 70.812 877.884 70.896C877.8 70.98 877.688 71.022 877.548 71.022H871.5L871.122 75.243C871.794 74.767 872.697 74.529 873.831 74.529C874.769 74.529 875.623 74.718 876.393 75.096C877.163 75.46 877.772 75.999 878.22 76.713C878.682 77.427 878.913 78.274 878.913 79.254C878.913 80.29 878.682 81.186 878.22 81.942C877.772 82.684 877.142 83.251 876.33 83.643C875.532 84.021 874.615 84.21 873.579 84.21ZM887.373 84C887.233 84 887.121 83.958 887.037 83.874C886.953 83.776 886.911 83.657 886.911 83.517V69.783C886.911 69.643 886.953 69.531 887.037 69.447C887.121 69.349 887.233 69.3 887.373 69.3H888.423C888.577 69.3 888.696 69.342 888.78 69.426C888.864 69.51 888.906 69.629 888.906 69.783V83.517C888.906 83.657 888.857 83.776 888.759 83.874C888.675 83.958 888.563 84 888.423 84H887.373ZM892.823 84C892.683 84 892.564 83.958 892.466 83.874C892.382 83.776 892.34 83.657 892.34 83.517V73.563C892.34 73.423 892.382 73.311 892.466 73.227C892.564 73.129 892.683 73.08 892.823 73.08H893.726C893.88 73.08 893.999 73.122 894.083 73.206C894.167 73.29 894.209 73.409 894.209 73.563V74.487C894.629 73.969 895.112 73.57 895.658 73.29C896.218 73.01 896.911 72.87 897.737 72.87C899.081 72.87 900.124 73.304 900.866 74.172C901.608 75.026 901.979 76.16 901.979 77.574V83.517C901.979 83.657 901.93 83.776 901.832 83.874C901.748 83.958 901.636 84 901.496 84H900.53C900.39 84 900.271 83.958 900.173 83.874C900.089 83.776 900.047 83.657 900.047 83.517V77.7C900.047 76.692 899.802 75.908 899.312 75.348C898.822 74.788 898.122 74.508 897.212 74.508C896.316 74.508 895.602 74.795 895.07 75.369C894.538 75.929 894.272 76.706 894.272 77.7V83.517C894.272 83.657 894.223 83.776 894.125 83.874C894.041 83.958 893.929 84 893.789 84H892.823ZM909.07 84C906.9 84 905.815 82.775 905.815 80.325V74.697H904.156C904.016 74.697 903.904 74.655 903.82 74.571C903.736 74.487 903.694 74.375 903.694 74.235V73.563C903.694 73.423 903.736 73.311 903.82 73.227C903.904 73.129 904.016 73.08 904.156 73.08H905.815V69.573C905.815 69.433 905.857 69.321 905.941 69.237C906.025 69.139 906.137 69.09 906.277 69.09H907.201C907.341 69.09 907.453 69.139 907.537 69.237C907.635 69.321 907.684 69.433 907.684 69.573V73.08H910.288C910.428 73.08 910.54 73.129 910.624 73.227C910.722 73.311 910.771 73.423 910.771 73.563V74.235C910.771 74.375 910.722 74.487 910.624 74.571C910.54 74.655 910.428 74.697 910.288 74.697H907.684V80.178C907.684 80.892 907.796 81.431 908.02 81.795C908.258 82.159 908.657 82.341 909.217 82.341H910.498C910.638 82.341 910.75 82.39 910.834 82.488C910.918 82.572 910.96 82.684 910.96 82.824V83.517C910.96 83.657 910.918 83.776 910.834 83.874C910.75 83.958 910.638 84 910.498 84H909.07ZM917.338 84.21C915.91 84.21 914.769 83.769 913.915 82.887C913.061 81.991 912.592 80.773 912.508 79.233L912.487 78.519L912.508 77.826C912.592 76.314 913.061 75.11 913.915 74.214C914.769 73.318 915.91 72.87 917.338 72.87C918.878 72.87 920.068 73.36 920.908 74.34C921.762 75.32 922.189 76.65 922.189 78.33V78.708C922.189 78.848 922.14 78.967 922.042 79.065C921.958 79.149 921.846 79.191 921.706 79.191H914.419V79.38C914.461 80.29 914.741 81.067 915.259 81.711C915.777 82.355 916.463 82.677 917.317 82.677C917.975 82.677 918.507 82.551 918.913 82.299C919.333 82.033 919.648 81.76 919.858 81.48C919.984 81.312 920.082 81.214 920.152 81.186C920.222 81.144 920.341 81.123 920.509 81.123H921.433C921.559 81.123 921.664 81.158 921.748 81.228C921.846 81.298 921.895 81.389 921.895 81.501C921.895 81.809 921.706 82.18 921.328 82.614C920.95 83.048 920.411 83.426 919.711 83.748C919.025 84.056 918.234 84.21 917.338 84.21ZM920.278 77.763V77.7C920.278 76.72 920.012 75.922 919.48 75.306C918.948 74.69 918.234 74.382 917.338 74.382C916.428 74.382 915.714 74.69 915.196 75.306C914.678 75.922 914.419 76.72 914.419 77.7V77.763H920.278ZM929.173 88.62C928.011 88.62 927.08 88.424 926.38 88.032C925.68 87.64 925.183 87.192 924.889 86.688C924.609 86.184 924.469 85.75 924.469 85.386C924.469 85.26 924.518 85.148 924.616 85.05C924.714 84.966 924.826 84.924 924.952 84.924H925.876C926.002 84.924 926.107 84.952 926.191 85.008C926.275 85.078 926.345 85.197 926.401 85.365C926.793 86.485 927.682 87.045 929.068 87.045C930.118 87.045 930.895 86.821 931.399 86.373C931.903 85.925 932.155 85.134 932.155 84V82.551C931.343 83.587 930.209 84.105 928.753 84.105C927.269 84.105 926.156 83.629 925.414 82.677C924.686 81.725 924.301 80.521 924.259 79.065L924.238 78.477L924.259 77.91C924.301 76.468 924.686 75.271 925.414 74.319C926.156 73.353 927.269 72.87 928.753 72.87C930.223 72.87 931.371 73.409 932.197 74.487V73.584C932.197 73.444 932.239 73.325 932.323 73.227C932.421 73.129 932.54 73.08 932.68 73.08H933.583C933.723 73.08 933.835 73.129 933.919 73.227C934.017 73.325 934.066 73.444 934.066 73.584V83.769C934.066 87.003 932.435 88.62 929.173 88.62ZM929.131 82.467C930.111 82.467 930.846 82.152 931.336 81.522C931.84 80.878 932.113 80.108 932.155 79.212C932.169 79.086 932.176 78.841 932.176 78.477C932.176 78.127 932.169 77.889 932.155 77.763C932.113 76.867 931.84 76.104 931.336 75.474C930.846 74.83 930.111 74.508 929.131 74.508C928.123 74.508 927.388 74.83 926.926 75.474C926.478 76.104 926.233 76.923 926.191 77.931L926.17 78.477L926.191 79.044C926.233 80.052 926.478 80.878 926.926 81.522C927.388 82.152 928.123 82.467 929.131 82.467ZM937.714 84C937.574 84 937.455 83.958 937.357 83.874C937.273 83.776 937.231 83.657 937.231 83.517V73.584C937.231 73.444 937.273 73.325 937.357 73.227C937.455 73.129 937.574 73.08 937.714 73.08H938.596C938.75 73.08 938.869 73.129 938.953 73.227C939.051 73.311 939.1 73.43 939.1 73.584V74.508C939.674 73.556 940.647 73.08 942.019 73.08H942.838C942.992 73.08 943.111 73.122 943.195 73.206C943.279 73.29 943.321 73.409 943.321 73.563V74.34C943.321 74.48 943.279 74.599 943.195 74.697C943.111 74.781 942.992 74.823 942.838 74.823H941.641C940.871 74.823 940.262 75.047 939.814 75.495C939.38 75.943 939.163 76.552 939.163 77.322V83.517C939.163 83.657 939.114 83.776 939.016 83.874C938.918 83.958 938.799 84 938.659 84H937.714ZM947.987 84.21C947.301 84.21 946.664 84.07 946.076 83.79C945.502 83.51 945.04 83.132 944.69 82.656C944.354 82.166 944.186 81.627 944.186 81.039C944.186 80.115 944.564 79.359 945.32 78.771C946.076 78.183 947.105 77.791 948.407 77.595L951.557 77.154V76.545C951.557 75.103 950.724 74.382 949.058 74.382C948.414 74.382 947.896 74.515 947.504 74.781C947.112 75.033 946.825 75.334 946.643 75.684C946.587 75.824 946.524 75.922 946.454 75.978C946.398 76.02 946.314 76.041 946.202 76.041H945.383C945.257 76.041 945.145 75.999 945.047 75.915C944.963 75.817 944.921 75.705 944.921 75.579C944.921 75.257 945.068 74.886 945.362 74.466C945.67 74.032 946.139 73.661 946.769 73.353C947.399 73.031 948.169 72.87 949.079 72.87C950.647 72.87 951.767 73.234 952.439 73.962C953.125 74.69 953.468 75.6 953.468 76.692V83.517C953.468 83.657 953.419 83.776 953.321 83.874C953.237 83.958 953.125 84 952.985 84H952.061C951.921 84 951.809 83.958 951.725 83.874C951.641 83.776 951.599 83.657 951.599 83.517V82.593C951.291 83.055 950.843 83.44 950.255 83.748C949.667 84.056 948.911 84.21 947.987 84.21ZM948.407 82.677C949.331 82.677 950.087 82.376 950.675 81.774C951.263 81.172 951.557 80.297 951.557 79.149V78.561L949.1 78.918C948.092 79.058 947.329 79.296 946.811 79.632C946.293 79.968 946.034 80.388 946.034 80.892C946.034 81.466 946.265 81.907 946.727 82.215C947.203 82.523 947.763 82.677 948.407 82.677ZM960.606 84C958.436 84 957.351 82.775 957.351 80.325V74.697H955.692C955.552 74.697 955.44 74.655 955.356 74.571C955.272 74.487 955.23 74.375 955.23 74.235V73.563C955.23 73.423 955.272 73.311 955.356 73.227C955.44 73.129 955.552 73.08 955.692 73.08H957.351V69.573C957.351 69.433 957.393 69.321 957.477 69.237C957.561 69.139 957.673 69.09 957.813 69.09H958.737C958.877 69.09 958.989 69.139 959.073 69.237C959.171 69.321 959.22 69.433 959.22 69.573V73.08H961.824C961.964 73.08 962.076 73.129 962.16 73.227C962.258 73.311 962.307 73.423 962.307 73.563V74.235C962.307 74.375 962.258 74.487 962.16 74.571C962.076 74.655 961.964 74.697 961.824 74.697H959.22V80.178C959.22 80.892 959.332 81.431 959.556 81.795C959.794 82.159 960.193 82.341 960.753 82.341H962.034C962.174 82.341 962.286 82.39 962.37 82.488C962.454 82.572 962.496 82.684 962.496 82.824V83.517C962.496 83.657 962.454 83.776 962.37 83.874C962.286 83.958 962.174 84 962.034 84H960.606ZM964.863 71.022C964.723 71.022 964.604 70.98 964.506 70.896C964.422 70.798 964.38 70.679 964.38 70.539V69.447C964.38 69.307 964.422 69.188 964.506 69.09C964.604 68.992 964.723 68.943 964.863 68.943H966.102C966.242 68.943 966.361 68.992 966.459 69.09C966.557 69.188 966.606 69.307 966.606 69.447V70.539C966.606 70.679 966.557 70.798 966.459 70.896C966.361 70.98 966.242 71.022 966.102 71.022H964.863ZM965.031 84C964.891 84 964.772 83.958 964.674 83.874C964.59 83.776 964.548 83.657 964.548 83.517V73.563C964.548 73.423 964.59 73.311 964.674 73.227C964.772 73.129 964.891 73.08 965.031 73.08H965.955C966.095 73.08 966.207 73.129 966.291 73.227C966.389 73.311 966.438 73.423 966.438 73.563V83.517C966.438 83.657 966.389 83.776 966.291 83.874C966.207 83.958 966.095 84 965.955 84H965.031ZM974.024 84.21C972.484 84.21 971.294 83.776 970.454 82.908C969.628 82.04 969.187 80.885 969.131 79.443L969.11 78.54L969.131 77.637C969.187 76.195 969.635 75.04 970.475 74.172C971.329 73.304 972.512 72.87 974.024 72.87C975.536 72.87 976.712 73.304 977.552 74.172C978.406 75.04 978.861 76.195 978.917 77.637C978.945 77.945 978.959 78.246 978.959 78.54C978.959 78.834 978.945 79.135 978.917 79.443C978.861 80.885 978.413 82.04 977.573 82.908C976.747 83.776 975.564 84.21 974.024 84.21ZM974.024 82.635C974.92 82.635 975.627 82.355 976.145 81.795C976.677 81.221 976.964 80.402 977.006 79.338C977.02 79.198 977.027 78.932 977.027 78.54C977.027 78.148 977.02 77.882 977.006 77.742C976.964 76.678 976.677 75.866 976.145 75.306C975.627 74.732 974.92 74.445 974.024 74.445C973.128 74.445 972.414 74.732 971.882 75.306C971.364 75.866 971.084 76.678 971.042 77.742L971.021 78.54L971.042 79.338C971.084 80.402 971.364 81.221 971.882 81.795C972.414 82.355 973.128 82.635 974.024 82.635ZM982.093 84C981.953 84 981.834 83.958 981.736 83.874C981.652 83.776 981.61 83.657 981.61 83.517V73.563C981.61 73.423 981.652 73.311 981.736 73.227C981.834 73.129 981.953 73.08 982.093 73.08H982.996C983.15 73.08 983.269 73.122 983.353 73.206C983.437 73.29 983.479 73.409 983.479 73.563V74.487C983.899 73.969 984.382 73.57 984.928 73.29C985.488 73.01 986.181 72.87 987.007 72.87C988.351 72.87 989.394 73.304 990.136 74.172C990.878 75.026 991.249 76.16 991.249 77.574V83.517C991.249 83.657 991.2 83.776 991.102 83.874C991.018 83.958 990.906 84 990.766 84H989.8C989.66 84 989.541 83.958 989.443 83.874C989.359 83.776 989.317 83.657 989.317 83.517V77.7C989.317 76.692 989.072 75.908 988.582 75.348C988.092 74.788 987.392 74.508 986.482 74.508C985.586 74.508 984.872 74.795 984.34 75.369C983.808 75.929 983.542 76.706 983.542 77.7V83.517C983.542 83.657 983.493 83.776 983.395 83.874C983.311 83.958 983.199 84 983.059 84H982.093Z" fill="#E7B970"/>
<circle cx="712.5" cy="80.5" r="42.5" fill="url(#paint2_linear)"/>
<g clip-path="url(#clip5)">
<path d="M694.499 79.0201C696.166 79.0201 697.721 78.2953 698.721 76.9571C699.777 75.6747 700.166 74.0019 699.833 72.3292L708.277 67.5341C710.333 69.4856 713.499 69.5413 715.61 67.6456L723.11 72.2177C722.999 72.6638 722.944 73.0541 722.944 73.5001C722.944 76.1207 724.721 78.4625 727.277 79.0201C729.833 79.5777 732.444 78.2953 733.499 75.8977C734.555 73.5001 733.833 70.6565 731.777 69.0953C729.721 67.5341 726.777 67.6456 724.833 69.4298L717.333 64.8577C717.444 64.4116 717.499 64.0213 717.499 63.5753C717.499 61.4565 716.333 59.505 714.444 58.5571C712.555 57.6092 710.333 57.8322 708.666 59.1704C706.999 60.5086 706.221 62.6274 706.666 64.6904L698.221 69.4856C696.444 67.7571 693.721 67.4783 691.61 68.7607C689.499 70.0432 688.499 72.608 689.166 75.0056C689.833 77.4032 692.055 79.0759 694.499 79.0201ZM728.444 71.2698C729.666 71.2698 730.61 72.2735 730.61 73.5001C730.61 74.7268 729.61 75.7304 728.444 75.7304C727.277 75.7304 726.221 74.7268 726.221 73.5001C726.221 72.2735 727.221 71.2698 728.444 71.2698ZM711.999 61.345C713.221 61.345 714.166 62.3486 714.166 63.5753C714.166 64.8019 713.166 65.8056 711.999 65.8056C710.833 65.8056 709.833 64.8019 709.833 63.5753C709.833 62.3486 710.777 61.345 711.999 61.345ZM694.499 71.2698C695.721 71.2698 696.666 72.2735 696.666 73.5001C696.666 74.7268 695.666 75.7304 694.499 75.7304C693.333 75.7304 692.333 74.7268 692.333 73.5001C692.333 72.2735 693.277 71.2698 694.499 71.2698Z" fill="white"/>
<path d="M728.5 82.9794C726.833 82.9794 725.278 83.7043 724.278 85.0425C723.222 86.3249 722.833 87.9976 723.167 89.6703L714.722 94.4655C712.667 92.514 709.5 92.4582 707.389 94.354L699.889 89.7819C700 89.3358 700.056 88.9455 700.056 88.4994C700.056 85.8788 698.278 83.537 695.722 82.9794C693.167 82.4219 690.556 83.7043 689.5 86.1019C688.444 88.4994 689.167 91.3431 691.222 92.9043C693.333 94.4655 696.222 94.354 698.167 92.5697L705.667 97.1419C705.556 97.5879 705.5 97.9782 705.5 98.4243C705.5 100.543 706.667 102.495 708.556 103.442C710.444 104.39 712.667 104.167 714.333 102.829C716 101.547 716.778 99.3722 716.333 97.3091L724.778 92.514C726.556 94.2425 729.278 94.5213 731.389 93.2388C733.5 91.9564 734.5 89.3916 733.833 86.994C733.111 84.5964 730.944 82.9237 728.5 82.9794ZM694.556 90.7297C693.333 90.7297 692.389 89.7261 692.389 88.4994C692.389 87.2728 693.389 86.2691 694.556 86.2691C695.722 86.2691 696.722 87.2728 696.722 88.4994C696.722 89.7261 695.778 90.7297 694.556 90.7297ZM711 100.655C709.778 100.655 708.833 99.651 708.833 98.4243C708.833 97.1976 709.833 96.194 711 96.194C712.167 96.194 713.167 97.1976 713.167 98.4243C713.167 99.651 712.222 100.655 711 100.655ZM728.5 90.7297C727.278 90.7297 726.333 89.7261 726.333 88.4994C726.333 87.2728 727.333 86.2691 728.5 86.2691C729.667 86.2691 730.667 87.2728 730.667 88.4994C730.667 89.7261 729.722 90.7297 728.5 90.7297Z" fill="white"/>
</g>
<rect x="965" y="96" width="65" height="4" fill="#E7B970"/>
<g clip-path="url(#clip6)">
<path d="M1122.7 207.8C1122.5 207.8 1122.3 207.6 1122.3 207.4C1122.3 207.2 1122.5 207.1 1122.7 207.1C1122.9 207.1 1123 207.3 1123 207.4C1123 207.6 1122.8 207.8 1122.7 207.8Z" fill="#EC7076"/>
<path d="M1121.3 219.6C1121.1 219.6 1121 219.5 1121 219.3C1121 219.1 1121.1 219 1121.3 219C1121.5 219 1121.6 219.1 1121.6 219.3C1121.6 219.5 1121.5 219.6 1121.3 219.6Z" fill="#EC7076"/>
<path d="M1117.4 231C1117.2 231 1117 230.8 1117 230.6C1117 230.4 1117.2 230.2 1117.4 230.2C1117.6 230.2 1117.8 230.4 1117.8 230.6C1117.8 230.8 1117.6 231 1117.4 231Z" fill="#EC7076"/>
<path d="M1111.1 241.4C1110.8 241.4 1110.5 241.1 1110.5 240.8C1110.5 240.5 1110.8 240.2 1111.1 240.2C1111.4 240.2 1111.7 240.5 1111.7 240.8C1111.7 241.1 1111.4 241.4 1111.1 241.4Z" fill="#EC7076"/>
<path d="M1102.7 250.2C1103.2 250.2 1103.6 249.797 1103.6 249.3C1103.6 248.803 1103.2 248.4 1102.7 248.4C1102.2 248.4 1101.8 248.803 1101.8 249.3C1101.8 249.797 1102.2 250.2 1102.7 250.2Z" fill="#EC7076"/>
<path d="M1092.6 257C1091.9 257 1091.4 256.5 1091.4 255.8C1091.4 255.1 1091.9 254.6 1092.6 254.6C1093.3 254.6 1093.8 255.1 1093.8 255.8C1093.8 256.5 1093.3 257 1092.6 257Z" fill="#EC7076"/>
<path d="M1081.3 261.4C1080.5 261.4 1079.8 260.7 1079.8 259.9C1079.8 259.1 1080.5 258.4 1081.3 258.4C1082.1 258.4 1082.8 259.1 1082.8 259.9C1082.9 260.7 1082.2 261.4 1081.3 261.4Z" fill="#EC7076"/>
<path d="M1069.5 263.1C1068.5 263.1 1067.8 262.3 1067.8 261.4C1067.8 260.4 1068.6 259.7 1069.5 259.7C1070.5 259.7 1071.2 260.5 1071.2 261.4C1071.2 262.3 1070.4 263.1 1069.5 263.1Z" fill="#EC7076"/>
<path d="M1057.5 262.1C1056.5 262.1 1055.6 261.3 1055.6 260.2C1055.6 259.2 1056.4 258.3 1057.5 258.3C1058.5 258.3 1059.4 259.1 1059.4 260.2C1059.4 261.3 1058.6 262.1 1057.5 262.1Z" fill="#EC7076"/>
<path d="M1046.2 258.5C1045.1 258.5 1044.2 257.6 1044.2 256.5C1044.2 255.4 1045.1 254.5 1046.2 254.5C1047.3 254.5 1048.2 255.4 1048.2 256.5C1048.2 257.6 1047.3 258.5 1046.2 258.5Z" fill="#EC7076"/>
<path d="M1035.9 252.4C1034.7 252.4 1033.7 251.4 1033.7 250.2C1033.7 249 1034.7 248 1035.9 248C1037.1 248 1038.1 249 1038.1 250.2C1038.1 251.4 1037.1 252.4 1035.9 252.4Z" fill="#EC7076"/>
<path d="M1027.3 244.3C1026 244.3 1025 243.3 1025 242C1025 240.7 1026 239.7 1027.3 239.7C1028.6 239.7 1029.6 240.7 1029.6 242C1029.6 243.2 1028.6 244.3 1027.3 244.3Z" fill="#EC7076"/>
<path d="M1020.7 234.4C1019.3 234.4 1018.2 233.3 1018.2 231.9C1018.2 230.5 1019.3 229.4 1020.7 229.4C1022.1 229.4 1023.2 230.5 1023.2 231.9C1023.1 233.3 1022 234.4 1020.7 234.4Z" fill="#EC7076"/>
<path d="M1016.4 223.4C1014.9 223.4 1013.8 222.2 1013.8 220.8C1013.8 219.3 1015 218.2 1016.4 218.2C1017.9 218.2 1019 219.4 1019 220.8C1019.1 222.2 1017.9 223.4 1016.4 223.4Z" fill="#EC7076"/>
<path d="M1014.8 211.7C1013.3 211.7 1012 210.5 1012 208.9C1012 207.4 1013.2 206.1 1014.8 206.1C1016.3 206.1 1017.6 207.3 1017.6 208.9C1017.6 210.4 1016.3 211.7 1014.8 211.7Z" fill="#EC7076"/>
<path d="M1015.8 199.9C1014.2 199.9 1012.8 198.6 1012.8 196.9C1012.8 195.3 1014.1 193.9 1015.8 193.9C1017.4 193.9 1018.8 195.2 1018.8 196.9C1018.7 198.6 1017.4 199.9 1015.8 199.9Z" fill="#EC7076"/>
<path d="M1019.4 188.7C1017.7 188.7 1016.3 187.3 1016.3 185.6C1016.3 183.9 1017.7 182.5 1019.4 182.5C1021.1 182.5 1022.5 183.9 1022.5 185.6C1022.5 187.3 1021.1 188.7 1019.4 188.7Z" fill="#EC7076"/>
<path d="M1025.4 178.5C1027.22 178.5 1028.7 177.023 1028.7 175.2C1028.7 173.377 1027.22 171.9 1025.4 171.9C1023.58 171.9 1022.1 173.377 1022.1 175.2C1022.1 177.023 1023.58 178.5 1025.4 178.5Z" fill="#EC7076"/>
<path d="M1033.6 170C1031.7 170 1030.1 168.4 1030.1 166.5C1030.1 164.6 1031.7 163 1033.6 163C1035.5 163 1037.1 164.6 1037.1 166.5C1037.1 168.4 1035.6 170 1033.6 170Z" fill="#EC7076"/>
<path d="M1043.5 163.3C1041.5 163.3 1039.9 161.7 1039.9 159.7C1039.9 157.7 1041.5 156.1 1043.5 156.1C1045.5 156.1 1047.1 157.7 1047.1 159.7C1047.1 161.7 1045.5 163.3 1043.5 163.3Z" fill="#EC7076"/>
<path d="M1054.7 159C1052.7 159 1051.1 157.4 1051.1 155.4C1051.1 153.4 1052.7 151.8 1054.7 151.8C1056.7 151.8 1058.3 153.4 1058.3 155.4C1058.3 157.4 1056.7 159 1054.7 159Z" fill="#EC7076"/>
<path d="M1066.5 157C1064.5 157 1063 155.5 1063 153.5C1063 151.5 1064.5 150 1066.5 150C1068.4 150 1070 151.6 1070 153.5C1070 155.4 1068.4 157 1066.5 157Z" fill="#EC7076"/>
<path d="M1078.4 157.6C1076.6 157.6 1075.1 156.1 1075.1 154.3C1075.1 152.5 1076.6 151 1078.4 151C1080.2 151 1081.7 152.5 1081.7 154.3C1081.7 156.2 1080.3 157.6 1078.4 157.6Z" fill="#EC7076"/>
<path d="M1089.9 160.7C1088.3 160.7 1087 159.4 1087 157.8C1087 156.2 1088.3 154.9 1089.9 154.9C1091.5 154.9 1092.8 156.2 1092.8 157.8C1092.8 159.4 1091.5 160.7 1089.9 160.7Z" fill="#EC7076"/>
<path d="M1100.3 166C1099 166 1098 165 1098 163.7C1098 162.4 1099 161.4 1100.3 161.4C1101.6 161.4 1102.6 162.4 1102.6 163.7C1102.7 165 1101.6 166 1100.3 166Z" fill="#EC7076"/>
<path d="M1109.2 173.5C1108.3 173.5 1107.5 172.7 1107.5 171.8C1107.5 170.9 1108.3 170.1 1109.2 170.1C1110.1 170.1 1110.9 170.9 1110.9 171.8C1110.9 172.7 1110.1 173.5 1109.2 173.5Z" fill="#EC7076"/>
<path d="M1116.1 182.7C1115.5 182.7 1115 182.2 1115 181.6C1115 181 1115.5 180.5 1116.1 180.5C1116.7 180.5 1117.2 181 1117.2 181.6C1117.2 182.2 1116.7 182.7 1116.1 182.7Z" fill="#EC7076"/>
<path d="M1120.6 193.3C1120.2 193.3 1119.9 193 1119.9 192.6C1119.9 192.2 1120.2 191.9 1120.6 191.9C1121 191.9 1121.3 192.2 1121.3 192.6C1121.3 193 1121 193.3 1120.6 193.3Z" fill="#EC7076"/>
<path d="M1122.6 204.9C1122.4 204.9 1122.2 204.7 1122.2 204.5C1122.2 204.3 1122.4 204.1 1122.6 204.1C1122.8 204.1 1123 204.3 1123 204.5C1123 204.7 1122.8 204.9 1122.6 204.9Z" fill="#EC7076"/>
</g>
<path d="M1142.48 211C1142.34 211 1142.22 210.958 1142.12 210.874C1142.04 210.776 1141.99 210.657 1141.99 210.517V196.804C1141.99 196.65 1142.04 196.531 1142.12 196.447C1142.2 196.349 1142.32 196.3 1142.48 196.3H1143.46C1143.72 196.3 1143.89 196.405 1143.99 196.615L1148.46 205.204L1152.98 196.615C1153.09 196.405 1153.26 196.3 1153.48 196.3H1154.47C1154.62 196.3 1154.74 196.349 1154.83 196.447C1154.91 196.531 1154.95 196.65 1154.95 196.804V210.517C1154.95 210.657 1154.9 210.776 1154.8 210.874C1154.72 210.958 1154.61 211 1154.47 211H1153.5C1153.36 211 1153.25 210.958 1153.17 210.874C1153.08 210.776 1153.04 210.657 1153.04 210.517V200.08L1149.45 207.031C1149.31 207.325 1149.09 207.472 1148.78 207.472H1148.15C1147.85 207.472 1147.63 207.325 1147.48 207.031L1143.91 200.08V210.517C1143.91 210.657 1143.86 210.776 1143.76 210.874C1143.67 210.958 1143.56 211 1143.42 211H1142.48ZM1162.81 211.21C1161.27 211.21 1160.08 210.776 1159.24 209.908C1158.41 209.04 1157.97 207.885 1157.91 206.443L1157.89 205.54L1157.91 204.637C1157.97 203.195 1158.42 202.04 1159.26 201.172C1160.11 200.304 1161.29 199.87 1162.81 199.87C1164.32 199.87 1165.49 200.304 1166.33 201.172C1167.19 202.04 1167.64 203.195 1167.7 204.637C1167.73 204.945 1167.74 205.246 1167.74 205.54C1167.74 205.834 1167.73 206.135 1167.7 206.443C1167.64 207.885 1167.19 209.04 1166.35 209.908C1165.53 210.776 1164.35 211.21 1162.81 211.21ZM1162.81 209.635C1163.7 209.635 1164.41 209.355 1164.93 208.795C1165.46 208.221 1165.75 207.402 1165.79 206.338C1165.8 206.198 1165.81 205.932 1165.81 205.54C1165.81 205.148 1165.8 204.882 1165.79 204.742C1165.75 203.678 1165.46 202.866 1164.93 202.306C1164.41 201.732 1163.7 201.445 1162.81 201.445C1161.91 201.445 1161.2 201.732 1160.66 202.306C1160.15 202.866 1159.87 203.678 1159.82 204.742L1159.8 205.54L1159.82 206.338C1159.87 207.402 1160.15 208.221 1160.66 208.795C1161.2 209.355 1161.91 209.635 1162.81 209.635ZM1175.73 211.21C1174.21 211.21 1173.06 210.678 1172.26 209.614V210.517C1172.26 210.657 1172.21 210.776 1172.11 210.874C1172.03 210.958 1171.92 211 1171.78 211H1170.9C1170.76 211 1170.64 210.958 1170.54 210.874C1170.45 210.776 1170.41 210.657 1170.41 210.517V196.573C1170.41 196.419 1170.45 196.3 1170.54 196.216C1170.64 196.132 1170.76 196.09 1170.9 196.09H1171.84C1171.98 196.09 1172.09 196.139 1172.18 196.237C1172.27 196.321 1172.32 196.433 1172.32 196.573V201.424C1173.11 200.388 1174.24 199.87 1175.73 199.87C1177.2 199.87 1178.29 200.353 1179.02 201.319C1179.76 202.271 1180.16 203.468 1180.2 204.91C1180.21 205.064 1180.22 205.274 1180.22 205.54C1180.22 205.806 1180.21 206.016 1180.2 206.17C1180.16 207.612 1179.76 208.816 1179.02 209.782C1178.29 210.734 1177.2 211.21 1175.73 211.21ZM1175.33 209.572C1176.33 209.572 1177.07 209.257 1177.53 208.627C1177.99 207.997 1178.25 207.171 1178.29 206.149C1178.3 206.009 1178.31 205.806 1178.31 205.54C1178.31 202.852 1177.31 201.508 1175.33 201.508C1174.37 201.508 1173.64 201.823 1173.12 202.453C1172.62 203.069 1172.35 203.804 1172.32 204.658C1172.31 204.812 1172.3 205.085 1172.3 205.477C1172.3 205.855 1172.31 206.121 1172.32 206.275C1172.35 207.171 1172.61 207.948 1173.1 208.606C1173.6 209.25 1174.35 209.572 1175.33 209.572ZM1183.18 198.022C1183.04 198.022 1182.92 197.98 1182.82 197.896C1182.73 197.798 1182.69 197.679 1182.69 197.539V196.447C1182.69 196.307 1182.73 196.188 1182.82 196.09C1182.92 195.992 1183.04 195.943 1183.18 195.943H1184.41C1184.55 195.943 1184.67 195.992 1184.77 196.09C1184.87 196.188 1184.92 196.307 1184.92 196.447V197.539C1184.92 197.679 1184.87 197.798 1184.77 197.896C1184.67 197.98 1184.55 198.022 1184.41 198.022H1183.18ZM1183.34 211C1183.2 211 1183.08 210.958 1182.99 210.874C1182.9 210.776 1182.86 210.657 1182.86 210.517V200.563C1182.86 200.423 1182.9 200.311 1182.99 200.227C1183.08 200.129 1183.2 200.08 1183.34 200.08H1184.27C1184.41 200.08 1184.52 200.129 1184.6 200.227C1184.7 200.311 1184.75 200.423 1184.75 200.563V210.517C1184.75 210.657 1184.7 210.776 1184.6 210.874C1184.52 210.958 1184.41 211 1184.27 211H1183.34ZM1188.41 211C1188.27 211 1188.15 210.958 1188.05 210.874C1187.97 210.776 1187.93 210.657 1187.93 210.517V196.573C1187.93 196.419 1187.97 196.3 1188.05 196.216C1188.15 196.132 1188.27 196.09 1188.41 196.09H1189.33C1189.47 196.09 1189.59 196.139 1189.67 196.237C1189.77 196.321 1189.82 196.433 1189.82 196.573V210.517C1189.82 210.657 1189.77 210.776 1189.67 210.874C1189.59 210.958 1189.47 211 1189.33 211H1188.41ZM1197.3 211.21C1195.87 211.21 1194.73 210.769 1193.87 209.887C1193.02 208.991 1192.55 207.773 1192.47 206.233L1192.45 205.519L1192.47 204.826C1192.55 203.314 1193.02 202.11 1193.87 201.214C1194.73 200.318 1195.87 199.87 1197.3 199.87C1198.84 199.87 1200.03 200.36 1200.87 201.34C1201.72 202.32 1202.15 203.65 1202.15 205.33V205.708C1202.15 205.848 1202.1 205.967 1202 206.065C1201.92 206.149 1201.8 206.191 1201.66 206.191H1194.38V206.38C1194.42 207.29 1194.7 208.067 1195.22 208.711C1195.74 209.355 1196.42 209.677 1197.28 209.677C1197.93 209.677 1198.47 209.551 1198.87 209.299C1199.29 209.033 1199.61 208.76 1199.82 208.48C1199.94 208.312 1200.04 208.214 1200.11 208.186C1200.18 208.144 1200.3 208.123 1200.47 208.123H1201.39C1201.52 208.123 1201.62 208.158 1201.71 208.228C1201.8 208.298 1201.85 208.389 1201.85 208.501C1201.85 208.809 1201.66 209.18 1201.29 209.614C1200.91 210.048 1200.37 210.426 1199.67 210.748C1198.98 211.056 1198.19 211.21 1197.3 211.21ZM1200.24 204.763V204.7C1200.24 203.72 1199.97 202.922 1199.44 202.306C1198.91 201.69 1198.19 201.382 1197.3 201.382C1196.39 201.382 1195.67 201.69 1195.15 202.306C1194.64 202.922 1194.38 203.72 1194.38 204.7V204.763H1200.24ZM1208.56 211C1208.45 211 1208.35 210.958 1208.27 210.874C1208.18 210.79 1208.14 210.692 1208.14 210.58L1208.18 210.349L1213.39 196.762C1213.5 196.454 1213.73 196.3 1214.06 196.3H1215.41C1215.74 196.3 1215.97 196.454 1216.08 196.762L1221.29 210.349L1221.33 210.58C1221.33 210.692 1221.28 210.79 1221.18 210.874C1221.1 210.958 1221 211 1220.89 211H1219.9C1219.76 211 1219.64 210.965 1219.54 210.895C1219.46 210.811 1219.4 210.727 1219.38 210.643L1218.2 207.619H1211.25L1210.09 210.643C1209.98 210.881 1209.81 211 1209.57 211H1208.56ZM1211.86 205.876H1217.61L1214.73 198.337L1211.86 205.876ZM1223.83 214.99C1223.69 214.99 1223.57 214.948 1223.47 214.864C1223.39 214.78 1223.34 214.661 1223.34 214.507V200.563C1223.34 200.409 1223.39 200.29 1223.47 200.206C1223.57 200.122 1223.69 200.08 1223.83 200.08H1224.71C1224.86 200.08 1224.98 200.122 1225.07 200.206C1225.15 200.29 1225.19 200.409 1225.19 200.563V201.487C1226 200.409 1227.16 199.87 1228.66 199.87C1230.13 199.87 1231.23 200.339 1231.95 201.277C1232.7 202.201 1233.09 203.384 1233.13 204.826C1233.14 204.98 1233.15 205.218 1233.15 205.54C1233.15 205.862 1233.14 206.1 1233.13 206.254C1233.09 207.682 1232.7 208.865 1231.95 209.803C1231.23 210.741 1230.13 211.21 1228.66 211.21C1227.16 211.21 1226.02 210.678 1225.25 209.614V214.507C1225.25 214.647 1225.21 214.759 1225.11 214.843C1225.02 214.941 1224.91 214.99 1224.77 214.99H1223.83ZM1228.26 209.572C1229.27 209.572 1230 209.257 1230.46 208.627C1230.92 207.997 1231.18 207.171 1231.22 206.149C1231.23 206.009 1231.24 205.806 1231.24 205.54C1231.24 202.852 1230.25 201.508 1228.26 201.508C1227.28 201.508 1226.54 201.837 1226.03 202.495C1225.54 203.139 1225.28 203.902 1225.25 204.784C1225.24 204.938 1225.23 205.211 1225.23 205.603C1225.23 205.995 1225.24 206.268 1225.25 206.422C1225.28 207.276 1225.55 208.018 1226.05 208.648C1226.57 209.264 1227.31 209.572 1228.26 209.572ZM1236.3 214.99C1236.16 214.99 1236.04 214.948 1235.94 214.864C1235.85 214.78 1235.81 214.661 1235.81 214.507V200.563C1235.81 200.409 1235.85 200.29 1235.94 200.206C1236.04 200.122 1236.16 200.08 1236.3 200.08H1237.18C1237.33 200.08 1237.45 200.122 1237.53 200.206C1237.62 200.29 1237.66 200.409 1237.66 200.563V201.487C1238.47 200.409 1239.63 199.87 1241.13 199.87C1242.6 199.87 1243.69 200.339 1244.42 201.277C1245.16 202.201 1245.56 203.384 1245.6 204.826C1245.61 204.98 1245.62 205.218 1245.62 205.54C1245.62 205.862 1245.61 206.1 1245.6 206.254C1245.56 207.682 1245.16 208.865 1244.42 209.803C1243.69 210.741 1242.6 211.21 1241.13 211.21C1239.63 211.21 1238.49 210.678 1237.72 209.614V214.507C1237.72 214.647 1237.67 214.759 1237.58 214.843C1237.49 214.941 1237.38 214.99 1237.24 214.99H1236.3ZM1240.73 209.572C1241.73 209.572 1242.47 209.257 1242.93 208.627C1243.39 207.997 1243.65 207.171 1243.69 206.149C1243.7 206.009 1243.71 205.806 1243.71 205.54C1243.71 202.852 1242.71 201.508 1240.73 201.508C1239.75 201.508 1239 201.837 1238.5 202.495C1238.01 203.139 1237.75 203.902 1237.72 204.784C1237.71 204.938 1237.7 205.211 1237.7 205.603C1237.7 205.995 1237.71 206.268 1237.72 206.422C1237.75 207.276 1238.02 208.018 1238.52 208.648C1239.04 209.264 1239.77 209.572 1240.73 209.572Z" fill="#EC7076"/>
<circle cx="1067.5" cy="207.5" r="42.5" fill="url(#paint3_linear)"/>
<g clip-path="url(#clip7)">
<path d="M1057 207.488C1057 202.18 1056.99 196.873 1057.01 191.565C1057.01 190.923 1057 190.234 1057.22 189.656C1057.64 188.555 1058.57 188.008 1059.78 188.008C1064.02 188 1068.27 188 1072.52 188C1073.42 188 1074.31 188 1075.22 188C1076.8 188 1077.99 189.165 1077.99 190.725C1077.99 200.786 1077.99 210.839 1077.99 220.9C1077.99 222.025 1078 223.142 1077.99 224.267C1077.98 225.875 1076.82 226.992 1075.18 227C1070.02 227.008 1064.86 227.008 1059.69 227C1058.18 227 1057 225.804 1057 224.275C1056.99 222.255 1057 220.235 1057 218.215C1057 214.642 1057 211.061 1057 207.488ZM1076.21 207.544C1076.21 203.091 1076.21 198.647 1076.21 194.195C1076.21 193.569 1076.21 193.569 1075.59 193.569C1070.17 193.569 1064.76 193.569 1059.33 193.569C1058.78 193.569 1058.79 193.569 1058.79 194.116C1058.79 197.166 1058.79 200.216 1058.79 203.266C1058.79 209.136 1058.79 215.014 1058.79 220.884C1058.79 221.431 1058.79 221.431 1059.33 221.431C1064.8 221.431 1070.28 221.423 1075.75 221.439C1076.12 221.439 1076.22 221.32 1076.22 220.963C1076.21 216.495 1076.21 212.02 1076.21 207.544ZM1067.5 225.938C1068.43 225.946 1069.22 225.186 1069.24 224.267C1069.25 223.34 1068.46 222.532 1067.52 222.524C1066.57 222.516 1065.78 223.285 1065.76 224.227C1065.75 225.154 1066.54 225.931 1067.5 225.938ZM1067.52 191.066C1068.01 191.066 1068.51 191.058 1069 191.066C1069.21 191.066 1069.38 191.026 1069.38 190.773C1069.39 190.527 1069.24 190.456 1069.02 190.456C1068.01 190.456 1066.99 190.456 1065.98 190.464C1065.77 190.464 1065.6 190.519 1065.62 190.773C1065.63 191.01 1065.79 191.074 1066 191.074C1066.5 191.066 1067.02 191.066 1067.52 191.066Z" fill="white"/>
</g>
<rect x="1211" y="223" width="65" height="4" fill="#EC7076"/>
<defs>
<linearGradient id="paint0_linear" x1="8" y1="38" x2="193" y2="38" gradientUnits="userSpaceOnUse">
<stop stop-color="#1A458C"/>
<stop offset="0.536723" stop-color="#468AF9" stop-opacity="0"/>
</linearGradient>
<linearGradient id="paint1_linear" x1="312" y1="147" x2="497" y2="147" gradientUnits="userSpaceOnUse">
<stop stop-color="#318158"/>
<stop offset="0.536723" stop-color="#2D8759" stop-opacity="0"/>
</linearGradient>
<linearGradient id="paint2_linear" x1="665" y1="38" x2="850" y2="38" gradientUnits="userSpaceOnUse">
<stop stop-color="#E7B970"/>
<stop offset="0.604167" stop-color="#E7B970" stop-opacity="0"/>
</linearGradient>
<linearGradient id="paint3_linear" x1="1020" y1="165" x2="1205" y2="165" gradientUnits="userSpaceOnUse">
<stop stop-color="#EC7076"/>
<stop offset="0.536723" stop-color="#EC7076" stop-opacity="0"/>
</linearGradient>
<clipPath id="clip0">
<rect width="111" height="113.1" fill="white" transform="translate(0 23)"/>
</clipPath>
<clipPath id="clip1">
<rect width="39" height="40" fill="white" transform="translate(36 57)"/>
</clipPath>
<clipPath id="clip2">
<rect width="111" height="113.1" fill="white" transform="translate(304 132)"/>
</clipPath>
<clipPath id="clip3">
<rect width="34" height="42" fill="white" transform="translate(342 165)"/>
</clipPath>
<clipPath id="clip4">
<rect width="111" height="113.1" fill="white" transform="translate(657 23)"/>
</clipPath>
<clipPath id="clip5">
<rect width="45" height="46" fill="white" transform="translate(689 58)"/>
</clipPath>
<clipPath id="clip6">
<rect width="111" height="113.1" fill="white" transform="translate(1012 150)"/>
</clipPath>
<clipPath id="clip7">
<rect width="21" height="39" fill="white" transform="translate(1057 188)"/>
</clipPath>
</defs>
</svg>
