<svg width="65" height="36" viewBox="0 0 65 36" fill="none" xmlns="http://www.w3.org/2000/svg">
<path d="M61.8956 9.01099L54.9011 11.8681C54.9448 11.956 55.0322 12.0439 55.0759 12.1319C56.2125 13.8022 56.8683 15.8242 56.8683 17.978C56.8683 19.4285 56.5623 20.7912 56.0377 22.0659C55.2508 23.956 53.9393 25.5384 52.2781 26.6813C50.6169 27.8241 48.606 28.4835 46.4639 28.4835C45.0213 28.4835 43.6661 28.1758 42.3983 27.6483C40.5185 26.8571 38.9448 25.5384 37.8082 23.8681C37.5459 23.4285 37.2836 22.989 37.065 22.5494C36.4967 24.7472 35.5787 26.8131 34.3546 28.6593C34.0049 29.1428 33.6552 29.6263 33.2617 30.1098C34.2235 31.1648 35.2726 32.0878 36.453 32.923C39.2945 34.8571 42.7481 35.9999 46.4202 35.9999C48.8683 35.9999 51.2289 35.5164 53.371 34.5933C56.5623 33.2307 59.3164 30.945 61.2399 28.0879C63.1634 25.2307 64.3 21.7582 64.3 18.0659C64.3 15.6044 63.8191 13.2308 62.9011 11.0769C62.5951 10.2857 62.289 9.62637 61.8956 9.01099Z" fill="#956EC8"/>
<path d="M27.3166 22.9449C26.5297 24.4394 25.3494 25.7142 23.9942 26.6372C22.333 27.7801 20.3221 28.4394 18.18 28.4394C17.0871 28.4394 16.0379 28.2636 15.0324 27.9559L6.42041 31.4724C6.98872 31.9559 7.55702 32.4394 8.16904 32.835C11.0106 34.7691 14.4641 35.9119 18.1363 35.9119C20.5844 35.9119 22.945 35.4284 25.0871 34.5054C28.2783 33.1427 31.0324 30.857 32.9559 27.9999C34.6171 25.5383 35.71 22.5933 35.9286 19.4285L27.3166 22.9449Z" fill="#956EC8"/>
<path d="M30.3766 7.38459C30.6826 6.90108 31.0323 6.46152 31.4257 5.978C30.464 4.87911 29.3274 3.91208 28.1471 3.07691C25.3055 1.14285 21.852 0 18.1798 0C15.7318 0 13.3711 0.483515 11.229 1.40659C8.03776 2.76922 5.28366 5.05493 3.36016 7.91206C1.43666 10.7692 0.300049 14.2417 0.300049 17.934C0.300049 20.3955 0.780922 22.7692 1.69896 24.923C2.57327 26.945 3.7536 28.7911 5.23994 30.3296L13.1525 27.1208C11.7099 26.3296 10.4421 25.1867 9.5241 23.7801C8.38749 22.1098 7.73175 20.0878 7.73175 17.934C7.73175 16.4835 8.03776 15.1208 8.56235 13.8461C9.34924 11.956 10.6607 10.3736 12.3219 9.23074C13.9831 8.08789 15.994 7.42855 18.1361 7.42855C19.5787 7.42855 20.9339 7.73624 22.2017 8.26371C24.0815 9.05492 25.6552 10.3736 26.7919 12.0439C27.1416 12.5274 27.4039 13.0549 27.6662 13.6263C28.147 11.3846 29.1088 9.2747 30.3766 7.38459Z" fill="#956EC8"/>
<path d="M34.9667 17.5824L28.3218 20.3076C28.2781 20.5714 28.1907 20.7911 28.147 21.0549L36.0158 17.8461C36.0158 16.6153 35.8847 15.3846 35.6224 14.1978C35.1852 15.2527 34.9667 16.3516 34.9667 17.5824Z" fill="#956EC8"/>
<path d="M36.0596 17.7142C36.1033 16.3516 36.3656 15.0769 36.8902 13.8901C37.6771 12 38.9886 10.4176 40.6498 9.2747C42.311 8.13185 44.3219 7.47251 46.464 7.47251C47.9066 7.47251 49.2618 7.7802 50.5296 8.30767C51.7536 8.83514 52.8465 9.58239 53.7645 10.4615L61.0214 7.51646C59.7973 5.75823 58.2673 4.26373 56.4749 3.07692C53.6334 1.14285 50.1798 0 46.5077 0C44.0596 0 41.699 0.483515 39.5569 1.40659C36.3656 2.76922 33.6115 5.05493 31.688 7.91207C29.7645 10.7692 28.6279 14.2417 28.6279 17.934C28.6279 18.8571 28.7154 19.7362 28.8465 20.6153L36.0596 17.7142Z" fill="#956EC8"/>
</svg>
