<svg width="49" height="29" viewBox="0 0 49 29" fill="none" xmlns="http://www.w3.org/2000/svg">
<path d="M47.1426 7.26416L41.8748 9.49567C41.9077 9.56434 41.9735 9.633 42.0065 9.70166C42.8625 11.0062 43.3564 12.5855 43.3564 14.2677C43.3564 15.4006 43.1259 16.4649 42.7308 17.4605C42.1382 18.9367 41.1504 20.1726 39.8993 21.0652C38.6482 21.9578 37.1337 22.4728 35.5204 22.4728C34.4339 22.4728 33.4133 22.2325 32.4585 21.8205C31.0427 21.2025 29.8575 20.1726 29.0015 18.868C28.8039 18.5247 28.6064 18.1814 28.4417 17.8381C28.0137 19.5546 27.3223 21.1682 26.4005 22.6101C26.1371 22.9877 25.8737 23.3654 25.5774 23.743C26.3017 24.567 27.0919 25.2879 27.9808 25.9402C30.1209 27.4508 32.7219 28.3434 35.4875 28.3434C37.3313 28.3434 39.1091 27.9657 40.7224 27.2448C43.1259 26.1805 45.2001 24.3953 46.6488 22.1638C48.0974 19.9323 48.9534 17.2201 48.9534 14.3363C48.9534 12.4138 48.5913 10.5599 47.8999 8.87771C47.6694 8.25976 47.4389 7.74479 47.1426 7.26416Z" fill="#468AF9"/>
<path d="M21.0999 18.1466C20.5073 19.3139 19.6183 20.3095 18.5977 21.0304C17.3466 21.923 15.8321 22.438 14.2188 22.438C13.3957 22.438 12.6055 22.3007 11.8483 22.0604L5.36222 24.8068C5.79023 25.1845 6.21824 25.5621 6.67918 25.8711C8.81925 27.3817 11.4202 28.2743 14.1859 28.2743C16.0296 28.2743 17.8075 27.8966 19.4208 27.1757C21.8243 26.1114 23.8985 24.3262 25.3471 22.0947C26.5982 20.1722 27.4214 17.872 27.586 15.4001L21.0999 18.1466Z" fill="white"/>
<path d="M23.4045 5.99368C23.6349 5.61604 23.8983 5.27273 24.1946 4.89509C23.4703 4.03681 22.6143 3.28153 21.7253 2.62924C19.5853 1.11868 16.9843 0.226074 14.2186 0.226074C12.3749 0.226074 10.597 0.603715 8.9837 1.32467C6.58024 2.38893 4.50602 4.17414 3.05736 6.40565C1.6087 8.63717 0.752678 11.3493 0.752678 14.2331C0.752678 16.1557 1.11484 18.0095 1.80625 19.6917C2.46473 21.271 3.35368 22.7129 4.4731 23.9145L10.4324 21.4083C9.34587 20.7903 8.39107 19.8977 7.69966 18.7991C6.84364 17.4946 6.34977 15.9153 6.34977 14.2331C6.34977 13.1002 6.58025 12.0359 6.97533 11.0403C7.56797 9.5641 8.55569 8.32819 9.8068 7.43558C11.0579 6.54298 12.5724 6.02801 14.1857 6.02801C15.2722 6.02801 16.2928 6.26833 17.2476 6.6803C18.6634 7.29826 19.8486 8.32819 20.7047 9.63277C20.9681 10.0104 21.1656 10.4224 21.3632 10.8687C21.7253 9.1178 22.4497 7.46991 23.4045 5.99368Z" fill="#468AF9"/>
<path d="M26.8613 13.9587L21.8568 16.0872C21.8239 16.2932 21.758 16.4648 21.7251 16.6708L27.6514 14.1647C27.6514 13.2034 27.5527 12.2421 27.3551 11.3152C27.0259 12.1391 26.8613 12.9974 26.8613 13.9587Z" fill="#468AF9"/>
<path d="M27.6846 14.0615C27.7175 12.9972 27.915 12.0016 28.3101 11.0747C28.9028 9.59844 29.8905 8.36252 31.1416 7.46992C32.3927 6.57731 33.9072 6.06235 35.5205 6.06235C36.607 6.06235 37.6276 6.30266 38.5824 6.71463C39.5043 7.12661 40.3274 7.71023 41.0188 8.39685L46.4842 6.09668C45.5623 4.72344 44.41 3.55618 43.0601 2.62925C40.9201 1.11868 38.319 0.226074 35.5534 0.226074C33.7097 0.226074 31.9318 0.603715 30.3185 1.32467C27.9151 2.38893 25.8408 4.17414 24.3922 6.40566C22.9435 8.63717 22.0875 11.3493 22.0875 14.2331C22.0875 14.9541 22.1533 15.6407 22.2521 16.3273L27.6846 14.0615Z" fill="white"/>
</svg>
