<svg width="350" height="358" viewBox="0 0 350 358" fill="none" xmlns="http://www.w3.org/2000/svg">
<g opacity="0.46" filter="url(#filter0_f)">
<ellipse cx="172.667" cy="179" rx="128" ry="130" fill="#8F3EB3"/>
<ellipse cx="172.667" cy="179" rx="128" ry="130" fill="url(#paint0_linear)"/>
</g>
<ellipse cx="172.667" cy="179" rx="128" ry="130" fill="#0C0515"/>
<g opacity="0.6" clip-path="url(#clip0)">
<path d="M172.995 72.8348C200.941 72.8348 227.051 83.8353 246.838 103.968C266.624 124.101 277.436 150.669 277.436 179.104C277.436 207.539 266.624 234.107 246.838 254.24C227.051 274.373 200.941 285.373 172.995 285.373C145.048 285.373 118.938 274.373 99.1514 254.24C79.3647 234.107 68.5534 207.539 68.5534 179.104C68.5534 150.669 79.3647 124.101 99.1514 103.968C118.938 83.8353 145.048 72.8348 172.995 72.8348ZM172.995 282.675C200.329 282.675 225.827 271.882 245.002 252.372C264.177 232.861 274.784 206.709 274.784 179.104C274.784 151.499 264.177 125.347 245.002 105.836C225.827 86.326 200.125 75.533 172.995 75.533C145.66 75.533 120.162 86.326 100.987 105.836C81.8125 125.347 71.2052 151.499 71.2052 179.104C71.2052 206.709 81.8125 232.861 100.987 252.372C120.162 271.882 145.66 282.675 172.995 282.675Z" fill="#468AF9" fill-opacity="0.6"/>
<path d="M172.995 72.8348C200.941 72.8348 227.051 83.8353 246.838 103.968C266.624 124.101 277.436 150.669 277.436 179.104C277.436 207.539 266.624 234.107 246.838 254.24C227.051 274.373 200.941 285.373 172.995 285.373C145.048 285.373 118.938 274.373 99.1514 254.24C79.3647 234.107 68.5534 207.539 68.5534 179.104C68.5534 150.669 79.3647 124.101 99.1514 103.968C118.938 83.8353 145.048 72.8348 172.995 72.8348ZM172.995 282.675C200.329 282.675 225.827 271.882 245.002 252.372C264.177 232.861 274.784 206.709 274.784 179.104C274.784 151.499 264.177 125.347 245.002 105.836C225.827 86.326 200.125 75.533 172.995 75.533C145.66 75.533 120.162 86.326 100.987 105.836C81.8125 125.347 71.2052 151.499 71.2052 179.104C71.2052 206.709 81.8125 232.861 100.987 252.372C120.162 271.882 145.66 282.675 172.995 282.675Z" fill="url(#paint1_linear)"/>
<path d="M172.994 86.7412C197.269 86.7412 220.115 96.2888 237.25 113.724C254.385 131.158 263.768 154.405 263.768 179.104C263.768 203.803 254.385 227.05 237.25 244.485C220.115 261.919 197.269 271.467 172.994 271.467C148.72 271.467 125.873 261.919 108.738 244.485C73.4488 208.577 73.4488 149.839 108.738 113.931C125.873 96.2888 148.72 86.7412 172.994 86.7412ZM172.994 270.222C196.861 270.222 219.299 260.674 236.23 243.447C253.161 226.219 262.544 203.388 262.544 179.104C262.544 154.82 253.161 131.781 236.23 114.761C219.299 97.5341 196.861 87.9865 172.994 87.9865C149.128 87.9865 126.689 97.5341 109.758 114.761C74.8767 150.254 74.8767 208.162 109.758 243.654C126.485 260.674 149.128 270.222 172.994 270.222Z" fill="#468AF9" fill-opacity="0.3"/>
<path d="M172.994 86.7412C197.269 86.7412 220.115 96.2888 237.25 113.724C254.385 131.158 263.768 154.405 263.768 179.104C263.768 203.803 254.385 227.05 237.25 244.485C220.115 261.919 197.269 271.467 172.994 271.467C148.72 271.467 125.873 261.919 108.738 244.485C73.4488 208.577 73.4488 149.839 108.738 113.931C125.873 96.2888 148.72 86.7412 172.994 86.7412ZM172.994 270.222C196.861 270.222 219.299 260.674 236.23 243.447C253.161 226.219 262.544 203.388 262.544 179.104C262.544 154.82 253.161 131.781 236.23 114.761C219.299 97.5341 196.861 87.9865 172.994 87.9865C149.128 87.9865 126.689 97.5341 109.758 114.761C74.8767 150.254 74.8767 208.162 109.758 243.654C126.485 260.674 149.128 270.222 172.994 270.222Z" fill="url(#paint2_linear)"/>
<path d="M172.994 99.8171C193.801 99.8171 213.384 108.119 228.071 123.064C242.758 138.008 250.917 157.933 250.917 179.104C250.917 200.275 242.758 220.2 228.071 235.144C213.384 250.088 193.801 258.391 172.994 258.391C152.188 258.391 132.605 250.088 117.918 235.144C87.5238 204.218 87.5238 153.99 117.918 123.064C132.605 107.912 152.188 99.8171 172.994 99.8171ZM172.994 257.768C193.597 257.768 212.976 249.673 227.663 234.729C242.35 219.785 250.305 200.067 250.305 179.104C250.305 158.141 242.35 138.423 227.663 123.479C212.976 108.535 193.597 100.44 172.994 100.44C152.392 100.44 133.013 108.535 118.326 123.479C88.1358 154.197 88.1358 204.011 118.326 234.729C132.809 249.466 152.392 257.768 172.994 257.768Z" fill="#468AF9" fill-opacity="0.1"/>
<path d="M172.994 54.9849C205.632 54.9849 236.23 67.8534 259.076 91.3073C306.605 139.668 306.605 218.332 259.076 266.693C236.026 290.147 205.428 303.016 172.994 303.016C140.356 303.016 109.758 290.147 86.9113 266.693C39.3824 218.332 39.3824 139.668 86.9113 91.3073C109.758 67.8534 140.356 54.9849 172.994 54.9849ZM172.994 298.242C204.204 298.242 233.782 285.788 255.812 263.372C301.505 216.879 301.505 141.329 255.812 94.8358C233.782 72.4196 204.204 59.9662 172.994 59.9662C141.784 59.9662 112.206 72.4196 90.1751 94.8358C44.4821 141.329 44.4821 216.879 90.1751 263.372C112.206 285.788 141.58 298.242 172.994 298.242Z" fill="#468AF9"/>
<path d="M172.994 54.9849C205.632 54.9849 236.23 67.8534 259.076 91.3073C306.605 139.668 306.605 218.332 259.076 266.693C236.026 290.147 205.428 303.016 172.994 303.016C140.356 303.016 109.758 290.147 86.9113 266.693C39.3824 218.332 39.3824 139.668 86.9113 91.3073C109.758 67.8534 140.356 54.9849 172.994 54.9849ZM172.994 298.242C204.204 298.242 233.782 285.788 255.812 263.372C301.505 216.879 301.505 141.329 255.812 94.8358C233.782 72.4196 204.204 59.9662 172.994 59.9662C141.784 59.9662 112.206 72.4196 90.1751 94.8358C44.4821 141.329 44.4821 216.879 90.1751 263.372C112.206 285.788 141.58 298.242 172.994 298.242Z" fill="url(#paint3_linear)"/>
</g>
<path d="M104.578 172.531C104.438 172.531 104.326 172.489 104.242 172.405C104.158 172.321 104.116 172.209 104.116 172.069V158.314C104.116 158.174 104.158 158.062 104.242 157.978C104.326 157.88 104.438 157.831 104.578 157.831H112.768C112.922 157.831 113.041 157.873 113.125 157.957C113.209 158.041 113.251 158.16 113.251 158.314V158.629C113.251 158.769 113.202 158.881 113.104 158.965C113.02 159.049 112.908 159.091 112.768 159.091H105.439V164.446H112.306C112.46 164.446 112.579 164.488 112.663 164.572C112.747 164.656 112.789 164.775 112.789 164.929V165.244C112.789 165.384 112.74 165.496 112.642 165.58C112.558 165.664 112.446 165.706 112.306 165.706H105.439V171.271H112.936C113.09 171.271 113.209 171.313 113.293 171.397C113.377 171.481 113.419 171.6 113.419 171.754V172.069C113.419 172.209 113.37 172.321 113.272 172.405C113.188 172.489 113.076 172.531 112.936 172.531H104.578ZM117.006 172.531C116.866 172.531 116.754 172.489 116.67 172.405C116.586 172.321 116.544 172.209 116.544 172.069V158.314C116.544 158.174 116.586 158.062 116.67 157.978C116.754 157.88 116.866 157.831 117.006 157.831H117.447C117.629 157.831 117.776 157.915 117.888 158.083L125.637 169.927V158.314C125.637 158.174 125.679 158.062 125.763 157.978C125.847 157.88 125.959 157.831 126.099 157.831H126.477C126.631 157.831 126.75 157.873 126.834 157.957C126.918 158.041 126.96 158.16 126.96 158.314V172.048C126.96 172.188 126.918 172.307 126.834 172.405C126.75 172.489 126.638 172.531 126.498 172.531H126.036C125.854 172.531 125.707 172.447 125.595 172.279L117.867 160.477V172.069C117.867 172.209 117.818 172.321 117.72 172.405C117.636 172.489 117.524 172.531 117.384 172.531H117.006ZM134.574 172.531C134.434 172.531 134.322 172.489 134.238 172.405C134.154 172.321 134.112 172.209 134.112 172.069V159.091H129.954C129.814 159.091 129.702 159.049 129.618 158.965C129.534 158.881 129.492 158.769 129.492 158.629V158.314C129.492 158.174 129.534 158.062 129.618 157.978C129.702 157.88 129.814 157.831 129.954 157.831H139.572C139.726 157.831 139.845 157.873 139.929 157.957C140.013 158.041 140.055 158.16 140.055 158.314V158.629C140.055 158.769 140.006 158.881 139.908 158.965C139.824 159.049 139.712 159.091 139.572 159.091H135.435V172.069C135.435 172.209 135.386 172.321 135.288 172.405C135.204 172.489 135.092 172.531 134.952 172.531H134.574ZM143.051 172.531C142.911 172.531 142.799 172.489 142.715 172.405C142.631 172.321 142.589 172.209 142.589 172.069V158.314C142.589 158.174 142.631 158.062 142.715 157.978C142.799 157.88 142.911 157.831 143.051 157.831H151.241C151.395 157.831 151.514 157.873 151.598 157.957C151.682 158.041 151.724 158.16 151.724 158.314V158.629C151.724 158.769 151.675 158.881 151.577 158.965C151.493 159.049 151.381 159.091 151.241 159.091H143.912V164.446H150.779C150.933 164.446 151.052 164.488 151.136 164.572C151.22 164.656 151.262 164.775 151.262 164.929V165.244C151.262 165.384 151.213 165.496 151.115 165.58C151.031 165.664 150.919 165.706 150.779 165.706H143.912V171.271H151.409C151.563 171.271 151.682 171.313 151.766 171.397C151.85 171.481 151.892 171.6 151.892 171.754V172.069C151.892 172.209 151.843 172.321 151.745 172.405C151.661 172.489 151.549 172.531 151.409 172.531H143.051ZM155.478 172.531C155.338 172.531 155.226 172.489 155.142 172.405C155.058 172.321 155.016 172.209 155.016 172.069V158.314C155.016 158.174 155.058 158.062 155.142 157.978C155.226 157.88 155.338 157.831 155.478 157.831H160.371C161.883 157.831 163.066 158.188 163.92 158.902C164.774 159.616 165.201 160.673 165.201 162.073C165.201 163.179 164.928 164.075 164.382 164.761C163.836 165.433 163.052 165.888 162.03 166.126L165.411 171.88C165.453 171.964 165.474 172.041 165.474 172.111C165.474 172.223 165.432 172.321 165.348 172.405C165.264 172.489 165.166 172.531 165.054 172.531H164.802C164.592 172.531 164.431 172.489 164.319 172.405C164.221 172.307 164.116 172.16 164.004 171.964L160.665 166.315H156.339V172.069C156.339 172.209 156.29 172.321 156.192 172.405C156.108 172.489 155.996 172.531 155.856 172.531H155.478ZM160.266 165.055C161.484 165.055 162.387 164.81 162.975 164.32C163.577 163.816 163.878 163.067 163.878 162.073C163.878 161.079 163.577 160.337 162.975 159.847C162.387 159.343 161.484 159.091 160.266 159.091H156.339V165.055H160.266ZM171.939 172.531C171.799 172.531 171.687 172.489 171.603 172.405C171.519 172.321 171.477 172.209 171.477 172.069V159.091H167.319C167.179 159.091 167.067 159.049 166.983 158.965C166.899 158.881 166.857 158.769 166.857 158.629V158.314C166.857 158.174 166.899 158.062 166.983 157.978C167.067 157.88 167.179 157.831 167.319 157.831H176.937C177.091 157.831 177.21 157.873 177.294 157.957C177.378 158.041 177.42 158.16 177.42 158.314V158.629C177.42 158.769 177.371 158.881 177.273 158.965C177.189 159.049 177.077 159.091 176.937 159.091H172.8V172.069C172.8 172.209 172.751 172.321 172.653 172.405C172.569 172.489 172.457 172.531 172.317 172.531H171.939ZM177.325 172.531C177.213 172.531 177.115 172.489 177.031 172.405C176.947 172.321 176.905 172.223 176.905 172.111L176.947 171.88L182.26 158.251C182.372 157.971 182.575 157.831 182.869 157.831H183.583C183.877 157.831 184.08 157.971 184.192 158.251L189.505 171.88L189.547 172.111C189.547 172.223 189.505 172.321 189.421 172.405C189.337 172.489 189.239 172.531 189.127 172.531H188.707C188.581 172.531 188.476 172.496 188.392 172.426C188.322 172.356 188.273 172.286 188.245 172.216L186.943 168.856H179.509L178.207 172.216C178.179 172.286 178.123 172.356 178.039 172.426C177.969 172.496 177.871 172.531 177.745 172.531H177.325ZM180.013 167.596H186.439L183.226 159.322L180.013 167.596ZM192.495 172.531C192.355 172.531 192.243 172.489 192.159 172.405C192.075 172.321 192.033 172.209 192.033 172.069V158.293C192.033 158.153 192.075 158.041 192.159 157.957C192.243 157.873 192.355 157.831 192.495 157.831H192.894C193.034 157.831 193.146 157.873 193.23 157.957C193.314 158.041 193.356 158.153 193.356 158.293V172.069C193.356 172.209 193.314 172.321 193.23 172.405C193.146 172.489 193.034 172.531 192.894 172.531H192.495ZM197.765 172.531C197.625 172.531 197.513 172.489 197.429 172.405C197.345 172.321 197.303 172.209 197.303 172.069V158.314C197.303 158.174 197.345 158.062 197.429 157.978C197.513 157.88 197.625 157.831 197.765 157.831H198.206C198.388 157.831 198.535 157.915 198.647 158.083L206.396 169.927V158.314C206.396 158.174 206.438 158.062 206.522 157.978C206.606 157.88 206.718 157.831 206.858 157.831H207.236C207.39 157.831 207.509 157.873 207.593 157.957C207.677 158.041 207.719 158.16 207.719 158.314V172.048C207.719 172.188 207.677 172.307 207.593 172.405C207.509 172.489 207.397 172.531 207.257 172.531H206.795C206.613 172.531 206.466 172.447 206.354 172.279L198.626 160.477V172.069C198.626 172.209 198.577 172.321 198.479 172.405C198.395 172.489 198.283 172.531 198.143 172.531H197.765ZM212.121 172.531C211.981 172.531 211.869 172.489 211.785 172.405C211.701 172.321 211.659 172.209 211.659 172.069V158.293C211.659 158.153 211.701 158.041 211.785 157.957C211.869 157.873 211.981 157.831 212.121 157.831H212.52C212.66 157.831 212.772 157.873 212.856 157.957C212.94 158.041 212.982 158.153 212.982 158.293V172.069C212.982 172.209 212.94 172.321 212.856 172.405C212.772 172.489 212.66 172.531 212.52 172.531H212.121ZM217.391 172.531C217.251 172.531 217.139 172.489 217.055 172.405C216.971 172.321 216.929 172.209 216.929 172.069V158.314C216.929 158.174 216.971 158.062 217.055 157.978C217.139 157.88 217.251 157.831 217.391 157.831H217.832C218.014 157.831 218.161 157.915 218.273 158.083L226.022 169.927V158.314C226.022 158.174 226.064 158.062 226.148 157.978C226.232 157.88 226.344 157.831 226.484 157.831H226.862C227.016 157.831 227.135 157.873 227.219 157.957C227.303 158.041 227.345 158.16 227.345 158.314V172.048C227.345 172.188 227.303 172.307 227.219 172.405C227.135 172.489 227.023 172.531 226.883 172.531H226.421C226.239 172.531 226.092 172.447 225.98 172.279L218.252 160.477V172.069C218.252 172.209 218.203 172.321 218.105 172.405C218.021 172.489 217.909 172.531 217.769 172.531H217.391ZM236.325 172.741C234.575 172.741 233.217 172.237 232.251 171.229C231.285 170.221 230.774 168.87 230.718 167.176C230.704 166.756 230.697 166.091 230.697 165.181C230.697 164.271 230.704 163.606 230.718 163.186C230.774 161.492 231.285 160.141 232.251 159.133C233.217 158.125 234.575 157.621 236.325 157.621C237.515 157.621 238.516 157.845 239.328 158.293C240.14 158.741 240.742 159.273 241.134 159.889C241.54 160.491 241.757 161.03 241.785 161.506V161.548C241.785 161.66 241.743 161.751 241.659 161.821C241.575 161.891 241.47 161.926 241.344 161.926H240.882C240.756 161.926 240.665 161.898 240.609 161.842C240.553 161.786 240.497 161.674 240.441 161.506C240.203 160.764 239.741 160.141 239.055 159.637C238.383 159.133 237.473 158.881 236.325 158.881C235.023 158.881 233.994 159.238 233.238 159.952C232.496 160.666 232.097 161.779 232.041 163.291C232.027 163.711 232.02 164.341 232.02 165.181C232.02 166.021 232.027 166.651 232.041 167.071C232.097 168.583 232.496 169.696 233.238 170.41C233.994 171.124 235.023 171.481 236.325 171.481C237.627 171.481 238.677 171.11 239.475 170.368C240.273 169.626 240.672 168.527 240.672 167.071V166H237.018C236.878 166 236.766 165.958 236.682 165.874C236.598 165.776 236.556 165.657 236.556 165.517V165.223C236.556 165.083 236.598 164.971 236.682 164.887C236.766 164.789 236.878 164.74 237.018 164.74H241.512C241.666 164.74 241.785 164.782 241.869 164.866C241.953 164.95 241.995 165.069 241.995 165.223V167.071C241.995 168.191 241.771 169.178 241.323 170.032C240.875 170.886 240.224 171.551 239.37 172.027C238.516 172.503 237.501 172.741 236.325 172.741Z" fill="white"/>
<path d="M94.8817 192.886C94.775 192.886 94.6843 192.848 94.6097 192.774C94.535 192.699 94.4977 192.608 94.4977 192.502V191.414C94.4977 191.307 94.535 191.216 94.6097 191.142C94.6843 191.067 94.775 191.03 94.8817 191.03H99.8097C99.927 191.03 100.018 191.067 100.082 191.142C100.156 191.206 100.194 191.296 100.194 191.414V192.502C100.194 192.608 100.156 192.699 100.082 192.774C100.007 192.848 99.9163 192.886 99.8097 192.886H94.8817ZM109.65 200.278C108.7 200.278 107.932 200.118 107.346 199.798C106.759 199.488 106.343 199.131 106.098 198.726C105.852 198.32 105.73 197.974 105.73 197.686C105.73 197.579 105.767 197.488 105.842 197.414C105.916 197.35 106.007 197.318 106.114 197.318H107.538C107.634 197.318 107.714 197.339 107.778 197.382C107.852 197.435 107.911 197.526 107.954 197.654C108.071 197.931 108.247 198.166 108.482 198.358C108.716 198.56 109.079 198.662 109.57 198.662C110.21 198.662 110.679 198.518 110.978 198.23C111.276 197.952 111.426 197.462 111.426 196.758V195.67C110.85 196.352 110.034 196.694 108.978 196.694C107.868 196.694 107.031 196.358 106.466 195.686C105.911 195.014 105.612 194.096 105.57 192.934L105.554 192.502L105.57 192.07C105.612 190.928 105.916 190.011 106.482 189.318C107.047 188.624 107.879 188.278 108.978 188.278C109.543 188.278 110.039 188.384 110.466 188.598C110.892 188.811 111.244 189.099 111.522 189.462V188.838C111.522 188.72 111.559 188.624 111.634 188.55C111.719 188.475 111.815 188.438 111.922 188.438H113.234C113.34 188.438 113.431 188.475 113.506 188.55C113.58 188.624 113.618 188.72 113.618 188.838L113.634 196.55C113.634 197.734 113.303 198.651 112.642 199.302C111.98 199.952 110.983 200.278 109.65 200.278ZM109.586 194.998C110.183 194.998 110.631 194.806 110.93 194.422C111.228 194.038 111.394 193.568 111.426 193.014C111.436 192.928 111.442 192.758 111.442 192.502C111.442 192.246 111.436 192.075 111.426 191.99C111.394 191.435 111.228 190.966 110.93 190.582C110.631 190.198 110.183 190.006 109.586 190.006C108.434 190.006 107.826 190.71 107.762 192.118L107.746 192.502C107.746 194.166 108.359 194.998 109.586 194.998ZM116.133 196.758C116.027 196.758 115.936 196.72 115.861 196.646C115.787 196.571 115.749 196.48 115.749 196.374V188.838C115.749 188.72 115.787 188.624 115.861 188.55C115.936 188.475 116.027 188.438 116.133 188.438H117.445C117.563 188.438 117.659 188.475 117.733 188.55C117.808 188.624 117.845 188.72 117.845 188.838V189.494C118.379 188.79 119.147 188.438 120.149 188.438H120.821C120.939 188.438 121.029 188.475 121.093 188.55C121.168 188.614 121.205 188.704 121.205 188.822V189.99C121.205 190.096 121.168 190.187 121.093 190.262C121.029 190.336 120.939 190.374 120.821 190.374H119.557C119.056 190.374 118.661 190.518 118.373 190.806C118.085 191.094 117.941 191.488 117.941 191.99V196.374C117.941 196.48 117.904 196.571 117.829 196.646C117.755 196.72 117.664 196.758 117.557 196.758H116.133ZM124.743 196.918C124.199 196.918 123.698 196.811 123.239 196.598C122.791 196.374 122.434 196.075 122.167 195.702C121.911 195.328 121.783 194.918 121.783 194.47C121.783 193.744 122.077 193.158 122.663 192.71C123.25 192.262 124.055 191.958 125.079 191.798L127.271 191.478V191.142C127.271 190.683 127.154 190.336 126.919 190.102C126.685 189.867 126.311 189.75 125.799 189.75C125.447 189.75 125.165 189.814 124.951 189.942C124.738 190.07 124.562 190.203 124.423 190.342C124.295 190.47 124.21 190.555 124.167 190.598C124.125 190.726 124.045 190.79 123.927 190.79H122.679C122.583 190.79 122.498 190.758 122.423 190.694C122.359 190.63 122.327 190.544 122.327 190.438C122.338 190.171 122.466 189.872 122.711 189.542C122.967 189.2 123.357 188.907 123.879 188.662C124.402 188.406 125.047 188.278 125.815 188.278C127.074 188.278 127.991 188.56 128.567 189.126C129.143 189.691 129.431 190.432 129.431 191.35V196.374C129.431 196.48 129.394 196.571 129.319 196.646C129.255 196.72 129.165 196.758 129.047 196.758H127.719C127.613 196.758 127.522 196.72 127.447 196.646C127.373 196.571 127.335 196.48 127.335 196.374V195.75C127.101 196.091 126.77 196.374 126.343 196.598C125.917 196.811 125.383 196.918 124.743 196.918ZM125.287 195.382C125.874 195.382 126.354 195.19 126.727 194.806C127.101 194.422 127.287 193.867 127.287 193.142V192.822L125.687 193.078C124.461 193.27 123.847 193.68 123.847 194.31C123.847 194.651 123.986 194.918 124.263 195.11C124.551 195.291 124.893 195.382 125.287 195.382ZM131.884 199.798C131.777 199.798 131.686 199.76 131.612 199.686C131.537 199.622 131.5 199.531 131.5 199.414V188.822C131.5 188.704 131.537 188.614 131.612 188.55C131.686 188.475 131.777 188.438 131.884 188.438H133.164C133.281 188.438 133.377 188.475 133.452 188.55C133.526 188.624 133.564 188.715 133.564 188.822V189.462C134.129 188.672 134.977 188.278 136.108 188.278C137.185 188.278 138.012 188.619 138.588 189.302C139.164 189.974 139.473 190.88 139.516 192.022C139.526 192.15 139.532 192.342 139.532 192.598C139.532 192.854 139.526 193.046 139.516 193.174C139.484 194.294 139.174 195.2 138.588 195.894C138.012 196.576 137.185 196.918 136.108 196.918C135.041 196.918 134.225 196.539 133.66 195.782V199.414C133.66 199.531 133.622 199.622 133.548 199.686C133.484 199.76 133.393 199.798 133.276 199.798H131.884ZM135.5 195.19C136.641 195.19 137.249 194.486 137.324 193.078C137.334 192.971 137.34 192.811 137.34 192.598C137.34 192.384 137.334 192.224 137.324 192.118C137.249 190.71 136.641 190.006 135.5 190.006C134.892 190.006 134.438 190.203 134.14 190.598C133.841 190.992 133.681 191.472 133.66 192.038C133.649 192.166 133.644 192.368 133.644 192.646C133.644 192.923 133.649 193.131 133.66 193.27C133.681 193.803 133.846 194.256 134.156 194.63C134.465 195.003 134.913 195.19 135.5 195.19ZM141.712 196.758C141.605 196.758 141.514 196.72 141.44 196.646C141.365 196.571 141.328 196.48 141.328 196.374V185.782C141.328 185.664 141.365 185.574 141.44 185.51C141.514 185.435 141.605 185.398 141.712 185.398H143.168C143.285 185.398 143.376 185.435 143.44 185.51C143.514 185.574 143.552 185.664 143.552 185.782V189.43C144.192 188.662 145.05 188.278 146.128 188.278C147.109 188.278 147.893 188.603 148.48 189.254C149.066 189.894 149.36 190.768 149.36 191.878V196.374C149.36 196.48 149.322 196.571 149.248 196.646C149.184 196.72 149.093 196.758 148.976 196.758H147.52C147.402 196.758 147.306 196.72 147.232 196.646C147.157 196.571 147.12 196.48 147.12 196.374V191.974C147.12 191.355 146.965 190.875 146.656 190.534C146.357 190.182 145.925 190.006 145.36 190.006C144.816 190.006 144.378 190.182 144.048 190.534C143.717 190.886 143.552 191.366 143.552 191.974V196.374C143.552 196.48 143.514 196.571 143.44 196.646C143.376 196.72 143.285 196.758 143.168 196.758H141.712ZM151.71 187.078C151.603 187.078 151.512 187.04 151.438 186.966C151.363 186.891 151.326 186.8 151.326 186.694V185.526C151.326 185.408 151.363 185.312 151.438 185.238C151.512 185.163 151.603 185.126 151.71 185.126H153.182C153.299 185.126 153.395 185.163 153.47 185.238C153.544 185.312 153.582 185.408 153.582 185.526V186.694C153.582 186.8 153.539 186.891 153.454 186.966C153.379 187.04 153.288 187.078 153.182 187.078H151.71ZM151.774 196.758C151.667 196.758 151.576 196.72 151.502 196.646C151.427 196.571 151.39 196.48 151.39 196.374V188.822C151.39 188.704 151.427 188.614 151.502 188.55C151.576 188.475 151.667 188.438 151.774 188.438H153.134C153.24 188.438 153.331 188.475 153.406 188.55C153.48 188.624 153.518 188.715 153.518 188.822V196.374C153.518 196.48 153.48 196.571 153.406 196.646C153.331 196.72 153.24 196.758 153.134 196.758H151.774ZM159.224 196.918C158.051 196.918 157.112 196.592 156.408 195.942C155.715 195.291 155.347 194.39 155.304 193.238L155.288 192.598L155.304 191.958C155.347 190.806 155.715 189.904 156.408 189.254C157.112 188.603 158.051 188.278 159.224 188.278C160.067 188.278 160.776 188.427 161.352 188.726C161.939 189.024 162.371 189.392 162.648 189.83C162.936 190.256 163.091 190.667 163.112 191.062C163.123 191.168 163.086 191.259 163 191.334C162.926 191.408 162.835 191.446 162.728 191.446H161.304C161.187 191.446 161.102 191.424 161.048 191.382C160.995 191.328 160.942 191.238 160.888 191.11C160.728 190.704 160.515 190.411 160.248 190.23C159.992 190.048 159.662 189.958 159.256 189.958C158.712 189.958 158.286 190.128 157.976 190.47C157.678 190.811 157.518 191.334 157.496 192.038L157.48 192.63L157.496 193.158C157.56 194.544 158.147 195.238 159.256 195.238C159.672 195.238 160.008 195.152 160.264 194.982C160.52 194.8 160.728 194.502 160.888 194.086C160.931 193.968 160.979 193.883 161.032 193.83C161.096 193.776 161.187 193.75 161.304 193.75H162.728C162.835 193.75 162.926 193.787 163 193.862C163.086 193.936 163.123 194.027 163.112 194.134C163.091 194.507 162.942 194.912 162.664 195.35C162.387 195.776 161.96 196.144 161.384 196.454C160.808 196.763 160.088 196.918 159.224 196.918ZM167.948 196.918C167.138 196.918 166.46 196.795 165.916 196.55C165.372 196.304 164.967 196.022 164.7 195.702C164.444 195.371 164.316 195.088 164.316 194.854C164.316 194.747 164.348 194.662 164.412 194.598C164.487 194.534 164.572 194.502 164.668 194.502H165.98C166.066 194.502 166.14 194.544 166.204 194.63C166.258 194.672 166.375 194.774 166.556 194.934C166.748 195.094 166.962 195.222 167.196 195.318C167.442 195.403 167.708 195.446 167.996 195.446C168.423 195.446 168.77 195.366 169.036 195.206C169.303 195.035 169.436 194.795 169.436 194.486C169.436 194.272 169.372 194.102 169.244 193.974C169.127 193.835 168.908 193.712 168.588 193.606C168.279 193.488 167.81 193.36 167.18 193.222C166.274 193.03 165.602 192.736 165.164 192.342C164.738 191.947 164.524 191.424 164.524 190.774C164.524 190.347 164.652 189.947 164.908 189.574C165.164 189.19 165.543 188.88 166.044 188.646C166.556 188.4 167.164 188.278 167.868 188.278C168.594 188.278 169.218 188.395 169.74 188.63C170.263 188.854 170.658 189.126 170.924 189.446C171.202 189.766 171.34 190.048 171.34 190.294C171.34 190.39 171.303 190.475 171.228 190.55C171.164 190.614 171.084 190.646 170.988 190.646H169.788C169.671 190.646 169.58 190.603 169.516 190.518C169.442 190.464 169.319 190.368 169.148 190.23C168.988 190.08 168.807 189.963 168.604 189.878C168.402 189.792 168.156 189.75 167.868 189.75C167.474 189.75 167.17 189.835 166.956 190.006C166.743 190.176 166.636 190.4 166.636 190.678C166.636 190.87 166.684 191.03 166.78 191.158C166.887 191.286 167.095 191.408 167.404 191.526C167.714 191.632 168.178 191.744 168.796 191.862C170.716 192.235 171.676 193.072 171.676 194.374C171.676 195.131 171.346 195.744 170.684 196.214C170.034 196.683 169.122 196.918 167.948 196.918ZM180.6 196.918C179.822 196.918 179.139 196.784 178.552 196.518C177.966 196.251 177.507 195.878 177.176 195.398C176.856 194.907 176.696 194.342 176.696 193.702C176.696 193.04 176.888 192.47 177.272 191.99C177.656 191.499 178.2 191.051 178.904 190.646C178.456 190.166 178.131 189.734 177.928 189.35C177.736 188.955 177.64 188.55 177.64 188.134C177.64 187.643 177.768 187.19 178.024 186.774C178.28 186.358 178.654 186.027 179.144 185.782C179.635 185.526 180.216 185.398 180.888 185.398C181.528 185.398 182.083 185.52 182.552 185.766C183.032 186 183.4 186.326 183.656 186.742C183.912 187.158 184.04 187.611 184.04 188.102C184.04 188.731 183.843 189.27 183.448 189.718C183.054 190.166 182.478 190.603 181.72 191.03L184.008 193.286C184.382 192.635 184.659 191.931 184.84 191.174C184.851 191.088 184.883 191.024 184.936 190.982C185 190.928 185.08 190.902 185.176 190.902H186.36C186.456 190.902 186.536 190.934 186.6 190.998C186.664 191.062 186.696 191.136 186.696 191.222C186.686 191.638 186.536 192.16 186.248 192.79C185.96 193.408 185.619 193.979 185.224 194.502L186.936 196.23C187.011 196.304 187.048 196.384 187.048 196.47C187.048 196.555 187.022 196.624 186.968 196.678C186.915 196.731 186.84 196.758 186.744 196.758H185.176C185.006 196.758 184.867 196.704 184.76 196.598L183.88 195.75C183.006 196.528 181.912 196.918 180.6 196.918ZM180.584 189.814C181.107 189.536 181.502 189.275 181.768 189.03C182.035 188.784 182.168 188.491 182.168 188.15C182.168 187.808 182.046 187.531 181.8 187.318C181.555 187.094 181.251 186.982 180.888 186.982C180.536 186.982 180.232 187.088 179.976 187.302C179.731 187.515 179.608 187.798 179.608 188.15C179.608 188.395 179.678 188.64 179.816 188.886C179.955 189.131 180.211 189.44 180.584 189.814ZM180.6 195.238C181.411 195.238 182.088 194.966 182.632 194.422L180.088 191.926C179.182 192.416 178.728 192.982 178.728 193.622C178.728 194.112 178.91 194.507 179.272 194.806C179.646 195.094 180.088 195.238 180.6 195.238ZM195.261 196.918C194.45 196.918 193.773 196.795 193.229 196.55C192.685 196.304 192.28 196.022 192.013 195.702C191.757 195.371 191.629 195.088 191.629 194.854C191.629 194.747 191.661 194.662 191.725 194.598C191.8 194.534 191.885 194.502 191.981 194.502H193.293C193.378 194.502 193.453 194.544 193.517 194.63C193.57 194.672 193.688 194.774 193.869 194.934C194.061 195.094 194.274 195.222 194.509 195.318C194.754 195.403 195.021 195.446 195.309 195.446C195.736 195.446 196.082 195.366 196.349 195.206C196.616 195.035 196.749 194.795 196.749 194.486C196.749 194.272 196.685 194.102 196.557 193.974C196.44 193.835 196.221 193.712 195.901 193.606C195.592 193.488 195.122 193.36 194.493 193.222C193.586 193.03 192.914 192.736 192.477 192.342C192.05 191.947 191.837 191.424 191.837 190.774C191.837 190.347 191.965 189.947 192.221 189.574C192.477 189.19 192.856 188.88 193.357 188.646C193.869 188.4 194.477 188.278 195.181 188.278C195.906 188.278 196.53 188.395 197.053 188.63C197.576 188.854 197.97 189.126 198.237 189.446C198.514 189.766 198.653 190.048 198.653 190.294C198.653 190.39 198.616 190.475 198.541 190.55C198.477 190.614 198.397 190.646 198.301 190.646H197.101C196.984 190.646 196.893 190.603 196.829 190.518C196.754 190.464 196.632 190.368 196.461 190.23C196.301 190.08 196.12 189.963 195.917 189.878C195.714 189.792 195.469 189.75 195.181 189.75C194.786 189.75 194.482 189.835 194.269 190.006C194.056 190.176 193.949 190.4 193.949 190.678C193.949 190.87 193.997 191.03 194.093 191.158C194.2 191.286 194.408 191.408 194.717 191.526C195.026 191.632 195.49 191.744 196.109 191.862C198.029 192.235 198.989 193.072 198.989 194.374C198.989 195.131 198.658 195.744 197.997 196.214C197.346 196.683 196.434 196.918 195.261 196.918ZM204.32 196.918C203.062 196.918 202.091 196.598 201.408 195.958C200.726 195.318 200.358 194.432 200.304 193.302L200.288 192.598L200.304 191.894C200.358 190.774 200.731 189.894 201.424 189.254C202.118 188.603 203.083 188.278 204.32 188.278C205.547 188.278 206.507 188.603 207.2 189.254C207.894 189.894 208.267 190.774 208.32 191.894C208.331 192.022 208.336 192.256 208.336 192.598C208.336 192.939 208.331 193.174 208.32 193.302C208.267 194.432 207.899 195.318 207.216 195.958C206.534 196.598 205.568 196.918 204.32 196.918ZM204.32 195.302C204.886 195.302 205.318 195.126 205.616 194.774C205.926 194.422 206.091 193.904 206.112 193.222C206.123 193.115 206.128 192.907 206.128 192.598C206.128 192.288 206.123 192.08 206.112 191.974C206.091 191.291 205.926 190.774 205.616 190.422C205.307 190.059 204.875 189.878 204.32 189.878C203.755 189.878 203.318 190.059 203.008 190.422C202.699 190.774 202.534 191.291 202.512 191.974L202.496 192.598L202.512 193.222C202.534 193.904 202.699 194.422 203.008 194.774C203.318 195.126 203.755 195.302 204.32 195.302ZM213.197 196.918C212.215 196.918 211.442 196.598 210.877 195.958C210.311 195.318 210.029 194.438 210.029 193.318V188.822C210.029 188.704 210.066 188.614 210.141 188.55C210.215 188.475 210.306 188.438 210.413 188.438H211.853C211.959 188.438 212.05 188.475 212.125 188.55C212.199 188.624 212.237 188.715 212.237 188.822V193.222C212.237 194.534 212.807 195.19 213.949 195.19C214.503 195.19 214.941 195.014 215.261 194.662C215.591 194.31 215.757 193.83 215.757 193.222V188.822C215.757 188.704 215.794 188.614 215.869 188.55C215.943 188.475 216.034 188.438 216.141 188.438H217.565C217.682 188.438 217.773 188.475 217.837 188.55C217.911 188.614 217.949 188.704 217.949 188.822V196.374C217.949 196.48 217.911 196.571 217.837 196.646C217.773 196.72 217.682 196.758 217.565 196.758H216.237C216.13 196.758 216.039 196.72 215.965 196.646C215.89 196.571 215.853 196.48 215.853 196.374V195.718C215.266 196.518 214.381 196.918 213.197 196.918ZM220.446 196.758C220.339 196.758 220.248 196.72 220.174 196.646C220.099 196.571 220.062 196.48 220.062 196.374V188.822C220.062 188.704 220.099 188.614 220.174 188.55C220.248 188.475 220.339 188.438 220.446 188.438H221.774C221.891 188.438 221.982 188.475 222.046 188.55C222.12 188.614 222.158 188.704 222.158 188.822V189.478C222.808 188.678 223.699 188.278 224.83 188.278C225.811 188.278 226.59 188.598 227.166 189.238C227.742 189.878 228.03 190.758 228.03 191.878V196.374C228.03 196.48 227.992 196.571 227.918 196.646C227.854 196.72 227.763 196.758 227.646 196.758H226.206C226.099 196.758 226.008 196.72 225.934 196.646C225.859 196.571 225.822 196.48 225.822 196.374V191.974C225.822 191.355 225.667 190.875 225.358 190.534C225.059 190.182 224.627 190.006 224.062 190.006C223.518 190.006 223.08 190.182 222.75 190.534C222.419 190.886 222.254 191.366 222.254 191.974V196.374C222.254 196.48 222.216 196.571 222.142 196.646C222.078 196.72 221.987 196.758 221.87 196.758H220.446ZM233.15 196.918C232.072 196.918 231.246 196.576 230.67 195.894C230.094 195.2 229.779 194.278 229.726 193.126L229.71 192.598L229.726 192.07C229.768 190.939 230.078 190.027 230.654 189.334C231.24 188.63 232.072 188.278 233.15 188.278C234.174 188.278 234.99 188.63 235.598 189.334V185.782C235.598 185.664 235.635 185.574 235.71 185.51C235.784 185.435 235.875 185.398 235.982 185.398H237.374C237.491 185.398 237.582 185.435 237.646 185.51C237.72 185.574 237.758 185.664 237.758 185.782V196.374C237.758 196.48 237.72 196.571 237.646 196.646C237.582 196.72 237.491 196.758 237.374 196.758H236.078C235.971 196.758 235.88 196.72 235.806 196.646C235.731 196.571 235.694 196.48 235.694 196.374V195.782C235.107 196.539 234.259 196.918 233.15 196.918ZM233.758 195.19C234.366 195.19 234.814 194.998 235.102 194.614C235.4 194.219 235.566 193.734 235.598 193.158C235.608 193.03 235.614 192.827 235.614 192.55C235.614 192.262 235.608 192.054 235.598 191.926C235.576 191.392 235.411 190.939 235.102 190.566C234.792 190.192 234.344 190.006 233.758 190.006C232.616 190.006 232.008 190.71 231.934 192.118L231.918 192.598L231.934 193.078C232.008 194.486 232.616 195.19 233.758 195.19ZM243.058 196.918C242.247 196.918 241.57 196.795 241.026 196.55C240.482 196.304 240.076 196.022 239.81 195.702C239.554 195.371 239.426 195.088 239.426 194.854C239.426 194.747 239.458 194.662 239.522 194.598C239.596 194.534 239.682 194.502 239.778 194.502H241.09C241.175 194.502 241.25 194.544 241.314 194.63C241.367 194.672 241.484 194.774 241.666 194.934C241.858 195.094 242.071 195.222 242.306 195.318C242.551 195.403 242.818 195.446 243.106 195.446C243.532 195.446 243.879 195.366 244.146 195.206C244.412 195.035 244.546 194.795 244.546 194.486C244.546 194.272 244.482 194.102 244.354 193.974C244.236 193.835 244.018 193.712 243.698 193.606C243.388 193.488 242.919 193.36 242.29 193.222C241.383 193.03 240.711 192.736 240.274 192.342C239.847 191.947 239.634 191.424 239.634 190.774C239.634 190.347 239.762 189.947 240.018 189.574C240.274 189.19 240.652 188.88 241.154 188.646C241.666 188.4 242.274 188.278 242.978 188.278C243.703 188.278 244.327 188.395 244.85 188.63C245.372 188.854 245.767 189.126 246.034 189.446C246.311 189.766 246.45 190.048 246.45 190.294C246.45 190.39 246.412 190.475 246.338 190.55C246.274 190.614 246.194 190.646 246.098 190.646H244.898C244.78 190.646 244.69 190.603 244.626 190.518C244.551 190.464 244.428 190.368 244.258 190.23C244.098 190.08 243.916 189.963 243.714 189.878C243.511 189.792 243.266 189.75 242.978 189.75C242.583 189.75 242.279 189.835 242.066 190.006C241.852 190.176 241.746 190.4 241.746 190.678C241.746 190.87 241.794 191.03 241.89 191.158C241.996 191.286 242.204 191.408 242.514 191.526C242.823 191.632 243.287 191.744 243.906 191.862C245.826 192.235 246.786 193.072 246.786 194.374C246.786 195.131 246.455 195.744 245.794 196.214C245.143 196.683 244.231 196.918 243.058 196.918ZM167.968 212.886C167.861 212.886 167.77 212.848 167.696 212.774C167.621 212.699 167.584 212.608 167.584 212.502V211.414C167.584 211.307 167.621 211.216 167.696 211.142C167.77 211.067 167.861 211.03 167.968 211.03H172.896C173.013 211.03 173.104 211.067 173.168 211.142C173.242 211.206 173.28 211.296 173.28 211.414V212.502C173.28 212.608 173.242 212.699 173.168 212.774C173.093 212.848 173.002 212.886 172.896 212.886H167.968Z" fill="#956EC8"/>
<defs>
<filter id="filter0_f" x="-4.33276" y="0" width="354" height="358" filterUnits="userSpaceOnUse" color-interpolation-filters="sRGB">
<feFlood flood-opacity="0" result="BackgroundImageFix"/>
<feBlend mode="normal" in="SourceGraphic" in2="BackgroundImageFix" result="shape"/>
<feGaussianBlur stdDeviation="24.5" result="effect1_foregroundBlur"/>
</filter>
<linearGradient id="paint0_linear" x1="172.667" y1="49" x2="172.667" y2="309" gradientUnits="userSpaceOnUse">
<stop stop-color="#468AF9"/>
<stop offset="1" stop-color="#956EC8" stop-opacity="0"/>
</linearGradient>
<linearGradient id="paint1_linear" x1="172.995" y1="285.373" x2="172.995" y2="72.8348" gradientUnits="userSpaceOnUse">
<stop stop-color="#5A348B"/>
<stop offset="1" stop-color="#0C0515" stop-opacity="0"/>
</linearGradient>
<linearGradient id="paint2_linear" x1="173.02" y1="271.467" x2="173.02" y2="86.7412" gradientUnits="userSpaceOnUse">
<stop stop-color="#794CB3"/>
<stop offset="1" stop-color="#0C0515" stop-opacity="0"/>
</linearGradient>
<linearGradient id="paint3_linear" x1="172.994" y1="303.016" x2="172.994" y2="54.9848" gradientUnits="userSpaceOnUse">
<stop offset="0.526042" stop-color="#462471"/>
<stop offset="1" stop-color="#0C0515" stop-opacity="0"/>
</linearGradient>
<clipPath id="clip0">
<rect width="243.56" height="248.031" fill="white" transform="translate(294.774 303.016) rotate(180)"/>
</clipPath>
</defs>
</svg>
