<svg width="257" height="261" viewBox="0 0 257 261" fill="none" xmlns="http://www.w3.org/2000/svg">
<path d="M87.5462 123.293C87.4062 123.293 87.2942 123.251 87.2102 123.167C87.1262 123.083 87.0842 122.971 87.0842 122.831V109.076C87.0842 108.936 87.1262 108.824 87.2102 108.74C87.2942 108.642 87.4062 108.593 87.5462 108.593H95.7362C95.8902 108.593 96.0092 108.635 96.0932 108.719C96.1772 108.803 96.2192 108.922 96.2192 109.076V109.391C96.2192 109.531 96.1702 109.643 96.0722 109.727C95.9882 109.811 95.8762 109.853 95.7362 109.853H88.4072V115.208H95.2742C95.4282 115.208 95.5472 115.25 95.6312 115.334C95.7152 115.418 95.7572 115.537 95.7572 115.691V116.006C95.7572 116.146 95.7082 116.258 95.6102 116.342C95.5262 116.426 95.4142 116.468 95.2742 116.468H88.4072V122.033H95.9042C96.0582 122.033 96.1772 122.075 96.2612 122.159C96.3452 122.243 96.3872 122.362 96.3872 122.516V122.831C96.3872 122.971 96.3382 123.083 96.2402 123.167C96.1562 123.251 96.0442 123.293 95.9042 123.293H87.5462ZM98.5879 123.293C98.4759 123.293 98.3779 123.251 98.2939 123.167C98.2099 123.083 98.1679 122.985 98.1679 122.873C98.1679 122.775 98.1959 122.684 98.2519 122.6L103.145 115.817L98.4409 109.286C98.3849 109.202 98.3569 109.111 98.3569 109.013C98.3569 108.901 98.3989 108.803 98.4829 108.719C98.5669 108.635 98.6649 108.593 98.7769 108.593H99.2809C99.4629 108.593 99.6239 108.698 99.7639 108.908L103.985 114.788L108.122 108.908C108.276 108.698 108.437 108.593 108.605 108.593H109.067C109.179 108.593 109.277 108.635 109.361 108.719C109.445 108.803 109.487 108.901 109.487 109.013C109.487 109.111 109.459 109.202 109.403 109.286L104.762 115.859L109.634 122.6C109.69 122.684 109.718 122.775 109.718 122.873C109.718 122.985 109.676 123.083 109.592 123.167C109.508 123.251 109.41 123.293 109.298 123.293H108.794C108.626 123.293 108.465 123.188 108.311 122.978L103.922 116.909L99.5329 122.978C99.3929 123.188 99.2319 123.293 99.0499 123.293H98.5879ZM116.876 123.503C115.056 123.503 113.691 122.992 112.781 121.97C111.871 120.934 111.381 119.548 111.311 117.812C111.297 117.434 111.29 116.818 111.29 115.964C111.29 115.096 111.297 114.466 111.311 114.074C111.381 112.338 111.871 110.959 112.781 109.937C113.691 108.901 115.056 108.383 116.876 108.383C118.122 108.383 119.158 108.614 119.984 109.076C120.81 109.524 121.419 110.098 121.811 110.798C122.217 111.484 122.441 112.191 122.483 112.919V112.961C122.483 113.073 122.441 113.164 122.357 113.234C122.273 113.304 122.168 113.339 122.042 113.339H121.622C121.37 113.339 121.216 113.192 121.16 112.898C120.894 111.708 120.411 110.868 119.711 110.378C119.011 109.888 118.066 109.643 116.876 109.643C115.56 109.643 114.538 110.014 113.81 110.756C113.082 111.498 112.69 112.639 112.634 114.179C112.62 114.557 112.613 115.138 112.613 115.922C112.613 116.706 112.62 117.301 112.634 117.707C112.69 119.247 113.082 120.388 113.81 121.13C114.538 121.872 115.56 122.243 116.876 122.243C118.066 122.243 119.011 121.998 119.711 121.508C120.411 121.018 120.894 120.178 121.16 118.988C121.216 118.694 121.37 118.547 121.622 118.547H122.042C122.168 118.547 122.273 118.589 122.357 118.673C122.455 118.743 122.497 118.841 122.483 118.967C122.441 119.695 122.217 120.409 121.811 121.109C121.419 121.795 120.81 122.369 119.984 122.831C119.158 123.279 118.122 123.503 116.876 123.503ZM126.039 123.293C125.899 123.293 125.787 123.251 125.703 123.167C125.619 123.083 125.577 122.971 125.577 122.831V109.055C125.577 108.915 125.619 108.803 125.703 108.719C125.787 108.635 125.899 108.593 126.039 108.593H126.438C126.578 108.593 126.69 108.635 126.774 108.719C126.858 108.803 126.9 108.915 126.9 109.055V122.831C126.9 122.971 126.858 123.083 126.774 123.167C126.69 123.251 126.578 123.293 126.438 123.293H126.039ZM134.523 123.293C134.383 123.293 134.271 123.251 134.187 123.167C134.103 123.083 134.061 122.971 134.061 122.831V109.853H129.903C129.763 109.853 129.651 109.811 129.567 109.727C129.483 109.643 129.441 109.531 129.441 109.391V109.076C129.441 108.936 129.483 108.824 129.567 108.74C129.651 108.642 129.763 108.593 129.903 108.593H139.521C139.675 108.593 139.794 108.635 139.878 108.719C139.962 108.803 140.004 108.922 140.004 109.076V109.391C140.004 109.531 139.955 109.643 139.857 109.727C139.773 109.811 139.661 109.853 139.521 109.853H135.384V122.831C135.384 122.971 135.335 123.083 135.237 123.167C135.153 123.251 135.041 123.293 134.901 123.293H134.523ZM142.999 123.293C142.859 123.293 142.747 123.251 142.663 123.167C142.579 123.083 142.537 122.971 142.537 122.831V109.055C142.537 108.915 142.579 108.803 142.663 108.719C142.747 108.635 142.859 108.593 142.999 108.593H143.398C143.538 108.593 143.65 108.635 143.734 108.719C143.818 108.803 143.86 108.915 143.86 109.055V122.831C143.86 122.971 143.818 123.083 143.734 123.167C143.65 123.251 143.538 123.293 143.398 123.293H142.999ZM148.27 123.293C148.13 123.293 148.018 123.251 147.934 123.167C147.85 123.083 147.808 122.971 147.808 122.831V109.076C147.808 108.936 147.85 108.824 147.934 108.74C148.018 108.642 148.13 108.593 148.27 108.593H148.711C148.893 108.593 149.04 108.677 149.152 108.845L156.901 120.689V109.076C156.901 108.936 156.943 108.824 157.027 108.74C157.111 108.642 157.223 108.593 157.363 108.593H157.741C157.895 108.593 158.014 108.635 158.098 108.719C158.182 108.803 158.224 108.922 158.224 109.076V122.81C158.224 122.95 158.182 123.069 158.098 123.167C158.014 123.251 157.902 123.293 157.762 123.293H157.3C157.118 123.293 156.971 123.209 156.859 123.041L149.131 111.239V122.831C149.131 122.971 149.082 123.083 148.984 123.167C148.9 123.251 148.788 123.293 148.648 123.293H148.27ZM167.203 123.503C165.453 123.503 164.095 122.999 163.129 121.991C162.163 120.983 161.652 119.632 161.596 117.938C161.582 117.518 161.575 116.853 161.575 115.943C161.575 115.033 161.582 114.368 161.596 113.948C161.652 112.254 162.163 110.903 163.129 109.895C164.095 108.887 165.453 108.383 167.203 108.383C168.393 108.383 169.394 108.607 170.206 109.055C171.018 109.503 171.62 110.035 172.012 110.651C172.418 111.253 172.635 111.792 172.663 112.268V112.31C172.663 112.422 172.621 112.513 172.537 112.583C172.453 112.653 172.348 112.688 172.222 112.688H171.76C171.634 112.688 171.543 112.66 171.487 112.604C171.431 112.548 171.375 112.436 171.319 112.268C171.081 111.526 170.619 110.903 169.933 110.399C169.261 109.895 168.351 109.643 167.203 109.643C165.901 109.643 164.872 110 164.116 110.714C163.374 111.428 162.975 112.541 162.919 114.053C162.905 114.473 162.898 115.103 162.898 115.943C162.898 116.783 162.905 117.413 162.919 117.833C162.975 119.345 163.374 120.458 164.116 121.172C164.872 121.886 165.901 122.243 167.203 122.243C168.505 122.243 169.555 121.872 170.353 121.13C171.151 120.388 171.55 119.289 171.55 117.833V116.762H167.896C167.756 116.762 167.644 116.72 167.56 116.636C167.476 116.538 167.434 116.419 167.434 116.279V115.985C167.434 115.845 167.476 115.733 167.56 115.649C167.644 115.551 167.756 115.502 167.896 115.502H172.39C172.544 115.502 172.663 115.544 172.747 115.628C172.831 115.712 172.873 115.831 172.873 115.985V117.833C172.873 118.953 172.649 119.94 172.201 120.794C171.753 121.648 171.102 122.313 170.248 122.789C169.394 123.265 168.379 123.503 167.203 123.503Z" fill="white"/>
<path d="M79.4902 145.214C79.3835 145.214 79.2929 145.177 79.2182 145.102C79.1435 145.027 79.1062 144.937 79.1062 144.83V143.742C79.1062 143.635 79.1435 143.545 79.2182 143.47C79.2929 143.395 79.3835 143.358 79.4902 143.358H84.4182C84.5355 143.358 84.6262 143.395 84.6902 143.47C84.7649 143.534 84.8022 143.625 84.8022 143.742V144.83C84.8022 144.937 84.7649 145.027 84.6902 145.102C84.6155 145.177 84.5249 145.214 84.4182 145.214H79.4902ZM92.9143 149.246C92.3703 149.246 91.869 149.139 91.4103 148.926C90.9623 148.702 90.605 148.403 90.3383 148.03C90.0823 147.657 89.9543 147.246 89.9543 146.798C89.9543 146.073 90.2477 145.486 90.8343 145.038C91.421 144.59 92.2263 144.286 93.2503 144.126L95.4423 143.806V143.47C95.4423 143.011 95.325 142.665 95.0903 142.43C94.8557 142.195 94.4823 142.078 93.9703 142.078C93.6183 142.078 93.3357 142.142 93.1223 142.27C92.909 142.398 92.733 142.531 92.5943 142.67C92.4663 142.798 92.381 142.883 92.3383 142.926C92.2957 143.054 92.2157 143.118 92.0983 143.118H90.8503C90.7543 143.118 90.669 143.086 90.5943 143.022C90.5303 142.958 90.4983 142.873 90.4983 142.766C90.509 142.499 90.637 142.201 90.8823 141.87C91.1383 141.529 91.5277 141.235 92.0503 140.99C92.573 140.734 93.2183 140.606 93.9863 140.606C95.245 140.606 96.1623 140.889 96.7383 141.454C97.3143 142.019 97.6023 142.761 97.6023 143.678V148.702C97.6023 148.809 97.565 148.899 97.4903 148.974C97.4263 149.049 97.3357 149.086 97.2183 149.086H95.8903C95.7837 149.086 95.693 149.049 95.6183 148.974C95.5437 148.899 95.5063 148.809 95.5063 148.702V148.078C95.2717 148.419 94.941 148.702 94.5143 148.926C94.0877 149.139 93.5543 149.246 92.9143 149.246ZM93.4583 147.71C94.045 147.71 94.525 147.518 94.8983 147.134C95.2717 146.75 95.4583 146.195 95.4583 145.47V145.15L93.8583 145.406C92.6317 145.598 92.0183 146.009 92.0183 146.638C92.0183 146.979 92.157 147.246 92.4343 147.438C92.7223 147.619 93.0637 147.71 93.4583 147.71ZM102.823 149.246C102.012 149.246 101.335 149.123 100.791 148.878C100.247 148.633 99.8412 148.35 99.5746 148.03C99.3186 147.699 99.1906 147.417 99.1906 147.182C99.1906 147.075 99.2226 146.99 99.2866 146.926C99.3612 146.862 99.4466 146.83 99.5426 146.83H100.855C100.94 146.83 101.015 146.873 101.079 146.958C101.132 147.001 101.249 147.102 101.431 147.262C101.623 147.422 101.836 147.55 102.071 147.646C102.316 147.731 102.583 147.774 102.871 147.774C103.297 147.774 103.644 147.694 103.911 147.534C104.177 147.363 104.311 147.123 104.311 146.814C104.311 146.601 104.247 146.43 104.119 146.302C104.001 146.163 103.783 146.041 103.463 145.934C103.153 145.817 102.684 145.689 102.055 145.55C101.148 145.358 100.476 145.065 100.039 144.67C99.6119 144.275 99.3986 143.753 99.3986 143.102C99.3986 142.675 99.5266 142.275 99.7826 141.902C100.039 141.518 100.417 141.209 100.919 140.974C101.431 140.729 102.039 140.606 102.743 140.606C103.468 140.606 104.092 140.723 104.615 140.958C105.137 141.182 105.532 141.454 105.799 141.774C106.076 142.094 106.215 142.377 106.215 142.622C106.215 142.718 106.177 142.803 106.103 142.878C106.039 142.942 105.959 142.974 105.863 142.974H104.663C104.545 142.974 104.455 142.931 104.391 142.846C104.316 142.793 104.193 142.697 104.023 142.558C103.863 142.409 103.681 142.291 103.479 142.206C103.276 142.121 103.031 142.078 102.743 142.078C102.348 142.078 102.044 142.163 101.831 142.334C101.617 142.505 101.511 142.729 101.511 143.006C101.511 143.198 101.559 143.358 101.655 143.486C101.761 143.614 101.969 143.737 102.279 143.854C102.588 143.961 103.052 144.073 103.671 144.19C105.591 144.563 106.551 145.401 106.551 146.702C106.551 147.459 106.22 148.073 105.559 148.542C104.908 149.011 103.996 149.246 102.823 149.246ZM114.242 149.246C113.698 149.246 113.197 149.139 112.738 148.926C112.29 148.702 111.933 148.403 111.666 148.03C111.41 147.657 111.282 147.246 111.282 146.798C111.282 146.073 111.576 145.486 112.162 145.038C112.749 144.59 113.554 144.286 114.578 144.126L116.77 143.806V143.47C116.77 143.011 116.653 142.665 116.418 142.43C116.184 142.195 115.81 142.078 115.298 142.078C114.946 142.078 114.664 142.142 114.45 142.27C114.237 142.398 114.061 142.531 113.922 142.67C113.794 142.798 113.709 142.883 113.666 142.926C113.624 143.054 113.544 143.118 113.426 143.118H112.178C112.082 143.118 111.997 143.086 111.922 143.022C111.858 142.958 111.826 142.873 111.826 142.766C111.837 142.499 111.965 142.201 112.21 141.87C112.466 141.529 112.856 141.235 113.378 140.99C113.901 140.734 114.546 140.606 115.314 140.606C116.573 140.606 117.49 140.889 118.066 141.454C118.642 142.019 118.93 142.761 118.93 143.678V148.702C118.93 148.809 118.893 148.899 118.818 148.974C118.754 149.049 118.664 149.086 118.546 149.086H117.218C117.112 149.086 117.021 149.049 116.946 148.974C116.872 148.899 116.834 148.809 116.834 148.702V148.078C116.6 148.419 116.269 148.702 115.842 148.926C115.416 149.139 114.882 149.246 114.242 149.246ZM114.786 147.71C115.373 147.71 115.853 147.518 116.226 147.134C116.6 146.75 116.786 146.195 116.786 145.47V145.15L115.186 145.406C113.96 145.598 113.346 146.009 113.346 146.638C113.346 146.979 113.485 147.246 113.762 147.438C114.05 147.619 114.392 147.71 114.786 147.71ZM128.383 152.606C127.434 152.606 126.666 152.446 126.079 152.126C125.493 151.817 125.077 151.459 124.831 151.054C124.586 150.649 124.463 150.302 124.463 150.014C124.463 149.907 124.501 149.817 124.575 149.742C124.65 149.678 124.741 149.646 124.847 149.646H126.271C126.367 149.646 126.447 149.667 126.511 149.71C126.586 149.763 126.645 149.854 126.687 149.982C126.805 150.259 126.981 150.494 127.215 150.686C127.45 150.889 127.813 150.99 128.303 150.99C128.943 150.99 129.413 150.846 129.711 150.558C130.01 150.281 130.159 149.79 130.159 149.086V147.998C129.583 148.681 128.767 149.022 127.711 149.022C126.602 149.022 125.765 148.686 125.199 148.014C124.645 147.342 124.346 146.425 124.303 145.262L124.287 144.83L124.303 144.398C124.346 143.257 124.65 142.339 125.215 141.646C125.781 140.953 126.613 140.606 127.711 140.606C128.277 140.606 128.773 140.713 129.199 140.926C129.626 141.139 129.978 141.427 130.255 141.79V141.166C130.255 141.049 130.293 140.953 130.367 140.878C130.453 140.803 130.549 140.766 130.655 140.766H131.967C132.074 140.766 132.165 140.803 132.239 140.878C132.314 140.953 132.351 141.049 132.351 141.166L132.367 148.878C132.367 150.062 132.037 150.979 131.375 151.63C130.714 152.281 129.717 152.606 128.383 152.606ZM128.319 147.326C128.917 147.326 129.365 147.134 129.663 146.75C129.962 146.366 130.127 145.897 130.159 145.342C130.17 145.257 130.175 145.086 130.175 144.83C130.175 144.574 130.17 144.403 130.159 144.318C130.127 143.763 129.962 143.294 129.663 142.91C129.365 142.526 128.917 142.334 128.319 142.334C127.167 142.334 126.559 143.038 126.495 144.446L126.479 144.83C126.479 146.494 127.093 147.326 128.319 147.326ZM136.899 149.246C136.355 149.246 135.853 149.139 135.395 148.926C134.947 148.702 134.589 148.403 134.323 148.03C134.067 147.657 133.939 147.246 133.939 146.798C133.939 146.073 134.232 145.486 134.819 145.038C135.405 144.59 136.211 144.286 137.235 144.126L139.427 143.806V143.47C139.427 143.011 139.309 142.665 139.075 142.43C138.84 142.195 138.467 142.078 137.955 142.078C137.603 142.078 137.32 142.142 137.107 142.27C136.893 142.398 136.717 142.531 136.579 142.67C136.451 142.798 136.365 142.883 136.323 142.926C136.28 143.054 136.2 143.118 136.083 143.118H134.835C134.739 143.118 134.653 143.086 134.579 143.022C134.515 142.958 134.483 142.873 134.483 142.766C134.493 142.499 134.621 142.201 134.867 141.87C135.123 141.529 135.512 141.235 136.035 140.99C136.557 140.734 137.203 140.606 137.971 140.606C139.229 140.606 140.147 140.889 140.723 141.454C141.299 142.019 141.587 142.761 141.587 143.678V148.702C141.587 148.809 141.549 148.899 141.475 148.974C141.411 149.049 141.32 149.086 141.203 149.086H139.875C139.768 149.086 139.677 149.049 139.603 148.974C139.528 148.899 139.491 148.809 139.491 148.702V148.078C139.256 148.419 138.925 148.702 138.499 148.926C138.072 149.139 137.539 149.246 136.899 149.246ZM137.443 147.71C138.029 147.71 138.509 147.518 138.883 147.134C139.256 146.75 139.443 146.195 139.443 145.47V145.15L137.843 145.406C136.616 145.598 136.003 146.009 136.003 146.638C136.003 146.979 136.141 147.246 136.419 147.438C136.707 147.619 137.048 147.71 137.443 147.71ZM144.023 149.086C143.916 149.086 143.826 149.049 143.751 148.974C143.676 148.899 143.639 148.809 143.639 148.702V141.15C143.639 141.033 143.676 140.942 143.751 140.878C143.826 140.803 143.916 140.766 144.023 140.766H145.287C145.404 140.766 145.495 140.803 145.559 140.878C145.634 140.942 145.671 141.033 145.671 141.15V141.694C146.247 140.969 147.02 140.606 147.991 140.606C149.175 140.606 150.002 141.081 150.471 142.03C150.727 141.603 151.09 141.262 151.559 141.006C152.028 140.739 152.535 140.606 153.079 140.606C153.954 140.606 154.668 140.905 155.223 141.502C155.778 142.099 156.055 142.969 156.055 144.11V148.702C156.055 148.809 156.018 148.899 155.943 148.974C155.879 149.049 155.788 149.086 155.671 149.086H154.343C154.236 149.086 154.146 149.049 154.071 148.974C153.996 148.899 153.959 148.809 153.959 148.702V144.238C153.959 143.566 153.815 143.081 153.527 142.782C153.25 142.483 152.882 142.334 152.423 142.334C152.007 142.334 151.65 142.489 151.351 142.798C151.063 143.097 150.919 143.577 150.919 144.238V148.702C150.919 148.809 150.882 148.899 150.807 148.974C150.743 149.049 150.652 149.086 150.535 149.086H149.191C149.084 149.086 148.994 149.049 148.919 148.974C148.844 148.899 148.807 148.809 148.807 148.702V144.238C148.807 143.577 148.663 143.097 148.375 142.798C148.087 142.489 147.719 142.334 147.271 142.334C146.855 142.334 146.498 142.489 146.199 142.798C145.911 143.097 145.767 143.577 145.767 144.238V148.702C145.767 148.809 145.73 148.899 145.655 148.974C145.591 149.049 145.5 149.086 145.383 149.086H144.023ZM161.692 149.246C160.497 149.246 159.548 148.905 158.844 148.222C158.151 147.539 157.783 146.569 157.74 145.31L157.724 144.91C157.724 143.577 158.071 142.526 158.764 141.758C159.468 140.99 160.439 140.606 161.676 140.606C162.945 140.606 163.921 140.99 164.604 141.758C165.297 142.526 165.644 143.55 165.644 144.83V145.166C165.644 145.273 165.607 145.363 165.532 145.438C165.457 145.513 165.361 145.55 165.244 145.55H159.932V145.678C159.953 146.275 160.113 146.771 160.412 147.166C160.721 147.55 161.143 147.742 161.676 147.742C162.284 147.742 162.78 147.497 163.164 147.006C163.26 146.889 163.335 146.819 163.388 146.798C163.441 146.766 163.532 146.75 163.66 146.75H165.068C165.164 146.75 165.244 146.777 165.308 146.83C165.383 146.883 165.42 146.958 165.42 147.054C165.42 147.31 165.265 147.614 164.956 147.966C164.657 148.307 164.225 148.606 163.66 148.862C163.095 149.118 162.439 149.246 161.692 149.246ZM163.436 144.19V144.158C163.436 143.529 163.276 143.027 162.956 142.654C162.647 142.27 162.22 142.078 161.676 142.078C161.132 142.078 160.705 142.27 160.396 142.654C160.087 143.027 159.932 143.529 159.932 144.158V144.19H163.436ZM171.303 145.214C171.196 145.214 171.105 145.177 171.031 145.102C170.956 145.027 170.919 144.937 170.919 144.83V143.742C170.919 143.635 170.956 143.545 171.031 143.47C171.105 143.395 171.196 143.358 171.303 143.358H176.231C176.348 143.358 176.439 143.395 176.503 143.47C176.577 143.534 176.615 143.625 176.615 143.742V144.83C176.615 144.937 176.577 145.027 176.503 145.102C176.428 145.177 176.337 145.214 176.231 145.214H171.303Z" fill="#468AF9"/>
<g opacity="0.6">
<path d="M128.556 237.06C99.1826 237.06 71.7387 225.741 50.9414 205.025C30.1441 184.309 18.7806 156.973 18.7806 127.714C18.7806 98.4558 30.1441 71.1194 50.9414 50.4036C71.7387 29.6878 99.1826 18.3688 128.556 18.3688C157.93 18.3688 185.374 29.6878 206.171 50.4036C226.968 71.1194 238.332 98.4558 238.332 127.714C238.332 156.973 226.968 184.309 206.171 205.025C185.374 225.741 157.93 237.06 128.556 237.06ZM128.556 21.1452C99.8258 21.1452 73.0252 32.2506 52.8711 52.3257C32.717 72.4008 21.5679 99.31 21.5679 127.714C21.5679 156.118 32.717 183.028 52.8711 203.103C73.0252 223.178 100.04 234.283 128.556 234.283C157.286 234.283 184.087 223.178 204.241 203.103C224.395 183.028 235.544 156.118 235.544 127.714C235.544 99.31 224.395 72.4008 204.241 52.3257C184.087 32.2506 157.286 21.1452 128.556 21.1452Z" fill="#468AF9" fill-opacity="0.6"/>
<path d="M128.556 237.06C99.1826 237.06 71.7387 225.741 50.9414 205.025C30.1441 184.309 18.7806 156.973 18.7806 127.714C18.7806 98.4558 30.1441 71.1194 50.9414 50.4036C71.7387 29.6878 99.1826 18.3688 128.556 18.3688C157.93 18.3688 185.374 29.6878 206.171 50.4036C226.968 71.1194 238.332 98.4558 238.332 127.714C238.332 156.973 226.968 184.309 206.171 205.025C185.374 225.741 157.93 237.06 128.556 237.06ZM128.556 21.1452C99.8258 21.1452 73.0252 32.2506 52.8711 52.3257C32.717 72.4008 21.5679 99.31 21.5679 127.714C21.5679 156.118 32.717 183.028 52.8711 203.103C73.0252 223.178 100.04 234.283 128.556 234.283C157.286 234.283 184.087 223.178 204.241 203.103C224.395 183.028 235.544 156.118 235.544 127.714C235.544 99.31 224.395 72.4008 204.241 52.3257C184.087 32.2506 157.286 21.1452 128.556 21.1452Z" fill="url(#paint0_linear)"/>
<path d="M128.556 222.751C103.042 222.751 79.0286 212.927 61.0186 194.987C43.0086 177.048 33.1459 153.128 33.1459 127.714C33.1459 102.3 43.0086 78.3806 61.0186 60.4411C79.0286 42.5016 103.042 32.6776 128.556 32.6776C154.071 32.6776 178.084 42.5016 196.094 60.4411C233.186 97.3879 233.186 157.827 196.094 194.774C178.084 212.927 154.071 222.751 128.556 222.751ZM128.556 33.959C103.471 33.959 79.8863 43.783 62.0906 61.5089C44.295 79.2348 34.4323 102.727 34.4323 127.714C34.4323 152.701 44.295 176.407 62.0906 193.919C79.8863 211.645 103.471 221.469 128.556 221.469C153.642 221.469 177.226 211.645 195.022 193.919C231.685 157.4 231.685 97.815 195.022 61.2953C177.441 43.783 153.642 33.959 128.556 33.959Z" fill="#468AF9" fill-opacity="0.3"/>
<path d="M128.556 222.751C103.042 222.751 79.0286 212.927 61.0186 194.987C43.0086 177.048 33.1459 153.128 33.1459 127.714C33.1459 102.3 43.0086 78.3806 61.0186 60.4411C79.0286 42.5016 103.042 32.6776 128.556 32.6776C154.071 32.6776 178.084 42.5016 196.094 60.4411C233.186 97.3879 233.186 157.827 196.094 194.774C178.084 212.927 154.071 222.751 128.556 222.751ZM128.556 33.959C103.471 33.959 79.8863 43.783 62.0906 61.5089C44.295 79.2348 34.4323 102.727 34.4323 127.714C34.4323 152.701 44.295 176.407 62.0906 193.919C79.8863 211.645 103.471 221.469 128.556 221.469C153.642 221.469 177.226 211.645 195.022 193.919C231.685 157.4 231.685 97.815 195.022 61.2953C177.441 43.783 153.642 33.959 128.556 33.959Z" fill="url(#paint1_linear)"/>
<path d="M128.556 209.296C106.687 209.296 86.1038 200.753 70.6666 185.377C55.2294 170 46.6532 149.498 46.6532 127.714C46.6532 105.93 55.2294 85.4281 70.6666 70.0514C86.1038 54.6748 106.687 46.1321 128.556 46.1321C150.425 46.1321 171.008 54.6748 186.446 70.0514C218.392 101.873 218.392 153.555 186.446 185.377C171.008 200.967 150.425 209.296 128.556 209.296ZM128.556 46.7728C106.901 46.7728 86.5326 55.1019 71.0954 70.4786C55.6583 85.8553 47.2964 106.144 47.2964 127.714C47.2964 149.284 55.6583 169.573 71.0954 184.95C86.5326 200.326 106.901 208.655 128.556 208.655C150.211 208.655 170.58 200.326 186.017 184.95C217.749 153.342 217.749 102.086 186.017 70.4786C170.794 55.3154 150.211 46.7728 128.556 46.7728Z" fill="#468AF9" fill-opacity="0.1"/>
<path d="M128.557 255.426C94.2521 255.426 62.0913 242.185 38.0779 218.052C-11.8785 168.291 -11.8785 87.3502 38.0779 37.5895C62.3057 13.4566 94.4665 0.215576 128.557 0.215576C162.862 0.215576 195.023 13.4566 219.036 37.5895C268.993 87.3502 268.993 168.291 219.036 218.052C195.023 242.185 162.862 255.426 128.557 255.426ZM128.557 5.12757C95.753 5.12757 64.6642 17.9415 41.5084 41.0065C-6.51838 88.8451 -6.51838 166.583 41.5084 214.421C64.6642 237.486 95.753 250.3 128.557 250.3C161.361 250.3 192.45 237.486 215.606 214.421C263.632 166.583 263.632 88.8451 215.606 41.0065C192.45 17.9415 161.575 5.12757 128.557 5.12757Z" fill="#468AF9"/>
<path d="M128.557 255.426C94.2521 255.426 62.0913 242.185 38.0779 218.052C-11.8785 168.291 -11.8785 87.3502 38.0779 37.5895C62.3057 13.4566 94.4665 0.215576 128.557 0.215576C162.862 0.215576 195.023 13.4566 219.036 37.5895C268.993 87.3502 268.993 168.291 219.036 218.052C195.023 242.185 162.862 255.426 128.557 255.426ZM128.557 5.12757C95.753 5.12757 64.6642 17.9415 41.5084 41.0065C-6.51838 88.8451 -6.51838 166.583 41.5084 214.421C64.6642 237.486 95.753 250.3 128.557 250.3C161.361 250.3 192.45 237.486 215.606 214.421C263.632 166.583 263.632 88.8451 215.606 41.0065C192.45 17.9415 161.575 5.12757 128.557 5.12757Z" fill="url(#paint2_linear)"/>
</g>
<defs>
<linearGradient id="paint0_linear" x1="128.556" y1="18.3688" x2="128.556" y2="237.06" gradientUnits="userSpaceOnUse">
<stop stop-color="#4B277A"/>
<stop offset="1" stop-color="#0C0515" stop-opacity="0"/>
</linearGradient>
<linearGradient id="paint1_linear" x1="128.529" y1="32.6776" x2="128.529" y2="222.751" gradientUnits="userSpaceOnUse">
<stop stop-color="#43236B"/>
<stop offset="1" stop-color="#0C0515" stop-opacity="0"/>
</linearGradient>
<linearGradient id="paint2_linear" x1="128.557" y1="0.215576" x2="128.557" y2="255.426" gradientUnits="userSpaceOnUse">
<stop offset="0.526042" stop-color="#4A2B72"/>
<stop offset="1" stop-color="#0C0515" stop-opacity="0"/>
</linearGradient>
</defs>
</svg>
