<svg width="112" height="112" viewBox="0 0 112 112" fill="none" xmlns="http://www.w3.org/2000/svg">
<path d="M111.697 57.2379C111.495 57.2379 111.294 57.0398 111.294 56.8418C111.294 56.6437 111.495 56.5447 111.697 56.5447C111.899 56.5447 112 56.7427 112 56.8418C112 57.0398 111.798 57.2379 111.697 57.2379Z" fill="#EC7076"/>
<path d="M110.285 68.9231C110.083 68.9231 109.982 68.8241 109.982 68.626C109.982 68.4279 110.083 68.3289 110.285 68.3289C110.486 68.3289 110.587 68.4279 110.587 68.626C110.587 68.8241 110.486 68.9231 110.285 68.9231Z" fill="#EC7076"/>
<path d="M106.35 80.2122C106.148 80.2122 105.946 80.0141 105.946 79.8161C105.946 79.618 106.148 79.42 106.35 79.42C106.551 79.42 106.753 79.618 106.753 79.8161C106.753 80.0141 106.551 80.2122 106.35 80.2122Z" fill="#EC7076"/>
<path d="M99.9928 90.5111C99.6901 90.5111 99.3874 90.214 99.3874 89.9169C99.3874 89.6198 99.6901 89.3228 99.9928 89.3228C100.295 89.3228 100.598 89.6198 100.598 89.9169C100.598 90.214 100.295 90.5111 99.9928 90.5111Z" fill="#EC7076"/>
<path d="M91.5171 99.2255C92.0186 99.2255 92.4252 98.8265 92.4252 98.3342C92.4252 97.842 92.0186 97.443 91.5171 97.443C91.0156 97.443 90.609 97.842 90.609 98.3342C90.609 98.8265 91.0156 99.2255 91.5171 99.2255Z" fill="#EC7076"/>
<path d="M81.3261 105.959C80.6198 105.959 80.1153 105.464 80.1153 104.771C80.1153 104.078 80.6198 103.583 81.3261 103.583C82.0324 103.583 82.5369 104.078 82.5369 104.771C82.5369 105.464 82.0324 105.959 81.3261 105.959Z" fill="#EC7076"/>
<path d="M69.9243 110.317C69.1171 110.317 68.4108 109.623 68.4108 108.831C68.4108 108.039 69.1171 107.346 69.9243 107.346C70.7315 107.346 71.4378 108.039 71.4378 108.831C71.5387 109.623 70.8324 110.317 69.9243 110.317Z" fill="#EC7076"/>
<path d="M58.018 112C57.009 112 56.3027 111.208 56.3027 110.317C56.3027 109.326 57.1099 108.633 58.018 108.633C59.027 108.633 59.7333 109.425 59.7333 110.317C59.7333 111.208 58.9261 112 58.018 112Z" fill="#EC7076"/>
<path d="M45.9099 111.01C44.9009 111.01 43.9928 110.218 43.9928 109.128C43.9928 108.138 44.8 107.247 45.9099 107.247C46.9189 107.247 47.827 108.039 47.827 109.128C47.827 110.218 47.0198 111.01 45.9099 111.01Z" fill="#EC7076"/>
<path d="M34.5081 107.445C33.3982 107.445 32.4901 106.553 32.4901 105.464C32.4901 104.375 33.3982 103.484 34.5081 103.484C35.618 103.484 36.5261 104.375 36.5261 105.464C36.5261 106.553 35.618 107.445 34.5081 107.445Z" fill="#EC7076"/>
<path d="M24.1153 101.404C22.9045 101.404 21.8955 100.414 21.8955 99.2255C21.8955 98.0371 22.9045 97.0469 24.1153 97.0469C25.3261 97.0469 26.3351 98.0371 26.3351 99.2255C26.3351 100.414 25.3261 101.404 24.1153 101.404Z" fill="#EC7076"/>
<path d="M15.4378 93.3828C14.1261 93.3828 13.1171 92.3926 13.1171 91.1052C13.1171 89.8179 14.1261 88.8276 15.4378 88.8276C16.7496 88.8276 17.7586 89.8179 17.7586 91.1052C17.7586 92.2935 16.7496 93.3828 15.4378 93.3828Z" fill="#EC7076"/>
<path d="M8.77838 83.5791C7.36577 83.5791 6.25586 82.4898 6.25586 81.1034C6.25586 79.717 7.36577 78.6277 8.77838 78.6277C10.191 78.6277 11.3009 79.717 11.3009 81.1034C11.2 82.4898 10.0901 83.5791 8.77838 83.5791Z" fill="#EC7076"/>
<path d="M4.43964 72.6861C2.92613 72.6861 1.81622 71.4978 1.81622 70.1114C1.81622 68.626 3.02703 67.5367 4.43964 67.5367C5.95315 67.5367 7.06306 68.725 7.06306 70.1114C7.16396 71.4978 5.95315 72.6861 4.43964 72.6861Z" fill="#EC7076"/>
<path d="M2.82523 61.0999C1.31171 61.0999 0 59.9116 0 58.3272C0 56.8417 1.21081 55.5544 2.82523 55.5544C4.33874 55.5544 5.65045 56.7427 5.65045 58.3272C5.65045 59.8126 4.33874 61.0999 2.82523 61.0999Z" fill="#EC7076"/>
<path d="M3.83423 49.4147C2.21982 49.4147 0.807207 48.1273 0.807207 46.4438C0.807207 44.8594 2.11892 43.473 3.83423 43.473C5.44865 43.473 6.86126 44.7604 6.86126 46.4438C6.76036 48.1273 5.44865 49.4147 3.83423 49.4147Z" fill="#EC7076"/>
<path d="M7.46667 38.3236C5.75135 38.3236 4.33874 36.9372 4.33874 35.2537C4.33874 33.5703 5.75135 32.1839 7.46667 32.1839C9.18198 32.1839 10.5946 33.5703 10.5946 35.2537C10.5946 36.9372 9.18198 38.3236 7.46667 38.3236Z" fill="#EC7076"/>
<path d="M13.5207 28.2228C15.3597 28.2228 16.8504 26.7597 16.8504 24.9549C16.8504 23.1501 15.3597 21.687 13.5207 21.687C11.6818 21.687 10.191 23.1501 10.191 24.9549C10.191 26.7597 11.6818 28.2228 13.5207 28.2228Z" fill="#EC7076"/>
<path d="M21.7946 19.8055C19.8775 19.8055 18.2631 18.221 18.2631 16.3395C18.2631 14.458 19.8775 12.8735 21.7946 12.8735C23.7117 12.8735 25.3261 14.458 25.3261 16.3395C25.3261 18.221 23.8126 19.8055 21.7946 19.8055Z" fill="#EC7076"/>
<path d="M31.7838 13.1706C29.7658 13.1706 28.1514 11.5862 28.1514 9.60564C28.1514 7.62509 29.7658 6.04065 31.7838 6.04065C33.8018 6.04065 35.4162 7.62509 35.4162 9.60564C35.4162 11.5862 33.8018 13.1706 31.7838 13.1706Z" fill="#EC7076"/>
<path d="M43.0847 8.91245C41.0667 8.91245 39.4523 7.32801 39.4523 5.34746C39.4523 3.36691 41.0667 1.78247 43.0847 1.78247C45.1027 1.78247 46.7171 3.36691 46.7171 5.34746C46.7171 7.32801 45.1027 8.91245 43.0847 8.91245Z" fill="#EC7076"/>
<path d="M54.991 6.93192C52.973 6.93192 51.4595 5.44651 51.4595 3.46596C51.4595 1.48541 52.973 0 54.991 0C56.9081 0 58.5225 1.58444 58.5225 3.46596C58.5225 5.34748 56.9081 6.93192 54.991 6.93192Z" fill="#EC7076"/>
<path d="M66.9982 7.5261C65.182 7.5261 63.6685 6.04069 63.6685 4.2582C63.6685 2.47571 65.182 0.990295 66.9982 0.990295C68.8144 0.990295 70.3279 2.47571 70.3279 4.2582C70.3279 6.13972 68.9153 7.5261 66.9982 7.5261Z" fill="#EC7076"/>
<path d="M78.6018 10.5959C76.9874 10.5959 75.6757 9.30859 75.6757 7.72415C75.6757 6.13971 76.9874 4.85236 78.6018 4.85236C80.2162 4.85236 81.5279 6.13971 81.5279 7.72415C81.5279 9.30859 80.2162 10.5959 78.6018 10.5959Z" fill="#EC7076"/>
<path d="M89.0955 15.8444C87.7838 15.8444 86.7748 14.8541 86.7748 13.5668C86.7748 12.2794 87.7838 11.2891 89.0955 11.2891C90.4072 11.2891 91.4162 12.2794 91.4162 13.5668C91.5171 14.8541 90.4072 15.8444 89.0955 15.8444Z" fill="#EC7076"/>
<path d="M98.0757 23.2715C97.1676 23.2715 96.3604 22.4793 96.3604 21.588C96.3604 20.6968 97.1676 19.9045 98.0757 19.9045C98.9838 19.9045 99.791 20.6968 99.791 21.588C99.791 22.4793 98.9838 23.2715 98.0757 23.2715Z" fill="#EC7076"/>
<path d="M105.038 32.382C104.432 32.382 103.928 31.8868 103.928 31.2927C103.928 30.6985 104.432 30.2034 105.038 30.2034C105.643 30.2034 106.148 30.6985 106.148 31.2927C106.148 31.8868 105.643 32.382 105.038 32.382Z" fill="#EC7076"/>
<path d="M109.578 42.8789C109.175 42.8789 108.872 42.5818 108.872 42.1857C108.872 41.7896 109.175 41.4925 109.578 41.4925C109.982 41.4925 110.285 41.7896 110.285 42.1857C110.285 42.5818 109.982 42.8789 109.578 42.8789Z" fill="#EC7076"/>
<path d="M111.596 54.3661C111.395 54.3661 111.193 54.168 111.193 53.97C111.193 53.7719 111.395 53.5739 111.596 53.5739C111.798 53.5739 112 53.7719 112 53.97C112 54.168 111.798 54.3661 111.596 54.3661Z" fill="#EC7076"/>
<ellipse cx="56" cy="56.9408" rx="42.8829" ry="42.0867" fill="url(#paint0_linear)"/>
<g clip-path="url(#clip0)">
<path d="M45.4048 56.929C45.4048 51.6729 45.3967 46.4168 45.4129 41.1607C45.4129 40.5252 45.4048 39.8427 45.6321 39.27C46.0543 38.1796 46.9879 37.6383 48.2057 37.6383C52.4922 37.6304 56.7788 37.6304 61.0653 37.6304C61.9746 37.6304 62.8757 37.6304 63.785 37.6304C65.3843 37.6304 66.5858 38.7836 66.5858 40.3291C66.5858 50.2922 66.5858 60.2474 66.5858 70.2105C66.5858 71.3245 66.594 72.4306 66.5858 73.5446C66.5696 75.1371 65.4087 76.2433 63.7525 76.2511C58.5405 76.259 53.3365 76.259 48.1245 76.2511C46.5982 76.2511 45.4048 75.0665 45.4048 73.5525C45.3967 71.552 45.4048 69.5515 45.4048 67.5511C45.4048 64.013 45.4048 60.4671 45.4048 56.929ZM64.7917 56.9839C64.7917 52.5751 64.7917 48.174 64.7917 43.7652C64.7917 43.1454 64.7836 43.1454 64.1584 43.1454C58.6947 43.1454 53.231 43.1454 47.7591 43.1454C47.199 43.1454 47.2071 43.1454 47.2071 43.6867C47.2071 46.707 47.2071 49.7273 47.2071 52.7476C47.2071 58.5608 47.2071 64.3817 47.2071 70.1948C47.2071 70.7361 47.2152 70.7361 47.7591 70.7361C53.2797 70.7361 58.8002 70.7283 64.3208 70.744C64.7024 70.744 64.7998 70.6263 64.7998 70.2733C64.7917 65.8487 64.7917 61.4163 64.7917 56.9839ZM55.9994 75.1999C56.9411 75.2077 57.7367 74.4546 57.753 73.5446C57.7692 72.6268 56.9655 71.8266 56.0237 71.8187C55.0658 71.8109 54.262 72.5718 54.2458 73.5054C54.2296 74.4232 55.0333 75.1921 55.9994 75.1999ZM56.0237 40.6664C56.519 40.6664 57.0223 40.6586 57.5175 40.6664C57.7286 40.6664 57.8991 40.6272 57.8991 40.3762C57.9072 40.133 57.753 40.0624 57.5338 40.0624C56.5108 40.0624 55.4879 40.0624 54.465 40.0702C54.2539 40.0702 54.0834 40.1251 54.0997 40.3762C54.1159 40.6115 54.2701 40.6743 54.4893 40.6743C54.9927 40.6664 55.5123 40.6664 56.0237 40.6664Z" fill="white"/>
</g>
<defs>
<linearGradient id="paint0_linear" x1="8.07207" y1="14.8541" x2="194.739" y2="14.8541" gradientUnits="userSpaceOnUse">
<stop stop-color="#EC7076"/>
<stop offset="0.536723" stop-color="#EC7076" stop-opacity="0"/>
</linearGradient>
<clipPath id="clip0">
<rect width="21.1892" height="38.6207" fill="white" transform="translate(45.4054 37.6304)"/>
</clipPath>
</defs>
</svg>
