<svg width="112" height="112" viewBox="0 0 112 112" fill="none" xmlns="http://www.w3.org/2000/svg">
<path d="M111.697 57.2379C111.495 57.2379 111.293 57.0398 111.293 56.8418C111.293 56.6437 111.495 56.5447 111.697 56.5447C111.899 56.5447 112 56.7427 112 56.8418C112 57.0398 111.798 57.2379 111.697 57.2379Z" fill="#E7B970"/>
<path d="M110.284 68.923C110.083 68.923 109.982 68.8239 109.982 68.6259C109.982 68.4278 110.083 68.3288 110.284 68.3288C110.486 68.3288 110.587 68.4278 110.587 68.6259C110.587 68.8239 110.486 68.923 110.284 68.923Z" fill="#E7B970"/>
<path d="M106.349 80.2123C106.148 80.2123 105.946 80.0142 105.946 79.8162C105.946 79.6181 106.148 79.42 106.349 79.42C106.551 79.42 106.753 79.6181 106.753 79.8162C106.753 80.0142 106.551 80.2123 106.349 80.2123Z" fill="#E7B970"/>
<path d="M99.9926 90.5111C99.6899 90.5111 99.3872 90.214 99.3872 89.9169C99.3872 89.6198 99.6899 89.3228 99.9926 89.3228C100.295 89.3228 100.598 89.6198 100.598 89.9169C100.598 90.214 100.295 90.5111 99.9926 90.5111Z" fill="#E7B970"/>
<path d="M91.517 99.2252C92.0185 99.2252 92.4251 98.8262 92.4251 98.3339C92.4251 97.8417 92.0185 97.4427 91.517 97.4427C91.0155 97.4427 90.6089 97.8417 90.6089 98.3339C90.6089 98.8262 91.0155 99.2252 91.517 99.2252Z" fill="#E7B970"/>
<path d="M81.3259 105.959C80.6196 105.959 80.1151 105.464 80.1151 104.771C80.1151 104.078 80.6196 103.583 81.3259 103.583C82.0322 103.583 82.5367 104.078 82.5367 104.771C82.5367 105.464 82.0322 105.959 81.3259 105.959Z" fill="#E7B970"/>
<path d="M69.9242 110.316C69.117 110.316 68.4107 109.623 68.4107 108.831C68.4107 108.039 69.117 107.345 69.9242 107.345C70.7315 107.345 71.4378 108.039 71.4378 108.831C71.5387 109.623 70.8324 110.316 69.9242 110.316Z" fill="#E7B970"/>
<path d="M58.018 112C57.009 112 56.3027 111.208 56.3027 110.317C56.3027 109.326 57.1099 108.633 58.018 108.633C59.027 108.633 59.7333 109.425 59.7333 110.317C59.7333 111.208 58.9261 112 58.018 112Z" fill="#E7B970"/>
<path d="M45.9099 111.009C44.9009 111.009 43.9928 110.217 43.9928 109.128C43.9928 108.138 44.8 107.246 45.9099 107.246C46.9189 107.246 47.827 108.039 47.827 109.128C47.827 110.217 47.0198 111.009 45.9099 111.009Z" fill="#E7B970"/>
<path d="M34.508 107.445C33.3981 107.445 32.49 106.553 32.49 105.464C32.49 104.375 33.3981 103.483 34.508 103.483C35.6179 103.483 36.526 104.375 36.526 105.464C36.526 106.553 35.6179 107.445 34.508 107.445Z" fill="#E7B970"/>
<path d="M24.1152 101.404C22.9044 101.404 21.8954 100.414 21.8954 99.2253C21.8954 98.037 22.9044 97.0467 24.1152 97.0467C25.326 97.0467 26.335 98.037 26.335 99.2253C26.335 100.414 25.326 101.404 24.1152 101.404Z" fill="#E7B970"/>
<path d="M15.4378 93.3829C14.1261 93.3829 13.1171 92.3926 13.1171 91.1053C13.1171 89.8179 14.1261 88.8276 15.4378 88.8276C16.7495 88.8276 17.7585 89.8179 17.7585 91.1053C17.7585 92.2936 16.7495 93.3829 15.4378 93.3829Z" fill="#E7B970"/>
<path d="M8.77832 83.5789C7.36571 83.5789 6.2558 82.4896 6.2558 81.1032C6.2558 79.7169 7.36571 78.6276 8.77832 78.6276C10.1909 78.6276 11.3008 79.7169 11.3008 81.1032C11.1999 82.4896 10.09 83.5789 8.77832 83.5789Z" fill="#E7B970"/>
<path d="M4.43969 72.6862C2.92618 72.6862 1.81627 71.4978 1.81627 70.1115C1.81627 68.626 3.02708 67.5367 4.43969 67.5367C5.9532 67.5367 7.06311 68.7251 7.06311 70.1115C7.16401 71.4978 5.9532 72.6862 4.43969 72.6862Z" fill="#E7B970"/>
<path d="M2.82522 61.0999C1.31171 61.0999 0 59.9116 0 58.3271C0 56.8417 1.21081 55.5544 2.82522 55.5544C4.33873 55.5544 5.65044 56.7427 5.65044 58.3271C5.65044 59.8126 4.33873 61.0999 2.82522 61.0999Z" fill="#E7B970"/>
<path d="M3.83427 49.4145C2.21986 49.4145 0.807251 48.1271 0.807251 46.4437C0.807251 44.8592 2.11896 43.4728 3.83427 43.4728C5.44868 43.4728 6.86129 44.7602 6.86129 46.4437C6.76039 48.1271 5.44868 49.4145 3.83427 49.4145Z" fill="#E7B970"/>
<path d="M7.4667 38.3235C5.75139 38.3235 4.33878 36.9371 4.33878 35.2537C4.33878 33.5702 5.75139 32.1838 7.4667 32.1838C9.18201 32.1838 10.5946 33.5702 10.5946 35.2537C10.5946 36.9371 9.18201 38.3235 7.4667 38.3235Z" fill="#E7B970"/>
<path d="M13.5208 28.2227C15.3597 28.2227 16.8505 26.7596 16.8505 24.9548C16.8505 23.15 15.3597 21.6869 13.5208 21.6869C11.6818 21.6869 10.1911 23.15 10.1911 24.9548C10.1911 26.7596 11.6818 28.2227 13.5208 28.2227Z" fill="#E7B970"/>
<path d="M21.7947 19.8054C19.8775 19.8054 18.2631 18.221 18.2631 16.3395C18.2631 14.458 19.8775 12.8735 21.7947 12.8735C23.7118 12.8735 25.3262 14.458 25.3262 16.3395C25.3262 18.221 23.8127 19.8054 21.7947 19.8054Z" fill="#E7B970"/>
<path d="M31.7836 13.1707C29.7656 13.1707 28.1512 11.5863 28.1512 9.60575C28.1512 7.62521 29.7656 6.04077 31.7836 6.04077C33.8016 6.04077 35.416 7.62521 35.416 9.60575C35.416 11.5863 33.8016 13.1707 31.7836 13.1707Z" fill="#E7B970"/>
<path d="M43.0847 8.91225C41.0667 8.91225 39.4523 7.32781 39.4523 5.34727C39.4523 3.36672 41.0667 1.78229 43.0847 1.78229C45.1027 1.78229 46.7171 3.36672 46.7171 5.34727C46.7171 7.32781 45.1027 8.91225 43.0847 8.91225Z" fill="#E7B970"/>
<path d="M54.9909 6.93191C52.9729 6.93191 51.4594 5.4465 51.4594 3.46595C51.4594 1.48541 52.9729 0 54.9909 0C56.908 0 58.5224 1.58444 58.5224 3.46595C58.5224 5.34747 56.908 6.93191 54.9909 6.93191Z" fill="#E7B970"/>
<path d="M66.9982 7.52609C65.182 7.52609 63.6685 6.04068 63.6685 4.25819C63.6685 2.4757 65.182 0.990295 66.9982 0.990295C68.8144 0.990295 70.3279 2.4757 70.3279 4.25819C70.3279 6.13971 68.9153 7.52609 66.9982 7.52609Z" fill="#E7B970"/>
<path d="M78.6017 10.5958C76.9872 10.5958 75.6755 9.30846 75.6755 7.72402C75.6755 6.13959 76.9872 4.85223 78.6017 4.85223C80.2161 4.85223 81.5278 6.13959 81.5278 7.72402C81.5278 9.30846 80.2161 10.5958 78.6017 10.5958Z" fill="#E7B970"/>
<path d="M89.0953 15.8443C87.7836 15.8443 86.7746 14.854 86.7746 13.5666C86.7746 12.2793 87.7836 11.289 89.0953 11.289C90.407 11.289 91.4161 12.2793 91.4161 13.5666C91.517 14.854 90.407 15.8443 89.0953 15.8443Z" fill="#E7B970"/>
<path d="M98.0755 23.2715C97.1674 23.2715 96.3602 22.4792 96.3602 21.588C96.3602 20.6968 97.1674 19.9045 98.0755 19.9045C98.9836 19.9045 99.7908 20.6968 99.7908 21.588C99.7908 22.4792 98.9836 23.2715 98.0755 23.2715Z" fill="#E7B970"/>
<path d="M105.038 32.3819C104.432 32.3819 103.928 31.8868 103.928 31.2926C103.928 30.6984 104.432 30.2033 105.038 30.2033C105.643 30.2033 106.148 30.6984 106.148 31.2926C106.148 31.8868 105.643 32.3819 105.038 32.3819Z" fill="#E7B970"/>
<path d="M109.578 42.8787C109.174 42.8787 108.872 42.5816 108.872 42.1855C108.872 41.7894 109.174 41.4923 109.578 41.4923C109.982 41.4923 110.284 41.7894 110.284 42.1855C110.284 42.5816 109.982 42.8787 109.578 42.8787Z" fill="#E7B970"/>
<path d="M111.596 54.3661C111.395 54.3661 111.193 54.168 111.193 53.97C111.193 53.7719 111.395 53.5739 111.596 53.5739C111.798 53.5739 112 53.7719 112 53.97C112 54.168 111.798 54.3661 111.596 54.3661Z" fill="#E7B970"/>
<ellipse cx="55.9999" cy="56.9406" rx="42.8828" ry="42.0866" fill="url(#paint0_linear)"/>
<g clip-path="url(#clip0)">
<path d="M37.8373 55.475C39.5189 55.475 41.0885 54.7572 42.0975 53.432C43.1626 52.1621 43.555 50.5056 43.2186 48.8492L51.7391 44.1006C53.8132 46.0332 57.0084 46.0884 59.1385 44.2111L66.7061 48.7387C66.594 49.1804 66.5379 49.567 66.5379 50.0087C66.5379 52.6038 68.3317 54.9228 70.9103 55.475C73.4889 56.0271 76.1235 54.7572 77.1885 52.3829C78.2536 50.0087 77.5249 47.1927 75.4508 45.6467C73.3767 44.1006 70.4058 44.2111 68.4438 45.978L60.8763 41.4503C60.9884 41.0086 61.0444 40.6221 61.0444 40.1804C61.0444 38.0822 59.8673 36.1497 57.9614 35.211C56.0555 34.2723 53.8132 34.4932 52.1315 35.8184C50.4499 37.1435 49.6651 39.2417 50.1135 41.2847L41.593 46.0332C39.7992 44.3215 37.0525 44.0454 34.9224 45.3154C32.7922 46.5853 31.7832 49.1252 32.4559 51.4995C33.1286 53.8737 35.3708 55.5302 37.8373 55.475ZM72.0875 47.8001C73.3207 47.8001 74.2736 48.7939 74.2736 50.0087C74.2736 51.2234 73.2646 52.2173 72.0875 52.2173C70.9103 52.2173 69.8452 51.2234 69.8452 50.0087C69.8452 48.7939 70.8542 47.8001 72.0875 47.8001ZM55.4949 37.9718C56.7281 37.9718 57.6811 38.9656 57.6811 40.1804C57.6811 41.3951 56.6721 42.389 55.4949 42.389C54.3177 42.389 53.3087 41.3951 53.3087 40.1804C53.3087 38.9656 54.2617 37.9718 55.4949 37.9718ZM37.8373 47.8001C39.0705 47.8001 40.0234 48.7939 40.0234 50.0087C40.0234 51.2234 39.0144 52.2173 37.8373 52.2173C36.6601 52.2173 35.6511 51.2234 35.6511 50.0087C35.6511 48.7939 36.604 47.8001 37.8373 47.8001Z" fill="white"/>
<path d="M72.1439 59.396C70.4622 59.396 68.8926 60.1138 67.8836 61.439C66.8185 62.7089 66.4262 64.3654 66.7625 66.0218L58.242 70.7703C56.1679 68.8378 52.9727 68.7826 50.8426 70.6599L43.275 66.1322C43.3872 65.6905 43.4432 65.304 43.4432 64.8623C43.4432 62.2672 41.6494 59.9481 39.0708 59.396C36.4923 58.8438 33.8576 60.1138 32.7926 62.488C31.7275 64.8623 32.4562 67.6783 34.5303 69.2243C36.6604 70.7703 39.5754 70.6599 41.5373 68.893L49.1049 73.4206C48.9928 73.8624 48.9367 74.2489 48.9367 74.6906C48.9367 76.7888 50.1139 78.7213 52.0198 79.66C53.9257 80.5986 56.1679 80.3778 57.8496 79.0526C59.5313 77.7826 60.3161 75.6293 59.8676 73.5863L68.3881 68.8378C70.1819 70.5495 72.9286 70.8255 75.0588 69.5556C77.1889 68.2856 78.1979 65.7457 77.5252 63.3715C76.7965 60.9972 74.6103 59.3408 72.1439 59.396ZM37.8937 67.0709C36.6604 67.0709 35.7075 66.077 35.7075 64.8623C35.7075 63.6476 36.7165 62.6537 37.8937 62.6537C39.0708 62.6537 40.0799 63.6476 40.0799 64.8623C40.0799 66.077 39.1269 67.0709 37.8937 67.0709ZM54.4862 76.8992C53.253 76.8992 52.3001 75.9053 52.3001 74.6906C52.3001 73.4759 53.3091 72.482 54.4862 72.482C55.6634 72.482 56.6724 73.4759 56.6724 74.6906C56.6724 75.9053 55.7195 76.8992 54.4862 76.8992ZM72.1439 67.0709C70.9106 67.0709 69.9577 66.077 69.9577 64.8623C69.9577 63.6476 70.9667 62.6537 72.1439 62.6537C73.321 62.6537 74.33 63.6476 74.33 64.8623C74.33 66.077 73.3771 67.0709 72.1439 67.0709Z" fill="white"/>
</g>
<defs>
<linearGradient id="paint0_linear" x1="8.07206" y1="14.8541" x2="194.738" y2="14.8541" gradientUnits="userSpaceOnUse">
<stop stop-color="#E7B970"/>
<stop offset="0.604167" stop-color="#E7B970" stop-opacity="0"/>
</linearGradient>
<clipPath id="clip0">
<rect width="45.4053" height="45.5525" fill="white" transform="translate(32.2882 34.6595)"/>
</clipPath>
</defs>
</svg>
