<svg width="112" height="112" viewBox="0 0 112 112" fill="none" xmlns="http://www.w3.org/2000/svg">
<path d="M111.697 57.2379C111.495 57.2379 111.294 57.0398 111.294 56.8418C111.294 56.6437 111.495 56.5447 111.697 56.5447C111.899 56.5447 112 56.7427 112 56.8418C112 57.0398 111.798 57.2379 111.697 57.2379Z" fill="#68DCA1"/>
<path d="M110.285 68.9231C110.083 68.9231 109.982 68.8241 109.982 68.626C109.982 68.4279 110.083 68.3289 110.285 68.3289C110.486 68.3289 110.587 68.4279 110.587 68.626C110.587 68.8241 110.486 68.9231 110.285 68.9231Z" fill="#68DCA1"/>
<path d="M106.35 80.2122C106.148 80.2122 105.946 80.0141 105.946 79.8161C105.946 79.618 106.148 79.42 106.35 79.42C106.551 79.42 106.753 79.618 106.753 79.8161C106.753 80.0141 106.551 80.2122 106.35 80.2122Z" fill="#68DCA1"/>
<path d="M99.9928 90.5111C99.6901 90.5111 99.3874 90.214 99.3874 89.9169C99.3874 89.6198 99.6901 89.3228 99.9928 89.3228C100.295 89.3228 100.598 89.6198 100.598 89.9169C100.598 90.214 100.295 90.5111 99.9928 90.5111Z" fill="#68DCA1"/>
<path d="M91.5171 99.2255C92.0186 99.2255 92.4252 98.8265 92.4252 98.3342C92.4252 97.842 92.0186 97.443 91.5171 97.443C91.0156 97.443 90.609 97.842 90.609 98.3342C90.609 98.8265 91.0156 99.2255 91.5171 99.2255Z" fill="#68DCA1"/>
<path d="M81.3261 105.959C80.6198 105.959 80.1153 105.464 80.1153 104.771C80.1153 104.078 80.6198 103.583 81.3261 103.583C82.0324 103.583 82.5369 104.078 82.5369 104.771C82.5369 105.464 82.0324 105.959 81.3261 105.959Z" fill="#68DCA1"/>
<path d="M69.9243 110.317C69.1171 110.317 68.4108 109.623 68.4108 108.831C68.4108 108.039 69.1171 107.346 69.9243 107.346C70.7315 107.346 71.4378 108.039 71.4378 108.831C71.5387 109.623 70.8324 110.317 69.9243 110.317Z" fill="#68DCA1"/>
<path d="M58.018 112C57.009 112 56.3027 111.208 56.3027 110.317C56.3027 109.326 57.1099 108.633 58.018 108.633C59.027 108.633 59.7333 109.425 59.7333 110.317C59.7333 111.208 58.9261 112 58.018 112Z" fill="#68DCA1"/>
<path d="M45.9099 111.01C44.9009 111.01 43.9928 110.218 43.9928 109.128C43.9928 108.138 44.8 107.247 45.9099 107.247C46.9189 107.247 47.827 108.039 47.827 109.128C47.827 110.218 47.0198 111.01 45.9099 111.01Z" fill="#68DCA1"/>
<path d="M34.5081 107.445C33.3982 107.445 32.4901 106.553 32.4901 105.464C32.4901 104.375 33.3982 103.484 34.5081 103.484C35.618 103.484 36.5261 104.375 36.5261 105.464C36.5261 106.553 35.618 107.445 34.5081 107.445Z" fill="#68DCA1"/>
<path d="M24.1153 101.404C22.9045 101.404 21.8955 100.414 21.8955 99.2255C21.8955 98.0371 22.9045 97.0469 24.1153 97.0469C25.3261 97.0469 26.3351 98.0371 26.3351 99.2255C26.3351 100.414 25.3261 101.404 24.1153 101.404Z" fill="#68DCA1"/>
<path d="M15.4378 93.3828C14.1261 93.3828 13.1171 92.3926 13.1171 91.1052C13.1171 89.8179 14.1261 88.8276 15.4378 88.8276C16.7495 88.8276 17.7586 89.8179 17.7586 91.1052C17.7586 92.2935 16.7495 93.3828 15.4378 93.3828Z" fill="#68DCA1"/>
<path d="M8.77838 83.5791C7.36577 83.5791 6.25586 82.4898 6.25586 81.1034C6.25586 79.717 7.36577 78.6277 8.77838 78.6277C10.191 78.6277 11.3009 79.717 11.3009 81.1034C11.2 82.4898 10.0901 83.5791 8.77838 83.5791Z" fill="#68DCA1"/>
<path d="M4.43964 72.6861C2.92613 72.6861 1.81622 71.4978 1.81622 70.1114C1.81622 68.626 3.02703 67.5367 4.43964 67.5367C5.95315 67.5367 7.06306 68.725 7.06306 70.1114C7.16396 71.4978 5.95315 72.6861 4.43964 72.6861Z" fill="#68DCA1"/>
<path d="M2.82523 61.0999C1.31171 61.0999 0 59.9116 0 58.3272C0 56.8417 1.21081 55.5544 2.82523 55.5544C4.33874 55.5544 5.65045 56.7427 5.65045 58.3272C5.65045 59.8126 4.33874 61.0999 2.82523 61.0999Z" fill="#68DCA1"/>
<path d="M3.83423 49.4147C2.21982 49.4147 0.807207 48.1273 0.807207 46.4438C0.807207 44.8594 2.11892 43.473 3.83423 43.473C5.44865 43.473 6.86126 44.7604 6.86126 46.4438C6.76036 48.1273 5.44865 49.4147 3.83423 49.4147Z" fill="#68DCA1"/>
<path d="M7.46667 38.3236C5.75135 38.3236 4.33874 36.9372 4.33874 35.2537C4.33874 33.5703 5.75135 32.1839 7.46667 32.1839C9.18198 32.1839 10.5946 33.5703 10.5946 35.2537C10.5946 36.9372 9.18198 38.3236 7.46667 38.3236Z" fill="#68DCA1"/>
<path d="M13.5207 28.2228C15.3597 28.2228 16.8505 26.7597 16.8505 24.9549C16.8505 23.1501 15.3597 21.687 13.5207 21.687C11.6818 21.687 10.191 23.1501 10.191 24.9549C10.191 26.7597 11.6818 28.2228 13.5207 28.2228Z" fill="#68DCA1"/>
<path d="M21.7946 19.8055C19.8775 19.8055 18.2631 18.221 18.2631 16.3395C18.2631 14.458 19.8775 12.8736 21.7946 12.8736C23.7117 12.8736 25.3261 14.458 25.3261 16.3395C25.3261 18.221 23.8126 19.8055 21.7946 19.8055Z" fill="#68DCA1"/>
<path d="M31.7838 13.1707C29.7658 13.1707 28.1514 11.5862 28.1514 9.60567C28.1514 7.62512 29.7658 6.04068 31.7838 6.04068C33.8018 6.04068 35.4162 7.62512 35.4162 9.60567C35.4162 11.5862 33.8018 13.1707 31.7838 13.1707Z" fill="#68DCA1"/>
<path d="M43.0847 8.91247C41.0667 8.91247 39.4522 7.32804 39.4522 5.34749C39.4522 3.36694 41.0667 1.7825 43.0847 1.7825C45.1027 1.7825 46.7171 3.36694 46.7171 5.34749C46.7171 7.32804 45.1027 8.91247 43.0847 8.91247Z" fill="#68DCA1"/>
<path d="M54.991 6.93192C52.973 6.93192 51.4595 5.44651 51.4595 3.46596C51.4595 1.48541 52.973 0 54.991 0C56.9081 0 58.5225 1.58444 58.5225 3.46596C58.5225 5.34748 56.9081 6.93192 54.991 6.93192Z" fill="#68DCA1"/>
<path d="M66.9982 7.52607C65.182 7.52607 63.6685 6.04066 63.6685 4.25817C63.6685 2.47568 65.182 0.990265 66.9982 0.990265C68.8144 0.990265 70.3279 2.47568 70.3279 4.25817C70.3279 6.13969 68.9153 7.52607 66.9982 7.52607Z" fill="#68DCA1"/>
<path d="M78.6018 10.5959C76.9874 10.5959 75.6757 9.30859 75.6757 7.72415C75.6757 6.13971 76.9874 4.85236 78.6018 4.85236C80.2162 4.85236 81.5279 6.13971 81.5279 7.72415C81.5279 9.30859 80.2162 10.5959 78.6018 10.5959Z" fill="#68DCA1"/>
<path d="M89.0955 15.8444C87.7838 15.8444 86.7748 14.8541 86.7748 13.5668C86.7748 12.2794 87.7838 11.2891 89.0955 11.2891C90.4072 11.2891 91.4162 12.2794 91.4162 13.5668C91.5171 14.8541 90.4072 15.8444 89.0955 15.8444Z" fill="#68DCA1"/>
<path d="M98.0757 23.2714C97.1676 23.2714 96.3604 22.4792 96.3604 21.588C96.3604 20.6967 97.1676 19.9045 98.0757 19.9045C98.9838 19.9045 99.791 20.6967 99.791 21.588C99.791 22.4792 98.9838 23.2714 98.0757 23.2714Z" fill="#68DCA1"/>
<path d="M105.038 32.382C104.432 32.382 103.928 31.8868 103.928 31.2927C103.928 30.6985 104.432 30.2034 105.038 30.2034C105.643 30.2034 106.148 30.6985 106.148 31.2927C106.148 31.8868 105.643 32.382 105.038 32.382Z" fill="#68DCA1"/>
<path d="M109.578 42.8789C109.175 42.8789 108.872 42.5818 108.872 42.1857C108.872 41.7896 109.175 41.4925 109.578 41.4925C109.982 41.4925 110.285 41.7896 110.285 42.1857C110.285 42.5818 109.982 42.8789 109.578 42.8789Z" fill="#68DCA1"/>
<path d="M111.596 54.3661C111.395 54.3661 111.193 54.168 111.193 53.97C111.193 53.7719 111.395 53.5739 111.596 53.5739C111.798 53.5739 112 53.7719 112 53.97C112 54.168 111.798 54.3661 111.596 54.3661Z" fill="#68DCA1"/>
<ellipse cx="56" cy="56.9408" rx="42.8829" ry="42.0867" fill="url(#paint0_linear)"/>
<g clip-path="url(#clip0)">
<path d="M45.5538 38.8309C45.5538 39.7549 45.5538 40.6303 45.5538 41.5664C45.2166 41.5907 44.8923 41.615 44.5811 41.6394C42.5707 41.7974 41.3126 42.9889 41.2866 44.8733C41.2347 49.7364 41.2218 54.5995 41.1958 59.4625C41.1828 62.1129 41.1958 64.7755 41.1958 67.4258C41.1958 68.4106 41.3255 69.3589 42.0129 70.1735C42.6744 70.9516 43.4916 71.4014 44.5681 71.4014C51.8574 71.4014 59.1337 71.4136 66.423 71.4014C68.0702 71.4014 69.471 70.21 69.7044 68.6538C69.7822 68.1796 69.8082 67.6812 69.8082 67.1948C69.8082 60.6054 69.8082 54.0281 69.8082 47.4386C69.8082 46.5511 69.7693 45.6514 69.7304 44.7639C69.6525 43.0253 68.4333 41.8096 66.5786 41.6515C66.2154 41.615 65.8523 41.5907 65.4632 41.5664C65.4632 40.6424 65.4632 39.7671 65.4632 38.8796C67.4476 38.4176 69.9898 39.451 71.3906 41.2503C72.2596 42.3688 72.6487 43.6575 72.6487 45.007C72.6616 52.7029 72.6746 60.3987 72.6098 68.1067C72.5838 70.9759 70.9236 73.1278 68.2388 73.9424C67.5903 74.1369 66.8899 74.2463 66.2025 74.2463C59.0688 74.2706 51.9352 74.2585 44.8015 74.2585C41.3515 74.2585 38.5758 71.8269 38.4202 68.6051C38.3164 66.6234 38.3424 64.6417 38.3424 62.6479C38.3424 56.9094 38.3424 51.1588 38.3424 45.3961C38.3424 43.5481 38.8352 41.8703 40.2879 40.533C41.7406 39.1957 43.4008 38.6486 45.5538 38.8309Z" fill="white"/>
<path d="M45.3592 47.4022C45.6705 47.6575 45.8521 47.779 46.0207 47.9249C47.188 48.9827 48.3683 50.0282 49.5097 51.0981C49.834 51.3899 50.0804 51.4264 50.4565 51.1954C51.3385 50.6483 52.2335 50.1133 53.1544 49.6392C53.4397 49.4933 53.8548 49.4325 54.166 49.5054C56.2283 50.0161 58.2776 50.5753 60.3399 51.0859C60.6123 51.1589 61.0273 51.0859 61.2608 50.9279C62.5318 50.0404 63.7511 49.1164 64.9962 48.2046C65.1648 48.083 65.3983 48.0344 65.6058 47.9493C65.6577 48.1316 65.7485 48.3261 65.7485 48.5085C65.7614 50.8549 65.7485 53.2135 65.7614 55.56C65.7614 56.0341 65.6058 56.1922 65.087 56.1922C58.6927 56.18 52.2854 56.18 45.891 56.1922C45.463 56.1922 45.2036 56.1314 45.2036 55.6451C45.2166 53.1163 45.2166 50.5753 45.2166 48.0465C45.2425 47.8763 45.2944 47.7304 45.3592 47.4022Z" fill="white"/>
<path d="M50.5863 37.3113C51.2348 34.1624 52.9079 32.6427 55.5928 32.6792C58.1998 32.7156 59.847 34.2718 60.4047 37.2991C60.7679 37.2991 61.144 37.2869 61.5202 37.2991C63.0766 37.3356 63.9586 38.1623 63.9716 39.6091C63.9716 40.2534 63.9845 40.9099 63.9716 41.5543C63.9456 42.6971 63.0118 43.6333 61.8055 43.6333C57.6161 43.6576 53.4267 43.6576 49.2373 43.6333C48.0181 43.6211 47.0843 42.7093 47.0583 41.5664C47.0324 40.837 47.0454 40.1075 47.0583 39.3781C47.0843 38.2474 47.9533 37.3964 49.1595 37.3113C49.6135 37.2869 50.0934 37.3113 50.5863 37.3113ZM58.0571 37.2626C58.0831 36.2171 57.6161 35.4998 56.7342 35.0621C55.8003 34.6001 54.8535 34.6487 53.9845 35.2201C53.2581 35.7064 52.882 36.3751 52.9468 37.2626C54.6719 37.2626 56.3321 37.2626 58.0571 37.2626Z" fill="white"/>
<path d="M45.2814 62.0886C45.2814 61.6388 45.2814 61.2011 45.2814 60.7269C52.0908 60.7269 58.8872 60.7269 65.7225 60.7269C65.7225 61.1768 65.7225 61.6145 65.7225 62.0886C58.9132 62.0886 52.1297 62.0886 45.2814 62.0886Z" fill="white"/>
<path d="M45.2814 67.3164C45.2814 66.8788 45.2814 66.4411 45.2814 65.9548C52.0908 65.9548 58.8872 65.9548 65.7225 65.9548C65.7225 66.4046 65.7225 66.8301 65.7225 67.3164C58.9132 67.3164 52.1297 67.3164 45.2814 67.3164Z" fill="white"/>
</g>
<defs>
<linearGradient id="paint0_linear" x1="8.07207" y1="14.8541" x2="194.739" y2="14.8541" gradientUnits="userSpaceOnUse">
<stop stop-color="#318158"/>
<stop offset="0.536723" stop-color="#2D8759" stop-opacity="0"/>
</linearGradient>
<clipPath id="clip0">
<rect width="34.3063" height="41.5915" fill="white" transform="translate(38.3423 32.6791)"/>
</clipPath>
</defs>
</svg>
