<svg width="257" height="260" viewBox="0 0 257 260" fill="none" xmlns="http://www.w3.org/2000/svg">
<path d="M91.8561 120.312C91.7161 120.312 91.6041 120.27 91.5201 120.186C91.4361 120.102 91.3941 119.99 91.3941 119.85V106.872H87.2361C87.0961 106.872 86.9841 106.83 86.9001 106.746C86.8161 106.662 86.7741 106.55 86.7741 106.41V106.095C86.7741 105.955 86.8161 105.843 86.9001 105.759C86.9841 105.661 87.0961 105.612 87.2361 105.612H96.8541C97.0081 105.612 97.1271 105.654 97.2111 105.738C97.2951 105.822 97.3371 105.941 97.3371 106.095V106.41C97.3371 106.55 97.2881 106.662 97.1901 106.746C97.1061 106.83 96.9941 106.872 96.8541 106.872H92.7171V119.85C92.7171 119.99 92.6681 120.102 92.5701 120.186C92.4861 120.27 92.3741 120.312 92.2341 120.312H91.8561ZM100.333 120.312C100.193 120.312 100.081 120.27 99.9966 120.186C99.9126 120.102 99.8706 119.99 99.8706 119.85V106.095C99.8706 105.955 99.9126 105.843 99.9966 105.759C100.081 105.661 100.193 105.612 100.333 105.612H105.226C106.738 105.612 107.921 105.969 108.775 106.683C109.629 107.397 110.056 108.454 110.056 109.854C110.056 110.96 109.783 111.856 109.237 112.542C108.691 113.214 107.907 113.669 106.885 113.907L110.266 119.661C110.308 119.745 110.329 119.822 110.329 119.892C110.329 120.004 110.287 120.102 110.203 120.186C110.119 120.27 110.021 120.312 109.909 120.312H109.657C109.447 120.312 109.286 120.27 109.174 120.186C109.076 120.088 108.971 119.941 108.859 119.745L105.52 114.096H101.194V119.85C101.194 119.99 101.145 120.102 101.047 120.186C100.963 120.27 100.851 120.312 100.711 120.312H100.333ZM105.121 112.836C106.339 112.836 107.242 112.591 107.83 112.101C108.432 111.597 108.733 110.848 108.733 109.854C108.733 108.86 108.432 108.118 107.83 107.628C107.242 107.124 106.339 106.872 105.121 106.872H101.194V112.836H105.121ZM112.253 120.312C112.141 120.312 112.043 120.27 111.959 120.186C111.875 120.102 111.833 120.004 111.833 119.892L111.875 119.661L117.188 106.032C117.3 105.752 117.503 105.612 117.797 105.612H118.511C118.805 105.612 119.008 105.752 119.12 106.032L124.433 119.661L124.475 119.892C124.475 120.004 124.433 120.102 124.349 120.186C124.265 120.27 124.167 120.312 124.055 120.312H123.635C123.509 120.312 123.404 120.277 123.32 120.207C123.25 120.137 123.201 120.067 123.173 119.997L121.871 116.637H114.437L113.135 119.997C113.107 120.067 113.051 120.137 112.967 120.207C112.897 120.277 112.799 120.312 112.673 120.312H112.253ZM114.941 115.377H121.367L118.154 107.103L114.941 115.377ZM127.423 120.312C127.283 120.312 127.171 120.27 127.087 120.186C127.003 120.102 126.961 119.99 126.961 119.85V106.095C126.961 105.955 127.003 105.843 127.087 105.759C127.171 105.661 127.283 105.612 127.423 105.612H131.896C133.352 105.612 134.5 105.829 135.34 106.263C136.194 106.683 136.796 107.306 137.146 108.132C137.51 108.958 137.706 110.008 137.734 111.282C137.748 111.702 137.755 112.255 137.755 112.941C137.755 113.641 137.748 114.201 137.734 114.621C137.706 115.965 137.51 117.05 137.146 117.876C136.796 118.688 136.208 119.297 135.382 119.703C134.556 120.109 133.429 120.312 132.001 120.312H127.423ZM131.896 119.052C133.016 119.052 133.898 118.905 134.542 118.611C135.186 118.303 135.648 117.827 135.928 117.183C136.222 116.525 136.383 115.636 136.411 114.516C136.425 114.096 136.432 113.571 136.432 112.941C136.432 112.325 136.425 111.807 136.411 111.387C136.383 109.819 136.012 108.678 135.298 107.964C134.598 107.236 133.429 106.872 131.791 106.872H128.284V119.052H131.896ZM141.635 120.312C141.495 120.312 141.383 120.27 141.299 120.186C141.215 120.102 141.173 119.99 141.173 119.85V106.074C141.173 105.934 141.215 105.822 141.299 105.738C141.383 105.654 141.495 105.612 141.635 105.612H142.034C142.174 105.612 142.286 105.654 142.37 105.738C142.454 105.822 142.496 105.934 142.496 106.074V119.85C142.496 119.99 142.454 120.102 142.37 120.186C142.286 120.27 142.174 120.312 142.034 120.312H141.635ZM146.906 120.312C146.766 120.312 146.654 120.27 146.57 120.186C146.486 120.102 146.444 119.99 146.444 119.85V106.095C146.444 105.955 146.486 105.843 146.57 105.759C146.654 105.661 146.766 105.612 146.906 105.612H147.347C147.529 105.612 147.676 105.696 147.788 105.864L155.537 117.708V106.095C155.537 105.955 155.579 105.843 155.663 105.759C155.747 105.661 155.859 105.612 155.999 105.612H156.377C156.531 105.612 156.65 105.654 156.734 105.738C156.818 105.822 156.86 105.941 156.86 106.095V119.829C156.86 119.969 156.818 120.088 156.734 120.186C156.65 120.27 156.538 120.312 156.398 120.312H155.936C155.754 120.312 155.607 120.228 155.495 120.06L147.767 108.258V119.85C147.767 119.99 147.718 120.102 147.62 120.186C147.536 120.27 147.424 120.312 147.284 120.312H146.906ZM165.839 120.522C164.089 120.522 162.731 120.018 161.765 119.01C160.799 118.002 160.288 116.651 160.232 114.957C160.218 114.537 160.211 113.872 160.211 112.962C160.211 112.052 160.218 111.387 160.232 110.967C160.288 109.273 160.799 107.922 161.765 106.914C162.731 105.906 164.089 105.402 165.839 105.402C167.029 105.402 168.03 105.626 168.842 106.074C169.654 106.522 170.256 107.054 170.648 107.67C171.054 108.272 171.271 108.811 171.299 109.287V109.329C171.299 109.441 171.257 109.532 171.173 109.602C171.089 109.672 170.984 109.707 170.858 109.707H170.396C170.27 109.707 170.179 109.679 170.123 109.623C170.067 109.567 170.011 109.455 169.955 109.287C169.717 108.545 169.255 107.922 168.569 107.418C167.897 106.914 166.987 106.662 165.839 106.662C164.537 106.662 163.508 107.019 162.752 107.733C162.01 108.447 161.611 109.56 161.555 111.072C161.541 111.492 161.534 112.122 161.534 112.962C161.534 113.802 161.541 114.432 161.555 114.852C161.611 116.364 162.01 117.477 162.752 118.191C163.508 118.905 164.537 119.262 165.839 119.262C167.141 119.262 168.191 118.891 168.989 118.149C169.787 117.407 170.186 116.308 170.186 114.852V113.781H166.532C166.392 113.781 166.28 113.739 166.196 113.655C166.112 113.557 166.07 113.438 166.07 113.298V113.004C166.07 112.864 166.112 112.752 166.196 112.668C166.28 112.57 166.392 112.521 166.532 112.521H171.026C171.18 112.521 171.299 112.563 171.383 112.647C171.467 112.731 171.509 112.85 171.509 113.004V114.852C171.509 115.972 171.285 116.959 170.837 117.813C170.389 118.667 169.738 119.332 168.884 119.808C168.03 120.284 167.015 120.522 165.839 120.522Z" fill="white"/>
<path d="M70.9728 141.454C70.8662 141.454 70.7755 141.416 70.7008 141.342C70.6262 141.267 70.5888 141.176 70.5888 141.07V139.982C70.5888 139.875 70.6262 139.784 70.7008 139.71C70.7755 139.635 70.8662 139.598 70.9728 139.598H75.9008C76.0182 139.598 76.1088 139.635 76.1728 139.71C76.2475 139.774 76.2848 139.864 76.2848 139.982V141.07C76.2848 141.176 76.2475 141.267 76.1728 141.342C76.0982 141.416 76.0075 141.454 75.9008 141.454H70.9728ZM82.365 145.326C82.2583 145.326 82.1676 145.288 82.093 145.214C82.0183 145.139 81.981 145.048 81.981 144.942V137.39C81.981 137.272 82.0183 137.182 82.093 137.118C82.1676 137.043 82.2583 137.006 82.365 137.006H83.629C83.7463 137.006 83.837 137.043 83.901 137.118C83.9756 137.182 84.013 137.272 84.013 137.39V137.934C84.589 137.208 85.3623 136.846 86.333 136.846C87.517 136.846 88.3436 137.32 88.813 138.27C89.069 137.843 89.4316 137.502 89.901 137.246C90.3703 136.979 90.877 136.846 91.421 136.846C92.2956 136.846 93.0103 137.144 93.565 137.742C94.1196 138.339 94.397 139.208 94.397 140.35V144.942C94.397 145.048 94.3596 145.139 94.285 145.214C94.221 145.288 94.1303 145.326 94.013 145.326H92.685C92.5783 145.326 92.4876 145.288 92.413 145.214C92.3383 145.139 92.301 145.048 92.301 144.942V140.478C92.301 139.806 92.157 139.32 91.869 139.022C91.5916 138.723 91.2236 138.574 90.765 138.574C90.349 138.574 89.9916 138.728 89.693 139.038C89.405 139.336 89.261 139.816 89.261 140.478V144.942C89.261 145.048 89.2236 145.139 89.149 145.214C89.085 145.288 88.9943 145.326 88.877 145.326H87.533C87.4263 145.326 87.3356 145.288 87.261 145.214C87.1863 145.139 87.149 145.048 87.149 144.942V140.478C87.149 139.816 87.005 139.336 86.717 139.038C86.429 138.728 86.061 138.574 85.613 138.574C85.197 138.574 84.8396 138.728 84.541 139.038C84.253 139.336 84.109 139.816 84.109 140.478V144.942C84.109 145.048 84.0716 145.139 83.997 145.214C83.933 145.288 83.8423 145.326 83.725 145.326H82.365ZM98.8501 145.486C98.3061 145.486 97.8048 145.379 97.3461 145.166C96.8981 144.942 96.5408 144.643 96.2741 144.27C96.0181 143.896 95.8901 143.486 95.8901 143.038C95.8901 142.312 96.1834 141.726 96.7701 141.278C97.3568 140.83 98.1621 140.526 99.1861 140.366L101.378 140.046V139.71C101.378 139.251 101.261 138.904 101.026 138.67C100.791 138.435 100.418 138.318 99.9061 138.318C99.5541 138.318 99.2714 138.382 99.0581 138.51C98.8448 138.638 98.6688 138.771 98.5301 138.91C98.4021 139.038 98.3168 139.123 98.2741 139.166C98.2314 139.294 98.1514 139.358 98.0341 139.358H96.7861C96.6901 139.358 96.6048 139.326 96.5301 139.262C96.4661 139.198 96.4341 139.112 96.4341 139.006C96.4448 138.739 96.5728 138.44 96.8181 138.11C97.0741 137.768 97.4634 137.475 97.9861 137.23C98.5088 136.974 99.1541 136.846 99.9221 136.846C101.181 136.846 102.098 137.128 102.674 137.694C103.25 138.259 103.538 139 103.538 139.918V144.942C103.538 145.048 103.501 145.139 103.426 145.214C103.362 145.288 103.271 145.326 103.154 145.326H101.826C101.719 145.326 101.629 145.288 101.554 145.214C101.479 145.139 101.442 145.048 101.442 144.942V144.318C101.207 144.659 100.877 144.942 100.45 145.166C100.023 145.379 99.4901 145.486 98.8501 145.486ZM99.3941 143.95C99.9808 143.95 100.461 143.758 100.834 143.374C101.207 142.99 101.394 142.435 101.394 141.71V141.39L99.7941 141.646C98.5674 141.838 97.9541 142.248 97.9541 142.878C97.9541 143.219 98.0928 143.486 98.3701 143.678C98.6581 143.859 98.9994 143.95 99.3941 143.95ZM108.678 145.486C107.601 145.486 106.774 145.144 106.198 144.462C105.622 143.768 105.308 142.846 105.254 141.694L105.238 141.166L105.254 140.638C105.297 139.507 105.606 138.595 106.182 137.902C106.769 137.198 107.601 136.846 108.678 136.846C109.702 136.846 110.518 137.198 111.126 137.902V134.35C111.126 134.232 111.164 134.142 111.238 134.078C111.313 134.003 111.404 133.966 111.51 133.966H112.902C113.02 133.966 113.11 134.003 113.174 134.078C113.249 134.142 113.286 134.232 113.286 134.35V144.942C113.286 145.048 113.249 145.139 113.174 145.214C113.11 145.288 113.02 145.326 112.902 145.326H111.606C111.5 145.326 111.409 145.288 111.334 145.214C111.26 145.139 111.222 145.048 111.222 144.942V144.35C110.636 145.107 109.788 145.486 108.678 145.486ZM109.286 143.758C109.894 143.758 110.342 143.566 110.63 143.182C110.929 142.787 111.094 142.302 111.126 141.726C111.137 141.598 111.142 141.395 111.142 141.118C111.142 140.83 111.137 140.622 111.126 140.494C111.105 139.96 110.94 139.507 110.63 139.134C110.321 138.76 109.873 138.574 109.286 138.574C108.145 138.574 107.537 139.278 107.462 140.686L107.446 141.166L107.462 141.646C107.537 143.054 108.145 143.758 109.286 143.758ZM119.018 145.486C117.824 145.486 116.874 145.144 116.17 144.462C115.477 143.779 115.109 142.808 115.066 141.55L115.05 141.15C115.05 139.816 115.397 138.766 116.09 137.998C116.794 137.23 117.765 136.846 119.002 136.846C120.272 136.846 121.248 137.23 121.93 137.998C122.624 138.766 122.97 139.79 122.97 141.07V141.406C122.97 141.512 122.933 141.603 122.858 141.678C122.784 141.752 122.688 141.79 122.57 141.79H117.258V141.918C117.28 142.515 117.44 143.011 117.738 143.406C118.048 143.79 118.469 143.982 119.002 143.982C119.61 143.982 120.106 143.736 120.49 143.246C120.586 143.128 120.661 143.059 120.714 143.038C120.768 143.006 120.858 142.99 120.986 142.99H122.394C122.49 142.99 122.57 143.016 122.634 143.07C122.709 143.123 122.746 143.198 122.746 143.294C122.746 143.55 122.592 143.854 122.282 144.206C121.984 144.547 121.552 144.846 120.986 145.102C120.421 145.358 119.765 145.486 119.018 145.486ZM120.762 140.43V140.398C120.762 139.768 120.602 139.267 120.282 138.894C119.973 138.51 119.546 138.318 119.002 138.318C118.458 138.318 118.032 138.51 117.722 138.894C117.413 139.267 117.258 139.768 117.258 140.398V140.43H120.762ZM131.477 145.486C130.666 145.486 129.989 145.363 129.445 145.118C128.901 144.872 128.496 144.59 128.229 144.27C127.973 143.939 127.845 143.656 127.845 143.422C127.845 143.315 127.877 143.23 127.941 143.166C128.016 143.102 128.101 143.07 128.197 143.07H129.509C129.594 143.07 129.669 143.112 129.733 143.198C129.786 143.24 129.904 143.342 130.085 143.502C130.277 143.662 130.49 143.79 130.725 143.886C130.97 143.971 131.237 144.014 131.525 144.014C131.952 144.014 132.298 143.934 132.565 143.774C132.832 143.603 132.965 143.363 132.965 143.054C132.965 142.84 132.901 142.67 132.773 142.542C132.656 142.403 132.437 142.28 132.117 142.174C131.808 142.056 131.338 141.928 130.709 141.79C129.802 141.598 129.13 141.304 128.693 140.91C128.266 140.515 128.053 139.992 128.053 139.342C128.053 138.915 128.181 138.515 128.437 138.142C128.693 137.758 129.072 137.448 129.573 137.214C130.085 136.968 130.693 136.846 131.397 136.846C132.122 136.846 132.746 136.963 133.269 137.198C133.792 137.422 134.186 137.694 134.453 138.014C134.73 138.334 134.869 138.616 134.869 138.862C134.869 138.958 134.832 139.043 134.757 139.118C134.693 139.182 134.613 139.214 134.517 139.214H133.317C133.2 139.214 133.109 139.171 133.045 139.086C132.97 139.032 132.848 138.936 132.677 138.798C132.517 138.648 132.336 138.531 132.133 138.446C131.93 138.36 131.685 138.318 131.397 138.318C131.002 138.318 130.698 138.403 130.485 138.574C130.272 138.744 130.165 138.968 130.165 139.246C130.165 139.438 130.213 139.598 130.309 139.726C130.416 139.854 130.624 139.976 130.933 140.094C131.242 140.2 131.706 140.312 132.325 140.43C134.245 140.803 135.205 141.64 135.205 142.942C135.205 143.699 134.874 144.312 134.213 144.782C133.562 145.251 132.65 145.486 131.477 145.486ZM137.16 135.646C137.054 135.646 136.963 135.608 136.888 135.534C136.814 135.459 136.776 135.368 136.776 135.262V134.094C136.776 133.976 136.814 133.88 136.888 133.806C136.963 133.731 137.054 133.694 137.16 133.694H138.632C138.75 133.694 138.846 133.731 138.92 133.806C138.995 133.88 139.032 133.976 139.032 134.094V135.262C139.032 135.368 138.99 135.459 138.904 135.534C138.83 135.608 138.739 135.646 138.632 135.646H137.16ZM137.224 145.326C137.118 145.326 137.027 145.288 136.952 145.214C136.878 145.139 136.84 145.048 136.84 144.942V137.39C136.84 137.272 136.878 137.182 136.952 137.118C137.027 137.043 137.118 137.006 137.224 137.006H138.584C138.691 137.006 138.782 137.043 138.856 137.118C138.931 137.192 138.968 137.283 138.968 137.39V144.942C138.968 145.048 138.931 145.139 138.856 145.214C138.782 145.288 138.691 145.326 138.584 145.326H137.224ZM141.459 145.326C141.352 145.326 141.261 145.288 141.187 145.214C141.112 145.139 141.075 145.048 141.075 144.942V137.39C141.075 137.272 141.112 137.182 141.187 137.118C141.261 137.043 141.352 137.006 141.459 137.006H142.723C142.84 137.006 142.931 137.043 142.995 137.118C143.069 137.182 143.107 137.272 143.107 137.39V137.934C143.683 137.208 144.456 136.846 145.427 136.846C146.611 136.846 147.437 137.32 147.907 138.27C148.163 137.843 148.525 137.502 148.995 137.246C149.464 136.979 149.971 136.846 150.515 136.846C151.389 136.846 152.104 137.144 152.659 137.742C153.213 138.339 153.491 139.208 153.491 140.35V144.942C153.491 145.048 153.453 145.139 153.379 145.214C153.315 145.288 153.224 145.326 153.107 145.326H151.779C151.672 145.326 151.581 145.288 151.507 145.214C151.432 145.139 151.395 145.048 151.395 144.942V140.478C151.395 139.806 151.251 139.32 150.963 139.022C150.685 138.723 150.317 138.574 149.859 138.574C149.443 138.574 149.085 138.728 148.787 139.038C148.499 139.336 148.355 139.816 148.355 140.478V144.942C148.355 145.048 148.317 145.139 148.243 145.214C148.179 145.288 148.088 145.326 147.971 145.326H146.627C146.52 145.326 146.429 145.288 146.355 145.214C146.28 145.139 146.243 145.048 146.243 144.942V140.478C146.243 139.816 146.099 139.336 145.811 139.038C145.523 138.728 145.155 138.574 144.707 138.574C144.291 138.574 143.933 138.728 143.635 139.038C143.347 139.336 143.203 139.816 143.203 140.478V144.942C143.203 145.048 143.165 145.139 143.091 145.214C143.027 145.288 142.936 145.326 142.819 145.326H141.459ZM155.928 148.366C155.821 148.366 155.731 148.328 155.656 148.254C155.581 148.19 155.544 148.099 155.544 147.982V137.39C155.544 137.272 155.581 137.182 155.656 137.118C155.731 137.043 155.821 137.006 155.928 137.006H157.208C157.325 137.006 157.421 137.043 157.496 137.118C157.571 137.192 157.608 137.283 157.608 137.39V138.03C158.173 137.24 159.021 136.846 160.152 136.846C161.229 136.846 162.056 137.187 162.632 137.87C163.208 138.542 163.517 139.448 163.56 140.59C163.571 140.718 163.576 140.91 163.576 141.166C163.576 141.422 163.571 141.614 163.56 141.742C163.528 142.862 163.219 143.768 162.632 144.462C162.056 145.144 161.229 145.486 160.152 145.486C159.085 145.486 158.269 145.107 157.704 144.35V147.982C157.704 148.099 157.667 148.19 157.592 148.254C157.528 148.328 157.437 148.366 157.32 148.366H155.928ZM159.544 143.758C160.685 143.758 161.293 143.054 161.368 141.646C161.379 141.539 161.384 141.379 161.384 141.166C161.384 140.952 161.379 140.792 161.368 140.686C161.293 139.278 160.685 138.574 159.544 138.574C158.936 138.574 158.483 138.771 158.184 139.166C157.885 139.56 157.725 140.04 157.704 140.606C157.693 140.734 157.688 140.936 157.688 141.214C157.688 141.491 157.693 141.699 157.704 141.838C157.725 142.371 157.891 142.824 158.2 143.198C158.509 143.571 158.957 143.758 159.544 143.758ZM165.756 145.326C165.649 145.326 165.559 145.288 165.484 145.214C165.409 145.139 165.372 145.048 165.372 144.942V134.35C165.372 134.232 165.409 134.142 165.484 134.078C165.559 134.003 165.649 133.966 165.756 133.966H167.1C167.217 133.966 167.308 134.003 167.372 134.078C167.447 134.142 167.484 134.232 167.484 134.35V144.942C167.484 145.048 167.447 145.139 167.372 145.214C167.308 145.288 167.217 145.326 167.1 145.326H165.756ZM173.206 145.486C172.011 145.486 171.062 145.144 170.358 144.462C169.665 143.779 169.297 142.808 169.254 141.55L169.238 141.15C169.238 139.816 169.585 138.766 170.278 137.998C170.982 137.23 171.953 136.846 173.19 136.846C174.459 136.846 175.435 137.23 176.118 137.998C176.811 138.766 177.158 139.79 177.158 141.07V141.406C177.158 141.512 177.121 141.603 177.046 141.678C176.971 141.752 176.875 141.79 176.758 141.79H171.446V141.918C171.467 142.515 171.627 143.011 171.926 143.406C172.235 143.79 172.657 143.982 173.19 143.982C173.798 143.982 174.294 143.736 174.678 143.246C174.774 143.128 174.849 143.059 174.902 143.038C174.955 143.006 175.046 142.99 175.174 142.99H176.582C176.678 142.99 176.758 143.016 176.822 143.07C176.897 143.123 176.934 143.198 176.934 143.294C176.934 143.55 176.779 143.854 176.47 144.206C176.171 144.547 175.739 144.846 175.174 145.102C174.609 145.358 173.953 145.486 173.206 145.486ZM174.95 140.43V140.398C174.95 139.768 174.79 139.267 174.47 138.894C174.161 138.51 173.734 138.318 173.19 138.318C172.646 138.318 172.219 138.51 171.91 138.894C171.601 139.267 171.446 139.768 171.446 140.398V140.43H174.95ZM182.817 141.454C182.71 141.454 182.619 141.416 182.545 141.342C182.47 141.267 182.433 141.176 182.433 141.07V139.982C182.433 139.875 182.47 139.784 182.545 139.71C182.619 139.635 182.71 139.598 182.817 139.598H187.745C187.862 139.598 187.953 139.635 188.017 139.71C188.091 139.774 188.129 139.864 188.129 139.982V141.07C188.129 141.176 188.091 141.267 188.017 141.342C187.942 141.416 187.851 141.454 187.745 141.454H182.817Z" fill="#468AF9"/>
<g opacity="0.6">
<path d="M128.423 236.844C99.0491 236.844 71.6052 225.525 50.8079 204.809C30.0105 184.093 18.6471 156.757 18.6471 127.498C18.6471 98.2399 30.0105 70.9036 50.8079 50.1877C71.6052 29.4719 99.0491 18.153 128.423 18.153C157.796 18.153 185.24 29.4719 206.037 50.1877C226.835 70.9036 238.198 98.2399 238.198 127.498C238.198 156.757 226.835 184.093 206.037 204.809C185.24 225.525 157.796 236.844 128.423 236.844ZM128.423 20.9293C99.6923 20.9293 72.8916 32.0347 52.7375 52.1098C32.5834 72.185 21.4343 99.0942 21.4343 127.498C21.4343 155.903 32.5834 182.812 52.7375 202.887C72.8916 222.962 99.9067 234.067 128.423 234.067C157.153 234.067 183.954 222.962 204.108 202.887C224.262 182.812 235.411 155.903 235.411 127.498C235.411 99.0942 224.262 72.185 204.108 52.1098C183.954 32.0347 157.153 20.9293 128.423 20.9293Z" fill="#468AF9" fill-opacity="0.6"/>
<path d="M128.423 236.844C99.0491 236.844 71.6052 225.525 50.8079 204.809C30.0105 184.093 18.6471 156.757 18.6471 127.498C18.6471 98.2399 30.0105 70.9036 50.8079 50.1877C71.6052 29.4719 99.0491 18.153 128.423 18.153C157.796 18.153 185.24 29.4719 206.037 50.1877C226.835 70.9036 238.198 98.2399 238.198 127.498C238.198 156.757 226.835 184.093 206.037 204.809C185.24 225.525 157.796 236.844 128.423 236.844ZM128.423 20.9293C99.6923 20.9293 72.8916 32.0347 52.7375 52.1098C32.5834 72.185 21.4343 99.0942 21.4343 127.498C21.4343 155.903 32.5834 182.812 52.7375 202.887C72.8916 222.962 99.9067 234.067 128.423 234.067C157.153 234.067 183.954 222.962 204.108 202.887C224.262 182.812 235.411 155.903 235.411 127.498C235.411 99.0942 224.262 72.185 204.108 52.1098C183.954 32.0347 157.153 20.9293 128.423 20.9293Z" fill="url(#paint0_linear)"/>
<path d="M128.423 222.535C102.909 222.535 78.8951 212.711 60.8851 194.772C42.875 176.832 33.0124 152.913 33.0124 127.499C33.0124 102.084 42.875 78.165 60.8851 60.2255C78.8951 42.286 102.909 32.462 128.423 32.462C153.937 32.462 177.95 42.286 195.96 60.2255C233.053 97.1723 233.053 157.611 195.96 194.558C177.95 212.711 153.937 222.535 128.423 222.535ZM128.423 33.7434C103.337 33.7434 79.7527 43.5674 61.9571 61.2934C44.1614 79.0193 34.2988 102.511 34.2988 127.499C34.2988 152.486 44.1614 176.192 61.9571 193.704C79.7527 211.43 103.337 221.254 128.423 221.254C153.508 221.254 177.093 211.43 194.888 193.704C231.552 157.184 231.552 97.5995 194.888 61.0798C177.307 43.5674 153.508 33.7434 128.423 33.7434Z" fill="#468AF9" fill-opacity="0.3"/>
<path d="M128.423 222.535C102.909 222.535 78.8951 212.711 60.8851 194.772C42.875 176.832 33.0124 152.913 33.0124 127.499C33.0124 102.084 42.875 78.165 60.8851 60.2255C78.8951 42.286 102.909 32.462 128.423 32.462C153.937 32.462 177.95 42.286 195.96 60.2255C233.053 97.1723 233.053 157.611 195.96 194.558C177.95 212.711 153.937 222.535 128.423 222.535ZM128.423 33.7434C103.337 33.7434 79.7527 43.5674 61.9571 61.2934C44.1614 79.0193 34.2988 102.511 34.2988 127.499C34.2988 152.486 44.1614 176.192 61.9571 193.704C79.7527 211.43 103.337 221.254 128.423 221.254C153.508 221.254 177.093 211.43 194.888 193.704C231.552 157.184 231.552 97.5995 194.888 61.0798C177.307 43.5674 153.508 33.7434 128.423 33.7434Z" fill="url(#paint1_linear)"/>
<path d="M128.423 209.081C106.553 209.081 85.9705 200.538 70.5333 185.161C55.0961 169.785 46.5199 149.282 46.5199 127.499C46.5199 105.715 55.0961 85.2126 70.5333 69.8359C85.9705 54.4592 106.553 45.9166 128.423 45.9166C150.292 45.9166 170.875 54.4592 186.312 69.8359C218.259 101.657 218.259 153.34 186.312 185.161C170.875 200.751 150.292 209.081 128.423 209.081ZM128.423 46.5573C106.768 46.5573 86.3993 54.8864 70.9621 70.2631C55.525 85.6398 47.1631 105.928 47.1631 127.499C47.1631 149.069 55.525 169.357 70.9621 184.734C86.3993 200.111 106.768 208.44 128.423 208.44C150.078 208.44 170.446 200.111 185.883 184.734C217.615 153.126 217.615 101.871 185.883 70.2631C170.661 55.0999 150.078 46.5573 128.423 46.5573Z" fill="#468AF9" fill-opacity="0.1"/>
<path d="M128.424 255.211C94.1188 255.211 61.958 241.969 37.9446 217.837C-12.0118 168.076 -12.0118 87.1346 37.9446 37.3739C62.1724 13.241 94.3332 0 128.424 0C162.729 0 194.889 13.241 218.903 37.3739C268.859 87.1346 268.859 168.076 218.903 217.837C194.889 241.969 162.729 255.211 128.424 255.211ZM128.424 4.912C95.6197 4.912 64.5309 17.7259 41.3751 40.791C-6.65168 88.6296 -6.65168 166.367 41.3751 214.206C64.5309 237.271 95.6197 250.085 128.424 250.085C161.228 250.085 192.316 237.271 215.472 214.206C263.499 166.367 263.499 88.6296 215.472 40.791C192.316 17.7259 161.442 4.912 128.424 4.912Z" fill="#468AF9"/>
<path d="M128.424 255.211C94.1188 255.211 61.958 241.969 37.9446 217.837C-12.0118 168.076 -12.0118 87.1346 37.9446 37.3739C62.1724 13.241 94.3332 0 128.424 0C162.729 0 194.889 13.241 218.903 37.3739C268.859 87.1346 268.859 168.076 218.903 217.837C194.889 241.969 162.729 255.211 128.424 255.211ZM128.424 4.912C95.6197 4.912 64.5309 17.7259 41.3751 40.791C-6.65168 88.6296 -6.65168 166.367 41.3751 214.206C64.5309 237.271 95.6197 250.085 128.424 250.085C161.228 250.085 192.316 237.271 215.472 214.206C263.499 166.367 263.499 88.6296 215.472 40.791C192.316 17.7259 161.442 4.912 128.424 4.912Z" fill="url(#paint2_linear)"/>
</g>
<defs>
<linearGradient id="paint0_linear" x1="128.423" y1="18.153" x2="128.423" y2="236.844" gradientUnits="userSpaceOnUse">
<stop stop-color="#562497"/>
<stop offset="1" stop-color="#0C0515" stop-opacity="0"/>
</linearGradient>
<linearGradient id="paint1_linear" x1="128.396" y1="32.462" x2="128.396" y2="222.535" gradientUnits="userSpaceOnUse">
<stop stop-color="#4A2876"/>
<stop offset="1" stop-color="#0C0515" stop-opacity="0"/>
</linearGradient>
<linearGradient id="paint2_linear" x1="128.424" y1="0" x2="128.424" y2="255.211" gradientUnits="userSpaceOnUse">
<stop offset="0.526042" stop-color="#3A0E74"/>
<stop offset="1" stop-color="#0C0515" stop-opacity="0"/>
</linearGradient>
</defs>
</svg>
