<svg width="112" height="112" viewBox="0 0 112 112" fill="none" xmlns="http://www.w3.org/2000/svg">
<path d="M111.697 57.2379C111.495 57.2379 111.294 57.0398 111.294 56.8418C111.294 56.6437 111.495 56.5447 111.697 56.5447C111.899 56.5447 112 56.7427 112 56.8418C112 57.0398 111.798 57.2379 111.697 57.2379Z" fill="#468AF9"/>
<path d="M110.285 68.9231C110.083 68.9231 109.982 68.8241 109.982 68.626C109.982 68.4279 110.083 68.3289 110.285 68.3289C110.486 68.3289 110.587 68.4279 110.587 68.626C110.587 68.8241 110.486 68.9231 110.285 68.9231Z" fill="#468AF9"/>
<path d="M106.35 80.2122C106.148 80.2122 105.946 80.0141 105.946 79.8161C105.946 79.618 106.148 79.42 106.35 79.42C106.551 79.42 106.753 79.618 106.753 79.8161C106.753 80.0141 106.551 80.2122 106.35 80.2122Z" fill="#468AF9"/>
<path d="M99.9928 90.5111C99.6901 90.5111 99.3874 90.214 99.3874 89.9169C99.3874 89.6198 99.6901 89.3228 99.9928 89.3228C100.295 89.3228 100.598 89.6198 100.598 89.9169C100.598 90.214 100.295 90.5111 99.9928 90.5111Z" fill="#468AF9"/>
<path d="M91.5171 99.2255C92.0186 99.2255 92.4252 98.8265 92.4252 98.3342C92.4252 97.842 92.0186 97.443 91.5171 97.443C91.0156 97.443 90.609 97.842 90.609 98.3342C90.609 98.8265 91.0156 99.2255 91.5171 99.2255Z" fill="#468AF9"/>
<path d="M81.3261 105.959C80.6198 105.959 80.1153 105.464 80.1153 104.771C80.1153 104.078 80.6198 103.583 81.3261 103.583C82.0324 103.583 82.5369 104.078 82.5369 104.771C82.5369 105.464 82.0324 105.959 81.3261 105.959Z" fill="#468AF9"/>
<path d="M69.9243 110.317C69.1171 110.317 68.4108 109.623 68.4108 108.831C68.4108 108.039 69.1171 107.346 69.9243 107.346C70.7315 107.346 71.4378 108.039 71.4378 108.831C71.5387 109.623 70.8324 110.317 69.9243 110.317Z" fill="#468AF9"/>
<path d="M58.018 112C57.009 112 56.3027 111.208 56.3027 110.317C56.3027 109.326 57.1099 108.633 58.018 108.633C59.027 108.633 59.7333 109.425 59.7333 110.317C59.7333 111.208 58.9261 112 58.018 112Z" fill="#468AF9"/>
<path d="M45.9099 111.01C44.9009 111.01 43.9928 110.218 43.9928 109.128C43.9928 108.138 44.8 107.247 45.9099 107.247C46.9189 107.247 47.827 108.039 47.827 109.128C47.827 110.218 47.0198 111.01 45.9099 111.01Z" fill="#468AF9"/>
<path d="M34.5081 107.445C33.3982 107.445 32.4901 106.553 32.4901 105.464C32.4901 104.375 33.3982 103.484 34.5081 103.484C35.618 103.484 36.5261 104.375 36.5261 105.464C36.5261 106.553 35.618 107.445 34.5081 107.445Z" fill="#468AF9"/>
<path d="M24.1153 101.404C22.9045 101.404 21.8955 100.414 21.8955 99.2255C21.8955 98.0371 22.9045 97.0469 24.1153 97.0469C25.3261 97.0469 26.3351 98.0371 26.3351 99.2255C26.3351 100.414 25.3261 101.404 24.1153 101.404Z" fill="#468AF9"/>
<path d="M15.4378 93.3828C14.1261 93.3828 13.1171 92.3926 13.1171 91.1052C13.1171 89.8179 14.1261 88.8276 15.4378 88.8276C16.7496 88.8276 17.7586 89.8179 17.7586 91.1052C17.7586 92.2935 16.7496 93.3828 15.4378 93.3828Z" fill="#468AF9"/>
<path d="M8.77838 83.5791C7.36577 83.5791 6.25586 82.4898 6.25586 81.1034C6.25586 79.717 7.36577 78.6277 8.77838 78.6277C10.191 78.6277 11.3009 79.717 11.3009 81.1034C11.2 82.4898 10.0901 83.5791 8.77838 83.5791Z" fill="#468AF9"/>
<path d="M4.43965 72.6861C2.92613 72.6861 1.81622 71.4978 1.81622 70.1114C1.81622 68.626 3.02703 67.5367 4.43965 67.5367C5.95316 67.5367 7.06307 68.725 7.06307 70.1114C7.16397 71.4978 5.95316 72.6861 4.43965 72.6861Z" fill="#468AF9"/>
<path d="M2.82523 61.0999C1.31171 61.0999 0 59.9116 0 58.3272C0 56.8417 1.21081 55.5544 2.82523 55.5544C4.33874 55.5544 5.65045 56.7427 5.65045 58.3272C5.65045 59.8126 4.33874 61.0999 2.82523 61.0999Z" fill="#468AF9"/>
<path d="M3.83423 49.4147C2.21982 49.4147 0.807205 48.1273 0.807205 46.4438C0.807205 44.8594 2.11892 43.473 3.83423 43.473C5.44865 43.473 6.86126 44.7604 6.86126 46.4438C6.76036 48.1273 5.44865 49.4147 3.83423 49.4147Z" fill="#468AF9"/>
<path d="M7.46667 38.3236C5.75136 38.3236 4.33875 36.9372 4.33875 35.2537C4.33875 33.5703 5.75136 32.1839 7.46667 32.1839C9.18199 32.1839 10.5946 33.5703 10.5946 35.2537C10.5946 36.9372 9.18199 38.3236 7.46667 38.3236Z" fill="#468AF9"/>
<path d="M13.5207 28.2228C15.3597 28.2228 16.8505 26.7597 16.8505 24.9549C16.8505 23.1501 15.3597 21.687 13.5207 21.687C11.6818 21.687 10.191 23.1501 10.191 24.9549C10.191 26.7597 11.6818 28.2228 13.5207 28.2228Z" fill="#468AF9"/>
<path d="M21.7946 19.8055C19.8775 19.8055 18.2631 18.221 18.2631 16.3395C18.2631 14.458 19.8775 12.8736 21.7946 12.8736C23.7117 12.8736 25.3261 14.458 25.3261 16.3395C25.3261 18.221 23.8126 19.8055 21.7946 19.8055Z" fill="#468AF9"/>
<path d="M31.7838 13.1707C29.7658 13.1707 28.1514 11.5862 28.1514 9.60567C28.1514 7.62512 29.7658 6.04068 31.7838 6.04068C33.8018 6.04068 35.4162 7.62512 35.4162 9.60567C35.4162 11.5862 33.8018 13.1707 31.7838 13.1707Z" fill="#468AF9"/>
<path d="M43.0847 8.91247C41.0667 8.91247 39.4523 7.32804 39.4523 5.34749C39.4523 3.36694 41.0667 1.7825 43.0847 1.7825C45.1027 1.7825 46.7171 3.36694 46.7171 5.34749C46.7171 7.32804 45.1027 8.91247 43.0847 8.91247Z" fill="#468AF9"/>
<path d="M54.991 6.93192C52.973 6.93192 51.4595 5.44651 51.4595 3.46596C51.4595 1.48541 52.973 0 54.991 0C56.9081 0 58.5225 1.58444 58.5225 3.46596C58.5225 5.34748 56.9081 6.93192 54.991 6.93192Z" fill="#468AF9"/>
<path d="M66.9982 7.52607C65.182 7.52607 63.6685 6.04066 63.6685 4.25817C63.6685 2.47568 65.182 0.990265 66.9982 0.990265C68.8144 0.990265 70.3279 2.47568 70.3279 4.25817C70.3279 6.13969 68.9153 7.52607 66.9982 7.52607Z" fill="#468AF9"/>
<path d="M78.6018 10.5959C76.9874 10.5959 75.6757 9.30859 75.6757 7.72415C75.6757 6.13971 76.9874 4.85236 78.6018 4.85236C80.2162 4.85236 81.5279 6.13971 81.5279 7.72415C81.5279 9.30859 80.2162 10.5959 78.6018 10.5959Z" fill="#468AF9"/>
<path d="M89.0955 15.8444C87.7838 15.8444 86.7748 14.8541 86.7748 13.5668C86.7748 12.2794 87.7838 11.2891 89.0955 11.2891C90.4072 11.2891 91.4162 12.2794 91.4162 13.5668C91.5171 14.8541 90.4072 15.8444 89.0955 15.8444Z" fill="#468AF9"/>
<path d="M98.0757 23.2714C97.1676 23.2714 96.3604 22.4792 96.3604 21.588C96.3604 20.6967 97.1676 19.9045 98.0757 19.9045C98.9838 19.9045 99.791 20.6967 99.791 21.588C99.791 22.4792 98.9838 23.2714 98.0757 23.2714Z" fill="#468AF9"/>
<path d="M105.038 32.382C104.432 32.382 103.928 31.8868 103.928 31.2927C103.928 30.6985 104.432 30.2034 105.038 30.2034C105.643 30.2034 106.148 30.6985 106.148 31.2927C106.148 31.8868 105.643 32.382 105.038 32.382Z" fill="#468AF9"/>
<path d="M109.578 42.8789C109.175 42.8789 108.872 42.5818 108.872 42.1857C108.872 41.7896 109.175 41.4925 109.578 41.4925C109.982 41.4925 110.285 41.7896 110.285 42.1857C110.285 42.5818 109.982 42.8789 109.578 42.8789Z" fill="#468AF9"/>
<path d="M111.596 54.3661C111.395 54.3661 111.193 54.168 111.193 53.97C111.193 53.7719 111.395 53.5739 111.596 53.5739C111.798 53.5739 112 53.7719 112 53.97C112 54.168 111.798 54.3661 111.596 54.3661Z" fill="#468AF9"/>
<ellipse cx="56" cy="56.9408" rx="42.8829" ry="42.0867" fill="url(#paint0_linear)"/>
<g clip-path="url(#clip0)">
<path d="M56.3712 73.2602C50.3489 73.2602 44.3472 73.2402 38.3249 73.2802C37.3555 73.2802 37.0049 72.9804 37.1081 72.0811C37.1287 71.8812 37.1287 71.6814 37.1081 71.4815C36.9431 70.4823 37.3143 70.0426 38.3868 70.2025C39.1499 70.3224 39.3974 69.9626 39.3974 69.2432C39.3561 67.4445 39.418 65.6458 39.3767 63.8471C39.3561 63.1077 39.6242 62.8678 40.3873 62.8678C42.4085 62.9078 44.4503 62.9078 46.4715 62.8678C47.2553 62.8478 47.4615 63.1276 47.4409 63.8671C47.3996 65.6258 47.4409 67.4045 47.4203 69.1632C47.3996 69.9227 47.6677 70.2624 48.4927 70.2224C49.3589 70.1825 50.2252 70.1625 51.0708 70.2224C52.102 70.3224 52.432 69.9826 52.432 68.9434C52.3907 63.6473 52.4114 58.3511 52.4114 53.055C52.4114 51.5361 52.4114 51.5361 53.9169 51.5361C55.67 51.5361 57.4231 51.5761 59.1762 51.5161C60.1455 51.4762 60.4343 51.8159 60.4136 52.7153C60.3724 58.0713 60.393 63.4474 60.393 68.8035C60.393 70.1825 60.393 70.1825 61.8161 70.2025C62.7029 70.2025 63.6104 70.1825 64.4973 70.2025C65.116 70.2224 65.3841 69.9626 65.3635 69.3831C65.3635 69.0833 65.3635 68.7835 65.3635 68.4837C65.3635 59.4503 65.3841 50.4369 65.3429 41.4036C65.3429 40.5242 65.6729 40.3443 66.4772 40.3643C68.3953 40.4043 70.334 40.4243 72.252 40.3643C73.1595 40.3243 73.4276 40.5842 73.4276 41.4835C73.3864 49.5176 73.407 57.5317 73.407 65.5659C73.407 66.8049 73.4483 68.0241 73.3864 69.2631C73.3658 70.0026 73.6339 70.3424 74.397 70.2224C75.3457 70.0825 75.7376 70.3823 75.6963 71.4016C75.6138 73.62 75.7376 73.2602 73.7164 73.2602C67.9209 73.2602 62.1461 73.2602 56.3712 73.2602Z" fill="#E7F0FF"/>
<path d="M64.0437 33.6693C62.3938 33.6693 61.0532 34.9684 61.0532 36.5672C61.0532 36.9269 61.1357 37.2867 61.2594 37.6064L53.1953 44.3815C52.7209 44.0817 52.1434 43.8818 51.5247 43.8818C49.8747 43.8818 48.5342 45.1809 48.5342 46.7797C48.5342 47.2194 48.6373 47.6591 48.8229 48.0388L41.0887 54.534C40.5938 54.1743 39.975 53.9544 39.2944 53.9544C37.6445 53.9544 36.3039 55.2535 36.3039 56.8523C36.3039 58.4511 37.6445 59.7502 39.2944 59.7502C40.9444 59.7502 42.3056 58.4511 42.3056 56.8323C42.3056 56.6125 42.285 56.3927 42.2231 56.1928L50.3079 49.4178C50.6791 49.5777 51.0916 49.6776 51.5453 49.6776C53.1953 49.6776 54.5359 48.3785 54.5359 46.7797C54.5359 46.4999 54.4946 46.2201 54.4121 45.9803L62.6 39.1053C63.0331 39.3452 63.5281 39.4651 64.0643 39.4651C65.7143 39.4651 67.0549 38.166 67.0549 36.5672C67.0549 34.9684 65.7143 33.6693 64.0437 33.6693Z" fill="#E7F0FF"/>
</g>
<defs>
<linearGradient id="paint0_linear" x1="8.07207" y1="14.8541" x2="194.739" y2="14.8541" gradientUnits="userSpaceOnUse">
<stop stop-color="#1A458C"/>
<stop offset="0.536723" stop-color="#468AF9" stop-opacity="0"/>
</linearGradient>
<clipPath id="clip0">
<rect width="39.3514" height="39.611" fill="white" transform="translate(36.3243 33.6693)"/>
</clipPath>
</defs>
</svg>
